%TF.GenerationSoftware,KiCad,Pcbnew,9.0.6*%
%TF.CreationDate,2026-05-30T01:47:23+05:30*%
%TF.ProjectId,KiCad 9 Esp32 Demo Project,4b694361-6420-4392-9045-737033322044,rev?*%
%TF.SameCoordinates,Original*%
%TF.FileFunction,Copper,L2,Inr*%
%TF.FilePolarity,Positive*%
%FSLAX46Y46*%
G04 Gerber Fmt 4.6, Leading zero omitted, Abs format (unit mm)*
G04 Created by KiCad (PCBNEW 9.0.6) date 2026-05-30 01:47:23*
%MOMM*%
%LPD*%
G01*
G04 APERTURE LIST*
%TA.AperFunction,ComponentPad*%
%ADD10R,1.700000X1.700000*%
%TD*%
%TA.AperFunction,ComponentPad*%
%ADD11C,1.700000*%
%TD*%
%TA.AperFunction,ComponentPad*%
%ADD12C,1.208000*%
%TD*%
%TA.AperFunction,ComponentPad*%
%ADD13C,0.400000*%
%TD*%
%TA.AperFunction,ComponentPad*%
%ADD14C,0.650000*%
%TD*%
%TA.AperFunction,ComponentPad*%
%ADD15O,1.050000X2.100000*%
%TD*%
%TA.AperFunction,ViaPad*%
%ADD16C,0.500000*%
%TD*%
%TA.AperFunction,ViaPad*%
%ADD17C,0.800000*%
%TD*%
%TA.AperFunction,ViaPad*%
%ADD18C,0.600000*%
%TD*%
%TA.AperFunction,Conductor*%
%ADD19C,0.254000*%
%TD*%
G04 APERTURE END LIST*
D10*
%TO.N,+3.3V*%
%TO.C,J4*%
X200560000Y-56000000D03*
D11*
%TO.N,/ESP32-C3-02/SDA*%
X198020000Y-56000000D03*
%TO.N,/ESP32-C3-02/SCL*%
X195480000Y-56000000D03*
%TO.N,GND*%
X192940000Y-56000000D03*
%TD*%
D12*
%TO.N,GND*%
%TO.C,MK1*%
X183412500Y-65550000D03*
%TO.N,Net-(C17-Pad2)*%
X183412500Y-67450000D03*
%TD*%
D13*
%TO.N,GND*%
%TO.C,U3*%
X243660000Y-66200000D03*
X244760000Y-66200000D03*
X243110000Y-66750000D03*
X244210000Y-66750000D03*
X245310000Y-66750000D03*
X243660000Y-67300000D03*
X244760000Y-67300000D03*
X243110000Y-67850000D03*
X244210000Y-67850000D03*
X245310000Y-67850000D03*
X243660000Y-68400000D03*
X244760000Y-68400000D03*
%TD*%
D14*
%TO.N,GND*%
%TO.C,J1*%
X206300000Y-97790000D03*
%TO.N,unconnected-(J1-SSTXP2-PadB2)*%
X205900000Y-98500000D03*
%TO.N,unconnected-(J1-SSTXN2-PadB3)*%
X205100000Y-98500000D03*
%TO.N,/VBUS*%
X204700000Y-97790000D03*
%TO.N,Net-(J1-CC2)*%
X204300000Y-98500000D03*
%TO.N,/USB_DP*%
X203900000Y-97790000D03*
%TO.N,/USB_DN*%
X203100000Y-97790000D03*
%TO.N,unconnected-(J1-SBU2-PadB8)*%
X202700000Y-98500000D03*
%TO.N,/VBUS*%
X202300000Y-97790000D03*
%TO.N,unconnected-(J1-SSRXN1-PadB10)*%
X201900000Y-98500000D03*
%TO.N,unconnected-(J1-SSRXP1-PadB11)*%
X201100000Y-98500000D03*
%TO.N,GND*%
X200700000Y-97790000D03*
X205500000Y-97790000D03*
X201500000Y-97790000D03*
D15*
X199230000Y-98940000D03*
X207770000Y-98940000D03*
X199230000Y-103670000D03*
X207770000Y-103670000D03*
%TD*%
D10*
%TO.N,+3.3V*%
%TO.C,J5*%
X186040000Y-56000000D03*
D11*
%TO.N,/ESP32-C3-02/GPIO8*%
X183500000Y-56000000D03*
%TO.N,/ESP32-C3-02/GPIO18*%
X180960000Y-56000000D03*
%TO.N,/ESP32-C3-02/GPIO19*%
X178420000Y-56000000D03*
%TO.N,GND*%
X175880000Y-56000000D03*
%TD*%
D16*
%TO.N,/VBUS*%
X199500000Y-92000000D03*
X200806214Y-95075000D03*
X203500000Y-94852182D03*
X199500000Y-93000000D03*
X199500000Y-91000000D03*
X206536000Y-93900000D03*
%TO.N,GND*%
X182250000Y-80500000D03*
X198500000Y-71250000D03*
X241150000Y-79750000D03*
X191750000Y-67750000D03*
X210750000Y-77250000D03*
X224000000Y-82500000D03*
X229000000Y-82412500D03*
X185000000Y-95500000D03*
X203500000Y-89750000D03*
X201000000Y-73250000D03*
X233900000Y-79900000D03*
X209250000Y-81500000D03*
X178500000Y-106100003D03*
X184750000Y-91500000D03*
X233000000Y-77000000D03*
X183250000Y-85000000D03*
X250875000Y-80625000D03*
X182250000Y-84000000D03*
X205500000Y-55250000D03*
X226825000Y-64175000D03*
X178500000Y-105500000D03*
X181750000Y-71500000D03*
X187250000Y-99250000D03*
X218000000Y-104000000D03*
X208642500Y-58000000D03*
X182250000Y-85000000D03*
X228750000Y-103750000D03*
X211750000Y-82750000D03*
X178500000Y-80000000D03*
X182250000Y-81500000D03*
X209250000Y-92250000D03*
X210500000Y-89000000D03*
X183250000Y-84000000D03*
X222750000Y-105750000D03*
X191500000Y-106250000D03*
X200250000Y-95500000D03*
X190500000Y-62000000D03*
X251000000Y-103500000D03*
X178500000Y-106700006D03*
X195000000Y-61250000D03*
X213250000Y-104750000D03*
X181500000Y-80500000D03*
X182250000Y-82750000D03*
X236000000Y-72500000D03*
X198162500Y-68200000D03*
X179500000Y-80000000D03*
X203500000Y-102750000D03*
X206250000Y-82750000D03*
X213250000Y-105750000D03*
%TO.N,+3.3V*%
X205656587Y-87843413D03*
X201250000Y-62250000D03*
X184541667Y-71750000D03*
X199000000Y-79750000D03*
X195250000Y-71250000D03*
X212250000Y-99250000D03*
X196750000Y-71250000D03*
D17*
X227101748Y-62351748D03*
D16*
X202250000Y-88250000D03*
X188500000Y-71750000D03*
X195000000Y-79750000D03*
X210750000Y-58750000D03*
X205250000Y-57500000D03*
X211250000Y-72000000D03*
X186916667Y-71750000D03*
X185333333Y-71750000D03*
X207750000Y-70500000D03*
X205000000Y-56500000D03*
X183750000Y-71750000D03*
X204000000Y-78000000D03*
X176575000Y-76575000D03*
X187708333Y-71750000D03*
X223250000Y-72000000D03*
X239000000Y-83000000D03*
X213000000Y-58750000D03*
X205500000Y-58750000D03*
X203000000Y-82749000D03*
D18*
X245000000Y-76500000D03*
D16*
X175000000Y-75500000D03*
X186125000Y-71750000D03*
%TO.N,/+5V_USB*%
X192750000Y-102500000D03*
X190250000Y-104750000D03*
X179750000Y-91500000D03*
X189500000Y-104750000D03*
X188750000Y-104750000D03*
X186750000Y-106750000D03*
X193000000Y-93000000D03*
X193000000Y-91000000D03*
X177000000Y-91500000D03*
X192750000Y-101000000D03*
X193000000Y-92000000D03*
%TO.N,/ESP32-C3-02/MIC_OUT*%
X222000000Y-65000000D03*
X231500000Y-65500000D03*
%TO.N,/ESP32-C3-02/BOOT*%
X238000000Y-71500000D03*
X230000000Y-87026000D03*
%TO.N,/ESP32-C3-02/EN*%
X229500000Y-86500000D03*
X237500000Y-63000000D03*
%TO.N,/ESP32-C3-02/SCL*%
X226500000Y-60500000D03*
X247500000Y-62750000D03*
%TO.N,/ESP32-C3-02/SDA*%
X226209310Y-61081380D03*
X241875000Y-62125000D03*
%TO.N,/ESP32-C3-02/GPIO8*%
X223025000Y-63025000D03*
X236000000Y-69500000D03*
%TO.N,/ESP32-C3-02/GPIO18*%
X236525000Y-70000000D03*
X222723000Y-63698000D03*
%TO.N,/ESP32-C3-02/GPIO19*%
X236949000Y-70525000D03*
X248500000Y-69500000D03*
X222525000Y-64317110D03*
X250500000Y-67500000D03*
%TO.N,/ESP32-C3-02/RTS*%
X201500000Y-83500000D03*
X216500000Y-97587500D03*
%TO.N,Net-(Q3-B)*%
X218000000Y-99500000D03*
X222500000Y-100500000D03*
%TO.N,/ESP32-C3-02/DTR*%
X219500000Y-96562500D03*
X202000000Y-82925000D03*
%TO.N,Net-(U1-~{TE})*%
X189000000Y-96500000D03*
X185000000Y-96500000D03*
%TO.N,Net-(U1-THERM)*%
X187500000Y-96000000D03*
X192500000Y-99500000D03*
%TO.N,/CHARGING*%
X177000000Y-96500000D03*
X191500000Y-96500000D03*
%TO.N,/CHARGED*%
X180000000Y-98500000D03*
X189500000Y-97500000D03*
%TO.N,/CHARGING_POWER_GOOD*%
X190000000Y-97000000D03*
X182500000Y-99000000D03*
%TO.N,/ESP32-C3-02/CS_SD*%
X252250000Y-76500000D03*
X253750000Y-62000000D03*
%TO.N,/ESP32-C3-02/PHOTO_C*%
X236500000Y-66500000D03*
X228500000Y-66025000D03*
%TO.N,/ESP32-C3-02/CS*%
X225125000Y-68625000D03*
X236520307Y-73268276D03*
%TO.N,/USB_DP*%
X201875000Y-94125000D03*
%TO.N,/USB_DN*%
X205449998Y-94169999D03*
%TO.N,/ESP32-C3-02/RX_TX*%
X200500000Y-84500000D03*
X250003768Y-71253768D03*
%TO.N,/ESP32-C3-02/TX_RX*%
X249475000Y-72500000D03*
X199853554Y-84973440D03*
%TD*%
D19*
%TO.N,/USB_DP*%
X201875000Y-94125000D02*
X201750000Y-94250000D01*
X203900000Y-96650000D02*
X203900000Y-97790000D01*
X201750000Y-94250000D02*
X201750000Y-94500000D01*
X201750000Y-94500000D02*
X203900000Y-96650000D01*
%TD*%
%TA.AperFunction,Conductor*%
%TO.N,GND*%
G36*
X215256061Y-53451097D02*
G01*
X215266051Y-53452080D01*
X215393824Y-53464665D01*
X215417652Y-53469404D01*
X215544277Y-53507815D01*
X215566725Y-53517114D01*
X215683406Y-53579482D01*
X215703616Y-53592986D01*
X215805891Y-53676920D01*
X215823079Y-53694108D01*
X215907012Y-53796381D01*
X215920517Y-53816593D01*
X215982883Y-53933271D01*
X215992186Y-53955728D01*
X216030593Y-54082338D01*
X216035335Y-54106180D01*
X216048903Y-54243938D01*
X216049500Y-54256092D01*
X216049500Y-58345571D01*
X216049507Y-58345638D01*
X216049507Y-58387377D01*
X216079066Y-58574009D01*
X216079067Y-58574016D01*
X216137454Y-58753717D01*
X216137456Y-58753722D01*
X216137457Y-58753723D01*
X216223244Y-58922091D01*
X216334312Y-59074965D01*
X216467929Y-59208582D01*
X216620802Y-59319652D01*
X216709460Y-59364826D01*
X216789168Y-59405440D01*
X216789171Y-59405441D01*
X216879026Y-59434636D01*
X216968883Y-59463832D01*
X217155519Y-59493393D01*
X217210118Y-59493393D01*
X253960118Y-59493393D01*
X254491339Y-59493393D01*
X254508183Y-59494541D01*
X254551636Y-59500500D01*
X254566522Y-59502541D01*
X254598747Y-59511514D01*
X254645090Y-59531483D01*
X254673741Y-59548741D01*
X254713062Y-59580371D01*
X254736061Y-59604663D01*
X254765495Y-59645653D01*
X254781160Y-59675201D01*
X254791887Y-59704386D01*
X254799500Y-59747164D01*
X254799500Y-107493907D01*
X254798903Y-107506061D01*
X254785335Y-107643819D01*
X254780593Y-107667661D01*
X254742186Y-107794271D01*
X254732883Y-107816728D01*
X254670517Y-107933406D01*
X254657012Y-107953618D01*
X254573079Y-108055891D01*
X254555891Y-108073079D01*
X254453618Y-108157012D01*
X254433406Y-108170517D01*
X254316728Y-108232883D01*
X254294271Y-108242186D01*
X254167661Y-108280593D01*
X254143819Y-108285335D01*
X254006062Y-108298903D01*
X253993908Y-108299500D01*
X173506092Y-108299500D01*
X173493938Y-108298903D01*
X173356180Y-108285335D01*
X173332340Y-108280593D01*
X173205728Y-108242186D01*
X173183271Y-108232883D01*
X173066593Y-108170517D01*
X173046381Y-108157012D01*
X172944108Y-108073079D01*
X172926920Y-108055891D01*
X172842986Y-107953616D01*
X172829482Y-107933406D01*
X172767116Y-107816728D01*
X172757815Y-107794277D01*
X172719404Y-107667652D01*
X172714665Y-107643824D01*
X172701097Y-107506060D01*
X172700500Y-107493907D01*
X172700500Y-106823920D01*
X185999499Y-106823920D01*
X186028340Y-106968907D01*
X186028343Y-106968917D01*
X186084912Y-107105488D01*
X186084919Y-107105501D01*
X186167048Y-107228415D01*
X186167051Y-107228419D01*
X186271580Y-107332948D01*
X186271584Y-107332951D01*
X186394498Y-107415080D01*
X186394511Y-107415087D01*
X186503227Y-107460118D01*
X186531087Y-107471658D01*
X186531091Y-107471658D01*
X186531092Y-107471659D01*
X186676079Y-107500500D01*
X186676082Y-107500500D01*
X186823920Y-107500500D01*
X186921462Y-107481096D01*
X186968913Y-107471658D01*
X187105495Y-107415084D01*
X187228416Y-107332951D01*
X187332951Y-107228416D01*
X187415084Y-107105495D01*
X187471658Y-106968913D01*
X187500500Y-106823918D01*
X187500500Y-106676082D01*
X187500500Y-106676079D01*
X187471659Y-106531092D01*
X187471658Y-106531091D01*
X187471658Y-106531087D01*
X187471656Y-106531082D01*
X187415087Y-106394511D01*
X187415080Y-106394498D01*
X187332951Y-106271584D01*
X187332948Y-106271580D01*
X187228419Y-106167051D01*
X187228415Y-106167048D01*
X187105501Y-106084919D01*
X187105488Y-106084912D01*
X186968917Y-106028343D01*
X186968907Y-106028340D01*
X186823920Y-105999500D01*
X186823918Y-105999500D01*
X186676082Y-105999500D01*
X186676080Y-105999500D01*
X186531092Y-106028340D01*
X186531082Y-106028343D01*
X186394511Y-106084912D01*
X186394498Y-106084919D01*
X186271584Y-106167048D01*
X186271580Y-106167051D01*
X186167051Y-106271580D01*
X186167048Y-106271584D01*
X186084919Y-106394498D01*
X186084912Y-106394511D01*
X186028343Y-106531082D01*
X186028340Y-106531092D01*
X185999500Y-106676079D01*
X185999500Y-106676082D01*
X185999500Y-106823918D01*
X185999500Y-106823920D01*
X185999499Y-106823920D01*
X172700500Y-106823920D01*
X172700500Y-104823920D01*
X187999499Y-104823920D01*
X188028340Y-104968907D01*
X188028343Y-104968917D01*
X188084912Y-105105488D01*
X188084919Y-105105501D01*
X188167048Y-105228415D01*
X188167051Y-105228419D01*
X188271580Y-105332948D01*
X188271584Y-105332951D01*
X188394498Y-105415080D01*
X188394511Y-105415087D01*
X188531082Y-105471656D01*
X188531087Y-105471658D01*
X188531091Y-105471658D01*
X188531092Y-105471659D01*
X188676079Y-105500500D01*
X188676082Y-105500500D01*
X188823920Y-105500500D01*
X188921462Y-105481096D01*
X188968913Y-105471658D01*
X189077548Y-105426659D01*
X189147016Y-105419191D01*
X189172449Y-105426658D01*
X189281087Y-105471658D01*
X189281091Y-105471658D01*
X189281092Y-105471659D01*
X189426079Y-105500500D01*
X189426082Y-105500500D01*
X189573920Y-105500500D01*
X189671462Y-105481096D01*
X189718913Y-105471658D01*
X189827548Y-105426659D01*
X189897016Y-105419191D01*
X189922449Y-105426658D01*
X190031087Y-105471658D01*
X190031091Y-105471658D01*
X190031092Y-105471659D01*
X190176079Y-105500500D01*
X190176082Y-105500500D01*
X190323920Y-105500500D01*
X190421462Y-105481096D01*
X190468913Y-105471658D01*
X190605495Y-105415084D01*
X190728416Y-105332951D01*
X190832951Y-105228416D01*
X190915084Y-105105495D01*
X190971658Y-104968913D01*
X190995630Y-104848403D01*
X191000500Y-104823920D01*
X191000500Y-104676079D01*
X190971659Y-104531092D01*
X190971658Y-104531091D01*
X190971658Y-104531087D01*
X190956289Y-104493983D01*
X190915087Y-104394511D01*
X190915080Y-104394498D01*
X190832951Y-104271584D01*
X190832948Y-104271580D01*
X190728419Y-104167051D01*
X190728415Y-104167048D01*
X190605501Y-104084919D01*
X190605488Y-104084912D01*
X190468917Y-104028343D01*
X190468907Y-104028340D01*
X190323920Y-103999500D01*
X190323918Y-103999500D01*
X190176082Y-103999500D01*
X190176080Y-103999500D01*
X190031092Y-104028340D01*
X190031082Y-104028343D01*
X189922452Y-104073339D01*
X189852983Y-104080808D01*
X189827548Y-104073339D01*
X189718917Y-104028343D01*
X189718907Y-104028340D01*
X189573920Y-103999500D01*
X189573918Y-103999500D01*
X189426082Y-103999500D01*
X189426080Y-103999500D01*
X189281092Y-104028340D01*
X189281082Y-104028343D01*
X189172452Y-104073339D01*
X189102983Y-104080808D01*
X189077548Y-104073339D01*
X188968917Y-104028343D01*
X188968907Y-104028340D01*
X188823920Y-103999500D01*
X188823918Y-103999500D01*
X188676082Y-103999500D01*
X188676080Y-103999500D01*
X188531092Y-104028340D01*
X188531082Y-104028343D01*
X188394511Y-104084912D01*
X188394498Y-104084919D01*
X188271584Y-104167048D01*
X188271580Y-104167051D01*
X188167051Y-104271580D01*
X188167048Y-104271584D01*
X188084919Y-104394498D01*
X188084912Y-104394511D01*
X188028343Y-104531082D01*
X188028340Y-104531092D01*
X187999500Y-104676079D01*
X187999500Y-104676082D01*
X187999500Y-104823918D01*
X187999500Y-104823920D01*
X187999499Y-104823920D01*
X172700500Y-104823920D01*
X172700500Y-98573920D01*
X179249499Y-98573920D01*
X179278340Y-98718907D01*
X179278343Y-98718917D01*
X179334912Y-98855488D01*
X179334919Y-98855501D01*
X179417048Y-98978415D01*
X179417051Y-98978419D01*
X179521580Y-99082948D01*
X179521584Y-99082951D01*
X179644498Y-99165080D01*
X179644511Y-99165087D01*
X179781082Y-99221656D01*
X179781087Y-99221658D01*
X179781091Y-99221658D01*
X179781092Y-99221659D01*
X179926079Y-99250500D01*
X179926082Y-99250500D01*
X180073920Y-99250500D01*
X180199357Y-99225548D01*
X180218913Y-99221658D01*
X180355495Y-99165084D01*
X180478416Y-99082951D01*
X180487447Y-99073920D01*
X181749499Y-99073920D01*
X181778340Y-99218907D01*
X181778343Y-99218917D01*
X181834912Y-99355488D01*
X181834919Y-99355501D01*
X181917048Y-99478415D01*
X181917051Y-99478419D01*
X182021580Y-99582948D01*
X182021584Y-99582951D01*
X182144498Y-99665080D01*
X182144511Y-99665087D01*
X182281082Y-99721656D01*
X182281087Y-99721658D01*
X182281091Y-99721658D01*
X182281092Y-99721659D01*
X182426079Y-99750500D01*
X182426082Y-99750500D01*
X182573920Y-99750500D01*
X182684944Y-99728415D01*
X182718913Y-99721658D01*
X182855495Y-99665084D01*
X182978416Y-99582951D01*
X182987447Y-99573920D01*
X191749499Y-99573920D01*
X191778340Y-99718907D01*
X191778343Y-99718917D01*
X191834912Y-99855488D01*
X191834919Y-99855501D01*
X191917048Y-99978415D01*
X191917051Y-99978419D01*
X192021580Y-100082948D01*
X192021584Y-100082951D01*
X192144498Y-100165080D01*
X192144502Y-100165082D01*
X192144505Y-100165084D01*
X192241865Y-100205412D01*
X192296265Y-100249250D01*
X192318331Y-100315544D01*
X192301052Y-100383243D01*
X192275801Y-100412651D01*
X192275891Y-100412741D01*
X192274709Y-100413922D01*
X192273082Y-100415818D01*
X192271586Y-100417045D01*
X192167051Y-100521580D01*
X192167048Y-100521584D01*
X192084919Y-100644498D01*
X192084912Y-100644511D01*
X192028343Y-100781082D01*
X192028340Y-100781092D01*
X191999500Y-100926079D01*
X191999500Y-100926082D01*
X191999500Y-101073918D01*
X191999500Y-101073920D01*
X191999499Y-101073920D01*
X192028340Y-101218907D01*
X192028343Y-101218917D01*
X192084912Y-101355488D01*
X192084919Y-101355501D01*
X192167048Y-101478415D01*
X192167051Y-101478419D01*
X192271580Y-101582948D01*
X192271584Y-101582951D01*
X192367286Y-101646898D01*
X192412091Y-101700511D01*
X192420798Y-101769836D01*
X192390643Y-101832863D01*
X192367286Y-101853102D01*
X192271584Y-101917048D01*
X192271580Y-101917051D01*
X192167051Y-102021580D01*
X192167048Y-102021584D01*
X192084919Y-102144498D01*
X192084912Y-102144511D01*
X192028343Y-102281082D01*
X192028340Y-102281092D01*
X191999500Y-102426079D01*
X191999500Y-102426082D01*
X191999500Y-102573918D01*
X191999500Y-102573920D01*
X191999499Y-102573920D01*
X192028340Y-102718907D01*
X192028343Y-102718917D01*
X192084912Y-102855488D01*
X192084919Y-102855501D01*
X192167048Y-102978415D01*
X192167051Y-102978419D01*
X192271580Y-103082948D01*
X192271584Y-103082951D01*
X192394498Y-103165080D01*
X192394511Y-103165087D01*
X192531082Y-103221656D01*
X192531087Y-103221658D01*
X192531091Y-103221658D01*
X192531092Y-103221659D01*
X192676079Y-103250500D01*
X192676082Y-103250500D01*
X192823920Y-103250500D01*
X192921462Y-103231096D01*
X192968913Y-103221658D01*
X193105495Y-103165084D01*
X193228416Y-103082951D01*
X193267326Y-103044041D01*
X198205000Y-103044041D01*
X198205000Y-103420000D01*
X198905000Y-103420000D01*
X198905000Y-103920000D01*
X198205000Y-103920000D01*
X198205000Y-104295958D01*
X198244387Y-104493974D01*
X198244390Y-104493983D01*
X198321652Y-104680513D01*
X198321659Y-104680526D01*
X198433829Y-104848399D01*
X198433832Y-104848403D01*
X198576596Y-104991167D01*
X198576600Y-104991170D01*
X198744473Y-105103340D01*
X198744486Y-105103347D01*
X198931016Y-105180609D01*
X198931025Y-105180612D01*
X198980000Y-105190353D01*
X198980000Y-104179618D01*
X199030446Y-104230064D01*
X199104555Y-104272851D01*
X199187213Y-104295000D01*
X199272787Y-104295000D01*
X199355445Y-104272851D01*
X199429554Y-104230064D01*
X199480000Y-104179618D01*
X199480000Y-105190352D01*
X199528974Y-105180612D01*
X199528983Y-105180609D01*
X199715513Y-105103347D01*
X199715526Y-105103340D01*
X199883399Y-104991170D01*
X199883403Y-104991167D01*
X200026167Y-104848403D01*
X200026170Y-104848399D01*
X200138340Y-104680526D01*
X200138347Y-104680513D01*
X200215609Y-104493983D01*
X200215612Y-104493974D01*
X200254999Y-104295958D01*
X200255000Y-104295955D01*
X200255000Y-103920000D01*
X199555000Y-103920000D01*
X199555000Y-103420000D01*
X200255000Y-103420000D01*
X200255000Y-103044045D01*
X200254999Y-103044041D01*
X206745000Y-103044041D01*
X206745000Y-103420000D01*
X207445000Y-103420000D01*
X207445000Y-103920000D01*
X206745000Y-103920000D01*
X206745000Y-104295958D01*
X206784387Y-104493974D01*
X206784390Y-104493983D01*
X206861652Y-104680513D01*
X206861659Y-104680526D01*
X206973829Y-104848399D01*
X206973832Y-104848403D01*
X207116596Y-104991167D01*
X207116600Y-104991170D01*
X207284473Y-105103340D01*
X207284486Y-105103347D01*
X207471016Y-105180609D01*
X207471025Y-105180612D01*
X207520000Y-105190353D01*
X207520000Y-104179618D01*
X207570446Y-104230064D01*
X207644555Y-104272851D01*
X207727213Y-104295000D01*
X207812787Y-104295000D01*
X207895445Y-104272851D01*
X207969554Y-104230064D01*
X208020000Y-104179618D01*
X208020000Y-105190352D01*
X208068974Y-105180612D01*
X208068983Y-105180609D01*
X208255513Y-105103347D01*
X208255526Y-105103340D01*
X208423399Y-104991170D01*
X208423403Y-104991167D01*
X208566167Y-104848403D01*
X208566170Y-104848399D01*
X208678340Y-104680526D01*
X208678347Y-104680513D01*
X208755609Y-104493983D01*
X208755612Y-104493974D01*
X208794999Y-104295958D01*
X208795000Y-104295955D01*
X208795000Y-103920000D01*
X208095000Y-103920000D01*
X208095000Y-103420000D01*
X208795000Y-103420000D01*
X208795000Y-103044045D01*
X208794999Y-103044041D01*
X208755612Y-102846025D01*
X208755609Y-102846016D01*
X208678347Y-102659486D01*
X208678340Y-102659473D01*
X208566170Y-102491600D01*
X208566167Y-102491596D01*
X208423403Y-102348832D01*
X208423399Y-102348829D01*
X208255526Y-102236659D01*
X208255513Y-102236652D01*
X208068984Y-102159390D01*
X208068977Y-102159388D01*
X208020000Y-102149645D01*
X208020000Y-103160382D01*
X207969554Y-103109936D01*
X207895445Y-103067149D01*
X207812787Y-103045000D01*
X207727213Y-103045000D01*
X207644555Y-103067149D01*
X207570446Y-103109936D01*
X207520000Y-103160382D01*
X207520000Y-102149646D01*
X207519999Y-102149645D01*
X207471022Y-102159388D01*
X207471015Y-102159390D01*
X207284486Y-102236652D01*
X207284473Y-102236659D01*
X207116600Y-102348829D01*
X207116596Y-102348832D01*
X206973832Y-102491596D01*
X206973829Y-102491600D01*
X206861659Y-102659473D01*
X206861652Y-102659486D01*
X206784390Y-102846016D01*
X206784387Y-102846025D01*
X206745000Y-103044041D01*
X200254999Y-103044041D01*
X200215612Y-102846025D01*
X200215609Y-102846016D01*
X200138347Y-102659486D01*
X200138340Y-102659473D01*
X200026170Y-102491600D01*
X200026167Y-102491596D01*
X199883403Y-102348832D01*
X199883399Y-102348829D01*
X199715526Y-102236659D01*
X199715513Y-102236652D01*
X199528984Y-102159390D01*
X199528977Y-102159388D01*
X199480000Y-102149645D01*
X199480000Y-103160382D01*
X199429554Y-103109936D01*
X199355445Y-103067149D01*
X199272787Y-103045000D01*
X199187213Y-103045000D01*
X199104555Y-103067149D01*
X199030446Y-103109936D01*
X198980000Y-103160382D01*
X198980000Y-102149646D01*
X198979999Y-102149645D01*
X198931022Y-102159388D01*
X198931015Y-102159390D01*
X198744486Y-102236652D01*
X198744473Y-102236659D01*
X198576600Y-102348829D01*
X198576596Y-102348832D01*
X198433832Y-102491596D01*
X198433829Y-102491600D01*
X198321659Y-102659473D01*
X198321652Y-102659486D01*
X198244390Y-102846016D01*
X198244387Y-102846025D01*
X198205000Y-103044041D01*
X193267326Y-103044041D01*
X193332951Y-102978416D01*
X193415084Y-102855495D01*
X193471658Y-102718913D01*
X193500500Y-102573918D01*
X193500500Y-102426082D01*
X193500500Y-102426079D01*
X193471659Y-102281092D01*
X193471658Y-102281091D01*
X193471658Y-102281087D01*
X193471656Y-102281082D01*
X193415087Y-102144511D01*
X193415080Y-102144498D01*
X193332951Y-102021584D01*
X193332948Y-102021580D01*
X193228419Y-101917051D01*
X193228415Y-101917048D01*
X193132713Y-101853102D01*
X193087908Y-101799490D01*
X193079201Y-101730165D01*
X193109355Y-101667138D01*
X193132713Y-101646898D01*
X193170965Y-101621338D01*
X193228416Y-101582951D01*
X193332951Y-101478416D01*
X193415084Y-101355495D01*
X193471658Y-101218913D01*
X193482366Y-101165080D01*
X193500500Y-101073920D01*
X193500500Y-100926079D01*
X193471659Y-100781092D01*
X193471658Y-100781091D01*
X193471658Y-100781087D01*
X193471656Y-100781082D01*
X193415087Y-100644511D01*
X193415080Y-100644498D01*
X193367921Y-100573920D01*
X221749499Y-100573920D01*
X221778340Y-100718907D01*
X221778343Y-100718917D01*
X221834912Y-100855488D01*
X221834919Y-100855501D01*
X221917048Y-100978415D01*
X221917051Y-100978419D01*
X222021580Y-101082948D01*
X222021584Y-101082951D01*
X222144498Y-101165080D01*
X222144511Y-101165087D01*
X222281082Y-101221656D01*
X222281087Y-101221658D01*
X222281091Y-101221658D01*
X222281092Y-101221659D01*
X222426079Y-101250500D01*
X222426082Y-101250500D01*
X222573920Y-101250500D01*
X222671462Y-101231096D01*
X222718913Y-101221658D01*
X222855495Y-101165084D01*
X222978416Y-101082951D01*
X223082951Y-100978416D01*
X223165084Y-100855495D01*
X223221658Y-100718913D01*
X223236459Y-100644505D01*
X223250500Y-100573920D01*
X223250500Y-100426079D01*
X223221659Y-100281092D01*
X223221658Y-100281091D01*
X223221658Y-100281087D01*
X223209092Y-100250749D01*
X223165087Y-100144511D01*
X223165080Y-100144498D01*
X223082951Y-100021584D01*
X223082948Y-100021580D01*
X222978419Y-99917051D01*
X222978415Y-99917048D01*
X222855501Y-99834919D01*
X222855488Y-99834912D01*
X222718917Y-99778343D01*
X222718907Y-99778340D01*
X222573920Y-99749500D01*
X222573918Y-99749500D01*
X222426082Y-99749500D01*
X222426080Y-99749500D01*
X222281092Y-99778340D01*
X222281082Y-99778343D01*
X222144511Y-99834912D01*
X222144498Y-99834919D01*
X222021584Y-99917048D01*
X222021580Y-99917051D01*
X221917051Y-100021580D01*
X221917048Y-100021584D01*
X221834919Y-100144498D01*
X221834912Y-100144511D01*
X221778343Y-100281082D01*
X221778340Y-100281092D01*
X221749500Y-100426079D01*
X221749500Y-100426082D01*
X221749500Y-100573918D01*
X221749500Y-100573920D01*
X221749499Y-100573920D01*
X193367921Y-100573920D01*
X193332951Y-100521584D01*
X193332948Y-100521580D01*
X193228419Y-100417051D01*
X193228415Y-100417048D01*
X193105501Y-100334919D01*
X193105488Y-100334912D01*
X193008137Y-100294589D01*
X192953733Y-100250749D01*
X192931668Y-100184454D01*
X192948947Y-100116755D01*
X192974200Y-100087350D01*
X192974109Y-100087259D01*
X192975309Y-100086058D01*
X192976934Y-100084167D01*
X192978410Y-100082954D01*
X192978416Y-100082951D01*
X193082951Y-99978416D01*
X193165084Y-99855495D01*
X193221658Y-99718913D01*
X193244220Y-99605488D01*
X193250500Y-99573920D01*
X193250500Y-99426079D01*
X193221659Y-99281092D01*
X193221658Y-99281091D01*
X193221658Y-99281087D01*
X193221656Y-99281082D01*
X193182310Y-99186090D01*
X193165085Y-99144508D01*
X193165084Y-99144505D01*
X193165082Y-99144502D01*
X193165080Y-99144498D01*
X193082951Y-99021584D01*
X193082948Y-99021580D01*
X192978419Y-98917051D01*
X192978415Y-98917048D01*
X192855501Y-98834919D01*
X192855488Y-98834912D01*
X192718917Y-98778343D01*
X192718907Y-98778340D01*
X192573920Y-98749500D01*
X192573918Y-98749500D01*
X192426082Y-98749500D01*
X192426080Y-98749500D01*
X192281092Y-98778340D01*
X192281082Y-98778343D01*
X192144511Y-98834912D01*
X192144498Y-98834919D01*
X192021584Y-98917048D01*
X192021580Y-98917051D01*
X191917051Y-99021580D01*
X191917048Y-99021584D01*
X191834919Y-99144498D01*
X191834912Y-99144511D01*
X191778343Y-99281082D01*
X191778340Y-99281092D01*
X191749500Y-99426079D01*
X191749500Y-99426082D01*
X191749500Y-99573918D01*
X191749500Y-99573920D01*
X191749499Y-99573920D01*
X182987447Y-99573920D01*
X183082951Y-99478416D01*
X183165084Y-99355495D01*
X183221658Y-99218913D01*
X183236458Y-99144511D01*
X183250500Y-99073920D01*
X183250500Y-98926079D01*
X183221659Y-98781092D01*
X183221658Y-98781091D01*
X183221658Y-98781087D01*
X183204966Y-98740789D01*
X183165087Y-98644511D01*
X183165080Y-98644498D01*
X183082951Y-98521584D01*
X183082948Y-98521580D01*
X182978419Y-98417051D01*
X182978415Y-98417048D01*
X182855501Y-98334919D01*
X182855488Y-98334912D01*
X182805100Y-98314041D01*
X198205000Y-98314041D01*
X198205000Y-98690000D01*
X198905000Y-98690000D01*
X198905000Y-99190000D01*
X198205000Y-99190000D01*
X198205000Y-99565958D01*
X198244387Y-99763974D01*
X198244390Y-99763983D01*
X198321652Y-99950513D01*
X198321659Y-99950526D01*
X198433829Y-100118399D01*
X198433832Y-100118403D01*
X198576596Y-100261167D01*
X198576600Y-100261170D01*
X198744473Y-100373340D01*
X198744486Y-100373347D01*
X198931016Y-100450609D01*
X198931025Y-100450612D01*
X198980000Y-100460353D01*
X198980000Y-99449618D01*
X199030446Y-99500064D01*
X199104555Y-99542851D01*
X199187213Y-99565000D01*
X199272787Y-99565000D01*
X199355445Y-99542851D01*
X199429554Y-99500064D01*
X199480000Y-99449618D01*
X199480000Y-100460352D01*
X199528974Y-100450612D01*
X199528983Y-100450609D01*
X199715513Y-100373347D01*
X199715526Y-100373340D01*
X199883399Y-100261170D01*
X199883403Y-100261167D01*
X200026167Y-100118403D01*
X200026170Y-100118399D01*
X200138340Y-99950526D01*
X200138347Y-99950513D01*
X200215609Y-99763983D01*
X200215612Y-99763974D01*
X200254999Y-99565958D01*
X200255000Y-99565955D01*
X200255000Y-99121796D01*
X200274685Y-99054757D01*
X200327489Y-99009002D01*
X200396647Y-98999058D01*
X200460203Y-99028083D01*
X200466681Y-99034115D01*
X200573771Y-99141205D01*
X200573779Y-99141211D01*
X200708976Y-99231547D01*
X200708980Y-99231549D01*
X200828577Y-99281087D01*
X200859211Y-99293776D01*
X200859215Y-99293776D01*
X200859216Y-99293777D01*
X201018692Y-99325500D01*
X201018695Y-99325500D01*
X201181307Y-99325500D01*
X201288598Y-99304157D01*
X201340789Y-99293776D01*
X201452548Y-99247483D01*
X201522016Y-99240015D01*
X201547449Y-99247482D01*
X201659211Y-99293776D01*
X201659215Y-99293776D01*
X201659216Y-99293777D01*
X201818692Y-99325500D01*
X201818695Y-99325500D01*
X201981307Y-99325500D01*
X202088598Y-99304157D01*
X202140789Y-99293776D01*
X202252548Y-99247483D01*
X202322016Y-99240015D01*
X202347449Y-99247482D01*
X202459211Y-99293776D01*
X202459215Y-99293776D01*
X202459216Y-99293777D01*
X202618692Y-99325500D01*
X202618695Y-99325500D01*
X202781307Y-99325500D01*
X202888598Y-99304157D01*
X202940789Y-99293776D01*
X203091021Y-99231548D01*
X203091023Y-99231547D01*
X203174032Y-99176082D01*
X203226225Y-99141208D01*
X203341208Y-99026225D01*
X203396898Y-98942877D01*
X203450509Y-98898074D01*
X203519834Y-98889366D01*
X203582862Y-98919520D01*
X203603099Y-98942875D01*
X203626847Y-98978415D01*
X203658793Y-99026227D01*
X203773771Y-99141205D01*
X203773779Y-99141211D01*
X203908976Y-99231547D01*
X203908980Y-99231549D01*
X204028577Y-99281087D01*
X204059211Y-99293776D01*
X204059215Y-99293776D01*
X204059216Y-99293777D01*
X204218692Y-99325500D01*
X204218695Y-99325500D01*
X204381307Y-99325500D01*
X204488598Y-99304157D01*
X204540789Y-99293776D01*
X204652548Y-99247483D01*
X204722016Y-99240015D01*
X204747449Y-99247482D01*
X204859211Y-99293776D01*
X204859215Y-99293776D01*
X204859216Y-99293777D01*
X205018692Y-99325500D01*
X205018695Y-99325500D01*
X205181307Y-99325500D01*
X205288598Y-99304157D01*
X205340789Y-99293776D01*
X205452548Y-99247483D01*
X205522016Y-99240015D01*
X205547449Y-99247482D01*
X205659211Y-99293776D01*
X205659215Y-99293776D01*
X205659216Y-99293777D01*
X205818692Y-99325500D01*
X205818695Y-99325500D01*
X205981307Y-99325500D01*
X206088598Y-99304157D01*
X206140789Y-99293776D01*
X206291021Y-99231548D01*
X206291023Y-99231547D01*
X206374032Y-99176082D01*
X206426225Y-99141208D01*
X206454483Y-99112950D01*
X206533319Y-99034115D01*
X206594642Y-99000630D01*
X206664334Y-99005614D01*
X206720267Y-99047486D01*
X206744684Y-99112950D01*
X206745000Y-99121796D01*
X206745000Y-99565958D01*
X206784387Y-99763974D01*
X206784390Y-99763983D01*
X206861652Y-99950513D01*
X206861659Y-99950526D01*
X206973829Y-100118399D01*
X206973832Y-100118403D01*
X207116596Y-100261167D01*
X207116600Y-100261170D01*
X207284473Y-100373340D01*
X207284486Y-100373347D01*
X207471016Y-100450609D01*
X207471025Y-100450612D01*
X207520000Y-100460353D01*
X207520000Y-99449618D01*
X207570446Y-99500064D01*
X207644555Y-99542851D01*
X207727213Y-99565000D01*
X207812787Y-99565000D01*
X207895445Y-99542851D01*
X207969554Y-99500064D01*
X208020000Y-99449618D01*
X208020000Y-100460352D01*
X208068974Y-100450612D01*
X208068983Y-100450609D01*
X208255513Y-100373347D01*
X208255526Y-100373340D01*
X208340013Y-100316888D01*
X208423399Y-100261170D01*
X208423403Y-100261167D01*
X208566167Y-100118403D01*
X208566170Y-100118399D01*
X208678340Y-99950526D01*
X208678347Y-99950513D01*
X208755609Y-99763983D01*
X208755612Y-99763974D01*
X208794999Y-99565958D01*
X208795000Y-99565955D01*
X208795000Y-99323920D01*
X211499499Y-99323920D01*
X211528340Y-99468907D01*
X211528343Y-99468917D01*
X211584912Y-99605488D01*
X211584919Y-99605501D01*
X211667048Y-99728415D01*
X211667051Y-99728419D01*
X211771580Y-99832948D01*
X211771584Y-99832951D01*
X211894498Y-99915080D01*
X211894511Y-99915087D01*
X212031082Y-99971656D01*
X212031087Y-99971658D01*
X212031091Y-99971658D01*
X212031092Y-99971659D01*
X212176079Y-100000500D01*
X212176082Y-100000500D01*
X212323920Y-100000500D01*
X212434944Y-99978415D01*
X212468913Y-99971658D01*
X212600751Y-99917049D01*
X212605488Y-99915087D01*
X212605488Y-99915086D01*
X212605495Y-99915084D01*
X212728416Y-99832951D01*
X212832951Y-99728416D01*
X212915084Y-99605495D01*
X212928163Y-99573920D01*
X217249499Y-99573920D01*
X217278340Y-99718907D01*
X217278343Y-99718917D01*
X217334912Y-99855488D01*
X217334919Y-99855501D01*
X217417048Y-99978415D01*
X217417051Y-99978419D01*
X217521580Y-100082948D01*
X217521584Y-100082951D01*
X217644498Y-100165080D01*
X217644511Y-100165087D01*
X217691268Y-100184454D01*
X217781087Y-100221658D01*
X217781091Y-100221658D01*
X217781092Y-100221659D01*
X217926079Y-100250500D01*
X217926082Y-100250500D01*
X218073920Y-100250500D01*
X218171462Y-100231096D01*
X218218913Y-100221658D01*
X218355495Y-100165084D01*
X218478416Y-100082951D01*
X218582951Y-99978416D01*
X218665084Y-99855495D01*
X218721658Y-99718913D01*
X218744220Y-99605488D01*
X218750500Y-99573920D01*
X218750500Y-99426079D01*
X218721659Y-99281092D01*
X218721658Y-99281091D01*
X218721658Y-99281087D01*
X218721656Y-99281082D01*
X218665087Y-99144511D01*
X218665080Y-99144498D01*
X218582951Y-99021584D01*
X218582948Y-99021580D01*
X218478419Y-98917051D01*
X218478415Y-98917048D01*
X218355501Y-98834919D01*
X218355488Y-98834912D01*
X218218917Y-98778343D01*
X218218907Y-98778340D01*
X218073920Y-98749500D01*
X218073918Y-98749500D01*
X217926082Y-98749500D01*
X217926080Y-98749500D01*
X217781092Y-98778340D01*
X217781082Y-98778343D01*
X217644511Y-98834912D01*
X217644498Y-98834919D01*
X217521584Y-98917048D01*
X217521580Y-98917051D01*
X217417051Y-99021580D01*
X217417048Y-99021584D01*
X217334919Y-99144498D01*
X217334912Y-99144511D01*
X217278343Y-99281082D01*
X217278340Y-99281092D01*
X217249500Y-99426079D01*
X217249500Y-99426082D01*
X217249500Y-99573918D01*
X217249500Y-99573920D01*
X217249499Y-99573920D01*
X212928163Y-99573920D01*
X212971658Y-99468913D01*
X212994220Y-99355488D01*
X213000500Y-99323920D01*
X213000500Y-99176079D01*
X212971659Y-99031092D01*
X212971658Y-99031091D01*
X212971658Y-99031087D01*
X212928164Y-98926082D01*
X212915087Y-98894511D01*
X212915080Y-98894498D01*
X212832951Y-98771584D01*
X212832948Y-98771580D01*
X212728419Y-98667051D01*
X212728415Y-98667048D01*
X212605501Y-98584919D01*
X212605488Y-98584912D01*
X212468917Y-98528343D01*
X212468907Y-98528340D01*
X212323920Y-98499500D01*
X212323918Y-98499500D01*
X212176082Y-98499500D01*
X212176080Y-98499500D01*
X212031092Y-98528340D01*
X212031082Y-98528343D01*
X211894511Y-98584912D01*
X211894498Y-98584919D01*
X211771584Y-98667048D01*
X211771580Y-98667051D01*
X211667051Y-98771580D01*
X211667048Y-98771584D01*
X211584919Y-98894498D01*
X211584912Y-98894511D01*
X211528343Y-99031082D01*
X211528340Y-99031092D01*
X211499500Y-99176079D01*
X211499500Y-99176082D01*
X211499500Y-99323918D01*
X211499500Y-99323920D01*
X211499499Y-99323920D01*
X208795000Y-99323920D01*
X208795000Y-99190000D01*
X208095000Y-99190000D01*
X208095000Y-98690000D01*
X208795000Y-98690000D01*
X208795000Y-98314045D01*
X208794999Y-98314041D01*
X208755612Y-98116025D01*
X208755609Y-98116016D01*
X208678347Y-97929486D01*
X208678340Y-97929473D01*
X208566170Y-97761600D01*
X208566167Y-97761596D01*
X208465991Y-97661420D01*
X215749499Y-97661420D01*
X215778340Y-97806407D01*
X215778343Y-97806417D01*
X215834912Y-97942988D01*
X215834919Y-97943001D01*
X215917048Y-98065915D01*
X215917051Y-98065919D01*
X216021580Y-98170448D01*
X216021584Y-98170451D01*
X216144498Y-98252580D01*
X216144511Y-98252587D01*
X216281082Y-98309156D01*
X216281087Y-98309158D01*
X216281091Y-98309158D01*
X216281092Y-98309159D01*
X216426079Y-98338000D01*
X216426082Y-98338000D01*
X216573920Y-98338000D01*
X216694365Y-98314041D01*
X216718913Y-98309158D01*
X216855495Y-98252584D01*
X216978416Y-98170451D01*
X217082951Y-98065916D01*
X217165084Y-97942995D01*
X217221658Y-97806413D01*
X217231277Y-97758056D01*
X217250500Y-97661420D01*
X217250500Y-97513579D01*
X217221659Y-97368592D01*
X217221658Y-97368591D01*
X217221658Y-97368587D01*
X217216232Y-97355488D01*
X217165087Y-97232011D01*
X217165080Y-97231998D01*
X217082951Y-97109084D01*
X217082948Y-97109080D01*
X216978419Y-97004551D01*
X216978415Y-97004548D01*
X216855501Y-96922419D01*
X216855488Y-96922412D01*
X216718917Y-96865843D01*
X216718907Y-96865840D01*
X216573920Y-96837000D01*
X216573918Y-96837000D01*
X216426082Y-96837000D01*
X216426080Y-96837000D01*
X216281092Y-96865840D01*
X216281082Y-96865843D01*
X216144511Y-96922412D01*
X216144498Y-96922419D01*
X216021584Y-97004548D01*
X216021580Y-97004551D01*
X215917051Y-97109080D01*
X215917048Y-97109084D01*
X215834919Y-97231998D01*
X215834912Y-97232011D01*
X215778343Y-97368582D01*
X215778340Y-97368592D01*
X215749500Y-97513579D01*
X215749500Y-97513582D01*
X215749500Y-97661418D01*
X215749500Y-97661420D01*
X215749499Y-97661420D01*
X208465991Y-97661420D01*
X208423403Y-97618832D01*
X208423397Y-97618827D01*
X208411071Y-97610591D01*
X208255526Y-97506659D01*
X208255513Y-97506652D01*
X208068984Y-97429390D01*
X208068977Y-97429388D01*
X208020000Y-97419645D01*
X208020000Y-98430382D01*
X207969554Y-98379936D01*
X207895445Y-98337149D01*
X207812787Y-98315000D01*
X207727213Y-98315000D01*
X207644555Y-98337149D01*
X207570446Y-98379936D01*
X207520000Y-98430382D01*
X207520000Y-97419646D01*
X207519999Y-97419645D01*
X207471022Y-97429388D01*
X207471015Y-97429390D01*
X207284486Y-97506652D01*
X207284475Y-97506658D01*
X207246516Y-97532022D01*
X207179838Y-97552899D01*
X207112458Y-97534414D01*
X207065769Y-97482435D01*
X207063065Y-97476372D01*
X207034980Y-97408571D01*
X206592770Y-97850782D01*
X206565303Y-97865780D01*
X206538789Y-97882434D01*
X206534878Y-97882393D01*
X206531447Y-97884267D01*
X206505267Y-97882394D01*
X206525000Y-97834755D01*
X206525000Y-97745245D01*
X206490746Y-97662548D01*
X206427452Y-97599254D01*
X206344755Y-97565000D01*
X206255245Y-97565000D01*
X206180539Y-97595943D01*
X206182403Y-97569889D01*
X206210904Y-97525542D01*
X206681427Y-97055018D01*
X206540644Y-96996704D01*
X206540636Y-96996702D01*
X206381259Y-96965000D01*
X206218740Y-96965000D01*
X206059363Y-96996702D01*
X206059351Y-96996705D01*
X205947452Y-97043055D01*
X205877983Y-97050524D01*
X205852548Y-97043055D01*
X205740648Y-96996705D01*
X205740636Y-96996702D01*
X205581259Y-96965000D01*
X205418740Y-96965000D01*
X205259363Y-96996702D01*
X205259360Y-96996703D01*
X205148103Y-97042786D01*
X205078633Y-97050254D01*
X205053199Y-97042785D01*
X204940793Y-96996225D01*
X204940783Y-96996222D01*
X204781307Y-96964500D01*
X204781305Y-96964500D01*
X204651500Y-96964500D01*
X204584461Y-96944815D01*
X204538706Y-96892011D01*
X204527500Y-96840500D01*
X204527500Y-96636420D01*
X218749499Y-96636420D01*
X218778340Y-96781407D01*
X218778343Y-96781417D01*
X218834912Y-96917988D01*
X218834919Y-96918001D01*
X218917048Y-97040915D01*
X218917051Y-97040919D01*
X219021580Y-97145448D01*
X219021584Y-97145451D01*
X219144498Y-97227580D01*
X219144511Y-97227587D01*
X219273673Y-97281087D01*
X219281087Y-97284158D01*
X219281091Y-97284158D01*
X219281092Y-97284159D01*
X219426079Y-97313000D01*
X219426082Y-97313000D01*
X219573920Y-97313000D01*
X219671462Y-97293596D01*
X219718913Y-97284158D01*
X219855495Y-97227584D01*
X219978416Y-97145451D01*
X220082951Y-97040916D01*
X220165084Y-96917995D01*
X220221658Y-96781413D01*
X220234092Y-96718907D01*
X220250500Y-96636420D01*
X220250500Y-96488579D01*
X220221659Y-96343592D01*
X220221658Y-96343591D01*
X220221658Y-96343587D01*
X220188440Y-96263391D01*
X220165087Y-96207011D01*
X220165080Y-96206998D01*
X220082951Y-96084084D01*
X220082948Y-96084080D01*
X219978419Y-95979551D01*
X219978415Y-95979548D01*
X219855501Y-95897419D01*
X219855488Y-95897412D01*
X219718917Y-95840843D01*
X219718907Y-95840840D01*
X219573920Y-95812000D01*
X219573918Y-95812000D01*
X219426082Y-95812000D01*
X219426080Y-95812000D01*
X219281092Y-95840840D01*
X219281082Y-95840843D01*
X219144511Y-95897412D01*
X219144498Y-95897419D01*
X219021584Y-95979548D01*
X219021580Y-95979551D01*
X218917051Y-96084080D01*
X218917048Y-96084084D01*
X218834919Y-96206998D01*
X218834912Y-96207011D01*
X218778343Y-96343582D01*
X218778340Y-96343592D01*
X218749500Y-96488579D01*
X218749500Y-96488582D01*
X218749500Y-96636418D01*
X218749500Y-96636420D01*
X218749499Y-96636420D01*
X204527500Y-96636420D01*
X204527500Y-96588194D01*
X204527499Y-96588192D01*
X204511286Y-96506681D01*
X204503386Y-96466970D01*
X204503385Y-96466969D01*
X204503385Y-96466965D01*
X204482710Y-96417051D01*
X204456086Y-96352773D01*
X204456079Y-96352760D01*
X204387412Y-96249993D01*
X204344417Y-96206998D01*
X204300008Y-96162589D01*
X203841958Y-95704539D01*
X203808473Y-95643216D01*
X203813457Y-95573524D01*
X203855329Y-95517591D01*
X203860749Y-95513756D01*
X203935899Y-95463541D01*
X203978416Y-95435133D01*
X204082951Y-95330598D01*
X204165084Y-95207677D01*
X204221658Y-95071095D01*
X204250500Y-94926100D01*
X204250500Y-94778264D01*
X204250500Y-94778261D01*
X204221659Y-94633274D01*
X204221658Y-94633273D01*
X204221658Y-94633269D01*
X204216848Y-94621656D01*
X204165087Y-94496693D01*
X204165080Y-94496680D01*
X204082951Y-94373766D01*
X204082948Y-94373762D01*
X203978419Y-94269233D01*
X203978415Y-94269230D01*
X203940534Y-94243919D01*
X204699497Y-94243919D01*
X204728338Y-94388906D01*
X204728341Y-94388916D01*
X204784910Y-94525487D01*
X204784917Y-94525500D01*
X204867046Y-94648414D01*
X204867049Y-94648418D01*
X204971578Y-94752947D01*
X204971582Y-94752950D01*
X205094496Y-94835079D01*
X205094509Y-94835086D01*
X205231080Y-94891655D01*
X205231085Y-94891657D01*
X205231089Y-94891657D01*
X205231090Y-94891658D01*
X205376077Y-94920499D01*
X205376080Y-94920499D01*
X205523918Y-94920499D01*
X205621460Y-94901095D01*
X205668911Y-94891657D01*
X205805493Y-94835083D01*
X205928414Y-94752950D01*
X206032949Y-94648415D01*
X206052007Y-94619891D01*
X206105617Y-94575086D01*
X206174942Y-94566377D01*
X206202557Y-94574218D01*
X206317087Y-94621658D01*
X206317091Y-94621658D01*
X206317092Y-94621659D01*
X206462079Y-94650500D01*
X206462082Y-94650500D01*
X206609920Y-94650500D01*
X206707462Y-94631096D01*
X206754913Y-94621658D01*
X206869439Y-94574220D01*
X206891488Y-94565087D01*
X206891488Y-94565086D01*
X206891495Y-94565084D01*
X207014416Y-94482951D01*
X207118951Y-94378416D01*
X207201084Y-94255495D01*
X207257658Y-94118913D01*
X207286500Y-93973918D01*
X207286500Y-93826082D01*
X207286500Y-93826079D01*
X207257659Y-93681092D01*
X207257658Y-93681091D01*
X207257658Y-93681087D01*
X207251028Y-93665080D01*
X207201087Y-93544511D01*
X207201080Y-93544498D01*
X207118951Y-93421584D01*
X207118948Y-93421580D01*
X207014419Y-93317051D01*
X207014415Y-93317048D01*
X206891501Y-93234919D01*
X206891488Y-93234912D01*
X206754917Y-93178343D01*
X206754907Y-93178340D01*
X206609920Y-93149500D01*
X206609918Y-93149500D01*
X206462082Y-93149500D01*
X206462080Y-93149500D01*
X206317092Y-93178340D01*
X206317082Y-93178343D01*
X206180511Y-93234912D01*
X206180498Y-93234919D01*
X206057584Y-93317048D01*
X206057580Y-93317051D01*
X205953051Y-93421580D01*
X205953046Y-93421586D01*
X205933988Y-93450109D01*
X205880376Y-93494913D01*
X205811051Y-93503620D01*
X205783434Y-93495778D01*
X205741518Y-93478416D01*
X205668911Y-93448341D01*
X205668905Y-93448339D01*
X205523918Y-93419499D01*
X205523916Y-93419499D01*
X205376080Y-93419499D01*
X205376078Y-93419499D01*
X205231090Y-93448339D01*
X205231080Y-93448342D01*
X205094509Y-93504911D01*
X205094496Y-93504918D01*
X204971582Y-93587047D01*
X204971578Y-93587050D01*
X204867049Y-93691579D01*
X204867046Y-93691583D01*
X204784917Y-93814497D01*
X204784910Y-93814510D01*
X204728341Y-93951081D01*
X204728338Y-93951091D01*
X204699498Y-94096078D01*
X204699498Y-94096081D01*
X204699498Y-94243917D01*
X204699498Y-94243919D01*
X204699497Y-94243919D01*
X203940534Y-94243919D01*
X203864465Y-94193091D01*
X203855500Y-94187101D01*
X203855488Y-94187094D01*
X203718917Y-94130525D01*
X203718907Y-94130522D01*
X203573920Y-94101682D01*
X203573918Y-94101682D01*
X203426082Y-94101682D01*
X203426080Y-94101682D01*
X203281092Y-94130522D01*
X203281082Y-94130525D01*
X203144511Y-94187094D01*
X203144498Y-94187101D01*
X203021584Y-94269230D01*
X203021580Y-94269233D01*
X202917051Y-94373762D01*
X202917048Y-94373766D01*
X202838425Y-94491433D01*
X202822258Y-94504943D01*
X202809633Y-94521809D01*
X202795987Y-94526898D01*
X202784812Y-94536238D01*
X202763908Y-94538863D01*
X202744169Y-94546226D01*
X202729937Y-94543130D01*
X202715487Y-94544945D01*
X202696482Y-94535852D01*
X202675896Y-94531374D01*
X202656014Y-94516490D01*
X202652460Y-94514790D01*
X202647642Y-94510223D01*
X202621466Y-94484047D01*
X202587981Y-94422724D01*
X202592965Y-94353032D01*
X202594570Y-94348951D01*
X202596658Y-94343913D01*
X202625500Y-94198918D01*
X202625500Y-94051082D01*
X202625500Y-94051079D01*
X202596659Y-93906092D01*
X202596658Y-93906091D01*
X202596658Y-93906087D01*
X202558726Y-93814510D01*
X202540087Y-93769511D01*
X202540080Y-93769498D01*
X202457951Y-93646584D01*
X202457948Y-93646580D01*
X202353419Y-93542051D01*
X202353415Y-93542048D01*
X202230501Y-93459919D01*
X202230488Y-93459912D01*
X202093917Y-93403343D01*
X202093907Y-93403340D01*
X201948920Y-93374500D01*
X201948918Y-93374500D01*
X201801082Y-93374500D01*
X201801080Y-93374500D01*
X201656092Y-93403340D01*
X201656082Y-93403343D01*
X201519511Y-93459912D01*
X201519498Y-93459919D01*
X201396584Y-93542048D01*
X201396580Y-93542051D01*
X201292051Y-93646580D01*
X201292048Y-93646584D01*
X201209919Y-93769498D01*
X201209912Y-93769511D01*
X201153343Y-93906082D01*
X201153340Y-93906092D01*
X201124500Y-94051079D01*
X201124500Y-94165928D01*
X201124420Y-94170379D01*
X201124062Y-94180343D01*
X201122500Y-94188197D01*
X201122500Y-94223838D01*
X201122420Y-94226066D01*
X201112053Y-94257190D01*
X201102815Y-94288654D01*
X201101071Y-94290164D01*
X201100342Y-94292355D01*
X201074785Y-94312942D01*
X201050011Y-94334409D01*
X201047728Y-94334737D01*
X201045930Y-94336186D01*
X201013312Y-94339685D01*
X200980853Y-94344353D01*
X200976601Y-94343624D01*
X200976459Y-94343640D01*
X200976338Y-94343579D01*
X200974309Y-94343232D01*
X200880136Y-94324500D01*
X200880132Y-94324500D01*
X200732296Y-94324500D01*
X200732294Y-94324500D01*
X200587306Y-94353340D01*
X200587296Y-94353343D01*
X200450725Y-94409912D01*
X200450712Y-94409919D01*
X200327798Y-94492048D01*
X200327794Y-94492051D01*
X200223265Y-94596580D01*
X200223262Y-94596584D01*
X200141133Y-94719498D01*
X200141126Y-94719511D01*
X200084557Y-94856082D01*
X200084554Y-94856092D01*
X200055714Y-95001079D01*
X200055714Y-95001082D01*
X200055714Y-95148918D01*
X200055714Y-95148920D01*
X200055713Y-95148920D01*
X200084554Y-95293907D01*
X200084557Y-95293917D01*
X200141126Y-95430488D01*
X200141133Y-95430501D01*
X200223262Y-95553415D01*
X200223265Y-95553419D01*
X200327794Y-95657948D01*
X200327798Y-95657951D01*
X200450712Y-95740080D01*
X200450725Y-95740087D01*
X200549697Y-95781082D01*
X200587301Y-95796658D01*
X200587305Y-95796658D01*
X200587306Y-95796659D01*
X200732293Y-95825500D01*
X200732296Y-95825500D01*
X200880134Y-95825500D01*
X200977676Y-95806096D01*
X201025127Y-95796658D01*
X201161709Y-95740084D01*
X201284630Y-95657951D01*
X201389165Y-95553416D01*
X201471298Y-95430495D01*
X201494527Y-95374413D01*
X201538365Y-95320013D01*
X201604659Y-95297947D01*
X201672359Y-95315225D01*
X201696768Y-95334187D01*
X203115400Y-96752819D01*
X203148885Y-96814142D01*
X203143901Y-96883834D01*
X203102029Y-96939767D01*
X203036565Y-96964184D01*
X203027719Y-96964500D01*
X203018693Y-96964500D01*
X202859216Y-96996222D01*
X202859210Y-96996224D01*
X202803640Y-97019242D01*
X202747451Y-97042516D01*
X202677984Y-97049985D01*
X202652550Y-97042517D01*
X202540789Y-96996224D01*
X202540783Y-96996222D01*
X202381307Y-96964500D01*
X202381305Y-96964500D01*
X202218695Y-96964500D01*
X202218693Y-96964500D01*
X202059216Y-96996222D01*
X202059215Y-96996223D01*
X202059214Y-96996223D01*
X202059211Y-96996224D01*
X202003298Y-97019384D01*
X201946799Y-97042786D01*
X201877329Y-97050254D01*
X201851895Y-97042785D01*
X201740648Y-96996705D01*
X201740636Y-96996702D01*
X201581259Y-96965000D01*
X201418740Y-96965000D01*
X201259363Y-96996702D01*
X201259351Y-96996705D01*
X201147452Y-97043055D01*
X201077983Y-97050524D01*
X201052548Y-97043055D01*
X200940648Y-96996705D01*
X200940636Y-96996702D01*
X200781259Y-96965000D01*
X200618740Y-96965000D01*
X200459363Y-96996701D01*
X200459354Y-96996704D01*
X200318571Y-97055018D01*
X200789095Y-97525541D01*
X200793433Y-97533486D01*
X200800682Y-97538913D01*
X200809916Y-97563672D01*
X200822580Y-97586864D01*
X200821934Y-97595894D01*
X200822407Y-97597164D01*
X200744755Y-97565000D01*
X200655245Y-97565000D01*
X200572548Y-97599254D01*
X200509254Y-97662548D01*
X200475000Y-97745245D01*
X200475000Y-97834755D01*
X200495352Y-97883890D01*
X200440377Y-97874467D01*
X200407229Y-97850783D01*
X199965018Y-97408571D01*
X199936934Y-97476372D01*
X199893093Y-97530775D01*
X199826799Y-97552840D01*
X199759099Y-97535561D01*
X199753482Y-97532021D01*
X199715526Y-97506659D01*
X199715513Y-97506652D01*
X199528984Y-97429390D01*
X199528977Y-97429388D01*
X199480000Y-97419645D01*
X199480000Y-98430382D01*
X199429554Y-98379936D01*
X199355445Y-98337149D01*
X199272787Y-98315000D01*
X199187213Y-98315000D01*
X199104555Y-98337149D01*
X199030446Y-98379936D01*
X198980000Y-98430382D01*
X198980000Y-97419646D01*
X198979999Y-97419645D01*
X198931022Y-97429388D01*
X198931015Y-97429390D01*
X198744486Y-97506652D01*
X198744473Y-97506659D01*
X198576600Y-97618829D01*
X198576596Y-97618832D01*
X198433832Y-97761596D01*
X198433829Y-97761600D01*
X198321659Y-97929473D01*
X198321652Y-97929486D01*
X198244390Y-98116016D01*
X198244387Y-98116025D01*
X198205000Y-98314041D01*
X182805100Y-98314041D01*
X182718917Y-98278343D01*
X182718907Y-98278340D01*
X182573920Y-98249500D01*
X182573918Y-98249500D01*
X182426082Y-98249500D01*
X182426080Y-98249500D01*
X182281092Y-98278340D01*
X182281082Y-98278343D01*
X182144511Y-98334912D01*
X182144498Y-98334919D01*
X182021584Y-98417048D01*
X182021580Y-98417051D01*
X181917051Y-98521580D01*
X181917048Y-98521584D01*
X181834919Y-98644498D01*
X181834912Y-98644511D01*
X181778343Y-98781082D01*
X181778340Y-98781092D01*
X181749500Y-98926079D01*
X181749500Y-98926082D01*
X181749500Y-99073918D01*
X181749500Y-99073920D01*
X181749499Y-99073920D01*
X180487447Y-99073920D01*
X180582951Y-98978416D01*
X180665084Y-98855495D01*
X180721658Y-98718913D01*
X180736459Y-98644505D01*
X180750500Y-98573920D01*
X180750500Y-98426079D01*
X180721659Y-98281092D01*
X180721658Y-98281091D01*
X180721658Y-98281087D01*
X180709850Y-98252580D01*
X180665087Y-98144511D01*
X180665080Y-98144498D01*
X180582951Y-98021584D01*
X180582948Y-98021580D01*
X180478419Y-97917051D01*
X180478415Y-97917048D01*
X180355501Y-97834919D01*
X180355488Y-97834912D01*
X180218917Y-97778343D01*
X180218907Y-97778340D01*
X180073920Y-97749500D01*
X180073918Y-97749500D01*
X179926082Y-97749500D01*
X179926080Y-97749500D01*
X179781092Y-97778340D01*
X179781082Y-97778343D01*
X179644511Y-97834912D01*
X179644498Y-97834919D01*
X179521584Y-97917048D01*
X179521580Y-97917051D01*
X179417051Y-98021580D01*
X179417048Y-98021584D01*
X179334919Y-98144498D01*
X179334912Y-98144511D01*
X179278343Y-98281082D01*
X179278340Y-98281092D01*
X179249500Y-98426079D01*
X179249500Y-98426082D01*
X179249500Y-98573918D01*
X179249500Y-98573920D01*
X179249499Y-98573920D01*
X172700500Y-98573920D01*
X172700500Y-96573920D01*
X176249499Y-96573920D01*
X176278340Y-96718907D01*
X176278343Y-96718917D01*
X176334912Y-96855488D01*
X176334919Y-96855501D01*
X176417048Y-96978415D01*
X176417051Y-96978419D01*
X176521580Y-97082948D01*
X176521584Y-97082951D01*
X176644498Y-97165080D01*
X176644511Y-97165087D01*
X176781082Y-97221656D01*
X176781087Y-97221658D01*
X176781091Y-97221658D01*
X176781092Y-97221659D01*
X176926079Y-97250500D01*
X176926082Y-97250500D01*
X177073920Y-97250500D01*
X177176840Y-97230027D01*
X177218913Y-97221658D01*
X177355495Y-97165084D01*
X177478416Y-97082951D01*
X177582951Y-96978416D01*
X177665084Y-96855495D01*
X177721658Y-96718913D01*
X177747660Y-96588197D01*
X177750500Y-96573920D01*
X184249499Y-96573920D01*
X184278340Y-96718907D01*
X184278343Y-96718917D01*
X184334912Y-96855488D01*
X184334919Y-96855501D01*
X184417048Y-96978415D01*
X184417051Y-96978419D01*
X184521580Y-97082948D01*
X184521584Y-97082951D01*
X184644498Y-97165080D01*
X184644511Y-97165087D01*
X184781082Y-97221656D01*
X184781087Y-97221658D01*
X184781091Y-97221658D01*
X184781092Y-97221659D01*
X184926079Y-97250500D01*
X184926082Y-97250500D01*
X185073920Y-97250500D01*
X185176840Y-97230027D01*
X185218913Y-97221658D01*
X185355495Y-97165084D01*
X185478416Y-97082951D01*
X185582951Y-96978416D01*
X185665084Y-96855495D01*
X185721658Y-96718913D01*
X185747660Y-96588197D01*
X185750500Y-96573920D01*
X185750500Y-96426079D01*
X185721659Y-96281092D01*
X185721658Y-96281091D01*
X185721658Y-96281087D01*
X185720520Y-96278340D01*
X185665087Y-96144511D01*
X185665080Y-96144498D01*
X185617921Y-96073920D01*
X186749499Y-96073920D01*
X186778340Y-96218907D01*
X186778343Y-96218917D01*
X186834912Y-96355488D01*
X186834919Y-96355501D01*
X186917048Y-96478415D01*
X186917051Y-96478419D01*
X187021580Y-96582948D01*
X187021584Y-96582951D01*
X187144498Y-96665080D01*
X187144511Y-96665087D01*
X187281082Y-96721656D01*
X187281087Y-96721658D01*
X187281091Y-96721658D01*
X187281092Y-96721659D01*
X187426079Y-96750500D01*
X187426082Y-96750500D01*
X187573920Y-96750500D01*
X187671462Y-96731096D01*
X187718913Y-96721658D01*
X187855495Y-96665084D01*
X187978416Y-96582951D01*
X188041984Y-96519382D01*
X188103305Y-96485899D01*
X188172997Y-96490883D01*
X188228931Y-96532754D01*
X188251281Y-96582873D01*
X188278340Y-96718907D01*
X188278343Y-96718917D01*
X188334912Y-96855488D01*
X188334919Y-96855501D01*
X188417048Y-96978415D01*
X188417051Y-96978419D01*
X188521580Y-97082948D01*
X188521584Y-97082951D01*
X188644498Y-97165080D01*
X188644505Y-97165084D01*
X188695454Y-97186187D01*
X188749856Y-97230027D01*
X188771922Y-97296320D01*
X188769618Y-97324939D01*
X188749500Y-97426077D01*
X188749500Y-97426082D01*
X188749500Y-97573918D01*
X188749500Y-97573920D01*
X188749499Y-97573920D01*
X188778340Y-97718907D01*
X188778343Y-97718917D01*
X188834912Y-97855488D01*
X188834919Y-97855501D01*
X188917048Y-97978415D01*
X188917051Y-97978419D01*
X189021580Y-98082948D01*
X189021584Y-98082951D01*
X189144498Y-98165080D01*
X189144511Y-98165087D01*
X189281082Y-98221656D01*
X189281087Y-98221658D01*
X189281091Y-98221658D01*
X189281092Y-98221659D01*
X189426079Y-98250500D01*
X189426082Y-98250500D01*
X189573920Y-98250500D01*
X189671462Y-98231096D01*
X189718913Y-98221658D01*
X189748036Y-98209594D01*
X189787152Y-98193393D01*
X189855488Y-98165087D01*
X189855488Y-98165086D01*
X189855495Y-98165084D01*
X189978416Y-98082951D01*
X190082951Y-97978416D01*
X190165084Y-97855495D01*
X190201199Y-97768303D01*
X190245038Y-97713904D01*
X190268296Y-97701202D01*
X190355495Y-97665084D01*
X190478416Y-97582951D01*
X190582951Y-97478416D01*
X190665084Y-97355495D01*
X190721658Y-97218913D01*
X190748718Y-97082872D01*
X190781103Y-97020963D01*
X190841818Y-96986389D01*
X190911588Y-96990128D01*
X190958016Y-97019384D01*
X191021580Y-97082948D01*
X191021584Y-97082951D01*
X191144498Y-97165080D01*
X191144511Y-97165087D01*
X191281082Y-97221656D01*
X191281087Y-97221658D01*
X191281091Y-97221658D01*
X191281092Y-97221659D01*
X191426079Y-97250500D01*
X191426082Y-97250500D01*
X191573920Y-97250500D01*
X191676840Y-97230027D01*
X191718913Y-97221658D01*
X191855495Y-97165084D01*
X191978416Y-97082951D01*
X192082951Y-96978416D01*
X192165084Y-96855495D01*
X192221658Y-96718913D01*
X192247660Y-96588197D01*
X192250500Y-96573920D01*
X192250500Y-96426079D01*
X192221659Y-96281092D01*
X192221658Y-96281091D01*
X192221658Y-96281087D01*
X192220520Y-96278340D01*
X192165087Y-96144511D01*
X192165080Y-96144498D01*
X192082951Y-96021584D01*
X192082948Y-96021580D01*
X191978419Y-95917051D01*
X191978415Y-95917048D01*
X191855501Y-95834919D01*
X191855488Y-95834912D01*
X191718917Y-95778343D01*
X191718907Y-95778340D01*
X191573920Y-95749500D01*
X191573918Y-95749500D01*
X191426082Y-95749500D01*
X191426080Y-95749500D01*
X191281092Y-95778340D01*
X191281082Y-95778343D01*
X191144511Y-95834912D01*
X191144498Y-95834919D01*
X191021584Y-95917048D01*
X191021580Y-95917051D01*
X190917051Y-96021580D01*
X190917048Y-96021584D01*
X190834919Y-96144498D01*
X190834912Y-96144511D01*
X190778343Y-96281082D01*
X190778340Y-96281092D01*
X190751281Y-96417126D01*
X190718896Y-96479037D01*
X190658180Y-96513611D01*
X190588410Y-96509870D01*
X190541983Y-96480615D01*
X190478419Y-96417051D01*
X190478415Y-96417048D01*
X190355501Y-96334919D01*
X190355488Y-96334912D01*
X190218917Y-96278343D01*
X190218907Y-96278340D01*
X190073920Y-96249500D01*
X190073918Y-96249500D01*
X189926082Y-96249500D01*
X189926079Y-96249500D01*
X189824939Y-96269618D01*
X189755348Y-96263391D01*
X189700170Y-96220528D01*
X189686189Y-96195458D01*
X189665084Y-96144505D01*
X189665080Y-96144498D01*
X189582951Y-96021584D01*
X189582948Y-96021580D01*
X189478419Y-95917051D01*
X189478415Y-95917048D01*
X189355501Y-95834919D01*
X189355488Y-95834912D01*
X189218917Y-95778343D01*
X189218907Y-95778340D01*
X189073920Y-95749500D01*
X189073918Y-95749500D01*
X188926082Y-95749500D01*
X188926080Y-95749500D01*
X188781092Y-95778340D01*
X188781082Y-95778343D01*
X188644511Y-95834912D01*
X188644498Y-95834919D01*
X188521584Y-95917048D01*
X188458016Y-95980616D01*
X188396692Y-96014100D01*
X188327001Y-96009115D01*
X188271067Y-95967244D01*
X188248718Y-95917125D01*
X188221658Y-95781087D01*
X188204674Y-95740084D01*
X188165087Y-95644511D01*
X188165080Y-95644498D01*
X188082951Y-95521584D01*
X188082948Y-95521580D01*
X187978419Y-95417051D01*
X187978415Y-95417048D01*
X187855501Y-95334919D01*
X187855488Y-95334912D01*
X187718917Y-95278343D01*
X187718907Y-95278340D01*
X187573920Y-95249500D01*
X187573918Y-95249500D01*
X187426082Y-95249500D01*
X187426080Y-95249500D01*
X187281092Y-95278340D01*
X187281082Y-95278343D01*
X187144511Y-95334912D01*
X187144498Y-95334919D01*
X187021584Y-95417048D01*
X187021580Y-95417051D01*
X186917051Y-95521580D01*
X186917048Y-95521584D01*
X186834919Y-95644498D01*
X186834912Y-95644511D01*
X186778343Y-95781082D01*
X186778340Y-95781092D01*
X186749500Y-95926079D01*
X186749500Y-95926082D01*
X186749500Y-96073918D01*
X186749500Y-96073920D01*
X186749499Y-96073920D01*
X185617921Y-96073920D01*
X185582951Y-96021584D01*
X185582948Y-96021580D01*
X185478419Y-95917051D01*
X185478415Y-95917048D01*
X185355501Y-95834919D01*
X185355488Y-95834912D01*
X185218917Y-95778343D01*
X185218907Y-95778340D01*
X185073920Y-95749500D01*
X185073918Y-95749500D01*
X184926082Y-95749500D01*
X184926080Y-95749500D01*
X184781092Y-95778340D01*
X184781082Y-95778343D01*
X184644511Y-95834912D01*
X184644498Y-95834919D01*
X184521584Y-95917048D01*
X184521580Y-95917051D01*
X184417051Y-96021580D01*
X184417048Y-96021584D01*
X184334919Y-96144498D01*
X184334912Y-96144511D01*
X184278343Y-96281082D01*
X184278340Y-96281092D01*
X184249500Y-96426079D01*
X184249500Y-96426082D01*
X184249500Y-96573918D01*
X184249500Y-96573920D01*
X184249499Y-96573920D01*
X177750500Y-96573920D01*
X177750500Y-96426079D01*
X177721659Y-96281092D01*
X177721658Y-96281091D01*
X177721658Y-96281087D01*
X177720520Y-96278340D01*
X177665087Y-96144511D01*
X177665080Y-96144498D01*
X177582951Y-96021584D01*
X177582948Y-96021580D01*
X177478419Y-95917051D01*
X177478415Y-95917048D01*
X177355501Y-95834919D01*
X177355488Y-95834912D01*
X177218917Y-95778343D01*
X177218907Y-95778340D01*
X177073920Y-95749500D01*
X177073918Y-95749500D01*
X176926082Y-95749500D01*
X176926080Y-95749500D01*
X176781092Y-95778340D01*
X176781082Y-95778343D01*
X176644511Y-95834912D01*
X176644498Y-95834919D01*
X176521584Y-95917048D01*
X176521580Y-95917051D01*
X176417051Y-96021580D01*
X176417048Y-96021584D01*
X176334919Y-96144498D01*
X176334912Y-96144511D01*
X176278343Y-96281082D01*
X176278340Y-96281092D01*
X176249500Y-96426079D01*
X176249500Y-96426082D01*
X176249500Y-96573918D01*
X176249500Y-96573920D01*
X176249499Y-96573920D01*
X172700500Y-96573920D01*
X172700500Y-91573920D01*
X176249499Y-91573920D01*
X176278340Y-91718907D01*
X176278343Y-91718917D01*
X176334912Y-91855488D01*
X176334919Y-91855501D01*
X176417048Y-91978415D01*
X176417051Y-91978419D01*
X176521580Y-92082948D01*
X176521584Y-92082951D01*
X176644498Y-92165080D01*
X176644511Y-92165087D01*
X176781082Y-92221656D01*
X176781087Y-92221658D01*
X176781091Y-92221658D01*
X176781092Y-92221659D01*
X176926079Y-92250500D01*
X176926082Y-92250500D01*
X177073920Y-92250500D01*
X177171462Y-92231096D01*
X177218913Y-92221658D01*
X177355495Y-92165084D01*
X177478416Y-92082951D01*
X177582951Y-91978416D01*
X177665084Y-91855495D01*
X177721658Y-91718913D01*
X177736459Y-91644504D01*
X177750500Y-91573920D01*
X178999499Y-91573920D01*
X179028340Y-91718907D01*
X179028343Y-91718917D01*
X179084912Y-91855488D01*
X179084919Y-91855501D01*
X179167048Y-91978415D01*
X179167051Y-91978419D01*
X179271580Y-92082948D01*
X179271584Y-92082951D01*
X179394498Y-92165080D01*
X179394511Y-92165087D01*
X179531082Y-92221656D01*
X179531087Y-92221658D01*
X179531091Y-92221658D01*
X179531092Y-92221659D01*
X179676079Y-92250500D01*
X179676082Y-92250500D01*
X179823920Y-92250500D01*
X179921462Y-92231096D01*
X179968913Y-92221658D01*
X180105495Y-92165084D01*
X180228416Y-92082951D01*
X180332951Y-91978416D01*
X180415084Y-91855495D01*
X180471658Y-91718913D01*
X180486459Y-91644504D01*
X180500500Y-91573920D01*
X180500500Y-91426079D01*
X180471659Y-91281092D01*
X180471658Y-91281091D01*
X180471658Y-91281087D01*
X180471656Y-91281082D01*
X180415087Y-91144511D01*
X180415080Y-91144498D01*
X180367921Y-91073920D01*
X192249499Y-91073920D01*
X192278340Y-91218907D01*
X192278343Y-91218917D01*
X192334912Y-91355488D01*
X192334919Y-91355501D01*
X192385439Y-91431109D01*
X192406317Y-91497787D01*
X192387832Y-91565167D01*
X192385439Y-91568891D01*
X192334919Y-91644498D01*
X192334912Y-91644511D01*
X192278343Y-91781082D01*
X192278340Y-91781092D01*
X192249500Y-91926079D01*
X192249500Y-91926082D01*
X192249500Y-92073918D01*
X192249500Y-92073920D01*
X192249499Y-92073920D01*
X192278340Y-92218907D01*
X192278343Y-92218917D01*
X192334912Y-92355488D01*
X192334919Y-92355501D01*
X192385439Y-92431109D01*
X192406317Y-92497787D01*
X192387832Y-92565167D01*
X192385439Y-92568891D01*
X192334919Y-92644498D01*
X192334912Y-92644511D01*
X192278343Y-92781082D01*
X192278340Y-92781092D01*
X192249500Y-92926079D01*
X192249500Y-92926082D01*
X192249500Y-93073918D01*
X192249500Y-93073920D01*
X192249499Y-93073920D01*
X192278340Y-93218907D01*
X192278343Y-93218917D01*
X192334912Y-93355488D01*
X192334919Y-93355501D01*
X192417048Y-93478415D01*
X192417051Y-93478419D01*
X192521580Y-93582948D01*
X192521584Y-93582951D01*
X192644498Y-93665080D01*
X192644511Y-93665087D01*
X192708479Y-93691583D01*
X192781087Y-93721658D01*
X192781091Y-93721658D01*
X192781092Y-93721659D01*
X192926079Y-93750500D01*
X192926082Y-93750500D01*
X193073920Y-93750500D01*
X193171462Y-93731096D01*
X193218913Y-93721658D01*
X193355495Y-93665084D01*
X193478416Y-93582951D01*
X193582951Y-93478416D01*
X193665084Y-93355495D01*
X193721658Y-93218913D01*
X193731096Y-93171462D01*
X193750500Y-93073920D01*
X193750500Y-92926079D01*
X193721659Y-92781092D01*
X193721658Y-92781091D01*
X193721658Y-92781087D01*
X193721656Y-92781082D01*
X193665087Y-92644511D01*
X193665083Y-92644504D01*
X193665079Y-92644498D01*
X193614559Y-92568888D01*
X193593682Y-92502214D01*
X193612166Y-92434834D01*
X193614531Y-92431151D01*
X193665084Y-92355495D01*
X193721658Y-92218913D01*
X193732366Y-92165080D01*
X193750500Y-92073920D01*
X193750500Y-91926079D01*
X193721659Y-91781092D01*
X193721658Y-91781091D01*
X193721658Y-91781087D01*
X193721656Y-91781082D01*
X193665087Y-91644511D01*
X193665083Y-91644504D01*
X193665079Y-91644498D01*
X193614559Y-91568888D01*
X193593682Y-91502214D01*
X193612166Y-91434834D01*
X193614531Y-91431151D01*
X193665084Y-91355495D01*
X193721658Y-91218913D01*
X193736459Y-91144505D01*
X193750500Y-91073920D01*
X198749499Y-91073920D01*
X198778340Y-91218907D01*
X198778343Y-91218917D01*
X198834912Y-91355488D01*
X198834919Y-91355501D01*
X198885439Y-91431109D01*
X198906317Y-91497787D01*
X198887832Y-91565167D01*
X198885439Y-91568891D01*
X198834919Y-91644498D01*
X198834912Y-91644511D01*
X198778343Y-91781082D01*
X198778340Y-91781092D01*
X198749500Y-91926079D01*
X198749500Y-91926082D01*
X198749500Y-92073918D01*
X198749500Y-92073920D01*
X198749499Y-92073920D01*
X198778340Y-92218907D01*
X198778343Y-92218917D01*
X198834912Y-92355488D01*
X198834919Y-92355501D01*
X198885439Y-92431109D01*
X198906317Y-92497787D01*
X198887832Y-92565167D01*
X198885439Y-92568891D01*
X198834919Y-92644498D01*
X198834912Y-92644511D01*
X198778343Y-92781082D01*
X198778340Y-92781092D01*
X198749500Y-92926079D01*
X198749500Y-92926082D01*
X198749500Y-93073918D01*
X198749500Y-93073920D01*
X198749499Y-93073920D01*
X198778340Y-93218907D01*
X198778343Y-93218917D01*
X198834912Y-93355488D01*
X198834919Y-93355501D01*
X198917048Y-93478415D01*
X198917051Y-93478419D01*
X199021580Y-93582948D01*
X199021584Y-93582951D01*
X199144498Y-93665080D01*
X199144511Y-93665087D01*
X199208479Y-93691583D01*
X199281087Y-93721658D01*
X199281091Y-93721658D01*
X199281092Y-93721659D01*
X199426079Y-93750500D01*
X199426082Y-93750500D01*
X199573920Y-93750500D01*
X199671462Y-93731096D01*
X199718913Y-93721658D01*
X199855495Y-93665084D01*
X199978416Y-93582951D01*
X200082951Y-93478416D01*
X200165084Y-93355495D01*
X200221658Y-93218913D01*
X200231096Y-93171462D01*
X200250500Y-93073920D01*
X200250500Y-92926079D01*
X200221659Y-92781092D01*
X200221658Y-92781091D01*
X200221658Y-92781087D01*
X200221656Y-92781082D01*
X200165087Y-92644511D01*
X200165083Y-92644504D01*
X200165079Y-92644498D01*
X200114559Y-92568888D01*
X200093682Y-92502214D01*
X200112166Y-92434834D01*
X200114531Y-92431151D01*
X200165084Y-92355495D01*
X200221658Y-92218913D01*
X200232366Y-92165080D01*
X200250500Y-92073920D01*
X200250500Y-91926079D01*
X200221659Y-91781092D01*
X200221658Y-91781091D01*
X200221658Y-91781087D01*
X200221656Y-91781082D01*
X200165087Y-91644511D01*
X200165083Y-91644504D01*
X200165079Y-91644498D01*
X200114559Y-91568888D01*
X200093682Y-91502214D01*
X200112166Y-91434834D01*
X200114531Y-91431151D01*
X200165084Y-91355495D01*
X200221658Y-91218913D01*
X200236459Y-91144505D01*
X200250500Y-91073920D01*
X200250500Y-90926079D01*
X200221659Y-90781092D01*
X200221658Y-90781091D01*
X200221658Y-90781087D01*
X200208574Y-90749500D01*
X200165087Y-90644511D01*
X200165080Y-90644498D01*
X200082951Y-90521584D01*
X200082948Y-90521580D01*
X199978419Y-90417051D01*
X199978415Y-90417048D01*
X199855501Y-90334919D01*
X199855488Y-90334912D01*
X199718917Y-90278343D01*
X199718907Y-90278340D01*
X199573920Y-90249500D01*
X199573918Y-90249500D01*
X199426082Y-90249500D01*
X199426080Y-90249500D01*
X199281092Y-90278340D01*
X199281082Y-90278343D01*
X199144511Y-90334912D01*
X199144498Y-90334919D01*
X199021584Y-90417048D01*
X199021580Y-90417051D01*
X198917051Y-90521580D01*
X198917048Y-90521584D01*
X198834919Y-90644498D01*
X198834912Y-90644511D01*
X198778343Y-90781082D01*
X198778340Y-90781092D01*
X198749500Y-90926079D01*
X198749500Y-90926082D01*
X198749500Y-91073918D01*
X198749500Y-91073920D01*
X198749499Y-91073920D01*
X193750500Y-91073920D01*
X193750500Y-90926079D01*
X193721659Y-90781092D01*
X193721658Y-90781091D01*
X193721658Y-90781087D01*
X193708574Y-90749500D01*
X193665087Y-90644511D01*
X193665080Y-90644498D01*
X193582951Y-90521584D01*
X193582948Y-90521580D01*
X193478419Y-90417051D01*
X193478415Y-90417048D01*
X193355501Y-90334919D01*
X193355488Y-90334912D01*
X193218917Y-90278343D01*
X193218907Y-90278340D01*
X193073920Y-90249500D01*
X193073918Y-90249500D01*
X192926082Y-90249500D01*
X192926080Y-90249500D01*
X192781092Y-90278340D01*
X192781082Y-90278343D01*
X192644511Y-90334912D01*
X192644498Y-90334919D01*
X192521584Y-90417048D01*
X192521580Y-90417051D01*
X192417051Y-90521580D01*
X192417048Y-90521584D01*
X192334919Y-90644498D01*
X192334912Y-90644511D01*
X192278343Y-90781082D01*
X192278340Y-90781092D01*
X192249500Y-90926079D01*
X192249500Y-90926082D01*
X192249500Y-91073918D01*
X192249500Y-91073920D01*
X192249499Y-91073920D01*
X180367921Y-91073920D01*
X180332951Y-91021584D01*
X180332948Y-91021580D01*
X180228419Y-90917051D01*
X180228415Y-90917048D01*
X180105501Y-90834919D01*
X180105488Y-90834912D01*
X179968917Y-90778343D01*
X179968907Y-90778340D01*
X179823920Y-90749500D01*
X179823918Y-90749500D01*
X179676082Y-90749500D01*
X179676080Y-90749500D01*
X179531092Y-90778340D01*
X179531082Y-90778343D01*
X179394511Y-90834912D01*
X179394498Y-90834919D01*
X179271584Y-90917048D01*
X179271580Y-90917051D01*
X179167051Y-91021580D01*
X179167048Y-91021584D01*
X179084919Y-91144498D01*
X179084912Y-91144511D01*
X179028343Y-91281082D01*
X179028340Y-91281092D01*
X178999500Y-91426079D01*
X178999500Y-91426082D01*
X178999500Y-91573918D01*
X178999500Y-91573920D01*
X178999499Y-91573920D01*
X177750500Y-91573920D01*
X177750500Y-91426079D01*
X177721659Y-91281092D01*
X177721658Y-91281091D01*
X177721658Y-91281087D01*
X177721656Y-91281082D01*
X177665087Y-91144511D01*
X177665080Y-91144498D01*
X177582951Y-91021584D01*
X177582948Y-91021580D01*
X177478419Y-90917051D01*
X177478415Y-90917048D01*
X177355501Y-90834919D01*
X177355488Y-90834912D01*
X177218917Y-90778343D01*
X177218907Y-90778340D01*
X177073920Y-90749500D01*
X177073918Y-90749500D01*
X176926082Y-90749500D01*
X176926080Y-90749500D01*
X176781092Y-90778340D01*
X176781082Y-90778343D01*
X176644511Y-90834912D01*
X176644498Y-90834919D01*
X176521584Y-90917048D01*
X176521580Y-90917051D01*
X176417051Y-91021580D01*
X176417048Y-91021584D01*
X176334919Y-91144498D01*
X176334912Y-91144511D01*
X176278343Y-91281082D01*
X176278340Y-91281092D01*
X176249500Y-91426079D01*
X176249500Y-91426082D01*
X176249500Y-91573918D01*
X176249500Y-91573920D01*
X176249499Y-91573920D01*
X172700500Y-91573920D01*
X172700500Y-88323920D01*
X201499499Y-88323920D01*
X201528340Y-88468907D01*
X201528343Y-88468917D01*
X201584912Y-88605488D01*
X201584919Y-88605501D01*
X201667048Y-88728415D01*
X201667051Y-88728419D01*
X201771580Y-88832948D01*
X201771584Y-88832951D01*
X201894498Y-88915080D01*
X201894511Y-88915087D01*
X202031082Y-88971656D01*
X202031087Y-88971658D01*
X202031091Y-88971658D01*
X202031092Y-88971659D01*
X202176079Y-89000500D01*
X202176082Y-89000500D01*
X202323920Y-89000500D01*
X202421462Y-88981096D01*
X202468913Y-88971658D01*
X202605495Y-88915084D01*
X202728416Y-88832951D01*
X202832951Y-88728416D01*
X202915084Y-88605495D01*
X202971658Y-88468913D01*
X203000500Y-88323918D01*
X203000500Y-88176082D01*
X203000500Y-88176079D01*
X202971659Y-88031092D01*
X202971658Y-88031091D01*
X202971658Y-88031087D01*
X202924540Y-87917333D01*
X204906086Y-87917333D01*
X204934927Y-88062320D01*
X204934930Y-88062330D01*
X204991499Y-88198901D01*
X204991506Y-88198914D01*
X205073635Y-88321828D01*
X205073638Y-88321832D01*
X205178167Y-88426361D01*
X205178171Y-88426364D01*
X205301085Y-88508493D01*
X205301098Y-88508500D01*
X205437669Y-88565069D01*
X205437674Y-88565071D01*
X205437678Y-88565071D01*
X205437679Y-88565072D01*
X205582666Y-88593913D01*
X205582669Y-88593913D01*
X205730507Y-88593913D01*
X205828049Y-88574509D01*
X205875500Y-88565071D01*
X206012082Y-88508497D01*
X206135003Y-88426364D01*
X206239538Y-88321829D01*
X206321671Y-88198908D01*
X206378245Y-88062326D01*
X206407087Y-87917331D01*
X206407087Y-87769495D01*
X206407087Y-87769492D01*
X206378246Y-87624505D01*
X206378245Y-87624504D01*
X206378245Y-87624500D01*
X206378243Y-87624495D01*
X206321674Y-87487924D01*
X206321667Y-87487911D01*
X206239538Y-87364997D01*
X206239535Y-87364993D01*
X206135006Y-87260464D01*
X206135002Y-87260461D01*
X206012088Y-87178332D01*
X206012075Y-87178325D01*
X205875504Y-87121756D01*
X205875494Y-87121753D01*
X205730507Y-87092913D01*
X205730505Y-87092913D01*
X205582669Y-87092913D01*
X205582667Y-87092913D01*
X205437679Y-87121753D01*
X205437669Y-87121756D01*
X205301098Y-87178325D01*
X205301085Y-87178332D01*
X205178171Y-87260461D01*
X205178167Y-87260464D01*
X205073638Y-87364993D01*
X205073635Y-87364997D01*
X204991506Y-87487911D01*
X204991499Y-87487924D01*
X204934930Y-87624495D01*
X204934927Y-87624505D01*
X204906087Y-87769492D01*
X204906087Y-87769495D01*
X204906087Y-87917331D01*
X204906087Y-87917333D01*
X204906086Y-87917333D01*
X202924540Y-87917333D01*
X202924539Y-87917331D01*
X202915087Y-87894511D01*
X202915081Y-87894500D01*
X202873516Y-87832293D01*
X202873515Y-87832292D01*
X202832951Y-87771584D01*
X202832948Y-87771580D01*
X202728419Y-87667051D01*
X202728415Y-87667048D01*
X202605501Y-87584919D01*
X202605488Y-87584912D01*
X202468917Y-87528343D01*
X202468907Y-87528340D01*
X202323920Y-87499500D01*
X202323918Y-87499500D01*
X202176082Y-87499500D01*
X202176080Y-87499500D01*
X202031092Y-87528340D01*
X202031082Y-87528343D01*
X201894511Y-87584912D01*
X201894498Y-87584919D01*
X201771584Y-87667048D01*
X201771580Y-87667051D01*
X201667051Y-87771580D01*
X201667048Y-87771584D01*
X201584919Y-87894498D01*
X201584912Y-87894511D01*
X201528343Y-88031082D01*
X201528340Y-88031092D01*
X201499500Y-88176079D01*
X201499500Y-88176082D01*
X201499500Y-88323918D01*
X201499500Y-88323920D01*
X201499499Y-88323920D01*
X172700500Y-88323920D01*
X172700500Y-86573920D01*
X228749499Y-86573920D01*
X228778340Y-86718907D01*
X228778343Y-86718917D01*
X228834912Y-86855488D01*
X228834919Y-86855501D01*
X228917048Y-86978415D01*
X228917051Y-86978419D01*
X229021580Y-87082948D01*
X229021588Y-87082954D01*
X229144494Y-87165077D01*
X229144497Y-87165078D01*
X229144505Y-87165084D01*
X229144511Y-87165086D01*
X229144512Y-87165087D01*
X229218692Y-87195813D01*
X229273096Y-87239653D01*
X229285801Y-87262921D01*
X229334914Y-87381492D01*
X229334919Y-87381501D01*
X229417048Y-87504415D01*
X229417051Y-87504419D01*
X229521580Y-87608948D01*
X229521584Y-87608951D01*
X229644498Y-87691080D01*
X229644511Y-87691087D01*
X229781082Y-87747656D01*
X229781087Y-87747658D01*
X229781091Y-87747658D01*
X229781092Y-87747659D01*
X229926079Y-87776500D01*
X229926082Y-87776500D01*
X230073920Y-87776500D01*
X230171462Y-87757096D01*
X230218913Y-87747658D01*
X230355495Y-87691084D01*
X230478416Y-87608951D01*
X230582951Y-87504416D01*
X230665084Y-87381495D01*
X230721658Y-87244913D01*
X230734903Y-87178329D01*
X230750500Y-87099920D01*
X230750500Y-86952079D01*
X230721659Y-86807092D01*
X230721658Y-86807091D01*
X230721658Y-86807087D01*
X230685137Y-86718917D01*
X230665087Y-86670511D01*
X230665080Y-86670498D01*
X230582951Y-86547584D01*
X230582948Y-86547580D01*
X230478419Y-86443051D01*
X230478415Y-86443048D01*
X230355501Y-86360919D01*
X230355491Y-86360914D01*
X230281305Y-86330185D01*
X230226902Y-86286344D01*
X230214199Y-86263080D01*
X230165084Y-86144505D01*
X230165082Y-86144502D01*
X230165080Y-86144498D01*
X230082951Y-86021584D01*
X230082948Y-86021580D01*
X229978419Y-85917051D01*
X229978415Y-85917048D01*
X229855501Y-85834919D01*
X229855488Y-85834912D01*
X229718917Y-85778343D01*
X229718907Y-85778340D01*
X229573920Y-85749500D01*
X229573918Y-85749500D01*
X229426082Y-85749500D01*
X229426080Y-85749500D01*
X229281092Y-85778340D01*
X229281082Y-85778343D01*
X229144511Y-85834912D01*
X229144498Y-85834919D01*
X229021584Y-85917048D01*
X229021580Y-85917051D01*
X228917051Y-86021580D01*
X228917048Y-86021584D01*
X228834919Y-86144498D01*
X228834912Y-86144511D01*
X228778343Y-86281082D01*
X228778340Y-86281092D01*
X228749500Y-86426079D01*
X228749500Y-86426082D01*
X228749500Y-86573918D01*
X228749500Y-86573920D01*
X228749499Y-86573920D01*
X172700500Y-86573920D01*
X172700500Y-84885837D01*
X174549500Y-84885837D01*
X174549500Y-85114162D01*
X174585215Y-85339660D01*
X174655770Y-85556803D01*
X174726236Y-85695099D01*
X174759421Y-85760228D01*
X174893621Y-85944937D01*
X175055063Y-86106379D01*
X175239772Y-86240579D01*
X175329591Y-86286344D01*
X175443196Y-86344229D01*
X175443198Y-86344229D01*
X175443201Y-86344231D01*
X175559592Y-86382049D01*
X175660339Y-86414784D01*
X175885838Y-86450500D01*
X175885843Y-86450500D01*
X176114162Y-86450500D01*
X176339660Y-86414784D01*
X176556799Y-86344231D01*
X176760228Y-86240579D01*
X176944937Y-86106379D01*
X177106379Y-85944937D01*
X177240579Y-85760228D01*
X177344231Y-85556799D01*
X177414784Y-85339660D01*
X177427041Y-85262274D01*
X177450500Y-85114162D01*
X177450500Y-85047360D01*
X199103053Y-85047360D01*
X199131894Y-85192347D01*
X199131897Y-85192357D01*
X199188466Y-85328928D01*
X199188473Y-85328941D01*
X199270602Y-85451855D01*
X199270605Y-85451859D01*
X199375134Y-85556388D01*
X199375138Y-85556391D01*
X199498052Y-85638520D01*
X199498065Y-85638527D01*
X199634636Y-85695096D01*
X199634641Y-85695098D01*
X199634645Y-85695098D01*
X199634646Y-85695099D01*
X199779633Y-85723940D01*
X199779636Y-85723940D01*
X199927474Y-85723940D01*
X200025016Y-85704536D01*
X200072467Y-85695098D01*
X200209049Y-85638524D01*
X200331970Y-85556391D01*
X200436505Y-85451856D01*
X200518638Y-85328935D01*
X200523715Y-85316677D01*
X200567553Y-85262274D01*
X200614086Y-85242510D01*
X200630051Y-85239334D01*
X200718913Y-85221658D01*
X200855495Y-85165084D01*
X200978416Y-85082951D01*
X201082951Y-84978416D01*
X201165084Y-84855495D01*
X201221658Y-84718913D01*
X201250500Y-84573918D01*
X201250500Y-84426082D01*
X201243107Y-84388916D01*
X201249333Y-84319325D01*
X201292196Y-84264147D01*
X201358085Y-84240902D01*
X201388915Y-84243106D01*
X201409318Y-84247165D01*
X201426081Y-84250500D01*
X201426082Y-84250500D01*
X201573920Y-84250500D01*
X201672306Y-84230929D01*
X201718913Y-84221658D01*
X201855495Y-84165084D01*
X201978416Y-84082951D01*
X202082951Y-83978416D01*
X202144624Y-83886115D01*
X227349500Y-83886115D01*
X227349500Y-84038884D01*
X227379300Y-84188697D01*
X227379302Y-84188705D01*
X227437759Y-84329834D01*
X227437764Y-84329843D01*
X227522629Y-84456851D01*
X227522632Y-84456855D01*
X227630644Y-84564867D01*
X227630648Y-84564870D01*
X227757656Y-84649735D01*
X227757665Y-84649740D01*
X227783256Y-84660340D01*
X227898795Y-84708198D01*
X228048615Y-84737999D01*
X228048619Y-84738000D01*
X228048620Y-84738000D01*
X228201381Y-84738000D01*
X228201382Y-84737999D01*
X228351205Y-84708198D01*
X228492337Y-84649739D01*
X228619352Y-84564870D01*
X228727370Y-84456852D01*
X228812239Y-84329837D01*
X228870698Y-84188705D01*
X228900500Y-84038880D01*
X228900500Y-83886120D01*
X228895601Y-83861492D01*
X248099500Y-83861492D01*
X248099500Y-84063507D01*
X248138907Y-84261619D01*
X248138909Y-84261627D01*
X248216212Y-84448252D01*
X248216217Y-84448262D01*
X248328441Y-84616218D01*
X248471281Y-84759058D01*
X248639237Y-84871282D01*
X248639241Y-84871284D01*
X248639244Y-84871286D01*
X248825873Y-84948591D01*
X248975810Y-84978415D01*
X249023992Y-84987999D01*
X249023996Y-84988000D01*
X249023997Y-84988000D01*
X249226004Y-84988000D01*
X249226005Y-84987999D01*
X249424127Y-84948591D01*
X249610756Y-84871286D01*
X249778718Y-84759058D01*
X249921558Y-84616218D01*
X250033786Y-84448256D01*
X250111091Y-84261627D01*
X250150500Y-84063503D01*
X250150500Y-83861497D01*
X250111091Y-83663373D01*
X250033786Y-83476744D01*
X250033784Y-83476741D01*
X250033782Y-83476737D01*
X249921558Y-83308781D01*
X249778718Y-83165941D01*
X249610762Y-83053717D01*
X249610752Y-83053712D01*
X249424127Y-82976409D01*
X249424119Y-82976407D01*
X249226007Y-82937000D01*
X249226003Y-82937000D01*
X249023997Y-82937000D01*
X249023992Y-82937000D01*
X248825880Y-82976407D01*
X248825872Y-82976409D01*
X248639247Y-83053712D01*
X248639237Y-83053717D01*
X248471281Y-83165941D01*
X248328441Y-83308781D01*
X248216217Y-83476737D01*
X248216212Y-83476747D01*
X248138909Y-83663372D01*
X248138907Y-83663380D01*
X248099500Y-83861492D01*
X228895601Y-83861492D01*
X228870698Y-83736295D01*
X228812239Y-83595163D01*
X228812238Y-83595162D01*
X228812235Y-83595156D01*
X228727370Y-83468148D01*
X228727367Y-83468144D01*
X228619355Y-83360132D01*
X228619351Y-83360129D01*
X228492343Y-83275264D01*
X228492334Y-83275259D01*
X228351205Y-83216802D01*
X228351197Y-83216800D01*
X228201384Y-83187000D01*
X228201380Y-83187000D01*
X228048620Y-83187000D01*
X228048615Y-83187000D01*
X227898802Y-83216800D01*
X227898794Y-83216802D01*
X227757665Y-83275259D01*
X227757656Y-83275264D01*
X227630648Y-83360129D01*
X227630644Y-83360132D01*
X227522632Y-83468144D01*
X227522629Y-83468148D01*
X227437764Y-83595156D01*
X227437759Y-83595165D01*
X227379302Y-83736294D01*
X227379300Y-83736302D01*
X227349500Y-83886115D01*
X202144624Y-83886115D01*
X202165084Y-83855495D01*
X202221658Y-83718913D01*
X202226617Y-83693979D01*
X202230187Y-83684486D01*
X202245340Y-83664354D01*
X202257020Y-83642026D01*
X202267544Y-83634857D01*
X202272207Y-83628663D01*
X202281905Y-83625074D01*
X202298799Y-83613567D01*
X202355495Y-83590084D01*
X202478416Y-83507951D01*
X202534851Y-83451515D01*
X202596172Y-83418032D01*
X202665864Y-83423016D01*
X202669949Y-83424623D01*
X202781087Y-83470658D01*
X202781091Y-83470658D01*
X202781092Y-83470659D01*
X202926079Y-83499500D01*
X202926082Y-83499500D01*
X203073920Y-83499500D01*
X203188317Y-83476744D01*
X203218913Y-83470658D01*
X203355495Y-83414084D01*
X203478416Y-83331951D01*
X203582951Y-83227416D01*
X203665084Y-83104495D01*
X203677749Y-83073920D01*
X238249499Y-83073920D01*
X238278340Y-83218907D01*
X238278343Y-83218917D01*
X238334912Y-83355488D01*
X238334919Y-83355501D01*
X238417048Y-83478415D01*
X238417051Y-83478419D01*
X238521580Y-83582948D01*
X238521584Y-83582951D01*
X238644498Y-83665080D01*
X238644511Y-83665087D01*
X238774460Y-83718913D01*
X238781087Y-83721658D01*
X238781091Y-83721658D01*
X238781092Y-83721659D01*
X238926079Y-83750500D01*
X238926082Y-83750500D01*
X239073920Y-83750500D01*
X239157935Y-83733788D01*
X239199884Y-83725443D01*
X239218913Y-83721658D01*
X239355495Y-83665084D01*
X239478416Y-83582951D01*
X239582951Y-83478416D01*
X239665084Y-83355495D01*
X239721658Y-83218913D01*
X239736459Y-83144505D01*
X239750500Y-83073920D01*
X239750500Y-82926079D01*
X239721659Y-82781092D01*
X239721658Y-82781091D01*
X239721658Y-82781087D01*
X239690590Y-82706082D01*
X239665087Y-82644511D01*
X239665080Y-82644498D01*
X239582951Y-82521584D01*
X239582948Y-82521580D01*
X239478419Y-82417051D01*
X239478415Y-82417048D01*
X239355501Y-82334919D01*
X239355488Y-82334912D01*
X239218917Y-82278343D01*
X239218907Y-82278340D01*
X239073920Y-82249500D01*
X239073918Y-82249500D01*
X238926082Y-82249500D01*
X238926080Y-82249500D01*
X238781092Y-82278340D01*
X238781082Y-82278343D01*
X238644511Y-82334912D01*
X238644498Y-82334919D01*
X238521584Y-82417048D01*
X238521580Y-82417051D01*
X238417051Y-82521580D01*
X238417048Y-82521584D01*
X238334919Y-82644498D01*
X238334912Y-82644511D01*
X238278343Y-82781082D01*
X238278340Y-82781092D01*
X238249500Y-82926079D01*
X238249500Y-82926082D01*
X238249500Y-83073918D01*
X238249500Y-83073920D01*
X238249499Y-83073920D01*
X203677749Y-83073920D01*
X203721658Y-82967913D01*
X203748113Y-82834919D01*
X203750500Y-82822920D01*
X203750500Y-82675079D01*
X203721659Y-82530092D01*
X203721658Y-82530091D01*
X203721658Y-82530087D01*
X203687070Y-82446584D01*
X203665087Y-82393511D01*
X203665080Y-82393498D01*
X203582951Y-82270584D01*
X203582948Y-82270580D01*
X203478419Y-82166051D01*
X203478415Y-82166048D01*
X203355501Y-82083919D01*
X203355488Y-82083912D01*
X203218917Y-82027343D01*
X203218907Y-82027340D01*
X203073920Y-81998500D01*
X203073918Y-81998500D01*
X202926082Y-81998500D01*
X202926080Y-81998500D01*
X202781092Y-82027340D01*
X202781082Y-82027343D01*
X202644511Y-82083912D01*
X202644498Y-82083919D01*
X202521584Y-82166048D01*
X202465149Y-82222483D01*
X202403825Y-82255967D01*
X202334133Y-82250982D01*
X202330015Y-82249362D01*
X202265123Y-82222483D01*
X202218913Y-82203342D01*
X202218907Y-82203340D01*
X202073920Y-82174500D01*
X202073918Y-82174500D01*
X201926082Y-82174500D01*
X201926080Y-82174500D01*
X201781092Y-82203340D01*
X201781082Y-82203343D01*
X201644511Y-82259912D01*
X201644498Y-82259919D01*
X201521584Y-82342048D01*
X201521580Y-82342051D01*
X201417051Y-82446580D01*
X201417048Y-82446584D01*
X201334919Y-82569498D01*
X201334912Y-82569511D01*
X201278343Y-82706082D01*
X201278342Y-82706086D01*
X201275362Y-82721067D01*
X201242974Y-82782976D01*
X201201199Y-82811432D01*
X201144505Y-82834916D01*
X201144498Y-82834919D01*
X201021584Y-82917048D01*
X201021580Y-82917051D01*
X200917051Y-83021580D01*
X200917048Y-83021584D01*
X200834919Y-83144498D01*
X200834912Y-83144511D01*
X200778343Y-83281082D01*
X200778340Y-83281092D01*
X200749500Y-83426079D01*
X200749500Y-83573922D01*
X200756892Y-83611084D01*
X200750665Y-83680676D01*
X200707802Y-83735853D01*
X200641912Y-83759097D01*
X200611084Y-83756892D01*
X200573922Y-83749500D01*
X200573918Y-83749500D01*
X200426082Y-83749500D01*
X200426080Y-83749500D01*
X200281092Y-83778340D01*
X200281082Y-83778343D01*
X200144511Y-83834912D01*
X200144498Y-83834919D01*
X200021584Y-83917048D01*
X200021580Y-83917051D01*
X199917051Y-84021580D01*
X199917048Y-84021584D01*
X199834919Y-84144498D01*
X199834914Y-84144507D01*
X199829836Y-84156768D01*
X199785993Y-84211170D01*
X199739469Y-84230929D01*
X199634645Y-84251781D01*
X199634636Y-84251783D01*
X199498065Y-84308352D01*
X199498052Y-84308359D01*
X199375138Y-84390488D01*
X199375134Y-84390491D01*
X199270605Y-84495020D01*
X199270602Y-84495024D01*
X199188473Y-84617938D01*
X199188466Y-84617951D01*
X199131897Y-84754522D01*
X199131894Y-84754532D01*
X199103054Y-84899519D01*
X199103054Y-84899522D01*
X199103054Y-85047358D01*
X199103054Y-85047360D01*
X199103053Y-85047360D01*
X177450500Y-85047360D01*
X177450500Y-84885837D01*
X177414784Y-84660339D01*
X177344229Y-84443196D01*
X177261630Y-84281087D01*
X177240579Y-84239772D01*
X177106379Y-84055063D01*
X176944937Y-83893621D01*
X176760228Y-83759421D01*
X176740757Y-83749500D01*
X176556803Y-83655770D01*
X176339660Y-83585215D01*
X176114162Y-83549500D01*
X176114157Y-83549500D01*
X175885843Y-83549500D01*
X175885838Y-83549500D01*
X175660339Y-83585215D01*
X175443196Y-83655770D01*
X175239771Y-83759421D01*
X175055061Y-83893622D01*
X174893622Y-84055061D01*
X174759421Y-84239771D01*
X174655770Y-84443196D01*
X174585215Y-84660339D01*
X174549500Y-84885837D01*
X172700500Y-84885837D01*
X172700500Y-79823920D01*
X194249499Y-79823920D01*
X194278340Y-79968907D01*
X194278343Y-79968917D01*
X194334912Y-80105488D01*
X194334919Y-80105501D01*
X194417048Y-80228415D01*
X194417051Y-80228419D01*
X194521580Y-80332948D01*
X194521584Y-80332951D01*
X194644498Y-80415080D01*
X194644511Y-80415087D01*
X194781082Y-80471656D01*
X194781087Y-80471658D01*
X194781091Y-80471658D01*
X194781092Y-80471659D01*
X194926079Y-80500500D01*
X194926082Y-80500500D01*
X195073920Y-80500500D01*
X195171462Y-80481096D01*
X195218913Y-80471658D01*
X195355495Y-80415084D01*
X195478416Y-80332951D01*
X195582951Y-80228416D01*
X195665084Y-80105495D01*
X195721658Y-79968913D01*
X195750500Y-79823920D01*
X198249499Y-79823920D01*
X198278340Y-79968907D01*
X198278343Y-79968917D01*
X198334912Y-80105488D01*
X198334919Y-80105501D01*
X198417048Y-80228415D01*
X198417051Y-80228419D01*
X198521580Y-80332948D01*
X198521584Y-80332951D01*
X198644498Y-80415080D01*
X198644511Y-80415087D01*
X198781082Y-80471656D01*
X198781087Y-80471658D01*
X198781091Y-80471658D01*
X198781092Y-80471659D01*
X198926079Y-80500500D01*
X198926082Y-80500500D01*
X199073920Y-80500500D01*
X199171462Y-80481096D01*
X199218913Y-80471658D01*
X199355495Y-80415084D01*
X199478416Y-80332951D01*
X199582951Y-80228416D01*
X199665084Y-80105495D01*
X199721658Y-79968913D01*
X199750500Y-79823918D01*
X199750500Y-79676082D01*
X199750500Y-79676079D01*
X199721659Y-79531092D01*
X199721658Y-79531091D01*
X199721658Y-79531087D01*
X199721656Y-79531082D01*
X199665087Y-79394511D01*
X199665080Y-79394498D01*
X199582951Y-79271584D01*
X199582948Y-79271580D01*
X199478419Y-79167051D01*
X199478415Y-79167048D01*
X199355501Y-79084919D01*
X199355488Y-79084912D01*
X199218917Y-79028343D01*
X199218907Y-79028340D01*
X199073920Y-78999500D01*
X199073918Y-78999500D01*
X198926082Y-78999500D01*
X198926080Y-78999500D01*
X198781092Y-79028340D01*
X198781082Y-79028343D01*
X198644511Y-79084912D01*
X198644498Y-79084919D01*
X198521584Y-79167048D01*
X198521580Y-79167051D01*
X198417051Y-79271580D01*
X198417048Y-79271584D01*
X198334919Y-79394498D01*
X198334912Y-79394511D01*
X198278343Y-79531082D01*
X198278340Y-79531092D01*
X198249500Y-79676079D01*
X198249500Y-79676082D01*
X198249500Y-79823918D01*
X198249500Y-79823920D01*
X198249499Y-79823920D01*
X195750500Y-79823920D01*
X195750500Y-79823918D01*
X195750500Y-79676082D01*
X195750500Y-79676079D01*
X195721659Y-79531092D01*
X195721658Y-79531091D01*
X195721658Y-79531087D01*
X195721656Y-79531082D01*
X195665087Y-79394511D01*
X195665080Y-79394498D01*
X195582951Y-79271584D01*
X195582948Y-79271580D01*
X195478419Y-79167051D01*
X195478415Y-79167048D01*
X195355501Y-79084919D01*
X195355488Y-79084912D01*
X195218917Y-79028343D01*
X195218907Y-79028340D01*
X195073920Y-78999500D01*
X195073918Y-78999500D01*
X194926082Y-78999500D01*
X194926080Y-78999500D01*
X194781092Y-79028340D01*
X194781082Y-79028343D01*
X194644511Y-79084912D01*
X194644498Y-79084919D01*
X194521584Y-79167048D01*
X194521580Y-79167051D01*
X194417051Y-79271580D01*
X194417048Y-79271584D01*
X194334919Y-79394498D01*
X194334912Y-79394511D01*
X194278343Y-79531082D01*
X194278340Y-79531092D01*
X194249500Y-79676079D01*
X194249500Y-79676082D01*
X194249500Y-79823918D01*
X194249500Y-79823920D01*
X194249499Y-79823920D01*
X172700500Y-79823920D01*
X172700500Y-78073920D01*
X203249499Y-78073920D01*
X203278340Y-78218907D01*
X203278343Y-78218917D01*
X203334912Y-78355488D01*
X203334919Y-78355501D01*
X203417048Y-78478415D01*
X203417051Y-78478419D01*
X203521580Y-78582948D01*
X203521584Y-78582951D01*
X203644498Y-78665080D01*
X203644511Y-78665087D01*
X203781082Y-78721656D01*
X203781087Y-78721658D01*
X203781091Y-78721658D01*
X203781092Y-78721659D01*
X203926079Y-78750500D01*
X203926082Y-78750500D01*
X204073920Y-78750500D01*
X204171462Y-78731096D01*
X204218913Y-78721658D01*
X204355495Y-78665084D01*
X204478416Y-78582951D01*
X204582951Y-78478416D01*
X204665084Y-78355495D01*
X204721658Y-78218913D01*
X204750500Y-78073918D01*
X204750500Y-77926082D01*
X204750500Y-77926079D01*
X204721659Y-77781092D01*
X204721658Y-77781091D01*
X204721658Y-77781087D01*
X204721656Y-77781082D01*
X204665087Y-77644511D01*
X204665080Y-77644498D01*
X204582951Y-77521584D01*
X204582948Y-77521580D01*
X204478419Y-77417051D01*
X204478415Y-77417048D01*
X204355501Y-77334919D01*
X204355488Y-77334912D01*
X204218917Y-77278343D01*
X204218907Y-77278340D01*
X204073920Y-77249500D01*
X204073918Y-77249500D01*
X203926082Y-77249500D01*
X203926080Y-77249500D01*
X203781092Y-77278340D01*
X203781082Y-77278343D01*
X203644511Y-77334912D01*
X203644498Y-77334919D01*
X203521584Y-77417048D01*
X203521580Y-77417051D01*
X203417051Y-77521580D01*
X203417048Y-77521584D01*
X203334919Y-77644498D01*
X203334912Y-77644511D01*
X203278343Y-77781082D01*
X203278340Y-77781092D01*
X203249500Y-77926079D01*
X203249500Y-77926082D01*
X203249500Y-78073918D01*
X203249500Y-78073920D01*
X203249499Y-78073920D01*
X172700500Y-78073920D01*
X172700500Y-76648920D01*
X175824499Y-76648920D01*
X175853340Y-76793907D01*
X175853343Y-76793917D01*
X175909912Y-76930488D01*
X175909919Y-76930501D01*
X175992048Y-77053415D01*
X175992051Y-77053419D01*
X176096580Y-77157948D01*
X176096584Y-77157951D01*
X176219498Y-77240080D01*
X176219511Y-77240087D01*
X176356082Y-77296656D01*
X176356087Y-77296658D01*
X176356091Y-77296658D01*
X176356092Y-77296659D01*
X176501079Y-77325500D01*
X176501082Y-77325500D01*
X176648920Y-77325500D01*
X176774603Y-77300499D01*
X176793913Y-77296658D01*
X176899547Y-77252902D01*
X176930488Y-77240087D01*
X176930488Y-77240086D01*
X176930495Y-77240084D01*
X177053416Y-77157951D01*
X177157951Y-77053416D01*
X177240084Y-76930495D01*
X177296658Y-76793913D01*
X177325500Y-76648918D01*
X177325500Y-76501082D01*
X177325500Y-76501079D01*
X177325499Y-76501077D01*
X177313203Y-76439257D01*
X177309602Y-76421153D01*
X244199500Y-76421153D01*
X244199500Y-76578846D01*
X244230261Y-76733489D01*
X244230264Y-76733501D01*
X244290602Y-76879172D01*
X244290609Y-76879185D01*
X244378210Y-77010288D01*
X244378213Y-77010292D01*
X244489707Y-77121786D01*
X244489711Y-77121789D01*
X244620814Y-77209390D01*
X244620827Y-77209397D01*
X244717646Y-77249500D01*
X244766503Y-77269737D01*
X244901833Y-77296656D01*
X244921153Y-77300499D01*
X244921156Y-77300500D01*
X244921158Y-77300500D01*
X245078844Y-77300500D01*
X245078845Y-77300499D01*
X245233497Y-77269737D01*
X245379179Y-77209394D01*
X245510289Y-77121789D01*
X245621789Y-77010289D01*
X245709394Y-76879179D01*
X245769737Y-76733497D01*
X245800500Y-76578842D01*
X245800500Y-76573920D01*
X251499499Y-76573920D01*
X251528340Y-76718907D01*
X251528343Y-76718917D01*
X251584912Y-76855488D01*
X251584919Y-76855501D01*
X251667048Y-76978415D01*
X251667051Y-76978419D01*
X251771580Y-77082948D01*
X251771584Y-77082951D01*
X251894498Y-77165080D01*
X251894511Y-77165087D01*
X252001469Y-77209390D01*
X252031087Y-77221658D01*
X252031091Y-77221658D01*
X252031092Y-77221659D01*
X252176079Y-77250500D01*
X252176082Y-77250500D01*
X252323920Y-77250500D01*
X252421462Y-77231096D01*
X252468913Y-77221658D01*
X252605495Y-77165084D01*
X252728416Y-77082951D01*
X252832951Y-76978416D01*
X252915084Y-76855495D01*
X252971658Y-76718913D01*
X252999520Y-76578846D01*
X253000500Y-76573920D01*
X253000500Y-76426079D01*
X252971659Y-76281092D01*
X252971658Y-76281091D01*
X252971658Y-76281087D01*
X252965615Y-76266498D01*
X252915087Y-76144511D01*
X252915080Y-76144498D01*
X252832951Y-76021584D01*
X252832948Y-76021580D01*
X252728419Y-75917051D01*
X252728415Y-75917048D01*
X252605501Y-75834919D01*
X252605488Y-75834912D01*
X252468917Y-75778343D01*
X252468907Y-75778340D01*
X252323920Y-75749500D01*
X252323918Y-75749500D01*
X252176082Y-75749500D01*
X252176080Y-75749500D01*
X252031092Y-75778340D01*
X252031082Y-75778343D01*
X251894511Y-75834912D01*
X251894498Y-75834919D01*
X251771584Y-75917048D01*
X251771580Y-75917051D01*
X251667051Y-76021580D01*
X251667048Y-76021584D01*
X251584919Y-76144498D01*
X251584912Y-76144511D01*
X251528343Y-76281082D01*
X251528340Y-76281092D01*
X251499500Y-76426079D01*
X251499500Y-76426082D01*
X251499500Y-76573918D01*
X251499500Y-76573920D01*
X251499499Y-76573920D01*
X245800500Y-76573920D01*
X245800500Y-76421158D01*
X245800500Y-76421155D01*
X245800499Y-76421153D01*
X245769738Y-76266510D01*
X245769737Y-76266503D01*
X245769735Y-76266498D01*
X245709397Y-76120827D01*
X245709390Y-76120814D01*
X245621789Y-75989711D01*
X245621786Y-75989707D01*
X245510292Y-75878213D01*
X245510288Y-75878210D01*
X245379185Y-75790609D01*
X245379172Y-75790602D01*
X245233501Y-75730264D01*
X245233489Y-75730261D01*
X245078845Y-75699500D01*
X245078842Y-75699500D01*
X244921158Y-75699500D01*
X244921155Y-75699500D01*
X244766510Y-75730261D01*
X244766498Y-75730264D01*
X244620827Y-75790602D01*
X244620814Y-75790609D01*
X244489711Y-75878210D01*
X244489707Y-75878213D01*
X244378213Y-75989707D01*
X244378210Y-75989711D01*
X244290609Y-76120814D01*
X244290602Y-76120827D01*
X244230264Y-76266498D01*
X244230261Y-76266510D01*
X244199500Y-76421153D01*
X177309602Y-76421153D01*
X177296659Y-76356092D01*
X177296658Y-76356091D01*
X177296658Y-76356087D01*
X177259554Y-76266510D01*
X177240087Y-76219511D01*
X177240080Y-76219498D01*
X177157951Y-76096584D01*
X177157948Y-76096580D01*
X177053419Y-75992051D01*
X177053415Y-75992048D01*
X176930501Y-75909919D01*
X176930488Y-75909912D01*
X176793917Y-75853343D01*
X176793907Y-75853340D01*
X176648920Y-75824500D01*
X176648918Y-75824500D01*
X176501082Y-75824500D01*
X176501080Y-75824500D01*
X176356092Y-75853340D01*
X176356082Y-75853343D01*
X176219511Y-75909912D01*
X176219498Y-75909919D01*
X176096584Y-75992048D01*
X176096580Y-75992051D01*
X175992051Y-76096580D01*
X175992048Y-76096584D01*
X175909919Y-76219498D01*
X175909912Y-76219511D01*
X175853343Y-76356082D01*
X175853340Y-76356092D01*
X175824500Y-76501079D01*
X175824500Y-76501082D01*
X175824500Y-76648918D01*
X175824500Y-76648920D01*
X175824499Y-76648920D01*
X172700500Y-76648920D01*
X172700500Y-75573920D01*
X174249499Y-75573920D01*
X174278340Y-75718907D01*
X174278343Y-75718917D01*
X174334912Y-75855488D01*
X174334919Y-75855501D01*
X174417048Y-75978415D01*
X174417051Y-75978419D01*
X174521580Y-76082948D01*
X174521584Y-76082951D01*
X174644498Y-76165080D01*
X174644511Y-76165087D01*
X174781082Y-76221656D01*
X174781087Y-76221658D01*
X174781091Y-76221658D01*
X174781092Y-76221659D01*
X174926079Y-76250500D01*
X174926082Y-76250500D01*
X175073920Y-76250500D01*
X175171462Y-76231096D01*
X175218913Y-76221658D01*
X175355495Y-76165084D01*
X175478416Y-76082951D01*
X175582951Y-75978416D01*
X175665084Y-75855495D01*
X175721658Y-75718913D01*
X175750500Y-75573918D01*
X175750500Y-75426082D01*
X175750500Y-75426079D01*
X175721659Y-75281092D01*
X175721658Y-75281091D01*
X175721658Y-75281087D01*
X175721656Y-75281082D01*
X175665087Y-75144511D01*
X175665080Y-75144498D01*
X175582951Y-75021584D01*
X175582948Y-75021580D01*
X175478419Y-74917051D01*
X175478415Y-74917048D01*
X175355501Y-74834919D01*
X175355488Y-74834912D01*
X175218917Y-74778343D01*
X175218907Y-74778340D01*
X175073920Y-74749500D01*
X175073918Y-74749500D01*
X174926082Y-74749500D01*
X174926080Y-74749500D01*
X174781092Y-74778340D01*
X174781082Y-74778343D01*
X174644511Y-74834912D01*
X174644498Y-74834919D01*
X174521584Y-74917048D01*
X174521580Y-74917051D01*
X174417051Y-75021580D01*
X174417048Y-75021584D01*
X174334919Y-75144498D01*
X174334912Y-75144511D01*
X174278343Y-75281082D01*
X174278340Y-75281092D01*
X174249500Y-75426079D01*
X174249500Y-75426082D01*
X174249500Y-75573918D01*
X174249500Y-75573920D01*
X174249499Y-75573920D01*
X172700500Y-75573920D01*
X172700500Y-73342196D01*
X235769806Y-73342196D01*
X235798647Y-73487183D01*
X235798650Y-73487193D01*
X235855219Y-73623764D01*
X235855226Y-73623777D01*
X235937355Y-73746691D01*
X235937358Y-73746695D01*
X236041887Y-73851224D01*
X236041891Y-73851227D01*
X236164805Y-73933356D01*
X236164818Y-73933363D01*
X236301389Y-73989932D01*
X236301394Y-73989934D01*
X236301398Y-73989934D01*
X236301399Y-73989935D01*
X236446386Y-74018776D01*
X236446389Y-74018776D01*
X236594227Y-74018776D01*
X236691769Y-73999372D01*
X236739220Y-73989934D01*
X236875802Y-73933360D01*
X236998723Y-73851227D01*
X237103258Y-73746692D01*
X237185391Y-73623771D01*
X237241965Y-73487189D01*
X237270807Y-73342194D01*
X237270807Y-73194358D01*
X237270807Y-73194355D01*
X237241966Y-73049368D01*
X237241965Y-73049367D01*
X237241965Y-73049363D01*
X237212578Y-72978416D01*
X237185394Y-72912787D01*
X237185387Y-72912774D01*
X237103258Y-72789860D01*
X237103255Y-72789856D01*
X236998726Y-72685327D01*
X236998722Y-72685324D01*
X236875808Y-72603195D01*
X236875795Y-72603188D01*
X236805135Y-72573920D01*
X248724499Y-72573920D01*
X248753340Y-72718907D01*
X248753343Y-72718917D01*
X248809912Y-72855488D01*
X248809919Y-72855501D01*
X248892048Y-72978415D01*
X248892051Y-72978419D01*
X248996580Y-73082948D01*
X248996584Y-73082951D01*
X249119498Y-73165080D01*
X249119511Y-73165087D01*
X249256082Y-73221656D01*
X249256087Y-73221658D01*
X249256091Y-73221658D01*
X249256092Y-73221659D01*
X249401079Y-73250500D01*
X249401082Y-73250500D01*
X249548920Y-73250500D01*
X249646462Y-73231096D01*
X249693913Y-73221658D01*
X249830495Y-73165084D01*
X249953416Y-73082951D01*
X250057951Y-72978416D01*
X250140084Y-72855495D01*
X250196658Y-72718913D01*
X250207366Y-72665080D01*
X250225500Y-72573920D01*
X250225500Y-72426079D01*
X250196659Y-72281092D01*
X250196658Y-72281091D01*
X250196658Y-72281087D01*
X250140084Y-72144505D01*
X250140081Y-72144501D01*
X250139442Y-72142957D01*
X250131973Y-72073488D01*
X250163248Y-72011008D01*
X250218008Y-71976843D01*
X250222669Y-71975428D01*
X250222681Y-71975426D01*
X250359263Y-71918852D01*
X250482184Y-71836719D01*
X250586719Y-71732184D01*
X250668852Y-71609263D01*
X250725426Y-71472681D01*
X250736492Y-71417048D01*
X250754268Y-71327688D01*
X250754268Y-71179847D01*
X250725427Y-71034860D01*
X250725426Y-71034859D01*
X250725426Y-71034855D01*
X250710782Y-70999500D01*
X250668855Y-70898279D01*
X250668848Y-70898266D01*
X250586719Y-70775352D01*
X250586716Y-70775348D01*
X250482187Y-70670819D01*
X250482183Y-70670816D01*
X250359269Y-70588687D01*
X250359256Y-70588680D01*
X250222685Y-70532111D01*
X250222675Y-70532108D01*
X250077688Y-70503268D01*
X250077686Y-70503268D01*
X249929850Y-70503268D01*
X249929848Y-70503268D01*
X249784860Y-70532108D01*
X249784850Y-70532111D01*
X249648279Y-70588680D01*
X249648266Y-70588687D01*
X249525352Y-70670816D01*
X249525348Y-70670819D01*
X249420819Y-70775348D01*
X249420816Y-70775352D01*
X249338687Y-70898266D01*
X249338680Y-70898279D01*
X249282111Y-71034850D01*
X249282108Y-71034860D01*
X249253268Y-71179847D01*
X249253268Y-71179850D01*
X249253268Y-71327686D01*
X249253268Y-71327688D01*
X249253267Y-71327688D01*
X249282108Y-71472675D01*
X249282110Y-71472681D01*
X249337120Y-71605488D01*
X249339325Y-71610810D01*
X249346794Y-71680280D01*
X249315519Y-71742759D01*
X249260772Y-71776920D01*
X249256087Y-71778341D01*
X249119511Y-71834912D01*
X249119498Y-71834919D01*
X248996584Y-71917048D01*
X248996580Y-71917051D01*
X248892051Y-72021580D01*
X248892048Y-72021584D01*
X248809919Y-72144498D01*
X248809912Y-72144511D01*
X248753343Y-72281082D01*
X248753340Y-72281092D01*
X248724500Y-72426079D01*
X248724500Y-72426082D01*
X248724500Y-72573918D01*
X248724500Y-72573920D01*
X248724499Y-72573920D01*
X236805135Y-72573920D01*
X236739224Y-72546619D01*
X236739214Y-72546616D01*
X236714030Y-72541607D01*
X236594227Y-72517776D01*
X236594225Y-72517776D01*
X236446389Y-72517776D01*
X236446387Y-72517776D01*
X236301399Y-72546616D01*
X236301389Y-72546619D01*
X236164818Y-72603188D01*
X236164805Y-72603195D01*
X236041891Y-72685324D01*
X236041887Y-72685327D01*
X235937358Y-72789856D01*
X235937355Y-72789860D01*
X235855226Y-72912774D01*
X235855219Y-72912787D01*
X235798650Y-73049358D01*
X235798647Y-73049368D01*
X235769807Y-73194355D01*
X235769807Y-73194358D01*
X235769807Y-73342194D01*
X235769807Y-73342196D01*
X235769806Y-73342196D01*
X172700500Y-73342196D01*
X172700500Y-71823920D01*
X182999499Y-71823920D01*
X183028340Y-71968907D01*
X183028343Y-71968917D01*
X183084912Y-72105488D01*
X183084919Y-72105501D01*
X183167048Y-72228415D01*
X183167051Y-72228419D01*
X183271580Y-72332948D01*
X183271584Y-72332951D01*
X183394498Y-72415080D01*
X183394511Y-72415087D01*
X183531082Y-72471656D01*
X183531087Y-72471658D01*
X183531091Y-72471658D01*
X183531092Y-72471659D01*
X183676079Y-72500500D01*
X183676082Y-72500500D01*
X183823920Y-72500500D01*
X183934944Y-72478415D01*
X183968913Y-72471658D01*
X184098380Y-72418030D01*
X184167850Y-72410562D01*
X184193285Y-72418031D01*
X184322749Y-72471656D01*
X184322754Y-72471658D01*
X184322758Y-72471658D01*
X184322759Y-72471659D01*
X184467746Y-72500500D01*
X184467749Y-72500500D01*
X184615587Y-72500500D01*
X184726611Y-72478415D01*
X184760580Y-72471658D01*
X184890047Y-72418030D01*
X184959517Y-72410562D01*
X184984951Y-72418030D01*
X185114420Y-72471658D01*
X185114424Y-72471658D01*
X185114425Y-72471659D01*
X185259412Y-72500500D01*
X185259415Y-72500500D01*
X185407253Y-72500500D01*
X185518277Y-72478415D01*
X185552246Y-72471658D01*
X185681713Y-72418030D01*
X185751183Y-72410562D01*
X185776618Y-72418031D01*
X185906082Y-72471656D01*
X185906087Y-72471658D01*
X185906091Y-72471658D01*
X185906092Y-72471659D01*
X186051079Y-72500500D01*
X186051082Y-72500500D01*
X186198920Y-72500500D01*
X186309944Y-72478415D01*
X186343913Y-72471658D01*
X186473380Y-72418030D01*
X186542850Y-72410562D01*
X186568285Y-72418031D01*
X186697749Y-72471656D01*
X186697754Y-72471658D01*
X186697758Y-72471658D01*
X186697759Y-72471659D01*
X186842746Y-72500500D01*
X186842749Y-72500500D01*
X186990587Y-72500500D01*
X187101611Y-72478415D01*
X187135580Y-72471658D01*
X187265047Y-72418030D01*
X187334517Y-72410562D01*
X187359951Y-72418030D01*
X187489420Y-72471658D01*
X187489424Y-72471658D01*
X187489425Y-72471659D01*
X187634412Y-72500500D01*
X187634415Y-72500500D01*
X187782253Y-72500500D01*
X187893277Y-72478415D01*
X187927246Y-72471658D01*
X188056713Y-72418030D01*
X188126183Y-72410562D01*
X188151618Y-72418031D01*
X188281082Y-72471656D01*
X188281087Y-72471658D01*
X188281091Y-72471658D01*
X188281092Y-72471659D01*
X188426079Y-72500500D01*
X188426082Y-72500500D01*
X188573920Y-72500500D01*
X188684944Y-72478415D01*
X188718913Y-72471658D01*
X188855495Y-72415084D01*
X188978416Y-72332951D01*
X189082951Y-72228416D01*
X189165084Y-72105495D01*
X189178163Y-72073920D01*
X210499499Y-72073920D01*
X210528340Y-72218907D01*
X210528343Y-72218917D01*
X210584912Y-72355488D01*
X210584919Y-72355501D01*
X210667048Y-72478415D01*
X210667051Y-72478419D01*
X210771580Y-72582948D01*
X210771584Y-72582951D01*
X210894498Y-72665080D01*
X210894511Y-72665087D01*
X211031082Y-72721656D01*
X211031087Y-72721658D01*
X211031091Y-72721658D01*
X211031092Y-72721659D01*
X211176079Y-72750500D01*
X211176082Y-72750500D01*
X211323920Y-72750500D01*
X211421462Y-72731096D01*
X211468913Y-72721658D01*
X211605495Y-72665084D01*
X211728416Y-72582951D01*
X211832951Y-72478416D01*
X211915084Y-72355495D01*
X211971658Y-72218913D01*
X211986459Y-72144505D01*
X212000500Y-72073920D01*
X222499499Y-72073920D01*
X222528340Y-72218907D01*
X222528343Y-72218917D01*
X222584912Y-72355488D01*
X222584919Y-72355501D01*
X222667048Y-72478415D01*
X222667051Y-72478419D01*
X222771580Y-72582948D01*
X222771584Y-72582951D01*
X222894498Y-72665080D01*
X222894511Y-72665087D01*
X223031082Y-72721656D01*
X223031087Y-72721658D01*
X223031091Y-72721658D01*
X223031092Y-72721659D01*
X223176079Y-72750500D01*
X223176082Y-72750500D01*
X223323920Y-72750500D01*
X223421462Y-72731096D01*
X223468913Y-72721658D01*
X223605495Y-72665084D01*
X223728416Y-72582951D01*
X223832951Y-72478416D01*
X223915084Y-72355495D01*
X223971658Y-72218913D01*
X223986459Y-72144505D01*
X224000500Y-72073920D01*
X224000500Y-71926079D01*
X223971659Y-71781092D01*
X223971658Y-71781091D01*
X223971658Y-71781087D01*
X223951402Y-71732184D01*
X223915087Y-71644511D01*
X223915080Y-71644498D01*
X223832951Y-71521584D01*
X223832948Y-71521580D01*
X223728419Y-71417051D01*
X223728415Y-71417048D01*
X223605501Y-71334919D01*
X223605488Y-71334912D01*
X223468917Y-71278343D01*
X223468907Y-71278340D01*
X223323920Y-71249500D01*
X223323918Y-71249500D01*
X223176082Y-71249500D01*
X223176080Y-71249500D01*
X223031092Y-71278340D01*
X223031082Y-71278343D01*
X222894511Y-71334912D01*
X222894498Y-71334919D01*
X222771584Y-71417048D01*
X222771580Y-71417051D01*
X222667051Y-71521580D01*
X222667048Y-71521584D01*
X222584919Y-71644498D01*
X222584912Y-71644511D01*
X222528343Y-71781082D01*
X222528340Y-71781092D01*
X222499500Y-71926079D01*
X222499500Y-71926082D01*
X222499500Y-72073918D01*
X222499500Y-72073920D01*
X222499499Y-72073920D01*
X212000500Y-72073920D01*
X212000500Y-71926079D01*
X211971659Y-71781092D01*
X211971658Y-71781091D01*
X211971658Y-71781087D01*
X211951402Y-71732184D01*
X211915087Y-71644511D01*
X211915080Y-71644498D01*
X211832951Y-71521584D01*
X211832948Y-71521580D01*
X211728419Y-71417051D01*
X211728415Y-71417048D01*
X211605501Y-71334919D01*
X211605488Y-71334912D01*
X211468917Y-71278343D01*
X211468907Y-71278340D01*
X211323920Y-71249500D01*
X211323918Y-71249500D01*
X211176082Y-71249500D01*
X211176080Y-71249500D01*
X211031092Y-71278340D01*
X211031082Y-71278343D01*
X210894511Y-71334912D01*
X210894498Y-71334919D01*
X210771584Y-71417048D01*
X210771580Y-71417051D01*
X210667051Y-71521580D01*
X210667048Y-71521584D01*
X210584919Y-71644498D01*
X210584912Y-71644511D01*
X210528343Y-71781082D01*
X210528340Y-71781092D01*
X210499500Y-71926079D01*
X210499500Y-71926082D01*
X210499500Y-72073918D01*
X210499500Y-72073920D01*
X210499499Y-72073920D01*
X189178163Y-72073920D01*
X189221658Y-71968913D01*
X189247954Y-71836719D01*
X189250500Y-71823920D01*
X189250500Y-71676079D01*
X189221659Y-71531092D01*
X189221658Y-71531091D01*
X189221658Y-71531087D01*
X189197467Y-71472685D01*
X189165087Y-71394511D01*
X189165080Y-71394498D01*
X189117921Y-71323920D01*
X194499499Y-71323920D01*
X194528340Y-71468907D01*
X194528343Y-71468917D01*
X194584912Y-71605488D01*
X194584919Y-71605501D01*
X194667048Y-71728415D01*
X194667051Y-71728419D01*
X194771580Y-71832948D01*
X194771584Y-71832951D01*
X194894498Y-71915080D01*
X194894511Y-71915087D01*
X195031082Y-71971656D01*
X195031087Y-71971658D01*
X195031091Y-71971658D01*
X195031092Y-71971659D01*
X195176079Y-72000500D01*
X195176082Y-72000500D01*
X195323920Y-72000500D01*
X195434944Y-71978415D01*
X195468913Y-71971658D01*
X195600751Y-71917049D01*
X195605488Y-71915087D01*
X195605488Y-71915086D01*
X195605495Y-71915084D01*
X195728416Y-71832951D01*
X195832951Y-71728416D01*
X195871338Y-71670965D01*
X195896898Y-71632713D01*
X195950510Y-71587908D01*
X196019835Y-71579201D01*
X196082862Y-71609355D01*
X196103102Y-71632713D01*
X196167048Y-71728415D01*
X196167051Y-71728419D01*
X196271580Y-71832948D01*
X196271584Y-71832951D01*
X196394498Y-71915080D01*
X196394511Y-71915087D01*
X196531082Y-71971656D01*
X196531087Y-71971658D01*
X196531091Y-71971658D01*
X196531092Y-71971659D01*
X196676079Y-72000500D01*
X196676082Y-72000500D01*
X196823920Y-72000500D01*
X196934944Y-71978415D01*
X196968913Y-71971658D01*
X197100751Y-71917049D01*
X197105488Y-71915087D01*
X197105488Y-71915086D01*
X197105495Y-71915084D01*
X197228416Y-71832951D01*
X197228419Y-71832948D01*
X197229059Y-71832309D01*
X197332948Y-71728419D01*
X197332951Y-71728416D01*
X197415084Y-71605495D01*
X197471658Y-71468913D01*
X197486459Y-71394505D01*
X197500500Y-71323920D01*
X197500500Y-71176079D01*
X197471659Y-71031092D01*
X197471658Y-71031091D01*
X197471658Y-71031087D01*
X197424422Y-70917048D01*
X197415087Y-70894511D01*
X197415080Y-70894498D01*
X197332951Y-70771584D01*
X197332948Y-70771580D01*
X197228419Y-70667051D01*
X197228415Y-70667048D01*
X197105501Y-70584919D01*
X197105492Y-70584914D01*
X197078950Y-70573920D01*
X206999499Y-70573920D01*
X207028340Y-70718907D01*
X207028343Y-70718917D01*
X207084912Y-70855488D01*
X207084919Y-70855501D01*
X207167048Y-70978415D01*
X207167051Y-70978419D01*
X207271580Y-71082948D01*
X207271584Y-71082951D01*
X207394498Y-71165080D01*
X207394511Y-71165087D01*
X207531082Y-71221656D01*
X207531087Y-71221658D01*
X207531091Y-71221658D01*
X207531092Y-71221659D01*
X207676079Y-71250500D01*
X207676082Y-71250500D01*
X207823920Y-71250500D01*
X207921462Y-71231096D01*
X207968913Y-71221658D01*
X208100751Y-71167049D01*
X208105488Y-71165087D01*
X208105488Y-71165086D01*
X208105495Y-71165084D01*
X208228416Y-71082951D01*
X208332951Y-70978416D01*
X208415084Y-70855495D01*
X208471658Y-70718913D01*
X208495527Y-70598918D01*
X208500500Y-70573920D01*
X208500500Y-70426079D01*
X208471659Y-70281092D01*
X208471658Y-70281091D01*
X208471658Y-70281087D01*
X208461904Y-70257538D01*
X208415087Y-70144511D01*
X208415080Y-70144498D01*
X208332951Y-70021584D01*
X208332948Y-70021580D01*
X208228419Y-69917051D01*
X208228415Y-69917048D01*
X208105501Y-69834919D01*
X208105488Y-69834912D01*
X207968917Y-69778343D01*
X207968907Y-69778340D01*
X207823920Y-69749500D01*
X207823918Y-69749500D01*
X207676082Y-69749500D01*
X207676080Y-69749500D01*
X207531092Y-69778340D01*
X207531082Y-69778343D01*
X207394511Y-69834912D01*
X207394498Y-69834919D01*
X207271584Y-69917048D01*
X207271580Y-69917051D01*
X207167051Y-70021580D01*
X207167048Y-70021584D01*
X207084919Y-70144498D01*
X207084912Y-70144511D01*
X207028343Y-70281082D01*
X207028340Y-70281092D01*
X206999500Y-70426079D01*
X206999500Y-70426082D01*
X206999500Y-70573918D01*
X206999500Y-70573920D01*
X206999499Y-70573920D01*
X197078950Y-70573920D01*
X196983906Y-70534552D01*
X196983905Y-70534552D01*
X196968913Y-70528342D01*
X196968908Y-70528341D01*
X196968907Y-70528340D01*
X196823920Y-70499500D01*
X196823918Y-70499500D01*
X196676082Y-70499500D01*
X196676080Y-70499500D01*
X196531092Y-70528340D01*
X196531082Y-70528343D01*
X196394511Y-70584912D01*
X196394498Y-70584919D01*
X196271584Y-70667048D01*
X196271580Y-70667051D01*
X196167051Y-70771580D01*
X196167048Y-70771584D01*
X196103102Y-70867286D01*
X196049489Y-70912091D01*
X195980164Y-70920798D01*
X195917137Y-70890643D01*
X195896898Y-70867286D01*
X195832951Y-70771584D01*
X195832948Y-70771580D01*
X195728419Y-70667051D01*
X195728415Y-70667048D01*
X195605501Y-70584919D01*
X195605488Y-70584912D01*
X195468917Y-70528343D01*
X195468907Y-70528340D01*
X195323920Y-70499500D01*
X195323918Y-70499500D01*
X195176082Y-70499500D01*
X195176080Y-70499500D01*
X195031092Y-70528340D01*
X195031082Y-70528343D01*
X194894511Y-70584912D01*
X194894498Y-70584919D01*
X194771584Y-70667048D01*
X194771580Y-70667051D01*
X194667051Y-70771580D01*
X194667048Y-70771584D01*
X194584919Y-70894498D01*
X194584912Y-70894511D01*
X194528343Y-71031082D01*
X194528340Y-71031092D01*
X194499500Y-71176079D01*
X194499500Y-71176082D01*
X194499500Y-71323918D01*
X194499500Y-71323920D01*
X194499499Y-71323920D01*
X189117921Y-71323920D01*
X189082951Y-71271584D01*
X189082948Y-71271580D01*
X188978419Y-71167051D01*
X188978415Y-71167048D01*
X188855501Y-71084919D01*
X188855488Y-71084912D01*
X188718917Y-71028343D01*
X188718907Y-71028340D01*
X188573920Y-70999500D01*
X188573918Y-70999500D01*
X188426082Y-70999500D01*
X188426080Y-70999500D01*
X188281092Y-71028340D01*
X188281082Y-71028343D01*
X188151618Y-71081969D01*
X188082149Y-71089438D01*
X188056713Y-71081969D01*
X187927246Y-71028342D01*
X187927240Y-71028340D01*
X187782253Y-70999500D01*
X187782251Y-70999500D01*
X187634415Y-70999500D01*
X187634413Y-70999500D01*
X187489425Y-71028340D01*
X187489419Y-71028342D01*
X187359953Y-71081969D01*
X187290483Y-71089438D01*
X187265047Y-71081969D01*
X187135580Y-71028342D01*
X187135574Y-71028340D01*
X186990587Y-70999500D01*
X186990585Y-70999500D01*
X186842749Y-70999500D01*
X186842747Y-70999500D01*
X186697759Y-71028340D01*
X186697749Y-71028343D01*
X186568285Y-71081969D01*
X186498816Y-71089438D01*
X186473380Y-71081969D01*
X186343913Y-71028342D01*
X186343907Y-71028340D01*
X186198920Y-70999500D01*
X186198918Y-70999500D01*
X186051082Y-70999500D01*
X186051080Y-70999500D01*
X185906092Y-71028340D01*
X185906082Y-71028343D01*
X185776618Y-71081969D01*
X185707149Y-71089438D01*
X185681713Y-71081969D01*
X185552246Y-71028342D01*
X185552240Y-71028340D01*
X185407253Y-70999500D01*
X185407251Y-70999500D01*
X185259415Y-70999500D01*
X185259413Y-70999500D01*
X185114425Y-71028340D01*
X185114419Y-71028342D01*
X184984953Y-71081969D01*
X184915483Y-71089438D01*
X184890047Y-71081969D01*
X184760580Y-71028342D01*
X184760574Y-71028340D01*
X184615587Y-70999500D01*
X184615585Y-70999500D01*
X184467749Y-70999500D01*
X184467747Y-70999500D01*
X184322759Y-71028340D01*
X184322749Y-71028343D01*
X184193285Y-71081969D01*
X184123816Y-71089438D01*
X184098380Y-71081969D01*
X183968913Y-71028342D01*
X183968907Y-71028340D01*
X183823920Y-70999500D01*
X183823918Y-70999500D01*
X183676082Y-70999500D01*
X183676080Y-70999500D01*
X183531092Y-71028340D01*
X183531082Y-71028343D01*
X183394511Y-71084912D01*
X183394498Y-71084919D01*
X183271584Y-71167048D01*
X183271580Y-71167051D01*
X183167051Y-71271580D01*
X183167048Y-71271584D01*
X183084919Y-71394498D01*
X183084912Y-71394511D01*
X183028343Y-71531082D01*
X183028340Y-71531092D01*
X182999500Y-71676079D01*
X182999500Y-71676082D01*
X182999500Y-71823918D01*
X182999500Y-71823920D01*
X182999499Y-71823920D01*
X172700500Y-71823920D01*
X172700500Y-69573920D01*
X235249499Y-69573920D01*
X235278340Y-69718907D01*
X235278343Y-69718917D01*
X235334912Y-69855488D01*
X235334919Y-69855501D01*
X235417048Y-69978415D01*
X235417051Y-69978419D01*
X235521580Y-70082948D01*
X235521584Y-70082951D01*
X235644498Y-70165080D01*
X235644511Y-70165087D01*
X235761870Y-70213698D01*
X235816274Y-70257538D01*
X235828979Y-70280807D01*
X235859912Y-70355488D01*
X235859919Y-70355501D01*
X235942048Y-70478415D01*
X235942051Y-70478419D01*
X236046580Y-70582948D01*
X236046588Y-70582954D01*
X236174570Y-70668469D01*
X236173096Y-70670674D01*
X236214751Y-70711528D01*
X236224636Y-70738362D01*
X236225572Y-70738079D01*
X236227342Y-70743915D01*
X236283912Y-70880488D01*
X236283919Y-70880501D01*
X236366048Y-71003415D01*
X236366051Y-71003419D01*
X236470580Y-71107948D01*
X236470584Y-71107951D01*
X236593498Y-71190080D01*
X236593511Y-71190087D01*
X236730082Y-71246656D01*
X236730087Y-71246658D01*
X236730091Y-71246658D01*
X236730092Y-71246659D01*
X236875079Y-71275500D01*
X236875082Y-71275500D01*
X237022919Y-71275500D01*
X237042625Y-71271580D01*
X237108007Y-71258574D01*
X237177597Y-71264801D01*
X237232775Y-71307663D01*
X237256020Y-71373552D01*
X237253816Y-71404379D01*
X237249500Y-71426079D01*
X237249500Y-71426082D01*
X237249500Y-71573918D01*
X237249500Y-71573920D01*
X237249499Y-71573920D01*
X237278340Y-71718907D01*
X237278343Y-71718917D01*
X237334912Y-71855488D01*
X237334919Y-71855501D01*
X237417048Y-71978415D01*
X237417051Y-71978419D01*
X237521580Y-72082948D01*
X237521584Y-72082951D01*
X237644498Y-72165080D01*
X237644511Y-72165087D01*
X237781082Y-72221656D01*
X237781087Y-72221658D01*
X237781091Y-72221658D01*
X237781092Y-72221659D01*
X237926079Y-72250500D01*
X237926082Y-72250500D01*
X238073920Y-72250500D01*
X238184944Y-72228415D01*
X238218913Y-72221658D01*
X238355495Y-72165084D01*
X238478416Y-72082951D01*
X238582951Y-71978416D01*
X238665084Y-71855495D01*
X238721658Y-71718913D01*
X238736459Y-71644505D01*
X238750500Y-71573920D01*
X238750500Y-71426079D01*
X238721659Y-71281092D01*
X238721658Y-71281091D01*
X238721658Y-71281087D01*
X238712333Y-71258574D01*
X238665087Y-71144511D01*
X238665080Y-71144498D01*
X238582951Y-71021584D01*
X238582948Y-71021580D01*
X238478419Y-70917051D01*
X238478415Y-70917048D01*
X238355501Y-70834919D01*
X238355488Y-70834912D01*
X238218917Y-70778343D01*
X238218907Y-70778340D01*
X238073920Y-70749500D01*
X238073918Y-70749500D01*
X237926082Y-70749500D01*
X237926080Y-70749500D01*
X237840993Y-70766425D01*
X237771401Y-70760198D01*
X237716224Y-70717335D01*
X237692979Y-70651445D01*
X237695184Y-70620615D01*
X237699500Y-70598918D01*
X237699500Y-70451079D01*
X237670659Y-70306092D01*
X237670658Y-70306091D01*
X237670658Y-70306087D01*
X237660187Y-70280807D01*
X237614087Y-70169511D01*
X237614080Y-70169498D01*
X237531951Y-70046584D01*
X237531948Y-70046580D01*
X237427419Y-69942051D01*
X237427415Y-69942048D01*
X237299430Y-69856531D01*
X237300892Y-69854342D01*
X237259195Y-69813375D01*
X237249361Y-69786635D01*
X237248427Y-69786919D01*
X237246656Y-69781082D01*
X237190087Y-69644511D01*
X237190080Y-69644498D01*
X237142921Y-69573920D01*
X247749499Y-69573920D01*
X247778340Y-69718907D01*
X247778343Y-69718917D01*
X247834912Y-69855488D01*
X247834919Y-69855501D01*
X247917048Y-69978415D01*
X247917051Y-69978419D01*
X248021580Y-70082948D01*
X248021584Y-70082951D01*
X248144498Y-70165080D01*
X248144511Y-70165087D01*
X248281082Y-70221656D01*
X248281087Y-70221658D01*
X248281091Y-70221658D01*
X248281092Y-70221659D01*
X248426079Y-70250500D01*
X248426082Y-70250500D01*
X248573920Y-70250500D01*
X248693425Y-70226728D01*
X248718913Y-70221658D01*
X248855495Y-70165084D01*
X248978416Y-70082951D01*
X249082951Y-69978416D01*
X249165084Y-69855495D01*
X249221658Y-69718913D01*
X249236459Y-69644505D01*
X249250500Y-69573920D01*
X249250500Y-69426079D01*
X249221659Y-69281092D01*
X249221658Y-69281091D01*
X249221658Y-69281087D01*
X249191363Y-69207948D01*
X249165087Y-69144511D01*
X249165080Y-69144498D01*
X249082951Y-69021584D01*
X249082948Y-69021580D01*
X248978419Y-68917051D01*
X248978415Y-68917048D01*
X248855501Y-68834919D01*
X248855488Y-68834912D01*
X248718917Y-68778343D01*
X248718907Y-68778340D01*
X248573920Y-68749500D01*
X248573918Y-68749500D01*
X248426082Y-68749500D01*
X248426080Y-68749500D01*
X248281092Y-68778340D01*
X248281082Y-68778343D01*
X248144511Y-68834912D01*
X248144498Y-68834919D01*
X248021584Y-68917048D01*
X248021580Y-68917051D01*
X247917051Y-69021580D01*
X247917048Y-69021584D01*
X247834919Y-69144498D01*
X247834912Y-69144511D01*
X247778343Y-69281082D01*
X247778340Y-69281092D01*
X247749500Y-69426079D01*
X247749500Y-69426082D01*
X247749500Y-69573918D01*
X247749500Y-69573920D01*
X247749499Y-69573920D01*
X237142921Y-69573920D01*
X237107951Y-69521584D01*
X237107948Y-69521580D01*
X237003419Y-69417051D01*
X237003415Y-69417048D01*
X236880501Y-69334919D01*
X236880492Y-69334914D01*
X236763128Y-69286301D01*
X236744681Y-69271435D01*
X236723775Y-69260288D01*
X236715328Y-69247781D01*
X236708725Y-69242460D01*
X236702344Y-69232245D01*
X236698802Y-69225909D01*
X236665084Y-69144505D01*
X236582951Y-69021584D01*
X236582948Y-69021580D01*
X236579329Y-69017961D01*
X243324880Y-69017961D01*
X243324880Y-69017962D01*
X243328429Y-69020334D01*
X243455813Y-69073097D01*
X243455823Y-69073100D01*
X243591053Y-69100000D01*
X243728946Y-69100000D01*
X243864176Y-69073100D01*
X243864186Y-69073097D01*
X243991570Y-69020334D01*
X243991572Y-69020332D01*
X243995119Y-69017961D01*
X244424880Y-69017961D01*
X244424880Y-69017962D01*
X244428429Y-69020334D01*
X244555813Y-69073097D01*
X244555823Y-69073100D01*
X244691053Y-69100000D01*
X244828946Y-69100000D01*
X244964176Y-69073100D01*
X244964186Y-69073097D01*
X245091570Y-69020334D01*
X245091572Y-69020332D01*
X245095119Y-69017961D01*
X244760001Y-68682842D01*
X244760000Y-68682842D01*
X244424880Y-69017961D01*
X243995119Y-69017961D01*
X243660001Y-68682842D01*
X243660000Y-68682842D01*
X243324880Y-69017961D01*
X236579329Y-69017961D01*
X236478419Y-68917051D01*
X236478415Y-68917048D01*
X236355501Y-68834919D01*
X236355488Y-68834912D01*
X236218917Y-68778343D01*
X236218907Y-68778340D01*
X236073920Y-68749500D01*
X236073918Y-68749500D01*
X235926082Y-68749500D01*
X235926080Y-68749500D01*
X235781092Y-68778340D01*
X235781082Y-68778343D01*
X235644511Y-68834912D01*
X235644498Y-68834919D01*
X235521584Y-68917048D01*
X235521580Y-68917051D01*
X235417051Y-69021580D01*
X235417048Y-69021584D01*
X235334919Y-69144498D01*
X235334912Y-69144511D01*
X235278343Y-69281082D01*
X235278340Y-69281092D01*
X235249500Y-69426079D01*
X235249500Y-69426082D01*
X235249500Y-69573918D01*
X235249500Y-69573920D01*
X235249499Y-69573920D01*
X172700500Y-69573920D01*
X172700500Y-66135837D01*
X174549500Y-66135837D01*
X174549500Y-66364162D01*
X174585215Y-66589660D01*
X174655770Y-66806803D01*
X174759421Y-67010228D01*
X174893621Y-67194937D01*
X175055063Y-67356379D01*
X175239772Y-67490579D01*
X175287466Y-67514880D01*
X175443196Y-67594229D01*
X175443198Y-67594229D01*
X175443201Y-67594231D01*
X175559592Y-67632049D01*
X175660339Y-67664784D01*
X175885838Y-67700500D01*
X175885843Y-67700500D01*
X176114162Y-67700500D01*
X176339660Y-67664784D01*
X176556799Y-67594231D01*
X176760228Y-67490579D01*
X176935722Y-67363074D01*
X182308000Y-67363074D01*
X182308000Y-67536925D01*
X182335197Y-67708639D01*
X182335197Y-67708642D01*
X182388918Y-67873978D01*
X182441494Y-67977164D01*
X182467847Y-68028884D01*
X182570035Y-68169533D01*
X182692967Y-68292465D01*
X182833616Y-68394653D01*
X182982148Y-68470334D01*
X182988521Y-68473581D01*
X183153858Y-68527302D01*
X183153859Y-68527302D01*
X183153862Y-68527303D01*
X183325574Y-68554500D01*
X183325575Y-68554500D01*
X183499425Y-68554500D01*
X183499426Y-68554500D01*
X183671138Y-68527303D01*
X183671141Y-68527302D01*
X183671142Y-68527302D01*
X183836478Y-68473581D01*
X183836478Y-68473580D01*
X183836481Y-68473580D01*
X183991384Y-68394653D01*
X184132033Y-68292465D01*
X184254965Y-68169533D01*
X184357153Y-68028884D01*
X184436080Y-67873981D01*
X184436081Y-67873978D01*
X184489802Y-67708642D01*
X184489802Y-67708641D01*
X184489803Y-67708638D01*
X184517000Y-67536926D01*
X184517000Y-67385837D01*
X209049500Y-67385837D01*
X209049500Y-67614162D01*
X209085215Y-67839660D01*
X209155770Y-68056803D01*
X209239769Y-68221659D01*
X209259421Y-68260228D01*
X209393621Y-68444937D01*
X209555063Y-68606379D01*
X209739772Y-68740579D01*
X209813886Y-68778342D01*
X209943196Y-68844229D01*
X209943198Y-68844229D01*
X209943201Y-68844231D01*
X210059592Y-68882049D01*
X210160339Y-68914784D01*
X210385838Y-68950500D01*
X210385843Y-68950500D01*
X210614162Y-68950500D01*
X210839660Y-68914784D01*
X211056799Y-68844231D01*
X211260228Y-68740579D01*
X211317566Y-68698920D01*
X224374499Y-68698920D01*
X224403340Y-68843907D01*
X224403343Y-68843917D01*
X224459912Y-68980488D01*
X224459919Y-68980501D01*
X224542048Y-69103415D01*
X224542051Y-69103419D01*
X224646580Y-69207948D01*
X224646584Y-69207951D01*
X224769498Y-69290080D01*
X224769511Y-69290087D01*
X224877734Y-69334914D01*
X224906087Y-69346658D01*
X224906091Y-69346658D01*
X224906092Y-69346659D01*
X225051079Y-69375500D01*
X225051082Y-69375500D01*
X225198920Y-69375500D01*
X225296462Y-69356096D01*
X225343913Y-69346658D01*
X225384899Y-69329681D01*
X225443450Y-69305429D01*
X225480488Y-69290087D01*
X225480488Y-69290086D01*
X225480495Y-69290084D01*
X225603416Y-69207951D01*
X225707951Y-69103416D01*
X225790084Y-68980495D01*
X225846658Y-68843913D01*
X225859702Y-68778340D01*
X225875500Y-68698920D01*
X225875500Y-68551079D01*
X225858966Y-68467961D01*
X242774880Y-68467961D01*
X242774880Y-68467962D01*
X242778425Y-68470331D01*
X242911446Y-68525429D01*
X242910863Y-68526836D01*
X242963032Y-68561015D01*
X242983725Y-68598903D01*
X242984570Y-68598554D01*
X243039668Y-68731573D01*
X243039668Y-68731574D01*
X243042037Y-68735119D01*
X243377157Y-68400000D01*
X243377157Y-68399999D01*
X243347321Y-68370163D01*
X243510000Y-68370163D01*
X243510000Y-68429837D01*
X243532836Y-68484968D01*
X243575032Y-68527164D01*
X243630163Y-68550000D01*
X243689837Y-68550000D01*
X243744968Y-68527164D01*
X243787164Y-68484968D01*
X243810000Y-68429837D01*
X243810000Y-68400000D01*
X243942842Y-68400000D01*
X244210000Y-68667157D01*
X244210001Y-68667157D01*
X244477157Y-68400001D01*
X244477157Y-68399999D01*
X244447321Y-68370163D01*
X244610000Y-68370163D01*
X244610000Y-68429837D01*
X244632836Y-68484968D01*
X244675032Y-68527164D01*
X244730163Y-68550000D01*
X244789837Y-68550000D01*
X244844968Y-68527164D01*
X244887164Y-68484968D01*
X244910000Y-68429837D01*
X244910000Y-68400000D01*
X245042842Y-68400000D01*
X245377961Y-68735119D01*
X245380332Y-68731572D01*
X245380334Y-68731570D01*
X245435430Y-68598554D01*
X245436832Y-68599135D01*
X245471029Y-68546956D01*
X245508903Y-68526274D01*
X245508554Y-68525430D01*
X245641570Y-68470334D01*
X245641572Y-68470332D01*
X245645119Y-68467961D01*
X245310001Y-68132842D01*
X245310000Y-68132842D01*
X245042842Y-68400000D01*
X244910000Y-68400000D01*
X244910000Y-68370163D01*
X244887164Y-68315032D01*
X244844968Y-68272836D01*
X244789837Y-68250000D01*
X244730163Y-68250000D01*
X244675032Y-68272836D01*
X244632836Y-68315032D01*
X244610000Y-68370163D01*
X244447321Y-68370163D01*
X244210000Y-68132842D01*
X243942842Y-68400000D01*
X243810000Y-68400000D01*
X243810000Y-68370163D01*
X243787164Y-68315032D01*
X243744968Y-68272836D01*
X243689837Y-68250000D01*
X243630163Y-68250000D01*
X243575032Y-68272836D01*
X243532836Y-68315032D01*
X243510000Y-68370163D01*
X243347321Y-68370163D01*
X243227658Y-68250500D01*
X243227658Y-68250501D01*
X243109998Y-68132842D01*
X242774880Y-68467961D01*
X225858966Y-68467961D01*
X225854586Y-68445940D01*
X225846659Y-68406092D01*
X225846658Y-68406091D01*
X225846658Y-68406087D01*
X225841922Y-68394653D01*
X225790087Y-68269511D01*
X225790080Y-68269498D01*
X225707951Y-68146584D01*
X225707948Y-68146580D01*
X225603419Y-68042051D01*
X225603415Y-68042048D01*
X225480501Y-67959919D01*
X225480488Y-67959912D01*
X225381586Y-67918946D01*
X242409999Y-67918946D01*
X242436899Y-68054176D01*
X242436901Y-68054182D01*
X242489668Y-68181573D01*
X242489668Y-68181574D01*
X242492037Y-68185119D01*
X242827157Y-67850000D01*
X242797320Y-67820163D01*
X242960000Y-67820163D01*
X242960000Y-67879837D01*
X242982836Y-67934968D01*
X243025032Y-67977164D01*
X243080163Y-68000000D01*
X243139837Y-68000000D01*
X243194968Y-67977164D01*
X243237164Y-67934968D01*
X243260000Y-67879837D01*
X243260000Y-67850000D01*
X243392842Y-67850000D01*
X243521258Y-67978416D01*
X243660000Y-68117157D01*
X243798741Y-67978416D01*
X243927157Y-67849999D01*
X243897321Y-67820163D01*
X244060000Y-67820163D01*
X244060000Y-67879837D01*
X244082836Y-67934968D01*
X244125032Y-67977164D01*
X244180163Y-68000000D01*
X244239837Y-68000000D01*
X244294968Y-67977164D01*
X244337164Y-67934968D01*
X244360000Y-67879837D01*
X244360000Y-67850000D01*
X244492842Y-67850000D01*
X244621258Y-67978416D01*
X244760000Y-68117157D01*
X244898741Y-67978416D01*
X245027157Y-67849999D01*
X244997321Y-67820163D01*
X245160000Y-67820163D01*
X245160000Y-67879837D01*
X245182836Y-67934968D01*
X245225032Y-67977164D01*
X245280163Y-68000000D01*
X245339837Y-68000000D01*
X245394968Y-67977164D01*
X245437164Y-67934968D01*
X245460000Y-67879837D01*
X245460000Y-67850000D01*
X245592842Y-67850000D01*
X245927961Y-68185119D01*
X245930332Y-68181572D01*
X245930334Y-68181570D01*
X245983097Y-68054186D01*
X245983100Y-68054176D01*
X246010000Y-67918946D01*
X246010000Y-67781053D01*
X245983100Y-67645823D01*
X245983097Y-67645813D01*
X245953319Y-67573920D01*
X249749499Y-67573920D01*
X249778340Y-67718907D01*
X249778343Y-67718917D01*
X249834912Y-67855488D01*
X249834919Y-67855501D01*
X249917048Y-67978415D01*
X249917051Y-67978419D01*
X250021580Y-68082948D01*
X250021584Y-68082951D01*
X250144498Y-68165080D01*
X250144511Y-68165087D01*
X250281082Y-68221656D01*
X250281087Y-68221658D01*
X250281091Y-68221658D01*
X250281092Y-68221659D01*
X250426079Y-68250500D01*
X250426082Y-68250500D01*
X250573920Y-68250500D01*
X250671462Y-68231096D01*
X250718913Y-68221658D01*
X250855495Y-68165084D01*
X250978416Y-68082951D01*
X251082951Y-67978416D01*
X251165084Y-67855495D01*
X251221658Y-67718913D01*
X251242496Y-67614157D01*
X251250500Y-67573920D01*
X251250500Y-67426079D01*
X251221659Y-67281092D01*
X251221658Y-67281091D01*
X251221658Y-67281087D01*
X251221656Y-67281082D01*
X251165087Y-67144511D01*
X251165080Y-67144498D01*
X251082951Y-67021584D01*
X251082948Y-67021580D01*
X250978419Y-66917051D01*
X250978415Y-66917048D01*
X250855501Y-66834919D01*
X250855488Y-66834912D01*
X250718917Y-66778343D01*
X250718907Y-66778340D01*
X250573920Y-66749500D01*
X250573918Y-66749500D01*
X250426082Y-66749500D01*
X250426080Y-66749500D01*
X250281092Y-66778340D01*
X250281082Y-66778343D01*
X250144511Y-66834912D01*
X250144498Y-66834919D01*
X250021584Y-66917048D01*
X250021580Y-66917051D01*
X249917051Y-67021580D01*
X249917048Y-67021584D01*
X249834919Y-67144498D01*
X249834912Y-67144511D01*
X249778343Y-67281082D01*
X249778340Y-67281092D01*
X249749500Y-67426079D01*
X249749500Y-67426081D01*
X249749500Y-67426082D01*
X249749500Y-67573918D01*
X249749500Y-67573920D01*
X249749499Y-67573920D01*
X245953319Y-67573920D01*
X245930334Y-67518429D01*
X245927961Y-67514880D01*
X245592842Y-67850000D01*
X245460000Y-67850000D01*
X245460000Y-67820163D01*
X245437164Y-67765032D01*
X245394968Y-67722836D01*
X245339837Y-67700000D01*
X245280163Y-67700000D01*
X245225032Y-67722836D01*
X245182836Y-67765032D01*
X245160000Y-67820163D01*
X244997321Y-67820163D01*
X244760000Y-67582842D01*
X244492842Y-67850000D01*
X244360000Y-67850000D01*
X244360000Y-67820163D01*
X244337164Y-67765032D01*
X244294968Y-67722836D01*
X244239837Y-67700000D01*
X244180163Y-67700000D01*
X244125032Y-67722836D01*
X244082836Y-67765032D01*
X244060000Y-67820163D01*
X243897321Y-67820163D01*
X243660000Y-67582842D01*
X243392842Y-67850000D01*
X243260000Y-67850000D01*
X243260000Y-67820163D01*
X243237164Y-67765032D01*
X243194968Y-67722836D01*
X243139837Y-67700000D01*
X243080163Y-67700000D01*
X243025032Y-67722836D01*
X242982836Y-67765032D01*
X242960000Y-67820163D01*
X242797320Y-67820163D01*
X242492037Y-67514880D01*
X242492036Y-67514880D01*
X242489667Y-67518427D01*
X242489666Y-67518428D01*
X242436902Y-67645813D01*
X242436899Y-67645823D01*
X242410000Y-67781053D01*
X242410000Y-67918946D01*
X242409999Y-67918946D01*
X225381586Y-67918946D01*
X225343917Y-67903343D01*
X225343907Y-67903340D01*
X225309926Y-67896581D01*
X225198920Y-67874500D01*
X225198918Y-67874500D01*
X225051082Y-67874500D01*
X225051080Y-67874500D01*
X224906092Y-67903340D01*
X224906082Y-67903343D01*
X224769511Y-67959912D01*
X224769498Y-67959919D01*
X224646584Y-68042048D01*
X224646580Y-68042051D01*
X224542051Y-68146580D01*
X224542048Y-68146584D01*
X224459919Y-68269498D01*
X224459912Y-68269511D01*
X224403343Y-68406082D01*
X224403340Y-68406092D01*
X224374500Y-68551079D01*
X224374500Y-68551082D01*
X224374500Y-68698918D01*
X224374500Y-68698920D01*
X224374499Y-68698920D01*
X211317566Y-68698920D01*
X211444937Y-68606379D01*
X211606379Y-68444937D01*
X211740579Y-68260228D01*
X211844231Y-68056799D01*
X211914784Y-67839660D01*
X211917872Y-67820163D01*
X211950500Y-67614162D01*
X211950500Y-67385837D01*
X211936904Y-67299999D01*
X242842842Y-67299999D01*
X242842842Y-67300001D01*
X243109998Y-67567157D01*
X243251076Y-67426081D01*
X243377157Y-67299999D01*
X243347321Y-67270163D01*
X243510000Y-67270163D01*
X243510000Y-67329837D01*
X243532836Y-67384968D01*
X243575032Y-67427164D01*
X243630163Y-67450000D01*
X243689837Y-67450000D01*
X243744968Y-67427164D01*
X243787164Y-67384968D01*
X243810000Y-67329837D01*
X243810000Y-67300000D01*
X243942842Y-67300000D01*
X244068924Y-67426082D01*
X244210000Y-67567157D01*
X244351075Y-67426082D01*
X244477157Y-67299999D01*
X244447321Y-67270163D01*
X244610000Y-67270163D01*
X244610000Y-67329837D01*
X244632836Y-67384968D01*
X244675032Y-67427164D01*
X244730163Y-67450000D01*
X244789837Y-67450000D01*
X244844968Y-67427164D01*
X244887164Y-67384968D01*
X244910000Y-67329837D01*
X244910000Y-67300000D01*
X245042842Y-67300000D01*
X245168924Y-67426082D01*
X245310000Y-67567157D01*
X245310001Y-67567157D01*
X245577157Y-67300001D01*
X245577157Y-67299999D01*
X245310001Y-67032842D01*
X245310000Y-67032842D01*
X245042842Y-67300000D01*
X244910000Y-67300000D01*
X244910000Y-67270163D01*
X244887164Y-67215032D01*
X244844968Y-67172836D01*
X244789837Y-67150000D01*
X244730163Y-67150000D01*
X244675032Y-67172836D01*
X244632836Y-67215032D01*
X244610000Y-67270163D01*
X244447321Y-67270163D01*
X244210000Y-67032842D01*
X243942842Y-67300000D01*
X243810000Y-67300000D01*
X243810000Y-67270163D01*
X243787164Y-67215032D01*
X243744968Y-67172836D01*
X243689837Y-67150000D01*
X243630163Y-67150000D01*
X243575032Y-67172836D01*
X243532836Y-67215032D01*
X243510000Y-67270163D01*
X243347321Y-67270163D01*
X243235737Y-67158579D01*
X243235737Y-67158580D01*
X243109998Y-67032842D01*
X242842842Y-67299999D01*
X211936904Y-67299999D01*
X211914784Y-67160339D01*
X211844229Y-66943196D01*
X211745790Y-66750000D01*
X211740579Y-66739772D01*
X211606379Y-66555063D01*
X211444937Y-66393621D01*
X211260228Y-66259421D01*
X211229780Y-66243907D01*
X211056803Y-66155770D01*
X210881839Y-66098920D01*
X227749499Y-66098920D01*
X227778340Y-66243907D01*
X227778343Y-66243917D01*
X227834912Y-66380488D01*
X227834919Y-66380501D01*
X227917048Y-66503415D01*
X227917051Y-66503419D01*
X228021580Y-66607948D01*
X228021584Y-66607951D01*
X228144498Y-66690080D01*
X228144511Y-66690087D01*
X228281082Y-66746656D01*
X228281087Y-66746658D01*
X228281091Y-66746658D01*
X228281092Y-66746659D01*
X228426079Y-66775500D01*
X228426082Y-66775500D01*
X228573920Y-66775500D01*
X228671462Y-66756096D01*
X228718913Y-66746658D01*
X228855495Y-66690084D01*
X228978416Y-66607951D01*
X229012447Y-66573920D01*
X235749499Y-66573920D01*
X235778340Y-66718907D01*
X235778343Y-66718917D01*
X235834912Y-66855488D01*
X235834919Y-66855501D01*
X235917048Y-66978415D01*
X235917051Y-66978419D01*
X236021580Y-67082948D01*
X236021584Y-67082951D01*
X236144498Y-67165080D01*
X236144511Y-67165087D01*
X236216581Y-67194939D01*
X236281087Y-67221658D01*
X236281091Y-67221658D01*
X236281092Y-67221659D01*
X236426079Y-67250500D01*
X236426082Y-67250500D01*
X236573920Y-67250500D01*
X236671462Y-67231096D01*
X236718913Y-67221658D01*
X236855495Y-67165084D01*
X236878070Y-67150000D01*
X236884753Y-67145535D01*
X236884753Y-67145534D01*
X236978416Y-67082951D01*
X237082951Y-66978416D01*
X237165084Y-66855495D01*
X237180223Y-66818946D01*
X242409999Y-66818946D01*
X242436899Y-66954176D01*
X242436901Y-66954182D01*
X242489668Y-67081573D01*
X242489668Y-67081574D01*
X242492037Y-67085119D01*
X242827157Y-66750000D01*
X242797320Y-66720163D01*
X242960000Y-66720163D01*
X242960000Y-66779837D01*
X242982836Y-66834968D01*
X243025032Y-66877164D01*
X243080163Y-66900000D01*
X243139837Y-66900000D01*
X243194968Y-66877164D01*
X243237164Y-66834968D01*
X243260000Y-66779837D01*
X243260000Y-66750000D01*
X243392842Y-66750000D01*
X243513958Y-66871116D01*
X243660000Y-67017157D01*
X243806041Y-66871116D01*
X243927157Y-66749999D01*
X243897321Y-66720163D01*
X244060000Y-66720163D01*
X244060000Y-66779837D01*
X244082836Y-66834968D01*
X244125032Y-66877164D01*
X244180163Y-66900000D01*
X244239837Y-66900000D01*
X244294968Y-66877164D01*
X244337164Y-66834968D01*
X244360000Y-66779837D01*
X244360000Y-66750000D01*
X244492842Y-66750000D01*
X244613958Y-66871116D01*
X244760000Y-67017157D01*
X244906041Y-66871116D01*
X245027157Y-66749999D01*
X244997321Y-66720163D01*
X245160000Y-66720163D01*
X245160000Y-66779837D01*
X245182836Y-66834968D01*
X245225032Y-66877164D01*
X245280163Y-66900000D01*
X245339837Y-66900000D01*
X245394968Y-66877164D01*
X245437164Y-66834968D01*
X245460000Y-66779837D01*
X245460000Y-66750000D01*
X245592842Y-66750000D01*
X245927961Y-67085119D01*
X245930332Y-67081572D01*
X245930334Y-67081570D01*
X245983097Y-66954186D01*
X245983100Y-66954176D01*
X246010000Y-66818946D01*
X246010000Y-66681053D01*
X245983100Y-66545823D01*
X245983097Y-66545813D01*
X245930334Y-66418429D01*
X245927961Y-66414880D01*
X245592842Y-66750000D01*
X245460000Y-66750000D01*
X245460000Y-66720163D01*
X245437164Y-66665032D01*
X245394968Y-66622836D01*
X245339837Y-66600000D01*
X245280163Y-66600000D01*
X245225032Y-66622836D01*
X245182836Y-66665032D01*
X245160000Y-66720163D01*
X244997321Y-66720163D01*
X244760000Y-66482842D01*
X244492842Y-66750000D01*
X244360000Y-66750000D01*
X244360000Y-66720163D01*
X244337164Y-66665032D01*
X244294968Y-66622836D01*
X244239837Y-66600000D01*
X244180163Y-66600000D01*
X244125032Y-66622836D01*
X244082836Y-66665032D01*
X244060000Y-66720163D01*
X243897321Y-66720163D01*
X243660000Y-66482842D01*
X243392842Y-66750000D01*
X243260000Y-66750000D01*
X243260000Y-66720163D01*
X243237164Y-66665032D01*
X243194968Y-66622836D01*
X243139837Y-66600000D01*
X243080163Y-66600000D01*
X243025032Y-66622836D01*
X242982836Y-66665032D01*
X242960000Y-66720163D01*
X242797320Y-66720163D01*
X242492037Y-66414880D01*
X242492036Y-66414880D01*
X242489667Y-66418427D01*
X242489666Y-66418428D01*
X242436902Y-66545813D01*
X242436899Y-66545823D01*
X242410000Y-66681053D01*
X242410000Y-66818946D01*
X242409999Y-66818946D01*
X237180223Y-66818946D01*
X237221658Y-66718913D01*
X237227393Y-66690084D01*
X237235213Y-66650772D01*
X237250500Y-66573920D01*
X237250500Y-66426079D01*
X237221659Y-66281092D01*
X237221658Y-66281091D01*
X237221658Y-66281087D01*
X237212684Y-66259421D01*
X237198716Y-66225698D01*
X237165085Y-66144508D01*
X237165084Y-66144505D01*
X237165082Y-66144502D01*
X237165080Y-66144498D01*
X237156753Y-66132036D01*
X242774880Y-66132036D01*
X242774880Y-66132037D01*
X243109998Y-66467157D01*
X243109999Y-66467157D01*
X243377157Y-66199999D01*
X243377157Y-66199998D01*
X243347322Y-66170163D01*
X243510000Y-66170163D01*
X243510000Y-66229837D01*
X243532836Y-66284968D01*
X243575032Y-66327164D01*
X243630163Y-66350000D01*
X243689837Y-66350000D01*
X243744968Y-66327164D01*
X243787164Y-66284968D01*
X243810000Y-66229837D01*
X243810000Y-66199998D01*
X243942842Y-66199998D01*
X243942842Y-66199999D01*
X244210000Y-66467157D01*
X244210001Y-66467157D01*
X244343574Y-66333582D01*
X244343578Y-66333577D01*
X244477157Y-66199998D01*
X244447322Y-66170163D01*
X244610000Y-66170163D01*
X244610000Y-66229837D01*
X244632836Y-66284968D01*
X244675032Y-66327164D01*
X244730163Y-66350000D01*
X244789837Y-66350000D01*
X244844968Y-66327164D01*
X244887164Y-66284968D01*
X244910000Y-66229837D01*
X244910000Y-66199998D01*
X245042842Y-66199998D01*
X245042842Y-66199999D01*
X245310000Y-66467157D01*
X245310001Y-66467157D01*
X245645119Y-66132037D01*
X245641574Y-66129668D01*
X245508554Y-66074570D01*
X245509134Y-66073168D01*
X245456949Y-66038963D01*
X245436276Y-66001094D01*
X245435429Y-66001446D01*
X245380331Y-65868425D01*
X245377962Y-65864880D01*
X245377961Y-65864880D01*
X245042842Y-66199998D01*
X244910000Y-66199998D01*
X244910000Y-66170163D01*
X244887164Y-66115032D01*
X244844968Y-66072836D01*
X244789837Y-66050000D01*
X244730163Y-66050000D01*
X244675032Y-66072836D01*
X244632836Y-66115032D01*
X244610000Y-66170163D01*
X244447322Y-66170163D01*
X244210001Y-65932842D01*
X244210000Y-65932842D01*
X243942842Y-66199998D01*
X243810000Y-66199998D01*
X243810000Y-66170163D01*
X243787164Y-66115032D01*
X243744968Y-66072836D01*
X243689837Y-66050000D01*
X243630163Y-66050000D01*
X243575032Y-66072836D01*
X243532836Y-66115032D01*
X243510000Y-66170163D01*
X243347322Y-66170163D01*
X243042037Y-65864880D01*
X243042036Y-65864880D01*
X243039667Y-65868427D01*
X243039666Y-65868428D01*
X242984570Y-66001445D01*
X242983171Y-66000865D01*
X242948951Y-66053059D01*
X242911096Y-66073728D01*
X242911445Y-66074570D01*
X242778428Y-66129666D01*
X242778427Y-66129667D01*
X242774880Y-66132036D01*
X237156753Y-66132036D01*
X237082951Y-66021584D01*
X237082948Y-66021580D01*
X236978419Y-65917051D01*
X236978415Y-65917048D01*
X236855501Y-65834919D01*
X236855488Y-65834912D01*
X236718917Y-65778343D01*
X236718907Y-65778340D01*
X236575745Y-65749863D01*
X236573920Y-65749500D01*
X236573918Y-65749500D01*
X236426082Y-65749500D01*
X236426080Y-65749500D01*
X236281092Y-65778340D01*
X236281082Y-65778343D01*
X236144511Y-65834912D01*
X236144498Y-65834919D01*
X236021584Y-65917048D01*
X236021580Y-65917051D01*
X235917051Y-66021580D01*
X235917048Y-66021584D01*
X235834919Y-66144498D01*
X235834912Y-66144511D01*
X235778343Y-66281082D01*
X235778340Y-66281092D01*
X235749500Y-66426079D01*
X235749500Y-66426082D01*
X235749500Y-66573918D01*
X235749500Y-66573920D01*
X235749499Y-66573920D01*
X229012447Y-66573920D01*
X229082951Y-66503416D01*
X229165084Y-66380495D01*
X229221658Y-66243913D01*
X229237338Y-66165087D01*
X229250500Y-66098920D01*
X229250500Y-65951079D01*
X229221659Y-65806092D01*
X229221658Y-65806091D01*
X229221658Y-65806087D01*
X229198633Y-65750500D01*
X229165087Y-65669511D01*
X229165080Y-65669498D01*
X229101216Y-65573920D01*
X230749499Y-65573920D01*
X230778340Y-65718907D01*
X230778343Y-65718917D01*
X230834912Y-65855488D01*
X230834919Y-65855501D01*
X230917048Y-65978415D01*
X230917051Y-65978419D01*
X231021580Y-66082948D01*
X231021584Y-66082951D01*
X231144498Y-66165080D01*
X231144511Y-66165087D01*
X231228797Y-66199999D01*
X231281087Y-66221658D01*
X231281091Y-66221658D01*
X231281092Y-66221659D01*
X231426079Y-66250500D01*
X231426082Y-66250500D01*
X231573920Y-66250500D01*
X231677795Y-66229837D01*
X231718913Y-66221658D01*
X231855495Y-66165084D01*
X231978416Y-66082951D01*
X232082951Y-65978416D01*
X232165084Y-65855495D01*
X232221658Y-65718913D01*
X232231486Y-65669505D01*
X232248886Y-65582036D01*
X243324880Y-65582036D01*
X243324880Y-65582037D01*
X243660000Y-65917157D01*
X243660001Y-65917157D01*
X243995119Y-65582037D01*
X243995118Y-65582036D01*
X244424880Y-65582036D01*
X244424880Y-65582037D01*
X244760000Y-65917157D01*
X244760001Y-65917157D01*
X245095119Y-65582037D01*
X245091574Y-65579668D01*
X244964182Y-65526901D01*
X244964176Y-65526899D01*
X244828946Y-65500000D01*
X244691054Y-65500000D01*
X244555823Y-65526899D01*
X244555813Y-65526902D01*
X244428428Y-65579666D01*
X244428427Y-65579667D01*
X244424880Y-65582036D01*
X243995118Y-65582036D01*
X243991574Y-65579668D01*
X243864182Y-65526901D01*
X243864176Y-65526899D01*
X243728946Y-65500000D01*
X243591054Y-65500000D01*
X243455823Y-65526899D01*
X243455813Y-65526902D01*
X243328428Y-65579666D01*
X243328427Y-65579667D01*
X243324880Y-65582036D01*
X232248886Y-65582036D01*
X232250500Y-65573920D01*
X232250500Y-65426079D01*
X232221659Y-65281092D01*
X232221658Y-65281091D01*
X232221658Y-65281087D01*
X232197951Y-65223852D01*
X232165087Y-65144511D01*
X232165080Y-65144498D01*
X232082951Y-65021584D01*
X232082948Y-65021580D01*
X231978419Y-64917051D01*
X231978415Y-64917048D01*
X231855501Y-64834919D01*
X231855488Y-64834912D01*
X231718917Y-64778343D01*
X231718907Y-64778340D01*
X231573920Y-64749500D01*
X231573918Y-64749500D01*
X231426082Y-64749500D01*
X231426080Y-64749500D01*
X231281092Y-64778340D01*
X231281082Y-64778343D01*
X231144511Y-64834912D01*
X231144498Y-64834919D01*
X231021584Y-64917048D01*
X231021580Y-64917051D01*
X230917051Y-65021580D01*
X230917048Y-65021584D01*
X230834919Y-65144498D01*
X230834912Y-65144511D01*
X230778343Y-65281082D01*
X230778340Y-65281092D01*
X230749500Y-65426079D01*
X230749500Y-65426082D01*
X230749500Y-65573918D01*
X230749500Y-65573920D01*
X230749499Y-65573920D01*
X229101216Y-65573920D01*
X229082951Y-65546584D01*
X229082948Y-65546580D01*
X228978419Y-65442051D01*
X228978415Y-65442048D01*
X228855501Y-65359919D01*
X228855488Y-65359912D01*
X228718917Y-65303343D01*
X228718907Y-65303340D01*
X228573920Y-65274500D01*
X228573918Y-65274500D01*
X228426082Y-65274500D01*
X228426080Y-65274500D01*
X228281092Y-65303340D01*
X228281082Y-65303343D01*
X228144511Y-65359912D01*
X228144498Y-65359919D01*
X228021584Y-65442048D01*
X228021580Y-65442051D01*
X227917051Y-65546580D01*
X227917048Y-65546584D01*
X227834919Y-65669498D01*
X227834912Y-65669511D01*
X227778343Y-65806082D01*
X227778340Y-65806092D01*
X227749500Y-65951079D01*
X227749500Y-65951082D01*
X227749500Y-66098918D01*
X227749500Y-66098920D01*
X227749499Y-66098920D01*
X210881839Y-66098920D01*
X210839660Y-66085215D01*
X210727575Y-66067463D01*
X210614162Y-66049500D01*
X210614157Y-66049500D01*
X210385843Y-66049500D01*
X210385838Y-66049500D01*
X210160339Y-66085215D01*
X209943196Y-66155770D01*
X209739771Y-66259421D01*
X209555061Y-66393622D01*
X209393622Y-66555061D01*
X209259421Y-66739771D01*
X209155770Y-66943196D01*
X209085215Y-67160339D01*
X209049500Y-67385837D01*
X184517000Y-67385837D01*
X184517000Y-67363074D01*
X184489803Y-67191362D01*
X184489802Y-67191358D01*
X184489802Y-67191357D01*
X184436081Y-67026021D01*
X184428034Y-67010228D01*
X184357153Y-66871116D01*
X184254965Y-66730467D01*
X184132033Y-66607535D01*
X184121662Y-66600000D01*
X184052708Y-66549901D01*
X184032023Y-66523076D01*
X183412501Y-65903553D01*
X183412500Y-65903553D01*
X182808876Y-66507174D01*
X182808652Y-66508242D01*
X182772289Y-66549903D01*
X182692967Y-66607534D01*
X182570037Y-66730464D01*
X182570037Y-66730465D01*
X182570035Y-66730467D01*
X182526149Y-66790869D01*
X182467847Y-66871115D01*
X182388918Y-67026021D01*
X182335197Y-67191357D01*
X182335197Y-67191360D01*
X182308000Y-67363074D01*
X176935722Y-67363074D01*
X176944937Y-67356379D01*
X177106379Y-67194937D01*
X177240579Y-67010228D01*
X177344231Y-66806799D01*
X177414784Y-66589660D01*
X177425330Y-66523076D01*
X177450500Y-66364162D01*
X177450500Y-66135837D01*
X177414784Y-65910339D01*
X177367529Y-65764905D01*
X177344231Y-65693201D01*
X177344229Y-65693198D01*
X177344229Y-65693196D01*
X177253197Y-65514536D01*
X177253196Y-65514534D01*
X177240580Y-65489774D01*
X177232328Y-65478416D01*
X177221205Y-65463107D01*
X182308500Y-65463107D01*
X182308500Y-65636892D01*
X182335683Y-65808521D01*
X182389384Y-65973793D01*
X182468276Y-66128624D01*
X182468277Y-66128626D01*
X182473344Y-66135600D01*
X182473346Y-66135601D01*
X183058946Y-65550001D01*
X183058946Y-65549999D01*
X183012869Y-65503922D01*
X183062500Y-65503922D01*
X183062500Y-65596078D01*
X183086352Y-65685095D01*
X183132430Y-65764905D01*
X183197595Y-65830070D01*
X183277405Y-65876148D01*
X183366422Y-65900000D01*
X183458578Y-65900000D01*
X183547595Y-65876148D01*
X183627405Y-65830070D01*
X183692570Y-65764905D01*
X183738648Y-65685095D01*
X183762500Y-65596078D01*
X183762500Y-65549999D01*
X183766053Y-65549999D01*
X183766053Y-65550000D01*
X184351653Y-66135600D01*
X184356724Y-66128624D01*
X184435615Y-65973793D01*
X184489316Y-65808521D01*
X184516500Y-65636892D01*
X184516500Y-65463107D01*
X184489316Y-65291478D01*
X184435615Y-65126206D01*
X184408974Y-65073920D01*
X221249499Y-65073920D01*
X221278340Y-65218907D01*
X221278343Y-65218917D01*
X221334912Y-65355488D01*
X221334919Y-65355501D01*
X221417048Y-65478415D01*
X221417051Y-65478419D01*
X221521580Y-65582948D01*
X221521584Y-65582951D01*
X221644498Y-65665080D01*
X221644511Y-65665087D01*
X221781082Y-65721656D01*
X221781087Y-65721658D01*
X221781091Y-65721658D01*
X221781092Y-65721659D01*
X221926079Y-65750500D01*
X221926082Y-65750500D01*
X222073920Y-65750500D01*
X222171462Y-65731096D01*
X222218913Y-65721658D01*
X222355495Y-65665084D01*
X222478416Y-65582951D01*
X222582951Y-65478416D01*
X222665084Y-65355495D01*
X222721658Y-65218913D01*
X222745781Y-65097642D01*
X222778166Y-65035731D01*
X222819941Y-65007275D01*
X222880495Y-64982194D01*
X223003416Y-64900061D01*
X223107951Y-64795526D01*
X223190084Y-64672605D01*
X223246658Y-64536023D01*
X223275500Y-64391028D01*
X223275500Y-64257888D01*
X223295185Y-64190849D01*
X223303652Y-64179217D01*
X223305942Y-64176424D01*
X223305951Y-64176416D01*
X223388084Y-64053495D01*
X223444658Y-63916913D01*
X223460218Y-63838689D01*
X223473500Y-63771920D01*
X223473500Y-63689230D01*
X223493185Y-63622191D01*
X223509819Y-63601549D01*
X223607948Y-63503419D01*
X223607951Y-63503416D01*
X223690084Y-63380495D01*
X223746658Y-63243913D01*
X223765386Y-63149764D01*
X223775500Y-63098920D01*
X223775500Y-62951079D01*
X223746659Y-62806092D01*
X223746658Y-62806091D01*
X223746658Y-62806087D01*
X223714486Y-62728416D01*
X223690087Y-62669511D01*
X223690080Y-62669498D01*
X223607951Y-62546584D01*
X223607948Y-62546580D01*
X223503419Y-62442051D01*
X223503415Y-62442048D01*
X223380501Y-62359919D01*
X223380488Y-62359912D01*
X223243917Y-62303343D01*
X223243907Y-62303340D01*
X223098920Y-62274500D01*
X223098918Y-62274500D01*
X222951082Y-62274500D01*
X222951080Y-62274500D01*
X222806092Y-62303340D01*
X222806082Y-62303343D01*
X222669511Y-62359912D01*
X222669498Y-62359919D01*
X222546584Y-62442048D01*
X222546580Y-62442051D01*
X222442051Y-62546580D01*
X222442048Y-62546584D01*
X222359919Y-62669498D01*
X222359912Y-62669511D01*
X222303343Y-62806082D01*
X222303340Y-62806092D01*
X222274500Y-62951079D01*
X222274500Y-63033770D01*
X222254815Y-63100809D01*
X222238181Y-63121451D01*
X222140051Y-63219580D01*
X222140048Y-63219584D01*
X222057919Y-63342498D01*
X222057912Y-63342511D01*
X222001343Y-63479082D01*
X222001340Y-63479092D01*
X221972500Y-63624079D01*
X221972500Y-63757220D01*
X221952815Y-63824259D01*
X221944364Y-63835872D01*
X221942052Y-63838689D01*
X221859919Y-63961608D01*
X221859912Y-63961621D01*
X221803343Y-64098192D01*
X221803340Y-64098202D01*
X221779219Y-64219466D01*
X221746834Y-64281377D01*
X221705055Y-64309835D01*
X221644508Y-64334914D01*
X221644498Y-64334919D01*
X221521584Y-64417048D01*
X221521580Y-64417051D01*
X221417051Y-64521580D01*
X221417048Y-64521584D01*
X221334919Y-64644498D01*
X221334912Y-64644511D01*
X221278343Y-64781082D01*
X221278340Y-64781092D01*
X221249500Y-64926079D01*
X221249500Y-64926082D01*
X221249500Y-65073918D01*
X221249500Y-65073920D01*
X221249499Y-65073920D01*
X184408974Y-65073920D01*
X184359226Y-64976285D01*
X184359225Y-64976283D01*
X184356729Y-64971384D01*
X184351653Y-64964398D01*
X183766053Y-65549999D01*
X183762500Y-65549999D01*
X183762500Y-65503922D01*
X183738648Y-65414905D01*
X183692570Y-65335095D01*
X183627405Y-65269930D01*
X183547595Y-65223852D01*
X183458578Y-65200000D01*
X183366422Y-65200000D01*
X183277405Y-65223852D01*
X183197595Y-65269930D01*
X183132430Y-65335095D01*
X183086352Y-65414905D01*
X183062500Y-65503922D01*
X183012869Y-65503922D01*
X182473345Y-64964398D01*
X182473344Y-64964398D01*
X182468275Y-64971375D01*
X182389384Y-65126206D01*
X182335683Y-65291478D01*
X182308500Y-65463107D01*
X177221205Y-65463107D01*
X177106379Y-65305063D01*
X176944937Y-65143621D01*
X176760228Y-65009421D01*
X176706792Y-64982194D01*
X176556803Y-64905770D01*
X176339660Y-64835215D01*
X176114162Y-64799500D01*
X176114157Y-64799500D01*
X175885843Y-64799500D01*
X175885838Y-64799500D01*
X175660339Y-64835215D01*
X175443196Y-64905770D01*
X175239771Y-65009421D01*
X175055061Y-65143622D01*
X174893622Y-65305061D01*
X174759421Y-65489771D01*
X174655770Y-65693196D01*
X174585215Y-65910339D01*
X174549500Y-66135837D01*
X172700500Y-66135837D01*
X172700500Y-64610844D01*
X182826898Y-64610844D01*
X182826898Y-64610845D01*
X183412500Y-65196446D01*
X183412501Y-65196446D01*
X183998101Y-64610846D01*
X183998100Y-64610844D01*
X183991126Y-64605777D01*
X183991124Y-64605776D01*
X183836293Y-64526884D01*
X183671021Y-64473183D01*
X183499392Y-64446000D01*
X183325608Y-64446000D01*
X183153978Y-64473183D01*
X182988706Y-64526884D01*
X182833875Y-64605775D01*
X182826898Y-64610844D01*
X172700500Y-64610844D01*
X172700500Y-62323920D01*
X200499499Y-62323920D01*
X200528340Y-62468907D01*
X200528343Y-62468917D01*
X200584912Y-62605488D01*
X200584919Y-62605501D01*
X200667048Y-62728415D01*
X200667051Y-62728419D01*
X200771580Y-62832948D01*
X200771584Y-62832951D01*
X200894498Y-62915080D01*
X200894511Y-62915087D01*
X201031082Y-62971656D01*
X201031087Y-62971658D01*
X201031091Y-62971658D01*
X201031092Y-62971659D01*
X201176079Y-63000500D01*
X201176082Y-63000500D01*
X201323920Y-63000500D01*
X201421462Y-62981096D01*
X201468913Y-62971658D01*
X201605495Y-62915084D01*
X201728416Y-62832951D01*
X201832951Y-62728416D01*
X201915084Y-62605495D01*
X201971658Y-62468913D01*
X201986459Y-62394505D01*
X202000500Y-62323920D01*
X202000500Y-62176079D01*
X201971659Y-62031092D01*
X201971658Y-62031091D01*
X201971658Y-62031087D01*
X201928164Y-61926082D01*
X201915087Y-61894511D01*
X201915080Y-61894498D01*
X201832951Y-61771584D01*
X201832948Y-61771580D01*
X201728419Y-61667051D01*
X201728415Y-61667048D01*
X201605501Y-61584919D01*
X201605488Y-61584912D01*
X201468917Y-61528343D01*
X201468907Y-61528340D01*
X201323920Y-61499500D01*
X201323918Y-61499500D01*
X201176082Y-61499500D01*
X201176080Y-61499500D01*
X201031092Y-61528340D01*
X201031082Y-61528343D01*
X200894511Y-61584912D01*
X200894498Y-61584919D01*
X200771584Y-61667048D01*
X200771580Y-61667051D01*
X200667051Y-61771580D01*
X200667048Y-61771584D01*
X200584919Y-61894498D01*
X200584912Y-61894511D01*
X200528343Y-62031082D01*
X200528340Y-62031092D01*
X200499500Y-62176079D01*
X200499500Y-62176082D01*
X200499500Y-62323918D01*
X200499500Y-62323920D01*
X200499499Y-62323920D01*
X172700500Y-62323920D01*
X172700500Y-61155300D01*
X225458809Y-61155300D01*
X225487650Y-61300287D01*
X225487653Y-61300297D01*
X225544222Y-61436868D01*
X225544229Y-61436881D01*
X225626358Y-61559795D01*
X225626361Y-61559799D01*
X225730890Y-61664328D01*
X225730894Y-61664331D01*
X225853808Y-61746460D01*
X225853821Y-61746467D01*
X225990392Y-61803036D01*
X225990397Y-61803038D01*
X225990401Y-61803038D01*
X225990402Y-61803039D01*
X226135389Y-61831880D01*
X226156811Y-61831880D01*
X226223850Y-61851565D01*
X226269605Y-61904369D01*
X226279549Y-61973527D01*
X226271374Y-62003327D01*
X226235854Y-62089082D01*
X226235853Y-62089086D01*
X226235852Y-62089089D01*
X226235851Y-62089089D01*
X226201248Y-62263052D01*
X226201248Y-62440443D01*
X226235851Y-62614406D01*
X226235854Y-62614415D01*
X226303731Y-62778288D01*
X226303738Y-62778301D01*
X226402283Y-62925782D01*
X226402286Y-62925786D01*
X226527709Y-63051209D01*
X226527713Y-63051212D01*
X226675194Y-63149757D01*
X226675207Y-63149764D01*
X226798111Y-63200671D01*
X226839082Y-63217642D01*
X226839084Y-63217642D01*
X226839089Y-63217644D01*
X227013052Y-63252247D01*
X227013055Y-63252248D01*
X227013057Y-63252248D01*
X227190441Y-63252248D01*
X227190442Y-63252247D01*
X227248430Y-63240712D01*
X227364406Y-63217644D01*
X227364409Y-63217642D01*
X227364414Y-63217642D01*
X227528295Y-63149761D01*
X227641798Y-63073920D01*
X236749499Y-63073920D01*
X236778340Y-63218907D01*
X236778343Y-63218917D01*
X236834912Y-63355488D01*
X236834919Y-63355501D01*
X236917048Y-63478415D01*
X236917051Y-63478419D01*
X237021580Y-63582948D01*
X237021584Y-63582951D01*
X237144498Y-63665080D01*
X237144511Y-63665087D01*
X237281082Y-63721656D01*
X237281087Y-63721658D01*
X237281091Y-63721658D01*
X237281092Y-63721659D01*
X237426079Y-63750500D01*
X237426082Y-63750500D01*
X237573920Y-63750500D01*
X237671462Y-63731096D01*
X237718913Y-63721658D01*
X237855495Y-63665084D01*
X237978416Y-63582951D01*
X238082951Y-63478416D01*
X238165084Y-63355495D01*
X238221658Y-63218913D01*
X238241045Y-63121451D01*
X238250500Y-63073920D01*
X238250500Y-62926079D01*
X238221659Y-62781092D01*
X238221658Y-62781091D01*
X238221658Y-62781087D01*
X238220499Y-62778288D01*
X238165087Y-62644511D01*
X238165080Y-62644498D01*
X238082951Y-62521584D01*
X238082948Y-62521580D01*
X237978419Y-62417051D01*
X237978415Y-62417048D01*
X237855501Y-62334919D01*
X237855488Y-62334912D01*
X237718917Y-62278343D01*
X237718907Y-62278340D01*
X237573920Y-62249500D01*
X237573918Y-62249500D01*
X237426082Y-62249500D01*
X237426080Y-62249500D01*
X237281092Y-62278340D01*
X237281082Y-62278343D01*
X237144511Y-62334912D01*
X237144498Y-62334919D01*
X237021584Y-62417048D01*
X237021580Y-62417051D01*
X236917051Y-62521580D01*
X236917048Y-62521584D01*
X236834919Y-62644498D01*
X236834912Y-62644511D01*
X236778343Y-62781082D01*
X236778340Y-62781092D01*
X236749500Y-62926079D01*
X236749500Y-62926082D01*
X236749500Y-63073918D01*
X236749500Y-63073920D01*
X236749499Y-63073920D01*
X227641798Y-63073920D01*
X227675783Y-63051212D01*
X227801212Y-62925783D01*
X227854082Y-62846659D01*
X227869708Y-62823272D01*
X227899761Y-62778295D01*
X227967642Y-62614414D01*
X227973901Y-62582951D01*
X228002247Y-62440443D01*
X228002248Y-62440441D01*
X228002248Y-62263054D01*
X228002247Y-62263052D01*
X227989490Y-62198920D01*
X241124499Y-62198920D01*
X241153340Y-62343907D01*
X241153343Y-62343917D01*
X241209912Y-62480488D01*
X241209919Y-62480501D01*
X241292048Y-62603415D01*
X241292051Y-62603419D01*
X241396580Y-62707948D01*
X241396584Y-62707951D01*
X241519498Y-62790080D01*
X241519511Y-62790087D01*
X241601192Y-62823920D01*
X241656087Y-62846658D01*
X241656091Y-62846658D01*
X241656092Y-62846659D01*
X241801079Y-62875500D01*
X241801082Y-62875500D01*
X241948920Y-62875500D01*
X242071587Y-62851099D01*
X242093913Y-62846658D01*
X242148808Y-62823920D01*
X246749499Y-62823920D01*
X246778340Y-62968907D01*
X246778343Y-62968917D01*
X246834912Y-63105488D01*
X246834919Y-63105501D01*
X246917048Y-63228415D01*
X246917051Y-63228419D01*
X247021580Y-63332948D01*
X247021584Y-63332951D01*
X247144498Y-63415080D01*
X247144511Y-63415087D01*
X247281082Y-63471656D01*
X247281087Y-63471658D01*
X247281091Y-63471658D01*
X247281092Y-63471659D01*
X247426079Y-63500500D01*
X247426082Y-63500500D01*
X247573920Y-63500500D01*
X247671462Y-63481096D01*
X247718913Y-63471658D01*
X247855495Y-63415084D01*
X247978416Y-63332951D01*
X248082951Y-63228416D01*
X248165084Y-63105495D01*
X248167808Y-63098920D01*
X248208574Y-63000500D01*
X248221658Y-62968913D01*
X248232366Y-62915080D01*
X248250500Y-62823920D01*
X248250500Y-62676079D01*
X248221659Y-62531092D01*
X248221658Y-62531091D01*
X248221658Y-62531087D01*
X248199841Y-62478415D01*
X248165087Y-62394511D01*
X248165080Y-62394498D01*
X248082951Y-62271584D01*
X248082948Y-62271580D01*
X247978419Y-62167051D01*
X247978415Y-62167048D01*
X247855501Y-62084919D01*
X247855492Y-62084914D01*
X247828950Y-62073920D01*
X252999499Y-62073920D01*
X253028340Y-62218907D01*
X253028343Y-62218917D01*
X253084912Y-62355488D01*
X253084919Y-62355501D01*
X253167048Y-62478415D01*
X253167051Y-62478419D01*
X253271580Y-62582948D01*
X253271584Y-62582951D01*
X253394498Y-62665080D01*
X253394511Y-62665087D01*
X253497988Y-62707948D01*
X253531087Y-62721658D01*
X253531091Y-62721658D01*
X253531092Y-62721659D01*
X253676079Y-62750500D01*
X253676082Y-62750500D01*
X253823920Y-62750500D01*
X253934944Y-62728415D01*
X253968913Y-62721658D01*
X254105495Y-62665084D01*
X254228416Y-62582951D01*
X254332951Y-62478416D01*
X254415084Y-62355495D01*
X254471658Y-62218913D01*
X254481975Y-62167048D01*
X254500500Y-62073920D01*
X254500500Y-61926079D01*
X254471659Y-61781092D01*
X254471658Y-61781091D01*
X254471658Y-61781087D01*
X254471656Y-61781082D01*
X254415087Y-61644511D01*
X254415080Y-61644498D01*
X254332951Y-61521584D01*
X254332948Y-61521580D01*
X254228419Y-61417051D01*
X254228415Y-61417048D01*
X254105501Y-61334919D01*
X254105488Y-61334912D01*
X253968917Y-61278343D01*
X253968907Y-61278340D01*
X253823920Y-61249500D01*
X253823918Y-61249500D01*
X253676082Y-61249500D01*
X253676080Y-61249500D01*
X253531092Y-61278340D01*
X253531082Y-61278343D01*
X253394511Y-61334912D01*
X253394498Y-61334919D01*
X253271584Y-61417048D01*
X253271580Y-61417051D01*
X253167051Y-61521580D01*
X253167048Y-61521584D01*
X253084919Y-61644498D01*
X253084912Y-61644511D01*
X253028343Y-61781082D01*
X253028340Y-61781092D01*
X252999500Y-61926079D01*
X252999500Y-61926082D01*
X252999500Y-62073918D01*
X252999500Y-62073920D01*
X252999499Y-62073920D01*
X247828950Y-62073920D01*
X247733906Y-62034552D01*
X247733905Y-62034552D01*
X247718913Y-62028342D01*
X247718908Y-62028341D01*
X247718907Y-62028340D01*
X247573920Y-61999500D01*
X247573918Y-61999500D01*
X247426082Y-61999500D01*
X247426080Y-61999500D01*
X247281092Y-62028340D01*
X247281082Y-62028343D01*
X247144511Y-62084912D01*
X247144498Y-62084919D01*
X247021584Y-62167048D01*
X247021580Y-62167051D01*
X246917051Y-62271580D01*
X246917048Y-62271584D01*
X246834919Y-62394498D01*
X246834912Y-62394511D01*
X246778343Y-62531082D01*
X246778340Y-62531092D01*
X246749500Y-62676079D01*
X246749500Y-62676082D01*
X246749500Y-62823918D01*
X246749500Y-62823920D01*
X246749499Y-62823920D01*
X242148808Y-62823920D01*
X242230495Y-62790084D01*
X242353416Y-62707951D01*
X242457951Y-62603416D01*
X242540084Y-62480495D01*
X242596658Y-62343913D01*
X242609702Y-62278340D01*
X242625500Y-62198920D01*
X242625500Y-62051079D01*
X242596659Y-61906092D01*
X242596658Y-61906091D01*
X242596658Y-61906087D01*
X242591858Y-61894498D01*
X242540087Y-61769511D01*
X242540080Y-61769498D01*
X242457951Y-61646584D01*
X242457948Y-61646580D01*
X242353419Y-61542051D01*
X242353415Y-61542048D01*
X242230501Y-61459919D01*
X242230488Y-61459912D01*
X242093917Y-61403343D01*
X242093907Y-61403340D01*
X241948920Y-61374500D01*
X241948918Y-61374500D01*
X241801082Y-61374500D01*
X241801080Y-61374500D01*
X241656092Y-61403340D01*
X241656082Y-61403343D01*
X241519511Y-61459912D01*
X241519498Y-61459919D01*
X241396584Y-61542048D01*
X241396580Y-61542051D01*
X241292051Y-61646580D01*
X241292048Y-61646584D01*
X241209919Y-61769498D01*
X241209912Y-61769511D01*
X241153343Y-61906082D01*
X241153340Y-61906092D01*
X241124500Y-62051079D01*
X241124500Y-62051082D01*
X241124500Y-62198918D01*
X241124500Y-62198920D01*
X241124499Y-62198920D01*
X227989490Y-62198920D01*
X227967644Y-62089089D01*
X227967640Y-62089076D01*
X227899764Y-61925207D01*
X227899757Y-61925194D01*
X227801212Y-61777713D01*
X227801209Y-61777709D01*
X227675786Y-61652286D01*
X227675782Y-61652283D01*
X227528301Y-61553738D01*
X227528288Y-61553731D01*
X227364415Y-61485854D01*
X227364406Y-61485851D01*
X227190442Y-61451248D01*
X227190439Y-61451248D01*
X227052036Y-61451248D01*
X227032751Y-61445585D01*
X227012667Y-61444832D01*
X226999913Y-61435942D01*
X226984997Y-61431563D01*
X226971835Y-61416373D01*
X226955346Y-61404881D01*
X226949422Y-61390507D01*
X226939242Y-61378759D01*
X226936381Y-61358865D01*
X226928723Y-61340283D01*
X226929922Y-61313946D01*
X226929298Y-61309601D01*
X226930046Y-61305013D01*
X226930857Y-61300559D01*
X226930968Y-61300293D01*
X226959810Y-61155298D01*
X226959810Y-61141712D01*
X226961820Y-61130685D01*
X226972683Y-61109079D01*
X226979495Y-61085881D01*
X226992398Y-61069868D01*
X226993206Y-61068262D01*
X226994135Y-61067712D01*
X226996129Y-61065239D01*
X227082948Y-60978419D01*
X227082951Y-60978416D01*
X227165084Y-60855495D01*
X227221658Y-60718913D01*
X227231096Y-60671462D01*
X227250500Y-60573920D01*
X227250500Y-60426079D01*
X227221659Y-60281092D01*
X227221658Y-60281091D01*
X227221658Y-60281087D01*
X227221656Y-60281082D01*
X227165087Y-60144511D01*
X227165080Y-60144498D01*
X227082951Y-60021584D01*
X227082948Y-60021580D01*
X226978419Y-59917051D01*
X226978415Y-59917048D01*
X226855501Y-59834919D01*
X226855488Y-59834912D01*
X226718917Y-59778343D01*
X226718907Y-59778340D01*
X226573920Y-59749500D01*
X226573918Y-59749500D01*
X226426082Y-59749500D01*
X226426080Y-59749500D01*
X226281092Y-59778340D01*
X226281082Y-59778343D01*
X226144511Y-59834912D01*
X226144498Y-59834919D01*
X226021584Y-59917048D01*
X226021580Y-59917051D01*
X225917051Y-60021580D01*
X225917048Y-60021584D01*
X225834919Y-60144498D01*
X225834912Y-60144511D01*
X225778343Y-60281082D01*
X225778340Y-60281092D01*
X225749500Y-60426079D01*
X225749500Y-60428460D01*
X225749147Y-60429661D01*
X225748903Y-60432142D01*
X225748432Y-60432095D01*
X225729815Y-60495499D01*
X225713181Y-60516141D01*
X225626361Y-60602960D01*
X225626358Y-60602964D01*
X225544229Y-60725878D01*
X225544222Y-60725891D01*
X225487653Y-60862462D01*
X225487650Y-60862472D01*
X225458810Y-61007459D01*
X225458810Y-61007462D01*
X225458810Y-61155298D01*
X225458810Y-61155300D01*
X225458809Y-61155300D01*
X172700500Y-61155300D01*
X172700500Y-55893753D01*
X174530000Y-55893753D01*
X174530000Y-56106246D01*
X174563242Y-56316127D01*
X174563242Y-56316130D01*
X174628904Y-56518217D01*
X174725375Y-56707550D01*
X174764728Y-56761716D01*
X175397037Y-56129408D01*
X175414075Y-56192993D01*
X175479901Y-56307007D01*
X175572993Y-56400099D01*
X175687007Y-56465925D01*
X175750590Y-56482962D01*
X175118282Y-57115269D01*
X175118282Y-57115270D01*
X175172449Y-57154624D01*
X175361782Y-57251095D01*
X175563870Y-57316757D01*
X175773754Y-57350000D01*
X175986246Y-57350000D01*
X176196127Y-57316757D01*
X176196130Y-57316757D01*
X176398217Y-57251095D01*
X176587554Y-57154622D01*
X176641716Y-57115270D01*
X176641717Y-57115270D01*
X176009408Y-56482962D01*
X176072993Y-56465925D01*
X176187007Y-56400099D01*
X176280099Y-56307007D01*
X176345925Y-56192993D01*
X176362962Y-56129409D01*
X176995270Y-56761717D01*
X176995270Y-56761716D01*
X177034622Y-56707555D01*
X177039232Y-56698507D01*
X177087205Y-56647709D01*
X177155025Y-56630912D01*
X177221161Y-56653447D01*
X177260204Y-56698504D01*
X177264949Y-56707817D01*
X177389890Y-56879786D01*
X177540213Y-57030109D01*
X177712179Y-57155048D01*
X177712181Y-57155049D01*
X177712184Y-57155051D01*
X177901588Y-57251557D01*
X178103757Y-57317246D01*
X178313713Y-57350500D01*
X178313714Y-57350500D01*
X178526286Y-57350500D01*
X178526287Y-57350500D01*
X178736243Y-57317246D01*
X178938412Y-57251557D01*
X179127816Y-57155051D01*
X179214138Y-57092335D01*
X179299786Y-57030109D01*
X179299788Y-57030106D01*
X179299792Y-57030104D01*
X179450104Y-56879792D01*
X179450106Y-56879788D01*
X179450109Y-56879786D01*
X179575048Y-56707820D01*
X179575050Y-56707817D01*
X179575051Y-56707816D01*
X179579514Y-56699054D01*
X179627488Y-56648259D01*
X179695308Y-56631463D01*
X179761444Y-56653999D01*
X179800486Y-56699056D01*
X179804951Y-56707820D01*
X179929890Y-56879786D01*
X180080213Y-57030109D01*
X180252179Y-57155048D01*
X180252181Y-57155049D01*
X180252184Y-57155051D01*
X180441588Y-57251557D01*
X180643757Y-57317246D01*
X180853713Y-57350500D01*
X180853714Y-57350500D01*
X181066286Y-57350500D01*
X181066287Y-57350500D01*
X181276243Y-57317246D01*
X181478412Y-57251557D01*
X181667816Y-57155051D01*
X181754138Y-57092335D01*
X181839786Y-57030109D01*
X181839788Y-57030106D01*
X181839792Y-57030104D01*
X181990104Y-56879792D01*
X181990106Y-56879788D01*
X181990109Y-56879786D01*
X182115048Y-56707820D01*
X182115050Y-56707817D01*
X182115051Y-56707816D01*
X182119514Y-56699054D01*
X182167488Y-56648259D01*
X182235308Y-56631463D01*
X182301444Y-56653999D01*
X182340486Y-56699056D01*
X182344951Y-56707820D01*
X182469890Y-56879786D01*
X182620213Y-57030109D01*
X182792179Y-57155048D01*
X182792181Y-57155049D01*
X182792184Y-57155051D01*
X182981588Y-57251557D01*
X183183757Y-57317246D01*
X183393713Y-57350500D01*
X183393714Y-57350500D01*
X183606286Y-57350500D01*
X183606287Y-57350500D01*
X183816243Y-57317246D01*
X184018412Y-57251557D01*
X184207816Y-57155051D01*
X184379792Y-57030104D01*
X184493329Y-56916566D01*
X184554648Y-56883084D01*
X184624340Y-56888068D01*
X184680274Y-56929939D01*
X184697189Y-56960917D01*
X184746202Y-57092328D01*
X184746206Y-57092335D01*
X184832452Y-57207544D01*
X184832455Y-57207547D01*
X184947664Y-57293793D01*
X184947671Y-57293797D01*
X185082517Y-57344091D01*
X185082516Y-57344091D01*
X185089444Y-57344835D01*
X185142127Y-57350500D01*
X186937872Y-57350499D01*
X186997483Y-57344091D01*
X187132331Y-57293796D01*
X187247546Y-57207546D01*
X187333796Y-57092331D01*
X187384091Y-56957483D01*
X187390500Y-56897873D01*
X187390499Y-55893753D01*
X191590000Y-55893753D01*
X191590000Y-56106246D01*
X191623242Y-56316127D01*
X191623242Y-56316130D01*
X191688904Y-56518217D01*
X191785375Y-56707550D01*
X191824728Y-56761716D01*
X192457037Y-56129408D01*
X192474075Y-56192993D01*
X192539901Y-56307007D01*
X192632993Y-56400099D01*
X192747007Y-56465925D01*
X192810590Y-56482962D01*
X192178282Y-57115269D01*
X192178282Y-57115270D01*
X192232449Y-57154624D01*
X192421782Y-57251095D01*
X192623870Y-57316757D01*
X192833754Y-57350000D01*
X193046246Y-57350000D01*
X193256127Y-57316757D01*
X193256130Y-57316757D01*
X193458217Y-57251095D01*
X193647554Y-57154622D01*
X193701716Y-57115270D01*
X193701717Y-57115270D01*
X193069408Y-56482962D01*
X193132993Y-56465925D01*
X193247007Y-56400099D01*
X193340099Y-56307007D01*
X193405925Y-56192993D01*
X193422962Y-56129408D01*
X194055270Y-56761717D01*
X194055270Y-56761716D01*
X194094622Y-56707555D01*
X194099232Y-56698507D01*
X194147205Y-56647709D01*
X194215025Y-56630912D01*
X194281161Y-56653447D01*
X194320204Y-56698504D01*
X194324949Y-56707817D01*
X194449890Y-56879786D01*
X194600213Y-57030109D01*
X194772179Y-57155048D01*
X194772181Y-57155049D01*
X194772184Y-57155051D01*
X194961588Y-57251557D01*
X195163757Y-57317246D01*
X195373713Y-57350500D01*
X195373714Y-57350500D01*
X195586286Y-57350500D01*
X195586287Y-57350500D01*
X195796243Y-57317246D01*
X195998412Y-57251557D01*
X196187816Y-57155051D01*
X196274138Y-57092335D01*
X196359786Y-57030109D01*
X196359788Y-57030106D01*
X196359792Y-57030104D01*
X196510104Y-56879792D01*
X196510106Y-56879788D01*
X196510109Y-56879786D01*
X196635048Y-56707820D01*
X196635050Y-56707817D01*
X196635051Y-56707816D01*
X196639514Y-56699054D01*
X196687488Y-56648259D01*
X196755308Y-56631463D01*
X196821444Y-56653999D01*
X196860486Y-56699056D01*
X196864951Y-56707820D01*
X196989890Y-56879786D01*
X197140213Y-57030109D01*
X197312179Y-57155048D01*
X197312181Y-57155049D01*
X197312184Y-57155051D01*
X197501588Y-57251557D01*
X197703757Y-57317246D01*
X197913713Y-57350500D01*
X197913714Y-57350500D01*
X198126286Y-57350500D01*
X198126287Y-57350500D01*
X198336243Y-57317246D01*
X198538412Y-57251557D01*
X198727816Y-57155051D01*
X198899792Y-57030104D01*
X199013329Y-56916566D01*
X199074648Y-56883084D01*
X199144340Y-56888068D01*
X199200274Y-56929939D01*
X199217189Y-56960917D01*
X199266202Y-57092328D01*
X199266206Y-57092335D01*
X199352452Y-57207544D01*
X199352455Y-57207547D01*
X199467664Y-57293793D01*
X199467671Y-57293797D01*
X199602517Y-57344091D01*
X199602516Y-57344091D01*
X199609444Y-57344835D01*
X199662127Y-57350500D01*
X201457872Y-57350499D01*
X201517483Y-57344091D01*
X201652331Y-57293796D01*
X201767546Y-57207546D01*
X201853796Y-57092331D01*
X201904091Y-56957483D01*
X201910500Y-56897873D01*
X201910500Y-56573920D01*
X204249499Y-56573920D01*
X204278340Y-56718907D01*
X204278343Y-56718917D01*
X204334912Y-56855488D01*
X204334919Y-56855501D01*
X204417048Y-56978415D01*
X204417051Y-56978419D01*
X204525808Y-57087176D01*
X204559293Y-57148499D01*
X204554309Y-57218191D01*
X204552688Y-57222309D01*
X204528343Y-57281082D01*
X204528340Y-57281092D01*
X204499500Y-57426079D01*
X204499500Y-57426082D01*
X204499500Y-57573918D01*
X204499500Y-57573920D01*
X204499499Y-57573920D01*
X204528340Y-57718907D01*
X204528343Y-57718917D01*
X204584912Y-57855488D01*
X204584919Y-57855501D01*
X204667048Y-57978415D01*
X204667051Y-57978419D01*
X204771583Y-58082951D01*
X204856184Y-58139479D01*
X204900989Y-58193091D01*
X204909696Y-58262416D01*
X204890396Y-58311471D01*
X204834918Y-58394500D01*
X204834912Y-58394511D01*
X204778343Y-58531082D01*
X204778340Y-58531092D01*
X204749500Y-58676079D01*
X204749500Y-58676082D01*
X204749500Y-58823918D01*
X204749500Y-58823920D01*
X204749499Y-58823920D01*
X204778340Y-58968907D01*
X204778343Y-58968917D01*
X204834912Y-59105488D01*
X204834919Y-59105501D01*
X204917048Y-59228415D01*
X204917051Y-59228419D01*
X205021580Y-59332948D01*
X205021584Y-59332951D01*
X205144498Y-59415080D01*
X205144511Y-59415087D01*
X205247727Y-59457840D01*
X205281087Y-59471658D01*
X205281091Y-59471658D01*
X205281092Y-59471659D01*
X205426079Y-59500500D01*
X205426082Y-59500500D01*
X205573920Y-59500500D01*
X205671462Y-59481096D01*
X205718913Y-59471658D01*
X205855495Y-59415084D01*
X205978416Y-59332951D01*
X206082951Y-59228416D01*
X206165084Y-59105495D01*
X206221658Y-58968913D01*
X206250500Y-58823920D01*
X209999499Y-58823920D01*
X210028340Y-58968907D01*
X210028343Y-58968917D01*
X210084912Y-59105488D01*
X210084919Y-59105501D01*
X210167048Y-59228415D01*
X210167051Y-59228419D01*
X210271580Y-59332948D01*
X210271584Y-59332951D01*
X210394498Y-59415080D01*
X210394511Y-59415087D01*
X210497727Y-59457840D01*
X210531087Y-59471658D01*
X210531091Y-59471658D01*
X210531092Y-59471659D01*
X210676079Y-59500500D01*
X210676082Y-59500500D01*
X210823920Y-59500500D01*
X210921462Y-59481096D01*
X210968913Y-59471658D01*
X211105495Y-59415084D01*
X211228416Y-59332951D01*
X211332951Y-59228416D01*
X211415084Y-59105495D01*
X211471658Y-58968913D01*
X211500500Y-58823920D01*
X212249499Y-58823920D01*
X212278340Y-58968907D01*
X212278343Y-58968917D01*
X212334912Y-59105488D01*
X212334919Y-59105501D01*
X212417048Y-59228415D01*
X212417051Y-59228419D01*
X212521580Y-59332948D01*
X212521584Y-59332951D01*
X212644498Y-59415080D01*
X212644511Y-59415087D01*
X212747727Y-59457840D01*
X212781087Y-59471658D01*
X212781091Y-59471658D01*
X212781092Y-59471659D01*
X212926079Y-59500500D01*
X212926082Y-59500500D01*
X213073920Y-59500500D01*
X213171462Y-59481096D01*
X213218913Y-59471658D01*
X213355495Y-59415084D01*
X213478416Y-59332951D01*
X213582951Y-59228416D01*
X213665084Y-59105495D01*
X213721658Y-58968913D01*
X213750500Y-58823918D01*
X213750500Y-58676082D01*
X213750500Y-58676079D01*
X213721659Y-58531092D01*
X213721658Y-58531091D01*
X213721658Y-58531087D01*
X213721656Y-58531082D01*
X213665087Y-58394511D01*
X213665080Y-58394498D01*
X213582951Y-58271584D01*
X213582948Y-58271580D01*
X213478419Y-58167051D01*
X213478415Y-58167048D01*
X213355501Y-58084919D01*
X213355488Y-58084912D01*
X213218917Y-58028343D01*
X213218907Y-58028340D01*
X213073920Y-57999500D01*
X213073918Y-57999500D01*
X212926082Y-57999500D01*
X212926080Y-57999500D01*
X212781092Y-58028340D01*
X212781082Y-58028343D01*
X212644511Y-58084912D01*
X212644498Y-58084919D01*
X212521584Y-58167048D01*
X212521580Y-58167051D01*
X212417051Y-58271580D01*
X212417048Y-58271584D01*
X212334919Y-58394498D01*
X212334912Y-58394511D01*
X212278343Y-58531082D01*
X212278340Y-58531092D01*
X212249500Y-58676079D01*
X212249500Y-58676082D01*
X212249500Y-58823918D01*
X212249500Y-58823920D01*
X212249499Y-58823920D01*
X211500500Y-58823920D01*
X211500500Y-58823918D01*
X211500500Y-58676082D01*
X211500500Y-58676079D01*
X211471659Y-58531092D01*
X211471658Y-58531091D01*
X211471658Y-58531087D01*
X211471656Y-58531082D01*
X211415087Y-58394511D01*
X211415080Y-58394498D01*
X211332951Y-58271584D01*
X211332948Y-58271580D01*
X211228419Y-58167051D01*
X211228415Y-58167048D01*
X211105501Y-58084919D01*
X211105488Y-58084912D01*
X210968917Y-58028343D01*
X210968907Y-58028340D01*
X210823920Y-57999500D01*
X210823918Y-57999500D01*
X210676082Y-57999500D01*
X210676080Y-57999500D01*
X210531092Y-58028340D01*
X210531082Y-58028343D01*
X210394511Y-58084912D01*
X210394498Y-58084919D01*
X210271584Y-58167048D01*
X210271580Y-58167051D01*
X210167051Y-58271580D01*
X210167048Y-58271584D01*
X210084919Y-58394498D01*
X210084912Y-58394511D01*
X210028343Y-58531082D01*
X210028340Y-58531092D01*
X209999500Y-58676079D01*
X209999500Y-58676082D01*
X209999500Y-58823918D01*
X209999500Y-58823920D01*
X209999499Y-58823920D01*
X206250500Y-58823920D01*
X206250500Y-58823918D01*
X206250500Y-58676082D01*
X206250500Y-58676079D01*
X206221659Y-58531092D01*
X206221658Y-58531091D01*
X206221658Y-58531087D01*
X206221656Y-58531082D01*
X206165087Y-58394511D01*
X206165080Y-58394498D01*
X206082951Y-58271584D01*
X206082948Y-58271580D01*
X205978419Y-58167051D01*
X205978415Y-58167048D01*
X205893815Y-58110520D01*
X205849010Y-58056908D01*
X205840303Y-57987583D01*
X205859604Y-57938527D01*
X205915080Y-57855501D01*
X205915080Y-57855500D01*
X205915084Y-57855495D01*
X205971658Y-57718913D01*
X206000500Y-57573918D01*
X206000500Y-57426082D01*
X206000500Y-57426079D01*
X205971659Y-57281092D01*
X205971658Y-57281091D01*
X205971658Y-57281087D01*
X205959426Y-57251557D01*
X205915087Y-57144511D01*
X205915080Y-57144498D01*
X205832951Y-57021584D01*
X205832948Y-57021580D01*
X205724191Y-56912823D01*
X205690706Y-56851500D01*
X205695690Y-56781808D01*
X205697299Y-56777719D01*
X205721658Y-56718913D01*
X205750500Y-56573918D01*
X205750500Y-56426082D01*
X205750500Y-56426079D01*
X205721659Y-56281092D01*
X205721658Y-56281091D01*
X205721658Y-56281087D01*
X205721656Y-56281082D01*
X205665087Y-56144511D01*
X205665080Y-56144498D01*
X205582951Y-56021584D01*
X205582948Y-56021580D01*
X205478419Y-55917051D01*
X205478415Y-55917048D01*
X205355501Y-55834919D01*
X205355488Y-55834912D01*
X205218917Y-55778343D01*
X205218907Y-55778340D01*
X205073920Y-55749500D01*
X205073918Y-55749500D01*
X204926082Y-55749500D01*
X204926080Y-55749500D01*
X204781092Y-55778340D01*
X204781082Y-55778343D01*
X204644511Y-55834912D01*
X204644498Y-55834919D01*
X204521584Y-55917048D01*
X204521580Y-55917051D01*
X204417051Y-56021580D01*
X204417048Y-56021584D01*
X204334919Y-56144498D01*
X204334912Y-56144511D01*
X204278343Y-56281082D01*
X204278340Y-56281092D01*
X204249500Y-56426079D01*
X204249500Y-56426082D01*
X204249500Y-56573918D01*
X204249500Y-56573920D01*
X204249499Y-56573920D01*
X201910500Y-56573920D01*
X201910499Y-56000000D01*
X201910499Y-55102129D01*
X201910498Y-55102123D01*
X201904091Y-55042516D01*
X201853797Y-54907671D01*
X201853793Y-54907664D01*
X201767547Y-54792455D01*
X201767544Y-54792452D01*
X201652335Y-54706206D01*
X201652328Y-54706202D01*
X201517482Y-54655908D01*
X201517483Y-54655908D01*
X201457883Y-54649501D01*
X201457881Y-54649500D01*
X201457873Y-54649500D01*
X201457864Y-54649500D01*
X199662129Y-54649500D01*
X199662123Y-54649501D01*
X199602516Y-54655908D01*
X199467671Y-54706202D01*
X199467664Y-54706206D01*
X199352455Y-54792452D01*
X199352452Y-54792455D01*
X199266206Y-54907664D01*
X199266203Y-54907669D01*
X199217189Y-55039083D01*
X199175317Y-55095016D01*
X199109853Y-55119433D01*
X199041580Y-55104581D01*
X199013326Y-55083430D01*
X198899786Y-54969890D01*
X198727820Y-54844951D01*
X198538414Y-54748444D01*
X198538413Y-54748443D01*
X198538412Y-54748443D01*
X198336243Y-54682754D01*
X198336241Y-54682753D01*
X198336240Y-54682753D01*
X198174957Y-54657208D01*
X198126287Y-54649500D01*
X197913713Y-54649500D01*
X197865042Y-54657208D01*
X197703760Y-54682753D01*
X197501585Y-54748444D01*
X197312179Y-54844951D01*
X197140213Y-54969890D01*
X196989890Y-55120213D01*
X196864949Y-55292182D01*
X196860484Y-55300946D01*
X196812509Y-55351742D01*
X196744688Y-55368536D01*
X196678553Y-55345998D01*
X196639516Y-55300946D01*
X196635050Y-55292182D01*
X196510109Y-55120213D01*
X196359786Y-54969890D01*
X196187820Y-54844951D01*
X195998414Y-54748444D01*
X195998413Y-54748443D01*
X195998412Y-54748443D01*
X195796243Y-54682754D01*
X195796241Y-54682753D01*
X195796240Y-54682753D01*
X195634957Y-54657208D01*
X195586287Y-54649500D01*
X195373713Y-54649500D01*
X195325042Y-54657208D01*
X195163760Y-54682753D01*
X194961585Y-54748444D01*
X194772179Y-54844951D01*
X194600213Y-54969890D01*
X194449890Y-55120213D01*
X194324949Y-55292182D01*
X194320202Y-55301499D01*
X194272227Y-55352293D01*
X194204405Y-55369087D01*
X194138271Y-55346548D01*
X194099234Y-55301495D01*
X194094626Y-55292452D01*
X194055270Y-55238282D01*
X194055269Y-55238282D01*
X193422962Y-55870590D01*
X193405925Y-55807007D01*
X193340099Y-55692993D01*
X193247007Y-55599901D01*
X193132993Y-55534075D01*
X193069409Y-55517037D01*
X193701716Y-54884728D01*
X193647550Y-54845375D01*
X193458217Y-54748904D01*
X193256129Y-54683242D01*
X193046246Y-54650000D01*
X192833754Y-54650000D01*
X192623872Y-54683242D01*
X192623869Y-54683242D01*
X192421782Y-54748904D01*
X192232439Y-54845380D01*
X192178282Y-54884727D01*
X192178282Y-54884728D01*
X192810591Y-55517037D01*
X192747007Y-55534075D01*
X192632993Y-55599901D01*
X192539901Y-55692993D01*
X192474075Y-55807007D01*
X192457037Y-55870591D01*
X191824728Y-55238282D01*
X191824727Y-55238282D01*
X191785380Y-55292439D01*
X191688904Y-55481782D01*
X191623242Y-55683869D01*
X191623242Y-55683872D01*
X191590000Y-55893753D01*
X187390499Y-55893753D01*
X187390499Y-55102128D01*
X187384091Y-55042517D01*
X187347617Y-54944726D01*
X187333798Y-54907673D01*
X187333793Y-54907664D01*
X187247547Y-54792455D01*
X187247544Y-54792452D01*
X187132335Y-54706206D01*
X187132328Y-54706202D01*
X186997482Y-54655908D01*
X186997483Y-54655908D01*
X186937883Y-54649501D01*
X186937881Y-54649500D01*
X186937873Y-54649500D01*
X186937864Y-54649500D01*
X185142129Y-54649500D01*
X185142123Y-54649501D01*
X185082516Y-54655908D01*
X184947671Y-54706202D01*
X184947664Y-54706206D01*
X184832455Y-54792452D01*
X184832452Y-54792455D01*
X184746206Y-54907664D01*
X184746203Y-54907669D01*
X184697189Y-55039083D01*
X184655317Y-55095016D01*
X184589853Y-55119433D01*
X184521580Y-55104581D01*
X184493326Y-55083430D01*
X184379786Y-54969890D01*
X184207820Y-54844951D01*
X184018414Y-54748444D01*
X184018413Y-54748443D01*
X184018412Y-54748443D01*
X183816243Y-54682754D01*
X183816241Y-54682753D01*
X183816240Y-54682753D01*
X183654957Y-54657208D01*
X183606287Y-54649500D01*
X183393713Y-54649500D01*
X183345042Y-54657208D01*
X183183760Y-54682753D01*
X182981585Y-54748444D01*
X182792179Y-54844951D01*
X182620213Y-54969890D01*
X182469890Y-55120213D01*
X182344949Y-55292182D01*
X182340484Y-55300946D01*
X182292509Y-55351742D01*
X182224688Y-55368536D01*
X182158553Y-55345998D01*
X182119516Y-55300946D01*
X182115050Y-55292182D01*
X181990109Y-55120213D01*
X181839786Y-54969890D01*
X181667820Y-54844951D01*
X181478414Y-54748444D01*
X181478413Y-54748443D01*
X181478412Y-54748443D01*
X181276243Y-54682754D01*
X181276241Y-54682753D01*
X181276240Y-54682753D01*
X181114957Y-54657208D01*
X181066287Y-54649500D01*
X180853713Y-54649500D01*
X180805042Y-54657208D01*
X180643760Y-54682753D01*
X180441585Y-54748444D01*
X180252179Y-54844951D01*
X180080213Y-54969890D01*
X179929890Y-55120213D01*
X179804949Y-55292182D01*
X179800484Y-55300946D01*
X179752509Y-55351742D01*
X179684688Y-55368536D01*
X179618553Y-55345998D01*
X179579516Y-55300946D01*
X179575050Y-55292182D01*
X179450109Y-55120213D01*
X179299786Y-54969890D01*
X179127820Y-54844951D01*
X178938414Y-54748444D01*
X178938413Y-54748443D01*
X178938412Y-54748443D01*
X178736243Y-54682754D01*
X178736241Y-54682753D01*
X178736240Y-54682753D01*
X178574957Y-54657208D01*
X178526287Y-54649500D01*
X178313713Y-54649500D01*
X178265042Y-54657208D01*
X178103760Y-54682753D01*
X177901585Y-54748444D01*
X177712179Y-54844951D01*
X177540213Y-54969890D01*
X177389890Y-55120213D01*
X177264949Y-55292182D01*
X177260202Y-55301499D01*
X177212227Y-55352293D01*
X177144405Y-55369087D01*
X177078271Y-55346548D01*
X177039234Y-55301495D01*
X177034626Y-55292452D01*
X176995270Y-55238282D01*
X176995269Y-55238282D01*
X176362962Y-55870590D01*
X176345925Y-55807007D01*
X176280099Y-55692993D01*
X176187007Y-55599901D01*
X176072993Y-55534075D01*
X176009409Y-55517037D01*
X176641716Y-54884728D01*
X176587550Y-54845375D01*
X176398217Y-54748904D01*
X176196129Y-54683242D01*
X175986246Y-54650000D01*
X175773754Y-54650000D01*
X175563872Y-54683242D01*
X175563869Y-54683242D01*
X175361782Y-54748904D01*
X175172439Y-54845380D01*
X175118282Y-54884727D01*
X175118282Y-54884728D01*
X175750591Y-55517037D01*
X175687007Y-55534075D01*
X175572993Y-55599901D01*
X175479901Y-55692993D01*
X175414075Y-55807007D01*
X175397037Y-55870591D01*
X174764728Y-55238282D01*
X174764727Y-55238282D01*
X174725380Y-55292439D01*
X174628904Y-55481782D01*
X174563242Y-55683869D01*
X174563242Y-55683872D01*
X174530000Y-55893753D01*
X172700500Y-55893753D01*
X172700500Y-54256092D01*
X172701097Y-54243939D01*
X172709805Y-54155519D01*
X172714665Y-54106171D01*
X172719403Y-54082349D01*
X172757816Y-53955719D01*
X172767113Y-53933278D01*
X172829485Y-53816587D01*
X172842982Y-53796387D01*
X172926924Y-53694103D01*
X172944103Y-53676924D01*
X173046387Y-53592982D01*
X173066587Y-53579485D01*
X173183278Y-53517113D01*
X173205719Y-53507816D01*
X173332349Y-53469403D01*
X173356173Y-53464665D01*
X173485170Y-53451960D01*
X173493939Y-53451097D01*
X173506092Y-53450500D01*
X173539882Y-53450500D01*
X215210118Y-53450500D01*
X215243908Y-53450500D01*
X215256061Y-53451097D01*
G37*
%TD.AperFunction*%
%TD*%
M02*
