%TF.GenerationSoftware,KiCad,Pcbnew,9.0.6*%
%TF.CreationDate,2026-05-30T01:47:23+05:30*%
%TF.ProjectId,KiCad 9 Esp32 Demo Project,4b694361-6420-4392-9045-737033322044,rev?*%
%TF.SameCoordinates,Original*%
%TF.FileFunction,Soldermask,Top*%
%TF.FilePolarity,Negative*%
%FSLAX46Y46*%
G04 Gerber Fmt 4.6, Leading zero omitted, Abs format (unit mm)*
G04 Created by KiCad (PCBNEW 9.0.6) date 2026-05-30 01:47:23*
%MOMM*%
%LPD*%
G01*
G04 APERTURE LIST*
G04 Aperture macros list*
%AMRoundRect*
0 Rectangle with rounded corners*
0 $1 Rounding radius*
0 $2 $3 $4 $5 $6 $7 $8 $9 X,Y pos of 4 corners*
0 Add a 4 corners polygon primitive as box body*
4,1,4,$2,$3,$4,$5,$6,$7,$8,$9,$2,$3,0*
0 Add four circle primitives for the rounded corners*
1,1,$1+$1,$2,$3*
1,1,$1+$1,$4,$5*
1,1,$1+$1,$6,$7*
1,1,$1+$1,$8,$9*
0 Add four rect primitives between the rounded corners*
20,1,$1+$1,$2,$3,$4,$5,0*
20,1,$1+$1,$4,$5,$6,$7,0*
20,1,$1+$1,$6,$7,$8,$9,0*
20,1,$1+$1,$8,$9,$2,$3,0*%
G04 Aperture macros list end*
%ADD10RoundRect,0.250000X0.250000X0.475000X-0.250000X0.475000X-0.250000X-0.475000X0.250000X-0.475000X0*%
%ADD11R,1.700000X1.700000*%
%ADD12C,1.700000*%
%ADD13RoundRect,0.250000X-0.262500X-0.450000X0.262500X-0.450000X0.262500X0.450000X-0.262500X0.450000X0*%
%ADD14RoundRect,0.243750X0.456250X-0.243750X0.456250X0.243750X-0.456250X0.243750X-0.456250X-0.243750X0*%
%ADD15RoundRect,0.250000X0.475000X-0.250000X0.475000X0.250000X-0.475000X0.250000X-0.475000X-0.250000X0*%
%ADD16RoundRect,0.102000X0.475000X-1.075000X0.475000X1.075000X-0.475000X1.075000X-0.475000X-1.075000X0*%
%ADD17RoundRect,0.102000X1.625000X-1.075000X1.625000X1.075000X-1.625000X1.075000X-1.625000X-1.075000X0*%
%ADD18RoundRect,0.250000X-0.250000X-0.475000X0.250000X-0.475000X0.250000X0.475000X-0.250000X0.475000X0*%
%ADD19RoundRect,0.250000X-0.450000X0.262500X-0.450000X-0.262500X0.450000X-0.262500X0.450000X0.262500X0*%
%ADD20RoundRect,0.250000X0.262500X0.450000X-0.262500X0.450000X-0.262500X-0.450000X0.262500X-0.450000X0*%
%ADD21RoundRect,0.250000X0.450000X-0.262500X0.450000X0.262500X-0.450000X0.262500X-0.450000X-0.262500X0*%
%ADD22C,1.412000*%
%ADD23RoundRect,0.102000X-0.750000X-0.450000X0.750000X-0.450000X0.750000X0.450000X-0.750000X0.450000X0*%
%ADD24RoundRect,0.102000X-0.350000X-0.350000X0.350000X-0.350000X0.350000X0.350000X-0.350000X0.350000X0*%
%ADD25C,2.500000*%
%ADD26RoundRect,0.102000X0.580000X0.910000X-0.580000X0.910000X-0.580000X-0.910000X0.580000X-0.910000X0*%
%ADD27RoundRect,0.102000X-0.150000X-0.600000X0.150000X-0.600000X0.150000X0.600000X-0.150000X0.600000X0*%
%ADD28C,0.854000*%
%ADD29RoundRect,0.102000X-0.100000X-0.500000X0.100000X-0.500000X0.100000X0.500000X-0.100000X0.500000X0*%
%ADD30O,1.254000X2.304000*%
%ADD31R,0.300000X0.300000*%
%ADD32R,0.300000X0.900000*%
%ADD33R,0.900000X0.300000*%
%ADD34R,1.800000X1.800000*%
%ADD35RoundRect,0.250000X-0.475000X0.250000X-0.475000X-0.250000X0.475000X-0.250000X0.475000X0.250000X0*%
%ADD36C,1.000000*%
%ADD37RoundRect,0.173000X0.519000X1.334000X-0.519000X1.334000X-0.519000X-1.334000X0.519000X-1.334000X0*%
%ADD38RoundRect,0.150000X0.150000X-0.587500X0.150000X0.587500X-0.150000X0.587500X-0.150000X-0.587500X0*%
%ADD39RoundRect,0.102000X-0.500000X-2.750000X0.500000X-2.750000X0.500000X2.750000X-0.500000X2.750000X0*%
%ADD40RoundRect,0.102000X-0.800000X-1.500000X0.800000X-1.500000X0.800000X1.500000X-0.800000X1.500000X0*%
%ADD41RoundRect,0.102000X-0.275000X-0.285000X0.275000X-0.285000X0.275000X0.285000X-0.275000X0.285000X0*%
%ADD42RoundRect,0.102000X-0.910000X0.580000X-0.910000X-0.580000X0.910000X-0.580000X0.910000X0.580000X0*%
%ADD43C,1.150000*%
%ADD44C,1.650000*%
%ADD45RoundRect,0.102000X-0.500000X-0.750000X0.500000X-0.750000X0.500000X0.750000X-0.500000X0.750000X0*%
%ADD46RoundRect,0.102000X-0.350000X-0.750000X0.350000X-0.750000X0.350000X0.750000X-0.350000X0.750000X0*%
%ADD47RoundRect,0.102000X-0.750000X-1.400000X0.750000X-1.400000X0.750000X1.400000X-0.750000X1.400000X0*%
%ADD48O,1.804000X0.804000*%
%ADD49RoundRect,0.062500X0.350000X0.062500X-0.350000X0.062500X-0.350000X-0.062500X0.350000X-0.062500X0*%
%ADD50RoundRect,0.062500X0.062500X0.350000X-0.062500X0.350000X-0.062500X-0.350000X0.062500X-0.350000X0*%
%ADD51R,2.500000X2.500000*%
%ADD52RoundRect,0.102000X0.910000X-0.580000X0.910000X0.580000X-0.910000X0.580000X-0.910000X-0.580000X0*%
%ADD53RoundRect,0.151000X0.151000X-0.546000X0.151000X0.546000X-0.151000X0.546000X-0.151000X-0.546000X0*%
%ADD54RoundRect,0.102000X-0.550000X-0.400000X0.550000X-0.400000X0.550000X0.400000X-0.550000X0.400000X0*%
%ADD55RoundRect,0.102000X-0.550000X-0.500000X0.550000X-0.500000X0.550000X0.500000X-0.550000X0.500000X0*%
%ADD56RoundRect,0.150000X-0.150000X0.512500X-0.150000X-0.512500X0.150000X-0.512500X0.150000X0.512500X0*%
%ADD57RoundRect,0.081750X0.245250X-0.265250X0.245250X0.265250X-0.245250X0.265250X-0.245250X-0.265250X0*%
%ADD58RoundRect,0.243750X0.243750X0.456250X-0.243750X0.456250X-0.243750X-0.456250X0.243750X-0.456250X0*%
G04 APERTURE END LIST*
D10*
%TO.C,C22*%
X216400000Y-104062500D03*
X214500000Y-104062500D03*
%TD*%
D11*
%TO.C,J4*%
X200560000Y-56000000D03*
D12*
X198020000Y-56000000D03*
X195480000Y-56000000D03*
X192940000Y-56000000D03*
%TD*%
D13*
%TO.C,R26*%
X197737500Y-62500000D03*
X199562500Y-62500000D03*
%TD*%
D14*
%TO.C,LED1*%
X175500000Y-91500000D03*
X175500000Y-93375000D03*
%TD*%
D15*
%TO.C,C11*%
X211475000Y-86475000D03*
X211475000Y-84575000D03*
%TD*%
D16*
%TO.C,VR1*%
X184000000Y-79000000D03*
X186300000Y-79000000D03*
X188600000Y-79000000D03*
D17*
X186300000Y-73200000D03*
%TD*%
D18*
%TO.C,C18*%
X197312500Y-69250000D03*
X199212500Y-69250000D03*
%TD*%
D19*
%TO.C,R7*%
X181250000Y-95500000D03*
X181250000Y-97325000D03*
%TD*%
D20*
%TO.C,R33*%
X216250000Y-101312500D03*
X214425000Y-101312500D03*
%TD*%
D21*
%TO.C,R4*%
X197000000Y-101542500D03*
X197000000Y-99717500D03*
%TD*%
D10*
%TO.C,C2*%
X186900000Y-84525000D03*
X185000000Y-84525000D03*
%TD*%
D22*
%TO.C,MK1*%
X183412500Y-65550000D03*
X183412500Y-67450000D03*
%TD*%
D10*
%TO.C,C21*%
X221000000Y-103812500D03*
X219100000Y-103812500D03*
%TD*%
%TO.C,C13*%
X241150000Y-78750000D03*
X239250000Y-78750000D03*
%TD*%
D19*
%TO.C,R18*%
X194750000Y-85500000D03*
X194750000Y-87325000D03*
%TD*%
D23*
%TO.C,U3*%
X234500000Y-61100000D03*
X234500000Y-62600000D03*
X234500000Y-64100000D03*
X234500000Y-65600000D03*
X234500000Y-67100000D03*
X234500000Y-68600000D03*
X234500000Y-70100000D03*
X234500000Y-71600000D03*
X234500000Y-73100000D03*
X252000000Y-73100000D03*
X252000000Y-71600000D03*
X252000000Y-70100000D03*
X252000000Y-68600000D03*
X252000000Y-67100000D03*
X252000000Y-65600000D03*
X252000000Y-64100000D03*
X252000000Y-62600000D03*
X252000000Y-61100000D03*
D24*
X243110000Y-66200000D03*
X244210000Y-66200000D03*
X245310000Y-66200000D03*
X243110000Y-67300000D03*
X244210000Y-67300000D03*
X245310000Y-67300000D03*
X243110000Y-68400000D03*
X244210000Y-68400000D03*
X245310000Y-68400000D03*
%TD*%
D10*
%TO.C,C17*%
X190025000Y-68500000D03*
X188125000Y-68500000D03*
%TD*%
D20*
%TO.C,R23*%
X206162500Y-71250000D03*
X204337500Y-71250000D03*
%TD*%
D13*
%TO.C,R30*%
X193000000Y-65000000D03*
X194825000Y-65000000D03*
%TD*%
D14*
%TO.C,LED3*%
X181250000Y-91500000D03*
X181250000Y-93375000D03*
%TD*%
D25*
%TO.C,REF\u002A\u002A*%
X210500000Y-67500000D03*
%TD*%
D21*
%TO.C,R31*%
X201912500Y-66912500D03*
X201912500Y-65087500D03*
%TD*%
D13*
%TO.C,R29*%
X193000000Y-67250000D03*
X194825000Y-67250000D03*
%TD*%
D26*
%TO.C,C12*%
X236850000Y-78750000D03*
X233900000Y-78750000D03*
%TD*%
D27*
%TO.C,J1*%
X200750000Y-96540000D03*
X201250000Y-96540000D03*
X201750000Y-96540000D03*
X202250000Y-96540000D03*
X202750000Y-96540000D03*
X203250000Y-96540000D03*
X203750000Y-96540000D03*
X204250000Y-96540000D03*
X204750000Y-96540000D03*
X205250000Y-96540000D03*
X205750000Y-96540000D03*
X206250000Y-96540000D03*
D28*
X206300000Y-97790000D03*
X205900000Y-98500000D03*
X205100000Y-98500000D03*
X204700000Y-97790000D03*
X204300000Y-98500000D03*
X203900000Y-97790000D03*
X203100000Y-97790000D03*
X202700000Y-98500000D03*
X202300000Y-97790000D03*
X201900000Y-98500000D03*
X201100000Y-98500000D03*
X200700000Y-97790000D03*
X205500000Y-97790000D03*
X201500000Y-97790000D03*
D29*
X203500000Y-101120000D03*
X203500000Y-104220000D03*
D30*
X199230000Y-98940000D03*
X207770000Y-98940000D03*
X199230000Y-103670000D03*
X207770000Y-103670000D03*
%TD*%
D26*
%TO.C,C3*%
X187375000Y-82275000D03*
X184425000Y-82275000D03*
%TD*%
D31*
%TO.C,U4*%
X201750000Y-86800000D03*
D32*
X202250000Y-87100000D03*
X202750000Y-87100000D03*
X203250000Y-87100000D03*
X203750000Y-87100000D03*
D31*
X204250000Y-86800000D03*
D33*
X204550000Y-86300000D03*
X204550000Y-85800000D03*
X204550000Y-85300000D03*
X204550000Y-84800000D03*
D31*
X204250000Y-84300000D03*
D32*
X203750000Y-84000000D03*
X203250000Y-84000000D03*
X202750000Y-84000000D03*
X202250000Y-84000000D03*
D31*
X201750000Y-84300000D03*
D33*
X201450000Y-84800000D03*
X201450000Y-85300000D03*
X201450000Y-85800000D03*
X201450000Y-86300000D03*
D34*
X203000000Y-85550000D03*
%TD*%
D35*
%TO.C,C5*%
X179150000Y-76575000D03*
X179150000Y-78475000D03*
%TD*%
D36*
%TO.C,TP1*%
X222250000Y-83750000D03*
%TD*%
D13*
%TO.C,R34*%
X219175000Y-101312500D03*
X221000000Y-101312500D03*
%TD*%
D20*
%TO.C,R16*%
X223162500Y-77500000D03*
X221337500Y-77500000D03*
%TD*%
D19*
%TO.C,R6*%
X185750000Y-91500000D03*
X185750000Y-93325000D03*
%TD*%
D18*
%TO.C,C16*%
X188175000Y-64000000D03*
X190075000Y-64000000D03*
%TD*%
D13*
%TO.C,R12*%
X211400000Y-90575000D03*
X213225000Y-90575000D03*
%TD*%
D37*
%TO.C,F1*%
X197735000Y-91712298D03*
X194765000Y-91712298D03*
%TD*%
D21*
%TO.C,R25*%
X212892500Y-57162500D03*
X212892500Y-55337500D03*
%TD*%
%TO.C,R3*%
X197000000Y-105367500D03*
X197000000Y-103542500D03*
%TD*%
%TO.C,R15*%
X232112500Y-70675000D03*
X232112500Y-68850000D03*
%TD*%
D15*
%TO.C,C8*%
X231500000Y-63225000D03*
X231500000Y-61325000D03*
%TD*%
D38*
%TO.C,Q2*%
X214550000Y-98937500D03*
X216450000Y-98937500D03*
X215500000Y-97062500D03*
%TD*%
D39*
%TO.C,J2*%
X179750000Y-104500000D03*
X181750000Y-104500000D03*
D40*
X177350000Y-102250000D03*
X184150000Y-102250000D03*
%TD*%
D15*
%TO.C,C14*%
X211350000Y-75245000D03*
X211350000Y-73345000D03*
%TD*%
D19*
%TO.C,R20*%
X229837500Y-68825000D03*
X229837500Y-70650000D03*
%TD*%
D41*
%TO.C,S2*%
X214000000Y-106312500D03*
X216550000Y-106312500D03*
X214000000Y-107472500D03*
X216550000Y-107472500D03*
%TD*%
D18*
%TO.C,C15*%
X206742500Y-59087500D03*
X208642500Y-59087500D03*
%TD*%
%TO.C,C6*%
X188350000Y-106250000D03*
X190250000Y-106250000D03*
%TD*%
D25*
%TO.C,REF\u002A\u002A*%
X176000000Y-66250000D03*
%TD*%
D20*
%TO.C,R13*%
X213225000Y-88325000D03*
X211400000Y-88325000D03*
%TD*%
D13*
%TO.C,R28*%
X188250000Y-66250000D03*
X190075000Y-66250000D03*
%TD*%
D36*
%TO.C,TP2*%
X219750000Y-83750000D03*
%TD*%
D13*
%TO.C,R27*%
X193000000Y-69500000D03*
X194825000Y-69500000D03*
%TD*%
D42*
%TO.C,C4*%
X181400000Y-76050000D03*
X181400000Y-79000000D03*
%TD*%
D14*
%TO.C,LED2*%
X178500000Y-91500000D03*
X178500000Y-93375000D03*
%TD*%
D19*
%TO.C,R8*%
X178500000Y-95500000D03*
X178500000Y-97325000D03*
%TD*%
D35*
%TO.C,C10*%
X206475000Y-84575000D03*
X206475000Y-86475000D03*
%TD*%
D43*
%TO.C,J3*%
X228125000Y-83962500D03*
D44*
X249125000Y-83962500D03*
D45*
X246500000Y-81162500D03*
X244000000Y-81162500D03*
X241500000Y-81162500D03*
X239000000Y-81162500D03*
X236500000Y-81162500D03*
X234000000Y-81162500D03*
X231575000Y-81162500D03*
X229875000Y-81162500D03*
X249000000Y-81162500D03*
D46*
X228575000Y-81162500D03*
D47*
X225975000Y-82962500D03*
X251075000Y-82962500D03*
X253275000Y-104462500D03*
X225975000Y-104462500D03*
D46*
X227375000Y-81162500D03*
%TD*%
D15*
%TO.C,C1*%
X207750000Y-93900000D03*
X207750000Y-92000000D03*
%TD*%
D36*
%TO.C,TP4*%
X251500000Y-77500000D03*
%TD*%
D19*
%TO.C,R5*%
X183500000Y-91500000D03*
X183500000Y-93325000D03*
%TD*%
D48*
%TO.C,U6*%
X213900000Y-71095000D03*
X213900000Y-72365000D03*
X213900000Y-73635000D03*
X213900000Y-74905000D03*
X221100000Y-74905000D03*
X221100000Y-73635000D03*
X221100000Y-72365000D03*
X221100000Y-71095000D03*
%TD*%
D14*
%TO.C,LED5*%
X198750000Y-81312500D03*
X198750000Y-83187500D03*
%TD*%
D21*
%TO.C,R24*%
X210642500Y-57162500D03*
X210642500Y-55337500D03*
%TD*%
D25*
%TO.C,REF\u002A\u002A*%
X176000000Y-85000000D03*
%TD*%
D19*
%TO.C,R11*%
X204225000Y-80075000D03*
X204225000Y-81900000D03*
%TD*%
D36*
%TO.C,TP5*%
X217750000Y-68000000D03*
%TD*%
D49*
%TO.C,U1*%
X191562500Y-102750000D03*
X191562500Y-102250000D03*
X191562500Y-101750000D03*
X191562500Y-101250000D03*
X191562500Y-100750000D03*
D50*
X190625000Y-99812500D03*
X190125000Y-99812500D03*
X189625000Y-99812500D03*
X189125000Y-99812500D03*
X188625000Y-99812500D03*
D49*
X187687500Y-100750000D03*
X187687500Y-101250000D03*
X187687500Y-101750000D03*
X187687500Y-102250000D03*
X187687500Y-102750000D03*
D50*
X188625000Y-103687500D03*
X189125000Y-103687500D03*
X189625000Y-103687500D03*
X190125000Y-103687500D03*
X190625000Y-103687500D03*
D51*
X189625000Y-101750000D03*
%TD*%
D19*
%TO.C,R14*%
X198750000Y-85500000D03*
X198750000Y-87325000D03*
%TD*%
D38*
%TO.C,Q3*%
X219050000Y-98937500D03*
X220950000Y-98937500D03*
X220000000Y-97062500D03*
%TD*%
D11*
%TO.C,J5*%
X186040000Y-56000000D03*
D12*
X183500000Y-56000000D03*
X180960000Y-56000000D03*
X178420000Y-56000000D03*
X175880000Y-56000000D03*
%TD*%
D15*
%TO.C,C20*%
X204162500Y-66950000D03*
X204162500Y-65050000D03*
%TD*%
D52*
%TO.C,C9*%
X208975000Y-87025000D03*
X208975000Y-84075000D03*
%TD*%
D19*
%TO.C,R9*%
X175592500Y-95500000D03*
X175592500Y-97325000D03*
%TD*%
D21*
%TO.C,R2*%
X186000000Y-97325000D03*
X186000000Y-95500000D03*
%TD*%
D10*
%TO.C,C19*%
X194825000Y-62750000D03*
X192925000Y-62750000D03*
%TD*%
D20*
%TO.C,R22*%
X219100000Y-77345000D03*
X217275000Y-77345000D03*
%TD*%
D14*
%TO.C,LED6*%
X194750000Y-81312500D03*
X194750000Y-83187500D03*
%TD*%
D36*
%TO.C,TP3*%
X227500000Y-73000000D03*
%TD*%
D53*
%TO.C,U7*%
X197512500Y-66920000D03*
X198162500Y-66920000D03*
X198812500Y-66920000D03*
X198812500Y-65000000D03*
X197512500Y-65000000D03*
%TD*%
D54*
%TO.C,Q1*%
X203332500Y-73175000D03*
X203332500Y-74275000D03*
D55*
X206842500Y-73725000D03*
%TD*%
D41*
%TO.C,S1*%
X218700000Y-106312500D03*
X221250000Y-106312500D03*
X218700000Y-107472500D03*
X221250000Y-107472500D03*
%TD*%
D42*
%TO.C,C7*%
X228862500Y-61225000D03*
X228862500Y-64175000D03*
%TD*%
D56*
%TO.C,U5*%
X204450000Y-91612500D03*
X203500000Y-91612500D03*
X202550000Y-91612500D03*
X202550000Y-93887500D03*
X203500000Y-93887500D03*
X204450000Y-93887500D03*
%TD*%
D57*
%TO.C,U2*%
X206775000Y-55337500D03*
X207425000Y-55337500D03*
X208075000Y-55337500D03*
X208725000Y-55337500D03*
X208725000Y-57277500D03*
X208075000Y-57277500D03*
X207425000Y-57277500D03*
X206775000Y-57277500D03*
%TD*%
D58*
%TO.C,LED4*%
X175625000Y-73500000D03*
X177500000Y-73500000D03*
%TD*%
D21*
%TO.C,R32*%
X212000000Y-102637500D03*
X212000000Y-100812500D03*
%TD*%
D13*
%TO.C,R10*%
X179575000Y-73500000D03*
X181400000Y-73500000D03*
%TD*%
D21*
%TO.C,R19*%
X246500000Y-78825000D03*
X246500000Y-77000000D03*
%TD*%
%TO.C,R1*%
X183852500Y-97325000D03*
X183852500Y-95500000D03*
%TD*%
M02*
