M48
; DRILL file {KiCad 9.0.6} date 2026-05-30T01:47:26+0530
; FORMAT={-:-/ absolute / metric / decimal}
; #@! TF.CreationDate,2026-05-30T01:47:26+05:30
; #@! TF.GenerationSoftware,Kicad,Pcbnew,9.0.6
; #@! TF.FileFunction,Plated,1,4,PTH
FMAT,2
METRIC
; #@! TA.AperFunction,Plated,PTH,ViaDrill
T1C0.300
; #@! TA.AperFunction,Plated,PTH,ComponentDrill
T2C0.300
; #@! TA.AperFunction,Plated,PTH,ViaDrill
T3C0.400
; #@! TA.AperFunction,Plated,PTH,ComponentDrill
T4C0.450
; #@! TA.AperFunction,Plated,PTH,ComponentDrill
T5C0.650
; #@! TA.AperFunction,Plated,PTH,ComponentDrill
T6C0.700
; #@! TA.AperFunction,Plated,PTH,ComponentDrill
T7C1.000
%
G90
G05
T1
X175.0Y-75.5
X176.575Y-76.575
X177.0Y-91.5
X177.0Y-96.5
X178.5Y-80.0
X178.5Y-105.5
X178.5Y-106.1
X178.5Y-106.7
X179.5Y-80.0
X179.75Y-91.5
X180.0Y-98.5
X181.5Y-80.5
X181.75Y-71.5
X182.25Y-80.5
X182.25Y-81.5
X182.25Y-82.75
X182.25Y-84.0
X182.25Y-85.0
X182.5Y-99.0
X183.25Y-84.0
X183.25Y-85.0
X183.75Y-71.75
X184.542Y-71.75
X184.75Y-91.5
X185.0Y-95.5
X185.0Y-96.5
X185.333Y-71.75
X186.125Y-71.75
X186.75Y-106.75
X186.917Y-71.75
X187.25Y-99.25
X187.5Y-96.0
X187.708Y-71.75
X188.5Y-71.75
X188.75Y-104.75
X189.0Y-96.5
X189.5Y-97.5
X189.5Y-104.75
X190.0Y-97.0
X190.25Y-104.75
X190.5Y-62.0
X191.5Y-96.5
X191.5Y-106.25
X191.75Y-67.75
X192.5Y-99.5
X192.75Y-101.0
X192.75Y-102.5
X193.0Y-91.0
X193.0Y-92.0
X193.0Y-93.0
X195.0Y-61.25
X195.0Y-79.75
X195.25Y-71.25
X196.75Y-71.25
X198.162Y-68.2
X198.5Y-71.25
X199.0Y-79.75
X199.5Y-91.0
X199.5Y-92.0
X199.5Y-93.0
X199.854Y-84.973
X200.25Y-95.5
X200.5Y-84.5
X200.806Y-95.075
X201.0Y-73.25
X201.25Y-62.25
X201.5Y-83.5
X201.875Y-94.125
X202.0Y-82.925
X202.25Y-88.25
X203.0Y-82.749
X203.5Y-89.75
X203.5Y-94.852
X203.5Y-102.75
X204.0Y-78.0
X205.0Y-56.5
X205.25Y-57.5
X205.45Y-94.17
X205.5Y-55.25
X205.5Y-58.75
X205.657Y-87.843
X206.25Y-82.75
X206.536Y-93.9
X207.75Y-70.5
X208.642Y-58.0
X209.25Y-81.5
X209.25Y-92.25
X210.5Y-89.0
X210.75Y-58.75
X210.75Y-77.25
X211.25Y-72.0
X211.75Y-82.75
X212.25Y-99.25
X213.0Y-58.75
X213.25Y-104.75
X213.25Y-105.75
X216.5Y-97.587
X218.0Y-99.5
X218.0Y-104.0
X219.5Y-96.562
X222.0Y-65.0
X222.5Y-100.5
X222.525Y-64.317
X222.723Y-63.698
X222.75Y-105.75
X223.025Y-63.025
X223.25Y-72.0
X224.0Y-82.5
X225.125Y-68.625
X226.209Y-61.081
X226.5Y-60.5
X226.825Y-64.175
X228.5Y-66.025
X228.75Y-103.75
X229.0Y-82.412
X229.5Y-86.5
X230.0Y-87.026
X231.5Y-65.5
X233.0Y-77.0
X233.9Y-79.9
X236.0Y-69.5
X236.0Y-72.5
X236.5Y-66.5
X236.52Y-73.268
X236.525Y-70.0
X236.949Y-70.525
X237.5Y-63.0
X238.0Y-71.5
X239.0Y-83.0
X241.15Y-79.75
X241.875Y-62.125
X247.5Y-62.75
X248.5Y-69.5
X249.475Y-72.5
X250.004Y-71.254
X250.5Y-67.5
X250.875Y-80.625
X251.0Y-103.5
X252.25Y-76.5
X253.75Y-62.0
T2
X243.11Y-66.75
X243.11Y-67.85
X243.66Y-66.2
X243.66Y-67.3
X243.66Y-68.4
X244.21Y-66.75
X244.21Y-67.85
X244.76Y-66.2
X244.76Y-67.3
X244.76Y-68.4
X245.31Y-66.75
X245.31Y-67.85
T3
X227.102Y-62.352
X245.0Y-76.5
T4
X200.7Y-97.79
X201.1Y-98.5
X201.5Y-97.79
X201.9Y-98.5
X202.3Y-97.79
X202.7Y-98.5
X203.1Y-97.79
X203.9Y-97.79
X204.3Y-98.5
X204.7Y-97.79
X205.1Y-98.5
X205.5Y-97.79
X205.9Y-98.5
X206.3Y-97.79
T6
X183.412Y-65.55
X183.412Y-67.45
T7
X175.88Y-56.0
X178.42Y-56.0
X180.96Y-56.0
X183.5Y-56.0
X186.04Y-56.0
X192.94Y-56.0
X195.48Y-56.0
X198.02Y-56.0
X200.56Y-56.0
T5
G00X199.23Y-98.64
M15
G01X199.23Y-99.24
M16
G05
G00X199.23Y-103.37
M15
G01X199.23Y-103.97
M16
G05
G00X207.77Y-98.64
M15
G01X207.77Y-99.24
M16
G05
G00X207.77Y-103.37
M15
G01X207.77Y-103.97
M16
G05
M30
