%TF.GenerationSoftware,KiCad,Pcbnew,9.0.6*%
%TF.CreationDate,2026-05-31T00:00:56+05:30*%
%TF.ProjectId,KiCad 9 Esp32 Demo Project,4b694361-6420-4392-9045-737033322044,rev?*%
%TF.SameCoordinates,Original*%
%TF.FileFunction,Legend,Top*%
%TF.FilePolarity,Positive*%
%FSLAX46Y46*%
G04 Gerber Fmt 4.6, Leading zero omitted, Abs format (unit mm)*
G04 Created by KiCad (PCBNEW 9.0.6) date 2026-05-31 00:00:56*
%MOMM*%
%LPD*%
G01*
G04 APERTURE LIST*
G04 Aperture macros list*
%AMRoundRect*
0 Rectangle with rounded corners*
0 $1 Rounding radius*
0 $2 $3 $4 $5 $6 $7 $8 $9 X,Y pos of 4 corners*
0 Add a 4 corners polygon primitive as box body*
4,1,4,$2,$3,$4,$5,$6,$7,$8,$9,$2,$3,0*
0 Add four circle primitives for the rounded corners*
1,1,$1+$1,$2,$3*
1,1,$1+$1,$4,$5*
1,1,$1+$1,$6,$7*
1,1,$1+$1,$8,$9*
0 Add four rect primitives between the rounded corners*
20,1,$1+$1,$2,$3,$4,$5,0*
20,1,$1+$1,$4,$5,$6,$7,0*
20,1,$1+$1,$6,$7,$8,$9,0*
20,1,$1+$1,$8,$9,$2,$3,0*%
G04 Aperture macros list end*
%ADD10C,0.120000*%
%ADD11C,0.150000*%
%ADD12C,0.127000*%
%ADD13C,0.200000*%
%ADD14C,0.152400*%
%ADD15RoundRect,0.250000X0.250000X0.475000X-0.250000X0.475000X-0.250000X-0.475000X0.250000X-0.475000X0*%
%ADD16R,1.700000X1.700000*%
%ADD17C,1.700000*%
%ADD18RoundRect,0.250000X-0.262500X-0.450000X0.262500X-0.450000X0.262500X0.450000X-0.262500X0.450000X0*%
%ADD19RoundRect,0.243750X0.456250X-0.243750X0.456250X0.243750X-0.456250X0.243750X-0.456250X-0.243750X0*%
%ADD20RoundRect,0.250000X0.475000X-0.250000X0.475000X0.250000X-0.475000X0.250000X-0.475000X-0.250000X0*%
%ADD21RoundRect,0.102000X0.475000X-1.075000X0.475000X1.075000X-0.475000X1.075000X-0.475000X-1.075000X0*%
%ADD22RoundRect,0.102000X1.625000X-1.075000X1.625000X1.075000X-1.625000X1.075000X-1.625000X-1.075000X0*%
%ADD23RoundRect,0.250000X-0.250000X-0.475000X0.250000X-0.475000X0.250000X0.475000X-0.250000X0.475000X0*%
%ADD24RoundRect,0.250000X-0.450000X0.262500X-0.450000X-0.262500X0.450000X-0.262500X0.450000X0.262500X0*%
%ADD25RoundRect,0.250000X0.262500X0.450000X-0.262500X0.450000X-0.262500X-0.450000X0.262500X-0.450000X0*%
%ADD26RoundRect,0.250000X0.450000X-0.262500X0.450000X0.262500X-0.450000X0.262500X-0.450000X-0.262500X0*%
%ADD27C,1.412000*%
%ADD28RoundRect,0.102000X-0.750000X-0.450000X0.750000X-0.450000X0.750000X0.450000X-0.750000X0.450000X0*%
%ADD29RoundRect,0.102000X-0.350000X-0.350000X0.350000X-0.350000X0.350000X0.350000X-0.350000X0.350000X0*%
%ADD30C,2.500000*%
%ADD31RoundRect,0.102000X0.580000X0.910000X-0.580000X0.910000X-0.580000X-0.910000X0.580000X-0.910000X0*%
%ADD32RoundRect,0.102000X-0.150000X-0.600000X0.150000X-0.600000X0.150000X0.600000X-0.150000X0.600000X0*%
%ADD33C,0.854000*%
%ADD34RoundRect,0.102000X-0.100000X-0.500000X0.100000X-0.500000X0.100000X0.500000X-0.100000X0.500000X0*%
%ADD35O,1.254000X2.304000*%
%ADD36R,0.300000X0.300000*%
%ADD37R,0.300000X0.900000*%
%ADD38R,0.900000X0.300000*%
%ADD39R,1.800000X1.800000*%
%ADD40RoundRect,0.250000X-0.475000X0.250000X-0.475000X-0.250000X0.475000X-0.250000X0.475000X0.250000X0*%
%ADD41C,1.000000*%
%ADD42RoundRect,0.173000X0.519000X1.334000X-0.519000X1.334000X-0.519000X-1.334000X0.519000X-1.334000X0*%
%ADD43RoundRect,0.150000X0.150000X-0.587500X0.150000X0.587500X-0.150000X0.587500X-0.150000X-0.587500X0*%
%ADD44RoundRect,0.102000X-0.500000X-2.750000X0.500000X-2.750000X0.500000X2.750000X-0.500000X2.750000X0*%
%ADD45RoundRect,0.102000X-0.800000X-1.500000X0.800000X-1.500000X0.800000X1.500000X-0.800000X1.500000X0*%
%ADD46RoundRect,0.102000X-0.275000X-0.285000X0.275000X-0.285000X0.275000X0.285000X-0.275000X0.285000X0*%
%ADD47RoundRect,0.102000X-0.910000X0.580000X-0.910000X-0.580000X0.910000X-0.580000X0.910000X0.580000X0*%
%ADD48C,1.150000*%
%ADD49C,1.650000*%
%ADD50RoundRect,0.102000X-0.500000X-0.750000X0.500000X-0.750000X0.500000X0.750000X-0.500000X0.750000X0*%
%ADD51RoundRect,0.102000X-0.350000X-0.750000X0.350000X-0.750000X0.350000X0.750000X-0.350000X0.750000X0*%
%ADD52RoundRect,0.102000X-0.750000X-1.400000X0.750000X-1.400000X0.750000X1.400000X-0.750000X1.400000X0*%
%ADD53O,1.804000X0.804000*%
%ADD54RoundRect,0.062500X0.350000X0.062500X-0.350000X0.062500X-0.350000X-0.062500X0.350000X-0.062500X0*%
%ADD55RoundRect,0.062500X0.062500X0.350000X-0.062500X0.350000X-0.062500X-0.350000X0.062500X-0.350000X0*%
%ADD56R,2.500000X2.500000*%
%ADD57RoundRect,0.102000X0.910000X-0.580000X0.910000X0.580000X-0.910000X0.580000X-0.910000X-0.580000X0*%
%ADD58RoundRect,0.151000X0.151000X-0.546000X0.151000X0.546000X-0.151000X0.546000X-0.151000X-0.546000X0*%
%ADD59RoundRect,0.102000X-0.550000X-0.400000X0.550000X-0.400000X0.550000X0.400000X-0.550000X0.400000X0*%
%ADD60RoundRect,0.102000X-0.550000X-0.500000X0.550000X-0.500000X0.550000X0.500000X-0.550000X0.500000X0*%
%ADD61RoundRect,0.150000X-0.150000X0.512500X-0.150000X-0.512500X0.150000X-0.512500X0.150000X0.512500X0*%
%ADD62RoundRect,0.081750X0.245250X-0.265250X0.245250X0.265250X-0.245250X0.265250X-0.245250X-0.265250X0*%
%ADD63RoundRect,0.243750X0.243750X0.456250X-0.243750X0.456250X-0.243750X-0.456250X0.243750X-0.456250X0*%
G04 APERTURE END LIST*
D10*
X212235714Y-104350164D02*
X212197618Y-104388260D01*
X212197618Y-104388260D02*
X212083333Y-104426355D01*
X212083333Y-104426355D02*
X212007142Y-104426355D01*
X212007142Y-104426355D02*
X211892856Y-104388260D01*
X211892856Y-104388260D02*
X211816666Y-104312069D01*
X211816666Y-104312069D02*
X211778571Y-104235879D01*
X211778571Y-104235879D02*
X211740475Y-104083498D01*
X211740475Y-104083498D02*
X211740475Y-103969212D01*
X211740475Y-103969212D02*
X211778571Y-103816831D01*
X211778571Y-103816831D02*
X211816666Y-103740640D01*
X211816666Y-103740640D02*
X211892856Y-103664450D01*
X211892856Y-103664450D02*
X212007142Y-103626355D01*
X212007142Y-103626355D02*
X212083333Y-103626355D01*
X212083333Y-103626355D02*
X212197618Y-103664450D01*
X212197618Y-103664450D02*
X212235714Y-103702545D01*
X212540475Y-103702545D02*
X212578571Y-103664450D01*
X212578571Y-103664450D02*
X212654761Y-103626355D01*
X212654761Y-103626355D02*
X212845237Y-103626355D01*
X212845237Y-103626355D02*
X212921428Y-103664450D01*
X212921428Y-103664450D02*
X212959523Y-103702545D01*
X212959523Y-103702545D02*
X212997618Y-103778736D01*
X212997618Y-103778736D02*
X212997618Y-103854926D01*
X212997618Y-103854926D02*
X212959523Y-103969212D01*
X212959523Y-103969212D02*
X212502380Y-104426355D01*
X212502380Y-104426355D02*
X212997618Y-104426355D01*
X213302380Y-103702545D02*
X213340476Y-103664450D01*
X213340476Y-103664450D02*
X213416666Y-103626355D01*
X213416666Y-103626355D02*
X213607142Y-103626355D01*
X213607142Y-103626355D02*
X213683333Y-103664450D01*
X213683333Y-103664450D02*
X213721428Y-103702545D01*
X213721428Y-103702545D02*
X213759523Y-103778736D01*
X213759523Y-103778736D02*
X213759523Y-103854926D01*
X213759523Y-103854926D02*
X213721428Y-103969212D01*
X213721428Y-103969212D02*
X213264285Y-104426355D01*
X213264285Y-104426355D02*
X213759523Y-104426355D01*
X202503855Y-56266666D02*
X203075283Y-56266666D01*
X203075283Y-56266666D02*
X203189569Y-56304761D01*
X203189569Y-56304761D02*
X203265760Y-56380952D01*
X203265760Y-56380952D02*
X203303855Y-56495237D01*
X203303855Y-56495237D02*
X203303855Y-56571428D01*
X202770521Y-55542856D02*
X203303855Y-55542856D01*
X202465760Y-55733332D02*
X203037188Y-55923809D01*
X203037188Y-55923809D02*
X203037188Y-55428570D01*
X198048214Y-61363855D02*
X197781547Y-60982902D01*
X197591071Y-61363855D02*
X197591071Y-60563855D01*
X197591071Y-60563855D02*
X197895833Y-60563855D01*
X197895833Y-60563855D02*
X197972023Y-60601950D01*
X197972023Y-60601950D02*
X198010118Y-60640045D01*
X198010118Y-60640045D02*
X198048214Y-60716236D01*
X198048214Y-60716236D02*
X198048214Y-60830521D01*
X198048214Y-60830521D02*
X198010118Y-60906712D01*
X198010118Y-60906712D02*
X197972023Y-60944807D01*
X197972023Y-60944807D02*
X197895833Y-60982902D01*
X197895833Y-60982902D02*
X197591071Y-60982902D01*
X198352975Y-60640045D02*
X198391071Y-60601950D01*
X198391071Y-60601950D02*
X198467261Y-60563855D01*
X198467261Y-60563855D02*
X198657737Y-60563855D01*
X198657737Y-60563855D02*
X198733928Y-60601950D01*
X198733928Y-60601950D02*
X198772023Y-60640045D01*
X198772023Y-60640045D02*
X198810118Y-60716236D01*
X198810118Y-60716236D02*
X198810118Y-60792426D01*
X198810118Y-60792426D02*
X198772023Y-60906712D01*
X198772023Y-60906712D02*
X198314880Y-61363855D01*
X198314880Y-61363855D02*
X198810118Y-61363855D01*
X199495833Y-60563855D02*
X199343452Y-60563855D01*
X199343452Y-60563855D02*
X199267261Y-60601950D01*
X199267261Y-60601950D02*
X199229166Y-60640045D01*
X199229166Y-60640045D02*
X199152976Y-60754331D01*
X199152976Y-60754331D02*
X199114880Y-60906712D01*
X199114880Y-60906712D02*
X199114880Y-61211474D01*
X199114880Y-61211474D02*
X199152976Y-61287664D01*
X199152976Y-61287664D02*
X199191071Y-61325760D01*
X199191071Y-61325760D02*
X199267261Y-61363855D01*
X199267261Y-61363855D02*
X199419642Y-61363855D01*
X199419642Y-61363855D02*
X199495833Y-61325760D01*
X199495833Y-61325760D02*
X199533928Y-61287664D01*
X199533928Y-61287664D02*
X199572023Y-61211474D01*
X199572023Y-61211474D02*
X199572023Y-61020998D01*
X199572023Y-61020998D02*
X199533928Y-60944807D01*
X199533928Y-60944807D02*
X199495833Y-60906712D01*
X199495833Y-60906712D02*
X199419642Y-60868617D01*
X199419642Y-60868617D02*
X199267261Y-60868617D01*
X199267261Y-60868617D02*
X199191071Y-60906712D01*
X199191071Y-60906712D02*
X199152976Y-60944807D01*
X199152976Y-60944807D02*
X199114880Y-61020998D01*
X174704761Y-90666355D02*
X174323809Y-90666355D01*
X174323809Y-90666355D02*
X174323809Y-89866355D01*
X174971428Y-90247307D02*
X175238094Y-90247307D01*
X175352380Y-90666355D02*
X174971428Y-90666355D01*
X174971428Y-90666355D02*
X174971428Y-89866355D01*
X174971428Y-89866355D02*
X175352380Y-89866355D01*
X175695238Y-90666355D02*
X175695238Y-89866355D01*
X175695238Y-89866355D02*
X175885714Y-89866355D01*
X175885714Y-89866355D02*
X176000000Y-89904450D01*
X176000000Y-89904450D02*
X176076190Y-89980640D01*
X176076190Y-89980640D02*
X176114285Y-90056831D01*
X176114285Y-90056831D02*
X176152381Y-90209212D01*
X176152381Y-90209212D02*
X176152381Y-90323498D01*
X176152381Y-90323498D02*
X176114285Y-90475879D01*
X176114285Y-90475879D02*
X176076190Y-90552069D01*
X176076190Y-90552069D02*
X176000000Y-90628260D01*
X176000000Y-90628260D02*
X175885714Y-90666355D01*
X175885714Y-90666355D02*
X175695238Y-90666355D01*
X176914285Y-90666355D02*
X176457142Y-90666355D01*
X176685714Y-90666355D02*
X176685714Y-89866355D01*
X176685714Y-89866355D02*
X176609523Y-89980640D01*
X176609523Y-89980640D02*
X176533333Y-90056831D01*
X176533333Y-90056831D02*
X176457142Y-90094926D01*
X213262664Y-84839285D02*
X213300760Y-84877381D01*
X213300760Y-84877381D02*
X213338855Y-84991666D01*
X213338855Y-84991666D02*
X213338855Y-85067857D01*
X213338855Y-85067857D02*
X213300760Y-85182143D01*
X213300760Y-85182143D02*
X213224569Y-85258333D01*
X213224569Y-85258333D02*
X213148379Y-85296428D01*
X213148379Y-85296428D02*
X212995998Y-85334524D01*
X212995998Y-85334524D02*
X212881712Y-85334524D01*
X212881712Y-85334524D02*
X212729331Y-85296428D01*
X212729331Y-85296428D02*
X212653140Y-85258333D01*
X212653140Y-85258333D02*
X212576950Y-85182143D01*
X212576950Y-85182143D02*
X212538855Y-85067857D01*
X212538855Y-85067857D02*
X212538855Y-84991666D01*
X212538855Y-84991666D02*
X212576950Y-84877381D01*
X212576950Y-84877381D02*
X212615045Y-84839285D01*
X213338855Y-84077381D02*
X213338855Y-84534524D01*
X213338855Y-84305952D02*
X212538855Y-84305952D01*
X212538855Y-84305952D02*
X212653140Y-84382143D01*
X212653140Y-84382143D02*
X212729331Y-84458333D01*
X212729331Y-84458333D02*
X212767426Y-84534524D01*
X213338855Y-83315476D02*
X213338855Y-83772619D01*
X213338855Y-83544047D02*
X212538855Y-83544047D01*
X212538855Y-83544047D02*
X212653140Y-83620238D01*
X212653140Y-83620238D02*
X212729331Y-83696428D01*
X212729331Y-83696428D02*
X212767426Y-83772619D01*
X189952381Y-75563855D02*
X190219048Y-76363855D01*
X190219048Y-76363855D02*
X190485714Y-75563855D01*
X191209524Y-76363855D02*
X190942857Y-75982902D01*
X190752381Y-76363855D02*
X190752381Y-75563855D01*
X190752381Y-75563855D02*
X191057143Y-75563855D01*
X191057143Y-75563855D02*
X191133333Y-75601950D01*
X191133333Y-75601950D02*
X191171428Y-75640045D01*
X191171428Y-75640045D02*
X191209524Y-75716236D01*
X191209524Y-75716236D02*
X191209524Y-75830521D01*
X191209524Y-75830521D02*
X191171428Y-75906712D01*
X191171428Y-75906712D02*
X191133333Y-75944807D01*
X191133333Y-75944807D02*
X191057143Y-75982902D01*
X191057143Y-75982902D02*
X190752381Y-75982902D01*
X191971428Y-76363855D02*
X191514285Y-76363855D01*
X191742857Y-76363855D02*
X191742857Y-75563855D01*
X191742857Y-75563855D02*
X191666666Y-75678140D01*
X191666666Y-75678140D02*
X191590476Y-75754331D01*
X191590476Y-75754331D02*
X191514285Y-75792426D01*
X197548214Y-71037664D02*
X197510118Y-71075760D01*
X197510118Y-71075760D02*
X197395833Y-71113855D01*
X197395833Y-71113855D02*
X197319642Y-71113855D01*
X197319642Y-71113855D02*
X197205356Y-71075760D01*
X197205356Y-71075760D02*
X197129166Y-70999569D01*
X197129166Y-70999569D02*
X197091071Y-70923379D01*
X197091071Y-70923379D02*
X197052975Y-70770998D01*
X197052975Y-70770998D02*
X197052975Y-70656712D01*
X197052975Y-70656712D02*
X197091071Y-70504331D01*
X197091071Y-70504331D02*
X197129166Y-70428140D01*
X197129166Y-70428140D02*
X197205356Y-70351950D01*
X197205356Y-70351950D02*
X197319642Y-70313855D01*
X197319642Y-70313855D02*
X197395833Y-70313855D01*
X197395833Y-70313855D02*
X197510118Y-70351950D01*
X197510118Y-70351950D02*
X197548214Y-70390045D01*
X198310118Y-71113855D02*
X197852975Y-71113855D01*
X198081547Y-71113855D02*
X198081547Y-70313855D01*
X198081547Y-70313855D02*
X198005356Y-70428140D01*
X198005356Y-70428140D02*
X197929166Y-70504331D01*
X197929166Y-70504331D02*
X197852975Y-70542426D01*
X198767261Y-70656712D02*
X198691071Y-70618617D01*
X198691071Y-70618617D02*
X198652976Y-70580521D01*
X198652976Y-70580521D02*
X198614880Y-70504331D01*
X198614880Y-70504331D02*
X198614880Y-70466236D01*
X198614880Y-70466236D02*
X198652976Y-70390045D01*
X198652976Y-70390045D02*
X198691071Y-70351950D01*
X198691071Y-70351950D02*
X198767261Y-70313855D01*
X198767261Y-70313855D02*
X198919642Y-70313855D01*
X198919642Y-70313855D02*
X198995833Y-70351950D01*
X198995833Y-70351950D02*
X199033928Y-70390045D01*
X199033928Y-70390045D02*
X199072023Y-70466236D01*
X199072023Y-70466236D02*
X199072023Y-70504331D01*
X199072023Y-70504331D02*
X199033928Y-70580521D01*
X199033928Y-70580521D02*
X198995833Y-70618617D01*
X198995833Y-70618617D02*
X198919642Y-70656712D01*
X198919642Y-70656712D02*
X198767261Y-70656712D01*
X198767261Y-70656712D02*
X198691071Y-70694807D01*
X198691071Y-70694807D02*
X198652976Y-70732902D01*
X198652976Y-70732902D02*
X198614880Y-70809093D01*
X198614880Y-70809093D02*
X198614880Y-70961474D01*
X198614880Y-70961474D02*
X198652976Y-71037664D01*
X198652976Y-71037664D02*
X198691071Y-71075760D01*
X198691071Y-71075760D02*
X198767261Y-71113855D01*
X198767261Y-71113855D02*
X198919642Y-71113855D01*
X198919642Y-71113855D02*
X198995833Y-71075760D01*
X198995833Y-71075760D02*
X199033928Y-71037664D01*
X199033928Y-71037664D02*
X199072023Y-70961474D01*
X199072023Y-70961474D02*
X199072023Y-70809093D01*
X199072023Y-70809093D02*
X199033928Y-70732902D01*
X199033928Y-70732902D02*
X198995833Y-70694807D01*
X198995833Y-70694807D02*
X198919642Y-70656712D01*
X180371355Y-96580832D02*
X179990402Y-96847499D01*
X180371355Y-97037975D02*
X179571355Y-97037975D01*
X179571355Y-97037975D02*
X179571355Y-96733213D01*
X179571355Y-96733213D02*
X179609450Y-96657023D01*
X179609450Y-96657023D02*
X179647545Y-96618928D01*
X179647545Y-96618928D02*
X179723736Y-96580832D01*
X179723736Y-96580832D02*
X179838021Y-96580832D01*
X179838021Y-96580832D02*
X179914212Y-96618928D01*
X179914212Y-96618928D02*
X179952307Y-96657023D01*
X179952307Y-96657023D02*
X179990402Y-96733213D01*
X179990402Y-96733213D02*
X179990402Y-97037975D01*
X179571355Y-96314166D02*
X179571355Y-95780832D01*
X179571355Y-95780832D02*
X180371355Y-96123690D01*
X217863855Y-102014285D02*
X217482902Y-102280952D01*
X217863855Y-102471428D02*
X217063855Y-102471428D01*
X217063855Y-102471428D02*
X217063855Y-102166666D01*
X217063855Y-102166666D02*
X217101950Y-102090476D01*
X217101950Y-102090476D02*
X217140045Y-102052381D01*
X217140045Y-102052381D02*
X217216236Y-102014285D01*
X217216236Y-102014285D02*
X217330521Y-102014285D01*
X217330521Y-102014285D02*
X217406712Y-102052381D01*
X217406712Y-102052381D02*
X217444807Y-102090476D01*
X217444807Y-102090476D02*
X217482902Y-102166666D01*
X217482902Y-102166666D02*
X217482902Y-102471428D01*
X217063855Y-101747619D02*
X217063855Y-101252381D01*
X217063855Y-101252381D02*
X217368617Y-101519047D01*
X217368617Y-101519047D02*
X217368617Y-101404762D01*
X217368617Y-101404762D02*
X217406712Y-101328571D01*
X217406712Y-101328571D02*
X217444807Y-101290476D01*
X217444807Y-101290476D02*
X217520998Y-101252381D01*
X217520998Y-101252381D02*
X217711474Y-101252381D01*
X217711474Y-101252381D02*
X217787664Y-101290476D01*
X217787664Y-101290476D02*
X217825760Y-101328571D01*
X217825760Y-101328571D02*
X217863855Y-101404762D01*
X217863855Y-101404762D02*
X217863855Y-101633333D01*
X217863855Y-101633333D02*
X217825760Y-101709524D01*
X217825760Y-101709524D02*
X217787664Y-101747619D01*
X217063855Y-100985714D02*
X217063855Y-100490476D01*
X217063855Y-100490476D02*
X217368617Y-100757142D01*
X217368617Y-100757142D02*
X217368617Y-100642857D01*
X217368617Y-100642857D02*
X217406712Y-100566666D01*
X217406712Y-100566666D02*
X217444807Y-100528571D01*
X217444807Y-100528571D02*
X217520998Y-100490476D01*
X217520998Y-100490476D02*
X217711474Y-100490476D01*
X217711474Y-100490476D02*
X217787664Y-100528571D01*
X217787664Y-100528571D02*
X217825760Y-100566666D01*
X217825760Y-100566666D02*
X217863855Y-100642857D01*
X217863855Y-100642857D02*
X217863855Y-100871428D01*
X217863855Y-100871428D02*
X217825760Y-100947619D01*
X217825760Y-100947619D02*
X217787664Y-100985714D01*
X195713855Y-100763332D02*
X195332902Y-101029999D01*
X195713855Y-101220475D02*
X194913855Y-101220475D01*
X194913855Y-101220475D02*
X194913855Y-100915713D01*
X194913855Y-100915713D02*
X194951950Y-100839523D01*
X194951950Y-100839523D02*
X194990045Y-100801428D01*
X194990045Y-100801428D02*
X195066236Y-100763332D01*
X195066236Y-100763332D02*
X195180521Y-100763332D01*
X195180521Y-100763332D02*
X195256712Y-100801428D01*
X195256712Y-100801428D02*
X195294807Y-100839523D01*
X195294807Y-100839523D02*
X195332902Y-100915713D01*
X195332902Y-100915713D02*
X195332902Y-101220475D01*
X195180521Y-100077618D02*
X195713855Y-100077618D01*
X194875760Y-100268094D02*
X195447188Y-100458571D01*
X195447188Y-100458571D02*
X195447188Y-99963332D01*
X185816667Y-86492664D02*
X185778571Y-86530760D01*
X185778571Y-86530760D02*
X185664286Y-86568855D01*
X185664286Y-86568855D02*
X185588095Y-86568855D01*
X185588095Y-86568855D02*
X185473809Y-86530760D01*
X185473809Y-86530760D02*
X185397619Y-86454569D01*
X185397619Y-86454569D02*
X185359524Y-86378379D01*
X185359524Y-86378379D02*
X185321428Y-86225998D01*
X185321428Y-86225998D02*
X185321428Y-86111712D01*
X185321428Y-86111712D02*
X185359524Y-85959331D01*
X185359524Y-85959331D02*
X185397619Y-85883140D01*
X185397619Y-85883140D02*
X185473809Y-85806950D01*
X185473809Y-85806950D02*
X185588095Y-85768855D01*
X185588095Y-85768855D02*
X185664286Y-85768855D01*
X185664286Y-85768855D02*
X185778571Y-85806950D01*
X185778571Y-85806950D02*
X185816667Y-85845045D01*
X186121428Y-85845045D02*
X186159524Y-85806950D01*
X186159524Y-85806950D02*
X186235714Y-85768855D01*
X186235714Y-85768855D02*
X186426190Y-85768855D01*
X186426190Y-85768855D02*
X186502381Y-85806950D01*
X186502381Y-85806950D02*
X186540476Y-85845045D01*
X186540476Y-85845045D02*
X186578571Y-85921236D01*
X186578571Y-85921236D02*
X186578571Y-85997426D01*
X186578571Y-85997426D02*
X186540476Y-86111712D01*
X186540476Y-86111712D02*
X186083333Y-86568855D01*
X186083333Y-86568855D02*
X186578571Y-86568855D01*
X180729451Y-62415785D02*
X180729451Y-61615785D01*
X180729451Y-61615785D02*
X180996117Y-62187213D01*
X180996117Y-62187213D02*
X181262784Y-61615785D01*
X181262784Y-61615785D02*
X181262784Y-62415785D01*
X181643737Y-62415785D02*
X181643737Y-61615785D01*
X182100880Y-62415785D02*
X181758022Y-61958642D01*
X182100880Y-61615785D02*
X181643737Y-62072928D01*
X182862784Y-62415785D02*
X182405641Y-62415785D01*
X182634213Y-62415785D02*
X182634213Y-61615785D01*
X182634213Y-61615785D02*
X182558022Y-61730070D01*
X182558022Y-61730070D02*
X182481832Y-61806261D01*
X182481832Y-61806261D02*
X182405641Y-61844356D01*
X222235714Y-104100164D02*
X222197618Y-104138260D01*
X222197618Y-104138260D02*
X222083333Y-104176355D01*
X222083333Y-104176355D02*
X222007142Y-104176355D01*
X222007142Y-104176355D02*
X221892856Y-104138260D01*
X221892856Y-104138260D02*
X221816666Y-104062069D01*
X221816666Y-104062069D02*
X221778571Y-103985879D01*
X221778571Y-103985879D02*
X221740475Y-103833498D01*
X221740475Y-103833498D02*
X221740475Y-103719212D01*
X221740475Y-103719212D02*
X221778571Y-103566831D01*
X221778571Y-103566831D02*
X221816666Y-103490640D01*
X221816666Y-103490640D02*
X221892856Y-103414450D01*
X221892856Y-103414450D02*
X222007142Y-103376355D01*
X222007142Y-103376355D02*
X222083333Y-103376355D01*
X222083333Y-103376355D02*
X222197618Y-103414450D01*
X222197618Y-103414450D02*
X222235714Y-103452545D01*
X222540475Y-103452545D02*
X222578571Y-103414450D01*
X222578571Y-103414450D02*
X222654761Y-103376355D01*
X222654761Y-103376355D02*
X222845237Y-103376355D01*
X222845237Y-103376355D02*
X222921428Y-103414450D01*
X222921428Y-103414450D02*
X222959523Y-103452545D01*
X222959523Y-103452545D02*
X222997618Y-103528736D01*
X222997618Y-103528736D02*
X222997618Y-103604926D01*
X222997618Y-103604926D02*
X222959523Y-103719212D01*
X222959523Y-103719212D02*
X222502380Y-104176355D01*
X222502380Y-104176355D02*
X222997618Y-104176355D01*
X223759523Y-104176355D02*
X223302380Y-104176355D01*
X223530952Y-104176355D02*
X223530952Y-103376355D01*
X223530952Y-103376355D02*
X223454761Y-103490640D01*
X223454761Y-103490640D02*
X223378571Y-103566831D01*
X223378571Y-103566831D02*
X223302380Y-103604926D01*
X239635714Y-77287664D02*
X239597618Y-77325760D01*
X239597618Y-77325760D02*
X239483333Y-77363855D01*
X239483333Y-77363855D02*
X239407142Y-77363855D01*
X239407142Y-77363855D02*
X239292856Y-77325760D01*
X239292856Y-77325760D02*
X239216666Y-77249569D01*
X239216666Y-77249569D02*
X239178571Y-77173379D01*
X239178571Y-77173379D02*
X239140475Y-77020998D01*
X239140475Y-77020998D02*
X239140475Y-76906712D01*
X239140475Y-76906712D02*
X239178571Y-76754331D01*
X239178571Y-76754331D02*
X239216666Y-76678140D01*
X239216666Y-76678140D02*
X239292856Y-76601950D01*
X239292856Y-76601950D02*
X239407142Y-76563855D01*
X239407142Y-76563855D02*
X239483333Y-76563855D01*
X239483333Y-76563855D02*
X239597618Y-76601950D01*
X239597618Y-76601950D02*
X239635714Y-76640045D01*
X240397618Y-77363855D02*
X239940475Y-77363855D01*
X240169047Y-77363855D02*
X240169047Y-76563855D01*
X240169047Y-76563855D02*
X240092856Y-76678140D01*
X240092856Y-76678140D02*
X240016666Y-76754331D01*
X240016666Y-76754331D02*
X239940475Y-76792426D01*
X240664285Y-76563855D02*
X241159523Y-76563855D01*
X241159523Y-76563855D02*
X240892857Y-76868617D01*
X240892857Y-76868617D02*
X241007142Y-76868617D01*
X241007142Y-76868617D02*
X241083333Y-76906712D01*
X241083333Y-76906712D02*
X241121428Y-76944807D01*
X241121428Y-76944807D02*
X241159523Y-77020998D01*
X241159523Y-77020998D02*
X241159523Y-77211474D01*
X241159523Y-77211474D02*
X241121428Y-77287664D01*
X241121428Y-77287664D02*
X241083333Y-77325760D01*
X241083333Y-77325760D02*
X241007142Y-77363855D01*
X241007142Y-77363855D02*
X240778571Y-77363855D01*
X240778571Y-77363855D02*
X240702380Y-77325760D01*
X240702380Y-77325760D02*
X240664285Y-77287664D01*
X193613855Y-86926785D02*
X193232902Y-87193452D01*
X193613855Y-87383928D02*
X192813855Y-87383928D01*
X192813855Y-87383928D02*
X192813855Y-87079166D01*
X192813855Y-87079166D02*
X192851950Y-87002976D01*
X192851950Y-87002976D02*
X192890045Y-86964881D01*
X192890045Y-86964881D02*
X192966236Y-86926785D01*
X192966236Y-86926785D02*
X193080521Y-86926785D01*
X193080521Y-86926785D02*
X193156712Y-86964881D01*
X193156712Y-86964881D02*
X193194807Y-87002976D01*
X193194807Y-87002976D02*
X193232902Y-87079166D01*
X193232902Y-87079166D02*
X193232902Y-87383928D01*
X193613855Y-86164881D02*
X193613855Y-86622024D01*
X193613855Y-86393452D02*
X192813855Y-86393452D01*
X192813855Y-86393452D02*
X192928140Y-86469643D01*
X192928140Y-86469643D02*
X193004331Y-86545833D01*
X193004331Y-86545833D02*
X193042426Y-86622024D01*
X193156712Y-85707738D02*
X193118617Y-85783928D01*
X193118617Y-85783928D02*
X193080521Y-85822023D01*
X193080521Y-85822023D02*
X193004331Y-85860119D01*
X193004331Y-85860119D02*
X192966236Y-85860119D01*
X192966236Y-85860119D02*
X192890045Y-85822023D01*
X192890045Y-85822023D02*
X192851950Y-85783928D01*
X192851950Y-85783928D02*
X192813855Y-85707738D01*
X192813855Y-85707738D02*
X192813855Y-85555357D01*
X192813855Y-85555357D02*
X192851950Y-85479166D01*
X192851950Y-85479166D02*
X192890045Y-85441071D01*
X192890045Y-85441071D02*
X192966236Y-85402976D01*
X192966236Y-85402976D02*
X193004331Y-85402976D01*
X193004331Y-85402976D02*
X193080521Y-85441071D01*
X193080521Y-85441071D02*
X193118617Y-85479166D01*
X193118617Y-85479166D02*
X193156712Y-85555357D01*
X193156712Y-85555357D02*
X193156712Y-85707738D01*
X193156712Y-85707738D02*
X193194807Y-85783928D01*
X193194807Y-85783928D02*
X193232902Y-85822023D01*
X193232902Y-85822023D02*
X193309093Y-85860119D01*
X193309093Y-85860119D02*
X193461474Y-85860119D01*
X193461474Y-85860119D02*
X193537664Y-85822023D01*
X193537664Y-85822023D02*
X193575760Y-85783928D01*
X193575760Y-85783928D02*
X193613855Y-85707738D01*
X193613855Y-85707738D02*
X193613855Y-85555357D01*
X193613855Y-85555357D02*
X193575760Y-85479166D01*
X193575760Y-85479166D02*
X193537664Y-85441071D01*
X193537664Y-85441071D02*
X193461474Y-85402976D01*
X193461474Y-85402976D02*
X193309093Y-85402976D01*
X193309093Y-85402976D02*
X193232902Y-85441071D01*
X193232902Y-85441071D02*
X193194807Y-85479166D01*
X193194807Y-85479166D02*
X193156712Y-85555357D01*
D11*
X235913095Y-52369819D02*
X235913095Y-53179342D01*
X235913095Y-53179342D02*
X235960714Y-53274580D01*
X235960714Y-53274580D02*
X236008333Y-53322200D01*
X236008333Y-53322200D02*
X236103571Y-53369819D01*
X236103571Y-53369819D02*
X236294047Y-53369819D01*
X236294047Y-53369819D02*
X236389285Y-53322200D01*
X236389285Y-53322200D02*
X236436904Y-53274580D01*
X236436904Y-53274580D02*
X236484523Y-53179342D01*
X236484523Y-53179342D02*
X236484523Y-52369819D01*
X236865476Y-52369819D02*
X237484523Y-52369819D01*
X237484523Y-52369819D02*
X237151190Y-52750771D01*
X237151190Y-52750771D02*
X237294047Y-52750771D01*
X237294047Y-52750771D02*
X237389285Y-52798390D01*
X237389285Y-52798390D02*
X237436904Y-52846009D01*
X237436904Y-52846009D02*
X237484523Y-52941247D01*
X237484523Y-52941247D02*
X237484523Y-53179342D01*
X237484523Y-53179342D02*
X237436904Y-53274580D01*
X237436904Y-53274580D02*
X237389285Y-53322200D01*
X237389285Y-53322200D02*
X237294047Y-53369819D01*
X237294047Y-53369819D02*
X237008333Y-53369819D01*
X237008333Y-53369819D02*
X236913095Y-53322200D01*
X236913095Y-53322200D02*
X236865476Y-53274580D01*
D10*
X188485714Y-70537664D02*
X188447618Y-70575760D01*
X188447618Y-70575760D02*
X188333333Y-70613855D01*
X188333333Y-70613855D02*
X188257142Y-70613855D01*
X188257142Y-70613855D02*
X188142856Y-70575760D01*
X188142856Y-70575760D02*
X188066666Y-70499569D01*
X188066666Y-70499569D02*
X188028571Y-70423379D01*
X188028571Y-70423379D02*
X187990475Y-70270998D01*
X187990475Y-70270998D02*
X187990475Y-70156712D01*
X187990475Y-70156712D02*
X188028571Y-70004331D01*
X188028571Y-70004331D02*
X188066666Y-69928140D01*
X188066666Y-69928140D02*
X188142856Y-69851950D01*
X188142856Y-69851950D02*
X188257142Y-69813855D01*
X188257142Y-69813855D02*
X188333333Y-69813855D01*
X188333333Y-69813855D02*
X188447618Y-69851950D01*
X188447618Y-69851950D02*
X188485714Y-69890045D01*
X189247618Y-70613855D02*
X188790475Y-70613855D01*
X189019047Y-70613855D02*
X189019047Y-69813855D01*
X189019047Y-69813855D02*
X188942856Y-69928140D01*
X188942856Y-69928140D02*
X188866666Y-70004331D01*
X188866666Y-70004331D02*
X188790475Y-70042426D01*
X189514285Y-69813855D02*
X190047619Y-69813855D01*
X190047619Y-69813855D02*
X189704761Y-70613855D01*
X207985714Y-71613855D02*
X207719047Y-71232902D01*
X207528571Y-71613855D02*
X207528571Y-70813855D01*
X207528571Y-70813855D02*
X207833333Y-70813855D01*
X207833333Y-70813855D02*
X207909523Y-70851950D01*
X207909523Y-70851950D02*
X207947618Y-70890045D01*
X207947618Y-70890045D02*
X207985714Y-70966236D01*
X207985714Y-70966236D02*
X207985714Y-71080521D01*
X207985714Y-71080521D02*
X207947618Y-71156712D01*
X207947618Y-71156712D02*
X207909523Y-71194807D01*
X207909523Y-71194807D02*
X207833333Y-71232902D01*
X207833333Y-71232902D02*
X207528571Y-71232902D01*
X208290475Y-70890045D02*
X208328571Y-70851950D01*
X208328571Y-70851950D02*
X208404761Y-70813855D01*
X208404761Y-70813855D02*
X208595237Y-70813855D01*
X208595237Y-70813855D02*
X208671428Y-70851950D01*
X208671428Y-70851950D02*
X208709523Y-70890045D01*
X208709523Y-70890045D02*
X208747618Y-70966236D01*
X208747618Y-70966236D02*
X208747618Y-71042426D01*
X208747618Y-71042426D02*
X208709523Y-71156712D01*
X208709523Y-71156712D02*
X208252380Y-71613855D01*
X208252380Y-71613855D02*
X208747618Y-71613855D01*
X209014285Y-70813855D02*
X209509523Y-70813855D01*
X209509523Y-70813855D02*
X209242857Y-71118617D01*
X209242857Y-71118617D02*
X209357142Y-71118617D01*
X209357142Y-71118617D02*
X209433333Y-71156712D01*
X209433333Y-71156712D02*
X209471428Y-71194807D01*
X209471428Y-71194807D02*
X209509523Y-71270998D01*
X209509523Y-71270998D02*
X209509523Y-71461474D01*
X209509523Y-71461474D02*
X209471428Y-71537664D01*
X209471428Y-71537664D02*
X209433333Y-71575760D01*
X209433333Y-71575760D02*
X209357142Y-71613855D01*
X209357142Y-71613855D02*
X209128571Y-71613855D01*
X209128571Y-71613855D02*
X209052380Y-71575760D01*
X209052380Y-71575760D02*
X209014285Y-71537664D01*
X191938855Y-65514285D02*
X191557902Y-65780952D01*
X191938855Y-65971428D02*
X191138855Y-65971428D01*
X191138855Y-65971428D02*
X191138855Y-65666666D01*
X191138855Y-65666666D02*
X191176950Y-65590476D01*
X191176950Y-65590476D02*
X191215045Y-65552381D01*
X191215045Y-65552381D02*
X191291236Y-65514285D01*
X191291236Y-65514285D02*
X191405521Y-65514285D01*
X191405521Y-65514285D02*
X191481712Y-65552381D01*
X191481712Y-65552381D02*
X191519807Y-65590476D01*
X191519807Y-65590476D02*
X191557902Y-65666666D01*
X191557902Y-65666666D02*
X191557902Y-65971428D01*
X191138855Y-65247619D02*
X191138855Y-64752381D01*
X191138855Y-64752381D02*
X191443617Y-65019047D01*
X191443617Y-65019047D02*
X191443617Y-64904762D01*
X191443617Y-64904762D02*
X191481712Y-64828571D01*
X191481712Y-64828571D02*
X191519807Y-64790476D01*
X191519807Y-64790476D02*
X191595998Y-64752381D01*
X191595998Y-64752381D02*
X191786474Y-64752381D01*
X191786474Y-64752381D02*
X191862664Y-64790476D01*
X191862664Y-64790476D02*
X191900760Y-64828571D01*
X191900760Y-64828571D02*
X191938855Y-64904762D01*
X191938855Y-64904762D02*
X191938855Y-65133333D01*
X191938855Y-65133333D02*
X191900760Y-65209524D01*
X191900760Y-65209524D02*
X191862664Y-65247619D01*
X191138855Y-64257142D02*
X191138855Y-64180952D01*
X191138855Y-64180952D02*
X191176950Y-64104761D01*
X191176950Y-64104761D02*
X191215045Y-64066666D01*
X191215045Y-64066666D02*
X191291236Y-64028571D01*
X191291236Y-64028571D02*
X191443617Y-63990476D01*
X191443617Y-63990476D02*
X191634093Y-63990476D01*
X191634093Y-63990476D02*
X191786474Y-64028571D01*
X191786474Y-64028571D02*
X191862664Y-64066666D01*
X191862664Y-64066666D02*
X191900760Y-64104761D01*
X191900760Y-64104761D02*
X191938855Y-64180952D01*
X191938855Y-64180952D02*
X191938855Y-64257142D01*
X191938855Y-64257142D02*
X191900760Y-64333333D01*
X191900760Y-64333333D02*
X191862664Y-64371428D01*
X191862664Y-64371428D02*
X191786474Y-64409523D01*
X191786474Y-64409523D02*
X191634093Y-64447619D01*
X191634093Y-64447619D02*
X191443617Y-64447619D01*
X191443617Y-64447619D02*
X191291236Y-64409523D01*
X191291236Y-64409523D02*
X191215045Y-64371428D01*
X191215045Y-64371428D02*
X191176950Y-64333333D01*
X191176950Y-64333333D02*
X191138855Y-64257142D01*
X180354761Y-90613855D02*
X179973809Y-90613855D01*
X179973809Y-90613855D02*
X179973809Y-89813855D01*
X180621428Y-90194807D02*
X180888094Y-90194807D01*
X181002380Y-90613855D02*
X180621428Y-90613855D01*
X180621428Y-90613855D02*
X180621428Y-89813855D01*
X180621428Y-89813855D02*
X181002380Y-89813855D01*
X181345238Y-90613855D02*
X181345238Y-89813855D01*
X181345238Y-89813855D02*
X181535714Y-89813855D01*
X181535714Y-89813855D02*
X181650000Y-89851950D01*
X181650000Y-89851950D02*
X181726190Y-89928140D01*
X181726190Y-89928140D02*
X181764285Y-90004331D01*
X181764285Y-90004331D02*
X181802381Y-90156712D01*
X181802381Y-90156712D02*
X181802381Y-90270998D01*
X181802381Y-90270998D02*
X181764285Y-90423379D01*
X181764285Y-90423379D02*
X181726190Y-90499569D01*
X181726190Y-90499569D02*
X181650000Y-90575760D01*
X181650000Y-90575760D02*
X181535714Y-90613855D01*
X181535714Y-90613855D02*
X181345238Y-90613855D01*
X182069047Y-89813855D02*
X182564285Y-89813855D01*
X182564285Y-89813855D02*
X182297619Y-90118617D01*
X182297619Y-90118617D02*
X182411904Y-90118617D01*
X182411904Y-90118617D02*
X182488095Y-90156712D01*
X182488095Y-90156712D02*
X182526190Y-90194807D01*
X182526190Y-90194807D02*
X182564285Y-90270998D01*
X182564285Y-90270998D02*
X182564285Y-90461474D01*
X182564285Y-90461474D02*
X182526190Y-90537664D01*
X182526190Y-90537664D02*
X182488095Y-90575760D01*
X182488095Y-90575760D02*
X182411904Y-90613855D01*
X182411904Y-90613855D02*
X182183333Y-90613855D01*
X182183333Y-90613855D02*
X182107142Y-90575760D01*
X182107142Y-90575760D02*
X182069047Y-90537664D01*
X209433333Y-64413855D02*
X209166666Y-64032902D01*
X208976190Y-64413855D02*
X208976190Y-63613855D01*
X208976190Y-63613855D02*
X209280952Y-63613855D01*
X209280952Y-63613855D02*
X209357142Y-63651950D01*
X209357142Y-63651950D02*
X209395237Y-63690045D01*
X209395237Y-63690045D02*
X209433333Y-63766236D01*
X209433333Y-63766236D02*
X209433333Y-63880521D01*
X209433333Y-63880521D02*
X209395237Y-63956712D01*
X209395237Y-63956712D02*
X209357142Y-63994807D01*
X209357142Y-63994807D02*
X209280952Y-64032902D01*
X209280952Y-64032902D02*
X208976190Y-64032902D01*
X209776190Y-63994807D02*
X210042856Y-63994807D01*
X210157142Y-64413855D02*
X209776190Y-64413855D01*
X209776190Y-64413855D02*
X209776190Y-63613855D01*
X209776190Y-63613855D02*
X210157142Y-63613855D01*
X210766666Y-63994807D02*
X210500000Y-63994807D01*
X210500000Y-64413855D02*
X210500000Y-63613855D01*
X210500000Y-63613855D02*
X210880952Y-63613855D01*
X211299999Y-63613855D02*
X211299999Y-63804331D01*
X211109523Y-63728140D02*
X211299999Y-63804331D01*
X211299999Y-63804331D02*
X211490476Y-63728140D01*
X211185714Y-63956712D02*
X211299999Y-63804331D01*
X211299999Y-63804331D02*
X211414285Y-63956712D01*
X211909523Y-63613855D02*
X211909523Y-63804331D01*
X211719047Y-63728140D02*
X211909523Y-63804331D01*
X211909523Y-63804331D02*
X212100000Y-63728140D01*
X211795238Y-63956712D02*
X211909523Y-63804331D01*
X211909523Y-63804331D02*
X212023809Y-63956712D01*
X201398214Y-64113855D02*
X201131547Y-63732902D01*
X200941071Y-64113855D02*
X200941071Y-63313855D01*
X200941071Y-63313855D02*
X201245833Y-63313855D01*
X201245833Y-63313855D02*
X201322023Y-63351950D01*
X201322023Y-63351950D02*
X201360118Y-63390045D01*
X201360118Y-63390045D02*
X201398214Y-63466236D01*
X201398214Y-63466236D02*
X201398214Y-63580521D01*
X201398214Y-63580521D02*
X201360118Y-63656712D01*
X201360118Y-63656712D02*
X201322023Y-63694807D01*
X201322023Y-63694807D02*
X201245833Y-63732902D01*
X201245833Y-63732902D02*
X200941071Y-63732902D01*
X201664880Y-63313855D02*
X202160118Y-63313855D01*
X202160118Y-63313855D02*
X201893452Y-63618617D01*
X201893452Y-63618617D02*
X202007737Y-63618617D01*
X202007737Y-63618617D02*
X202083928Y-63656712D01*
X202083928Y-63656712D02*
X202122023Y-63694807D01*
X202122023Y-63694807D02*
X202160118Y-63770998D01*
X202160118Y-63770998D02*
X202160118Y-63961474D01*
X202160118Y-63961474D02*
X202122023Y-64037664D01*
X202122023Y-64037664D02*
X202083928Y-64075760D01*
X202083928Y-64075760D02*
X202007737Y-64113855D01*
X202007737Y-64113855D02*
X201779166Y-64113855D01*
X201779166Y-64113855D02*
X201702975Y-64075760D01*
X201702975Y-64075760D02*
X201664880Y-64037664D01*
X202922023Y-64113855D02*
X202464880Y-64113855D01*
X202693452Y-64113855D02*
X202693452Y-63313855D01*
X202693452Y-63313855D02*
X202617261Y-63428140D01*
X202617261Y-63428140D02*
X202541071Y-63504331D01*
X202541071Y-63504331D02*
X202464880Y-63542426D01*
X192113855Y-68014285D02*
X191732902Y-68280952D01*
X192113855Y-68471428D02*
X191313855Y-68471428D01*
X191313855Y-68471428D02*
X191313855Y-68166666D01*
X191313855Y-68166666D02*
X191351950Y-68090476D01*
X191351950Y-68090476D02*
X191390045Y-68052381D01*
X191390045Y-68052381D02*
X191466236Y-68014285D01*
X191466236Y-68014285D02*
X191580521Y-68014285D01*
X191580521Y-68014285D02*
X191656712Y-68052381D01*
X191656712Y-68052381D02*
X191694807Y-68090476D01*
X191694807Y-68090476D02*
X191732902Y-68166666D01*
X191732902Y-68166666D02*
X191732902Y-68471428D01*
X191390045Y-67709524D02*
X191351950Y-67671428D01*
X191351950Y-67671428D02*
X191313855Y-67595238D01*
X191313855Y-67595238D02*
X191313855Y-67404762D01*
X191313855Y-67404762D02*
X191351950Y-67328571D01*
X191351950Y-67328571D02*
X191390045Y-67290476D01*
X191390045Y-67290476D02*
X191466236Y-67252381D01*
X191466236Y-67252381D02*
X191542426Y-67252381D01*
X191542426Y-67252381D02*
X191656712Y-67290476D01*
X191656712Y-67290476D02*
X192113855Y-67747619D01*
X192113855Y-67747619D02*
X192113855Y-67252381D01*
X192113855Y-66871428D02*
X192113855Y-66719047D01*
X192113855Y-66719047D02*
X192075760Y-66642857D01*
X192075760Y-66642857D02*
X192037664Y-66604761D01*
X192037664Y-66604761D02*
X191923379Y-66528571D01*
X191923379Y-66528571D02*
X191770998Y-66490476D01*
X191770998Y-66490476D02*
X191466236Y-66490476D01*
X191466236Y-66490476D02*
X191390045Y-66528571D01*
X191390045Y-66528571D02*
X191351950Y-66566666D01*
X191351950Y-66566666D02*
X191313855Y-66642857D01*
X191313855Y-66642857D02*
X191313855Y-66795238D01*
X191313855Y-66795238D02*
X191351950Y-66871428D01*
X191351950Y-66871428D02*
X191390045Y-66909523D01*
X191390045Y-66909523D02*
X191466236Y-66947619D01*
X191466236Y-66947619D02*
X191656712Y-66947619D01*
X191656712Y-66947619D02*
X191732902Y-66909523D01*
X191732902Y-66909523D02*
X191770998Y-66871428D01*
X191770998Y-66871428D02*
X191809093Y-66795238D01*
X191809093Y-66795238D02*
X191809093Y-66642857D01*
X191809093Y-66642857D02*
X191770998Y-66566666D01*
X191770998Y-66566666D02*
X191732902Y-66528571D01*
X191732902Y-66528571D02*
X191656712Y-66490476D01*
X234985714Y-77037664D02*
X234947618Y-77075760D01*
X234947618Y-77075760D02*
X234833333Y-77113855D01*
X234833333Y-77113855D02*
X234757142Y-77113855D01*
X234757142Y-77113855D02*
X234642856Y-77075760D01*
X234642856Y-77075760D02*
X234566666Y-76999569D01*
X234566666Y-76999569D02*
X234528571Y-76923379D01*
X234528571Y-76923379D02*
X234490475Y-76770998D01*
X234490475Y-76770998D02*
X234490475Y-76656712D01*
X234490475Y-76656712D02*
X234528571Y-76504331D01*
X234528571Y-76504331D02*
X234566666Y-76428140D01*
X234566666Y-76428140D02*
X234642856Y-76351950D01*
X234642856Y-76351950D02*
X234757142Y-76313855D01*
X234757142Y-76313855D02*
X234833333Y-76313855D01*
X234833333Y-76313855D02*
X234947618Y-76351950D01*
X234947618Y-76351950D02*
X234985714Y-76390045D01*
X235747618Y-77113855D02*
X235290475Y-77113855D01*
X235519047Y-77113855D02*
X235519047Y-76313855D01*
X235519047Y-76313855D02*
X235442856Y-76428140D01*
X235442856Y-76428140D02*
X235366666Y-76504331D01*
X235366666Y-76504331D02*
X235290475Y-76542426D01*
X236052380Y-76390045D02*
X236090476Y-76351950D01*
X236090476Y-76351950D02*
X236166666Y-76313855D01*
X236166666Y-76313855D02*
X236357142Y-76313855D01*
X236357142Y-76313855D02*
X236433333Y-76351950D01*
X236433333Y-76351950D02*
X236471428Y-76390045D01*
X236471428Y-76390045D02*
X236509523Y-76466236D01*
X236509523Y-76466236D02*
X236509523Y-76542426D01*
X236509523Y-76542426D02*
X236471428Y-76656712D01*
X236471428Y-76656712D02*
X236014285Y-77113855D01*
X236014285Y-77113855D02*
X236509523Y-77113855D01*
X208783333Y-96563855D02*
X208783333Y-97135283D01*
X208783333Y-97135283D02*
X208745238Y-97249569D01*
X208745238Y-97249569D02*
X208669047Y-97325760D01*
X208669047Y-97325760D02*
X208554762Y-97363855D01*
X208554762Y-97363855D02*
X208478571Y-97363855D01*
X209583333Y-97363855D02*
X209126190Y-97363855D01*
X209354762Y-97363855D02*
X209354762Y-96563855D01*
X209354762Y-96563855D02*
X209278571Y-96678140D01*
X209278571Y-96678140D02*
X209202381Y-96754331D01*
X209202381Y-96754331D02*
X209126190Y-96792426D01*
X185766667Y-82562664D02*
X185728571Y-82600760D01*
X185728571Y-82600760D02*
X185614286Y-82638855D01*
X185614286Y-82638855D02*
X185538095Y-82638855D01*
X185538095Y-82638855D02*
X185423809Y-82600760D01*
X185423809Y-82600760D02*
X185347619Y-82524569D01*
X185347619Y-82524569D02*
X185309524Y-82448379D01*
X185309524Y-82448379D02*
X185271428Y-82295998D01*
X185271428Y-82295998D02*
X185271428Y-82181712D01*
X185271428Y-82181712D02*
X185309524Y-82029331D01*
X185309524Y-82029331D02*
X185347619Y-81953140D01*
X185347619Y-81953140D02*
X185423809Y-81876950D01*
X185423809Y-81876950D02*
X185538095Y-81838855D01*
X185538095Y-81838855D02*
X185614286Y-81838855D01*
X185614286Y-81838855D02*
X185728571Y-81876950D01*
X185728571Y-81876950D02*
X185766667Y-81915045D01*
X186033333Y-81838855D02*
X186528571Y-81838855D01*
X186528571Y-81838855D02*
X186261905Y-82143617D01*
X186261905Y-82143617D02*
X186376190Y-82143617D01*
X186376190Y-82143617D02*
X186452381Y-82181712D01*
X186452381Y-82181712D02*
X186490476Y-82219807D01*
X186490476Y-82219807D02*
X186528571Y-82295998D01*
X186528571Y-82295998D02*
X186528571Y-82486474D01*
X186528571Y-82486474D02*
X186490476Y-82562664D01*
X186490476Y-82562664D02*
X186452381Y-82600760D01*
X186452381Y-82600760D02*
X186376190Y-82638855D01*
X186376190Y-82638855D02*
X186147619Y-82638855D01*
X186147619Y-82638855D02*
X186071428Y-82600760D01*
X186071428Y-82600760D02*
X186033333Y-82562664D01*
X199813855Y-87359523D02*
X200461474Y-87359523D01*
X200461474Y-87359523D02*
X200537664Y-87321428D01*
X200537664Y-87321428D02*
X200575760Y-87283333D01*
X200575760Y-87283333D02*
X200613855Y-87207142D01*
X200613855Y-87207142D02*
X200613855Y-87054761D01*
X200613855Y-87054761D02*
X200575760Y-86978571D01*
X200575760Y-86978571D02*
X200537664Y-86940476D01*
X200537664Y-86940476D02*
X200461474Y-86902380D01*
X200461474Y-86902380D02*
X199813855Y-86902380D01*
X200080521Y-86178571D02*
X200613855Y-86178571D01*
X199775760Y-86369047D02*
X200347188Y-86559524D01*
X200347188Y-86559524D02*
X200347188Y-86064285D01*
X177937664Y-77658332D02*
X177975760Y-77696428D01*
X177975760Y-77696428D02*
X178013855Y-77810713D01*
X178013855Y-77810713D02*
X178013855Y-77886904D01*
X178013855Y-77886904D02*
X177975760Y-78001190D01*
X177975760Y-78001190D02*
X177899569Y-78077380D01*
X177899569Y-78077380D02*
X177823379Y-78115475D01*
X177823379Y-78115475D02*
X177670998Y-78153571D01*
X177670998Y-78153571D02*
X177556712Y-78153571D01*
X177556712Y-78153571D02*
X177404331Y-78115475D01*
X177404331Y-78115475D02*
X177328140Y-78077380D01*
X177328140Y-78077380D02*
X177251950Y-78001190D01*
X177251950Y-78001190D02*
X177213855Y-77886904D01*
X177213855Y-77886904D02*
X177213855Y-77810713D01*
X177213855Y-77810713D02*
X177251950Y-77696428D01*
X177251950Y-77696428D02*
X177290045Y-77658332D01*
X177213855Y-76934523D02*
X177213855Y-77315475D01*
X177213855Y-77315475D02*
X177594807Y-77353571D01*
X177594807Y-77353571D02*
X177556712Y-77315475D01*
X177556712Y-77315475D02*
X177518617Y-77239285D01*
X177518617Y-77239285D02*
X177518617Y-77048809D01*
X177518617Y-77048809D02*
X177556712Y-76972618D01*
X177556712Y-76972618D02*
X177594807Y-76934523D01*
X177594807Y-76934523D02*
X177670998Y-76896428D01*
X177670998Y-76896428D02*
X177861474Y-76896428D01*
X177861474Y-76896428D02*
X177937664Y-76934523D01*
X177937664Y-76934523D02*
X177975760Y-76972618D01*
X177975760Y-76972618D02*
X178013855Y-77048809D01*
X178013855Y-77048809D02*
X178013855Y-77239285D01*
X178013855Y-77239285D02*
X177975760Y-77315475D01*
X177975760Y-77315475D02*
X177937664Y-77353571D01*
X221240476Y-81865855D02*
X221697619Y-81865855D01*
X221469047Y-82665855D02*
X221469047Y-81865855D01*
X221964286Y-82665855D02*
X221964286Y-81865855D01*
X221964286Y-81865855D02*
X222269048Y-81865855D01*
X222269048Y-81865855D02*
X222345238Y-81903950D01*
X222345238Y-81903950D02*
X222383333Y-81942045D01*
X222383333Y-81942045D02*
X222421429Y-82018236D01*
X222421429Y-82018236D02*
X222421429Y-82132521D01*
X222421429Y-82132521D02*
X222383333Y-82208712D01*
X222383333Y-82208712D02*
X222345238Y-82246807D01*
X222345238Y-82246807D02*
X222269048Y-82284902D01*
X222269048Y-82284902D02*
X221964286Y-82284902D01*
X223183333Y-82665855D02*
X222726190Y-82665855D01*
X222954762Y-82665855D02*
X222954762Y-81865855D01*
X222954762Y-81865855D02*
X222878571Y-81980140D01*
X222878571Y-81980140D02*
X222802381Y-82056331D01*
X222802381Y-82056331D02*
X222726190Y-82094426D01*
X222485714Y-102331855D02*
X222219047Y-101950902D01*
X222028571Y-102331855D02*
X222028571Y-101531855D01*
X222028571Y-101531855D02*
X222333333Y-101531855D01*
X222333333Y-101531855D02*
X222409523Y-101569950D01*
X222409523Y-101569950D02*
X222447618Y-101608045D01*
X222447618Y-101608045D02*
X222485714Y-101684236D01*
X222485714Y-101684236D02*
X222485714Y-101798521D01*
X222485714Y-101798521D02*
X222447618Y-101874712D01*
X222447618Y-101874712D02*
X222409523Y-101912807D01*
X222409523Y-101912807D02*
X222333333Y-101950902D01*
X222333333Y-101950902D02*
X222028571Y-101950902D01*
X222752380Y-101531855D02*
X223247618Y-101531855D01*
X223247618Y-101531855D02*
X222980952Y-101836617D01*
X222980952Y-101836617D02*
X223095237Y-101836617D01*
X223095237Y-101836617D02*
X223171428Y-101874712D01*
X223171428Y-101874712D02*
X223209523Y-101912807D01*
X223209523Y-101912807D02*
X223247618Y-101988998D01*
X223247618Y-101988998D02*
X223247618Y-102179474D01*
X223247618Y-102179474D02*
X223209523Y-102255664D01*
X223209523Y-102255664D02*
X223171428Y-102293760D01*
X223171428Y-102293760D02*
X223095237Y-102331855D01*
X223095237Y-102331855D02*
X222866666Y-102331855D01*
X222866666Y-102331855D02*
X222790475Y-102293760D01*
X222790475Y-102293760D02*
X222752380Y-102255664D01*
X223933333Y-101798521D02*
X223933333Y-102331855D01*
X223742857Y-101493760D02*
X223552380Y-102065188D01*
X223552380Y-102065188D02*
X224047619Y-102065188D01*
X221735714Y-79513855D02*
X221469047Y-79132902D01*
X221278571Y-79513855D02*
X221278571Y-78713855D01*
X221278571Y-78713855D02*
X221583333Y-78713855D01*
X221583333Y-78713855D02*
X221659523Y-78751950D01*
X221659523Y-78751950D02*
X221697618Y-78790045D01*
X221697618Y-78790045D02*
X221735714Y-78866236D01*
X221735714Y-78866236D02*
X221735714Y-78980521D01*
X221735714Y-78980521D02*
X221697618Y-79056712D01*
X221697618Y-79056712D02*
X221659523Y-79094807D01*
X221659523Y-79094807D02*
X221583333Y-79132902D01*
X221583333Y-79132902D02*
X221278571Y-79132902D01*
X222497618Y-79513855D02*
X222040475Y-79513855D01*
X222269047Y-79513855D02*
X222269047Y-78713855D01*
X222269047Y-78713855D02*
X222192856Y-78828140D01*
X222192856Y-78828140D02*
X222116666Y-78904331D01*
X222116666Y-78904331D02*
X222040475Y-78942426D01*
X223183333Y-78713855D02*
X223030952Y-78713855D01*
X223030952Y-78713855D02*
X222954761Y-78751950D01*
X222954761Y-78751950D02*
X222916666Y-78790045D01*
X222916666Y-78790045D02*
X222840476Y-78904331D01*
X222840476Y-78904331D02*
X222802380Y-79056712D01*
X222802380Y-79056712D02*
X222802380Y-79361474D01*
X222802380Y-79361474D02*
X222840476Y-79437664D01*
X222840476Y-79437664D02*
X222878571Y-79475760D01*
X222878571Y-79475760D02*
X222954761Y-79513855D01*
X222954761Y-79513855D02*
X223107142Y-79513855D01*
X223107142Y-79513855D02*
X223183333Y-79475760D01*
X223183333Y-79475760D02*
X223221428Y-79437664D01*
X223221428Y-79437664D02*
X223259523Y-79361474D01*
X223259523Y-79361474D02*
X223259523Y-79170998D01*
X223259523Y-79170998D02*
X223221428Y-79094807D01*
X223221428Y-79094807D02*
X223183333Y-79056712D01*
X223183333Y-79056712D02*
X223107142Y-79018617D01*
X223107142Y-79018617D02*
X222954761Y-79018617D01*
X222954761Y-79018617D02*
X222878571Y-79056712D01*
X222878571Y-79056712D02*
X222840476Y-79094807D01*
X222840476Y-79094807D02*
X222802380Y-79170998D01*
X185866667Y-90613855D02*
X185600000Y-90232902D01*
X185409524Y-90613855D02*
X185409524Y-89813855D01*
X185409524Y-89813855D02*
X185714286Y-89813855D01*
X185714286Y-89813855D02*
X185790476Y-89851950D01*
X185790476Y-89851950D02*
X185828571Y-89890045D01*
X185828571Y-89890045D02*
X185866667Y-89966236D01*
X185866667Y-89966236D02*
X185866667Y-90080521D01*
X185866667Y-90080521D02*
X185828571Y-90156712D01*
X185828571Y-90156712D02*
X185790476Y-90194807D01*
X185790476Y-90194807D02*
X185714286Y-90232902D01*
X185714286Y-90232902D02*
X185409524Y-90232902D01*
X186552381Y-89813855D02*
X186400000Y-89813855D01*
X186400000Y-89813855D02*
X186323809Y-89851950D01*
X186323809Y-89851950D02*
X186285714Y-89890045D01*
X186285714Y-89890045D02*
X186209524Y-90004331D01*
X186209524Y-90004331D02*
X186171428Y-90156712D01*
X186171428Y-90156712D02*
X186171428Y-90461474D01*
X186171428Y-90461474D02*
X186209524Y-90537664D01*
X186209524Y-90537664D02*
X186247619Y-90575760D01*
X186247619Y-90575760D02*
X186323809Y-90613855D01*
X186323809Y-90613855D02*
X186476190Y-90613855D01*
X186476190Y-90613855D02*
X186552381Y-90575760D01*
X186552381Y-90575760D02*
X186590476Y-90537664D01*
X186590476Y-90537664D02*
X186628571Y-90461474D01*
X186628571Y-90461474D02*
X186628571Y-90270998D01*
X186628571Y-90270998D02*
X186590476Y-90194807D01*
X186590476Y-90194807D02*
X186552381Y-90156712D01*
X186552381Y-90156712D02*
X186476190Y-90118617D01*
X186476190Y-90118617D02*
X186323809Y-90118617D01*
X186323809Y-90118617D02*
X186247619Y-90156712D01*
X186247619Y-90156712D02*
X186209524Y-90194807D01*
X186209524Y-90194807D02*
X186171428Y-90270998D01*
X188485714Y-62787664D02*
X188447618Y-62825760D01*
X188447618Y-62825760D02*
X188333333Y-62863855D01*
X188333333Y-62863855D02*
X188257142Y-62863855D01*
X188257142Y-62863855D02*
X188142856Y-62825760D01*
X188142856Y-62825760D02*
X188066666Y-62749569D01*
X188066666Y-62749569D02*
X188028571Y-62673379D01*
X188028571Y-62673379D02*
X187990475Y-62520998D01*
X187990475Y-62520998D02*
X187990475Y-62406712D01*
X187990475Y-62406712D02*
X188028571Y-62254331D01*
X188028571Y-62254331D02*
X188066666Y-62178140D01*
X188066666Y-62178140D02*
X188142856Y-62101950D01*
X188142856Y-62101950D02*
X188257142Y-62063855D01*
X188257142Y-62063855D02*
X188333333Y-62063855D01*
X188333333Y-62063855D02*
X188447618Y-62101950D01*
X188447618Y-62101950D02*
X188485714Y-62140045D01*
X189247618Y-62863855D02*
X188790475Y-62863855D01*
X189019047Y-62863855D02*
X189019047Y-62063855D01*
X189019047Y-62063855D02*
X188942856Y-62178140D01*
X188942856Y-62178140D02*
X188866666Y-62254331D01*
X188866666Y-62254331D02*
X188790475Y-62292426D01*
X189933333Y-62063855D02*
X189780952Y-62063855D01*
X189780952Y-62063855D02*
X189704761Y-62101950D01*
X189704761Y-62101950D02*
X189666666Y-62140045D01*
X189666666Y-62140045D02*
X189590476Y-62254331D01*
X189590476Y-62254331D02*
X189552380Y-62406712D01*
X189552380Y-62406712D02*
X189552380Y-62711474D01*
X189552380Y-62711474D02*
X189590476Y-62787664D01*
X189590476Y-62787664D02*
X189628571Y-62825760D01*
X189628571Y-62825760D02*
X189704761Y-62863855D01*
X189704761Y-62863855D02*
X189857142Y-62863855D01*
X189857142Y-62863855D02*
X189933333Y-62825760D01*
X189933333Y-62825760D02*
X189971428Y-62787664D01*
X189971428Y-62787664D02*
X190009523Y-62711474D01*
X190009523Y-62711474D02*
X190009523Y-62520998D01*
X190009523Y-62520998D02*
X189971428Y-62444807D01*
X189971428Y-62444807D02*
X189933333Y-62406712D01*
X189933333Y-62406712D02*
X189857142Y-62368617D01*
X189857142Y-62368617D02*
X189704761Y-62368617D01*
X189704761Y-62368617D02*
X189628571Y-62406712D01*
X189628571Y-62406712D02*
X189590476Y-62444807D01*
X189590476Y-62444807D02*
X189552380Y-62520998D01*
X214985714Y-90863855D02*
X214719047Y-90482902D01*
X214528571Y-90863855D02*
X214528571Y-90063855D01*
X214528571Y-90063855D02*
X214833333Y-90063855D01*
X214833333Y-90063855D02*
X214909523Y-90101950D01*
X214909523Y-90101950D02*
X214947618Y-90140045D01*
X214947618Y-90140045D02*
X214985714Y-90216236D01*
X214985714Y-90216236D02*
X214985714Y-90330521D01*
X214985714Y-90330521D02*
X214947618Y-90406712D01*
X214947618Y-90406712D02*
X214909523Y-90444807D01*
X214909523Y-90444807D02*
X214833333Y-90482902D01*
X214833333Y-90482902D02*
X214528571Y-90482902D01*
X215747618Y-90863855D02*
X215290475Y-90863855D01*
X215519047Y-90863855D02*
X215519047Y-90063855D01*
X215519047Y-90063855D02*
X215442856Y-90178140D01*
X215442856Y-90178140D02*
X215366666Y-90254331D01*
X215366666Y-90254331D02*
X215290475Y-90292426D01*
X216052380Y-90140045D02*
X216090476Y-90101950D01*
X216090476Y-90101950D02*
X216166666Y-90063855D01*
X216166666Y-90063855D02*
X216357142Y-90063855D01*
X216357142Y-90063855D02*
X216433333Y-90101950D01*
X216433333Y-90101950D02*
X216471428Y-90140045D01*
X216471428Y-90140045D02*
X216509523Y-90216236D01*
X216509523Y-90216236D02*
X216509523Y-90292426D01*
X216509523Y-90292426D02*
X216471428Y-90406712D01*
X216471428Y-90406712D02*
X216014285Y-90863855D01*
X216014285Y-90863855D02*
X216509523Y-90863855D01*
X193733333Y-93864605D02*
X193466667Y-93864605D01*
X193466667Y-94283653D02*
X193466667Y-93483653D01*
X193466667Y-93483653D02*
X193847619Y-93483653D01*
X194571428Y-94283653D02*
X194114285Y-94283653D01*
X194342857Y-94283653D02*
X194342857Y-93483653D01*
X194342857Y-93483653D02*
X194266666Y-93597938D01*
X194266666Y-93597938D02*
X194190476Y-93674129D01*
X194190476Y-93674129D02*
X194114285Y-93712224D01*
X213256355Y-60264285D02*
X212875402Y-60530952D01*
X213256355Y-60721428D02*
X212456355Y-60721428D01*
X212456355Y-60721428D02*
X212456355Y-60416666D01*
X212456355Y-60416666D02*
X212494450Y-60340476D01*
X212494450Y-60340476D02*
X212532545Y-60302381D01*
X212532545Y-60302381D02*
X212608736Y-60264285D01*
X212608736Y-60264285D02*
X212723021Y-60264285D01*
X212723021Y-60264285D02*
X212799212Y-60302381D01*
X212799212Y-60302381D02*
X212837307Y-60340476D01*
X212837307Y-60340476D02*
X212875402Y-60416666D01*
X212875402Y-60416666D02*
X212875402Y-60721428D01*
X212532545Y-59959524D02*
X212494450Y-59921428D01*
X212494450Y-59921428D02*
X212456355Y-59845238D01*
X212456355Y-59845238D02*
X212456355Y-59654762D01*
X212456355Y-59654762D02*
X212494450Y-59578571D01*
X212494450Y-59578571D02*
X212532545Y-59540476D01*
X212532545Y-59540476D02*
X212608736Y-59502381D01*
X212608736Y-59502381D02*
X212684926Y-59502381D01*
X212684926Y-59502381D02*
X212799212Y-59540476D01*
X212799212Y-59540476D02*
X213256355Y-59997619D01*
X213256355Y-59997619D02*
X213256355Y-59502381D01*
X212456355Y-58778571D02*
X212456355Y-59159523D01*
X212456355Y-59159523D02*
X212837307Y-59197619D01*
X212837307Y-59197619D02*
X212799212Y-59159523D01*
X212799212Y-59159523D02*
X212761117Y-59083333D01*
X212761117Y-59083333D02*
X212761117Y-58892857D01*
X212761117Y-58892857D02*
X212799212Y-58816666D01*
X212799212Y-58816666D02*
X212837307Y-58778571D01*
X212837307Y-58778571D02*
X212913498Y-58740476D01*
X212913498Y-58740476D02*
X213103974Y-58740476D01*
X213103974Y-58740476D02*
X213180164Y-58778571D01*
X213180164Y-58778571D02*
X213218260Y-58816666D01*
X213218260Y-58816666D02*
X213256355Y-58892857D01*
X213256355Y-58892857D02*
X213256355Y-59083333D01*
X213256355Y-59083333D02*
X213218260Y-59159523D01*
X213218260Y-59159523D02*
X213180164Y-59197619D01*
X195713855Y-104588332D02*
X195332902Y-104854999D01*
X195713855Y-105045475D02*
X194913855Y-105045475D01*
X194913855Y-105045475D02*
X194913855Y-104740713D01*
X194913855Y-104740713D02*
X194951950Y-104664523D01*
X194951950Y-104664523D02*
X194990045Y-104626428D01*
X194990045Y-104626428D02*
X195066236Y-104588332D01*
X195066236Y-104588332D02*
X195180521Y-104588332D01*
X195180521Y-104588332D02*
X195256712Y-104626428D01*
X195256712Y-104626428D02*
X195294807Y-104664523D01*
X195294807Y-104664523D02*
X195332902Y-104740713D01*
X195332902Y-104740713D02*
X195332902Y-105045475D01*
X194913855Y-104321666D02*
X194913855Y-103826428D01*
X194913855Y-103826428D02*
X195218617Y-104093094D01*
X195218617Y-104093094D02*
X195218617Y-103978809D01*
X195218617Y-103978809D02*
X195256712Y-103902618D01*
X195256712Y-103902618D02*
X195294807Y-103864523D01*
X195294807Y-103864523D02*
X195370998Y-103826428D01*
X195370998Y-103826428D02*
X195561474Y-103826428D01*
X195561474Y-103826428D02*
X195637664Y-103864523D01*
X195637664Y-103864523D02*
X195675760Y-103902618D01*
X195675760Y-103902618D02*
X195713855Y-103978809D01*
X195713855Y-103978809D02*
X195713855Y-104207380D01*
X195713855Y-104207380D02*
X195675760Y-104283571D01*
X195675760Y-104283571D02*
X195637664Y-104321666D01*
X231485714Y-72363855D02*
X231219047Y-71982902D01*
X231028571Y-72363855D02*
X231028571Y-71563855D01*
X231028571Y-71563855D02*
X231333333Y-71563855D01*
X231333333Y-71563855D02*
X231409523Y-71601950D01*
X231409523Y-71601950D02*
X231447618Y-71640045D01*
X231447618Y-71640045D02*
X231485714Y-71716236D01*
X231485714Y-71716236D02*
X231485714Y-71830521D01*
X231485714Y-71830521D02*
X231447618Y-71906712D01*
X231447618Y-71906712D02*
X231409523Y-71944807D01*
X231409523Y-71944807D02*
X231333333Y-71982902D01*
X231333333Y-71982902D02*
X231028571Y-71982902D01*
X232247618Y-72363855D02*
X231790475Y-72363855D01*
X232019047Y-72363855D02*
X232019047Y-71563855D01*
X232019047Y-71563855D02*
X231942856Y-71678140D01*
X231942856Y-71678140D02*
X231866666Y-71754331D01*
X231866666Y-71754331D02*
X231790475Y-71792426D01*
X232971428Y-71563855D02*
X232590476Y-71563855D01*
X232590476Y-71563855D02*
X232552380Y-71944807D01*
X232552380Y-71944807D02*
X232590476Y-71906712D01*
X232590476Y-71906712D02*
X232666666Y-71868617D01*
X232666666Y-71868617D02*
X232857142Y-71868617D01*
X232857142Y-71868617D02*
X232933333Y-71906712D01*
X232933333Y-71906712D02*
X232971428Y-71944807D01*
X232971428Y-71944807D02*
X233009523Y-72020998D01*
X233009523Y-72020998D02*
X233009523Y-72211474D01*
X233009523Y-72211474D02*
X232971428Y-72287664D01*
X232971428Y-72287664D02*
X232933333Y-72325760D01*
X232933333Y-72325760D02*
X232857142Y-72363855D01*
X232857142Y-72363855D02*
X232666666Y-72363855D01*
X232666666Y-72363855D02*
X232590476Y-72325760D01*
X232590476Y-72325760D02*
X232552380Y-72287664D01*
X233287664Y-63133332D02*
X233325760Y-63171428D01*
X233325760Y-63171428D02*
X233363855Y-63285713D01*
X233363855Y-63285713D02*
X233363855Y-63361904D01*
X233363855Y-63361904D02*
X233325760Y-63476190D01*
X233325760Y-63476190D02*
X233249569Y-63552380D01*
X233249569Y-63552380D02*
X233173379Y-63590475D01*
X233173379Y-63590475D02*
X233020998Y-63628571D01*
X233020998Y-63628571D02*
X232906712Y-63628571D01*
X232906712Y-63628571D02*
X232754331Y-63590475D01*
X232754331Y-63590475D02*
X232678140Y-63552380D01*
X232678140Y-63552380D02*
X232601950Y-63476190D01*
X232601950Y-63476190D02*
X232563855Y-63361904D01*
X232563855Y-63361904D02*
X232563855Y-63285713D01*
X232563855Y-63285713D02*
X232601950Y-63171428D01*
X232601950Y-63171428D02*
X232640045Y-63133332D01*
X232906712Y-62676190D02*
X232868617Y-62752380D01*
X232868617Y-62752380D02*
X232830521Y-62790475D01*
X232830521Y-62790475D02*
X232754331Y-62828571D01*
X232754331Y-62828571D02*
X232716236Y-62828571D01*
X232716236Y-62828571D02*
X232640045Y-62790475D01*
X232640045Y-62790475D02*
X232601950Y-62752380D01*
X232601950Y-62752380D02*
X232563855Y-62676190D01*
X232563855Y-62676190D02*
X232563855Y-62523809D01*
X232563855Y-62523809D02*
X232601950Y-62447618D01*
X232601950Y-62447618D02*
X232640045Y-62409523D01*
X232640045Y-62409523D02*
X232716236Y-62371428D01*
X232716236Y-62371428D02*
X232754331Y-62371428D01*
X232754331Y-62371428D02*
X232830521Y-62409523D01*
X232830521Y-62409523D02*
X232868617Y-62447618D01*
X232868617Y-62447618D02*
X232906712Y-62523809D01*
X232906712Y-62523809D02*
X232906712Y-62676190D01*
X232906712Y-62676190D02*
X232944807Y-62752380D01*
X232944807Y-62752380D02*
X232982902Y-62790475D01*
X232982902Y-62790475D02*
X233059093Y-62828571D01*
X233059093Y-62828571D02*
X233211474Y-62828571D01*
X233211474Y-62828571D02*
X233287664Y-62790475D01*
X233287664Y-62790475D02*
X233325760Y-62752380D01*
X233325760Y-62752380D02*
X233363855Y-62676190D01*
X233363855Y-62676190D02*
X233363855Y-62523809D01*
X233363855Y-62523809D02*
X233325760Y-62447618D01*
X233325760Y-62447618D02*
X233287664Y-62409523D01*
X233287664Y-62409523D02*
X233211474Y-62371428D01*
X233211474Y-62371428D02*
X233059093Y-62371428D01*
X233059093Y-62371428D02*
X232982902Y-62409523D01*
X232982902Y-62409523D02*
X232944807Y-62447618D01*
X232944807Y-62447618D02*
X232906712Y-62523809D01*
X213690045Y-98076190D02*
X213651950Y-98152380D01*
X213651950Y-98152380D02*
X213575760Y-98228571D01*
X213575760Y-98228571D02*
X213461474Y-98342857D01*
X213461474Y-98342857D02*
X213423379Y-98419047D01*
X213423379Y-98419047D02*
X213423379Y-98495238D01*
X213613855Y-98457142D02*
X213575760Y-98533333D01*
X213575760Y-98533333D02*
X213499569Y-98609523D01*
X213499569Y-98609523D02*
X213347188Y-98647619D01*
X213347188Y-98647619D02*
X213080521Y-98647619D01*
X213080521Y-98647619D02*
X212928140Y-98609523D01*
X212928140Y-98609523D02*
X212851950Y-98533333D01*
X212851950Y-98533333D02*
X212813855Y-98457142D01*
X212813855Y-98457142D02*
X212813855Y-98304761D01*
X212813855Y-98304761D02*
X212851950Y-98228571D01*
X212851950Y-98228571D02*
X212928140Y-98152380D01*
X212928140Y-98152380D02*
X213080521Y-98114285D01*
X213080521Y-98114285D02*
X213347188Y-98114285D01*
X213347188Y-98114285D02*
X213499569Y-98152380D01*
X213499569Y-98152380D02*
X213575760Y-98228571D01*
X213575760Y-98228571D02*
X213613855Y-98304761D01*
X213613855Y-98304761D02*
X213613855Y-98457142D01*
X212890045Y-97809524D02*
X212851950Y-97771428D01*
X212851950Y-97771428D02*
X212813855Y-97695238D01*
X212813855Y-97695238D02*
X212813855Y-97504762D01*
X212813855Y-97504762D02*
X212851950Y-97428571D01*
X212851950Y-97428571D02*
X212890045Y-97390476D01*
X212890045Y-97390476D02*
X212966236Y-97352381D01*
X212966236Y-97352381D02*
X213042426Y-97352381D01*
X213042426Y-97352381D02*
X213156712Y-97390476D01*
X213156712Y-97390476D02*
X213613855Y-97847619D01*
X213613855Y-97847619D02*
X213613855Y-97352381D01*
X175233333Y-101706355D02*
X175233333Y-102277783D01*
X175233333Y-102277783D02*
X175195238Y-102392069D01*
X175195238Y-102392069D02*
X175119047Y-102468260D01*
X175119047Y-102468260D02*
X175004762Y-102506355D01*
X175004762Y-102506355D02*
X174928571Y-102506355D01*
X175576190Y-101782545D02*
X175614286Y-101744450D01*
X175614286Y-101744450D02*
X175690476Y-101706355D01*
X175690476Y-101706355D02*
X175880952Y-101706355D01*
X175880952Y-101706355D02*
X175957143Y-101744450D01*
X175957143Y-101744450D02*
X175995238Y-101782545D01*
X175995238Y-101782545D02*
X176033333Y-101858736D01*
X176033333Y-101858736D02*
X176033333Y-101934926D01*
X176033333Y-101934926D02*
X175995238Y-102049212D01*
X175995238Y-102049212D02*
X175538095Y-102506355D01*
X175538095Y-102506355D02*
X176033333Y-102506355D01*
X209957664Y-74809285D02*
X209995760Y-74847381D01*
X209995760Y-74847381D02*
X210033855Y-74961666D01*
X210033855Y-74961666D02*
X210033855Y-75037857D01*
X210033855Y-75037857D02*
X209995760Y-75152143D01*
X209995760Y-75152143D02*
X209919569Y-75228333D01*
X209919569Y-75228333D02*
X209843379Y-75266428D01*
X209843379Y-75266428D02*
X209690998Y-75304524D01*
X209690998Y-75304524D02*
X209576712Y-75304524D01*
X209576712Y-75304524D02*
X209424331Y-75266428D01*
X209424331Y-75266428D02*
X209348140Y-75228333D01*
X209348140Y-75228333D02*
X209271950Y-75152143D01*
X209271950Y-75152143D02*
X209233855Y-75037857D01*
X209233855Y-75037857D02*
X209233855Y-74961666D01*
X209233855Y-74961666D02*
X209271950Y-74847381D01*
X209271950Y-74847381D02*
X209310045Y-74809285D01*
X210033855Y-74047381D02*
X210033855Y-74504524D01*
X210033855Y-74275952D02*
X209233855Y-74275952D01*
X209233855Y-74275952D02*
X209348140Y-74352143D01*
X209348140Y-74352143D02*
X209424331Y-74428333D01*
X209424331Y-74428333D02*
X209462426Y-74504524D01*
X209500521Y-73361666D02*
X210033855Y-73361666D01*
X209195760Y-73552142D02*
X209767188Y-73742619D01*
X209767188Y-73742619D02*
X209767188Y-73247380D01*
X228613855Y-70014285D02*
X228232902Y-70280952D01*
X228613855Y-70471428D02*
X227813855Y-70471428D01*
X227813855Y-70471428D02*
X227813855Y-70166666D01*
X227813855Y-70166666D02*
X227851950Y-70090476D01*
X227851950Y-70090476D02*
X227890045Y-70052381D01*
X227890045Y-70052381D02*
X227966236Y-70014285D01*
X227966236Y-70014285D02*
X228080521Y-70014285D01*
X228080521Y-70014285D02*
X228156712Y-70052381D01*
X228156712Y-70052381D02*
X228194807Y-70090476D01*
X228194807Y-70090476D02*
X228232902Y-70166666D01*
X228232902Y-70166666D02*
X228232902Y-70471428D01*
X227890045Y-69709524D02*
X227851950Y-69671428D01*
X227851950Y-69671428D02*
X227813855Y-69595238D01*
X227813855Y-69595238D02*
X227813855Y-69404762D01*
X227813855Y-69404762D02*
X227851950Y-69328571D01*
X227851950Y-69328571D02*
X227890045Y-69290476D01*
X227890045Y-69290476D02*
X227966236Y-69252381D01*
X227966236Y-69252381D02*
X228042426Y-69252381D01*
X228042426Y-69252381D02*
X228156712Y-69290476D01*
X228156712Y-69290476D02*
X228613855Y-69747619D01*
X228613855Y-69747619D02*
X228613855Y-69252381D01*
X227813855Y-68757142D02*
X227813855Y-68680952D01*
X227813855Y-68680952D02*
X227851950Y-68604761D01*
X227851950Y-68604761D02*
X227890045Y-68566666D01*
X227890045Y-68566666D02*
X227966236Y-68528571D01*
X227966236Y-68528571D02*
X228118617Y-68490476D01*
X228118617Y-68490476D02*
X228309093Y-68490476D01*
X228309093Y-68490476D02*
X228461474Y-68528571D01*
X228461474Y-68528571D02*
X228537664Y-68566666D01*
X228537664Y-68566666D02*
X228575760Y-68604761D01*
X228575760Y-68604761D02*
X228613855Y-68680952D01*
X228613855Y-68680952D02*
X228613855Y-68757142D01*
X228613855Y-68757142D02*
X228575760Y-68833333D01*
X228575760Y-68833333D02*
X228537664Y-68871428D01*
X228537664Y-68871428D02*
X228461474Y-68909523D01*
X228461474Y-68909523D02*
X228309093Y-68947619D01*
X228309093Y-68947619D02*
X228118617Y-68947619D01*
X228118617Y-68947619D02*
X227966236Y-68909523D01*
X227966236Y-68909523D02*
X227890045Y-68871428D01*
X227890045Y-68871428D02*
X227851950Y-68833333D01*
X227851950Y-68833333D02*
X227813855Y-68757142D01*
X211890475Y-107825760D02*
X212004761Y-107863855D01*
X212004761Y-107863855D02*
X212195237Y-107863855D01*
X212195237Y-107863855D02*
X212271428Y-107825760D01*
X212271428Y-107825760D02*
X212309523Y-107787664D01*
X212309523Y-107787664D02*
X212347618Y-107711474D01*
X212347618Y-107711474D02*
X212347618Y-107635283D01*
X212347618Y-107635283D02*
X212309523Y-107559093D01*
X212309523Y-107559093D02*
X212271428Y-107520998D01*
X212271428Y-107520998D02*
X212195237Y-107482902D01*
X212195237Y-107482902D02*
X212042856Y-107444807D01*
X212042856Y-107444807D02*
X211966666Y-107406712D01*
X211966666Y-107406712D02*
X211928571Y-107368617D01*
X211928571Y-107368617D02*
X211890475Y-107292426D01*
X211890475Y-107292426D02*
X211890475Y-107216236D01*
X211890475Y-107216236D02*
X211928571Y-107140045D01*
X211928571Y-107140045D02*
X211966666Y-107101950D01*
X211966666Y-107101950D02*
X212042856Y-107063855D01*
X212042856Y-107063855D02*
X212233333Y-107063855D01*
X212233333Y-107063855D02*
X212347618Y-107101950D01*
X212652380Y-107140045D02*
X212690476Y-107101950D01*
X212690476Y-107101950D02*
X212766666Y-107063855D01*
X212766666Y-107063855D02*
X212957142Y-107063855D01*
X212957142Y-107063855D02*
X213033333Y-107101950D01*
X213033333Y-107101950D02*
X213071428Y-107140045D01*
X213071428Y-107140045D02*
X213109523Y-107216236D01*
X213109523Y-107216236D02*
X213109523Y-107292426D01*
X213109523Y-107292426D02*
X213071428Y-107406712D01*
X213071428Y-107406712D02*
X212614285Y-107863855D01*
X212614285Y-107863855D02*
X213109523Y-107863855D01*
X203990714Y-59375164D02*
X203952618Y-59413260D01*
X203952618Y-59413260D02*
X203838333Y-59451355D01*
X203838333Y-59451355D02*
X203762142Y-59451355D01*
X203762142Y-59451355D02*
X203647856Y-59413260D01*
X203647856Y-59413260D02*
X203571666Y-59337069D01*
X203571666Y-59337069D02*
X203533571Y-59260879D01*
X203533571Y-59260879D02*
X203495475Y-59108498D01*
X203495475Y-59108498D02*
X203495475Y-58994212D01*
X203495475Y-58994212D02*
X203533571Y-58841831D01*
X203533571Y-58841831D02*
X203571666Y-58765640D01*
X203571666Y-58765640D02*
X203647856Y-58689450D01*
X203647856Y-58689450D02*
X203762142Y-58651355D01*
X203762142Y-58651355D02*
X203838333Y-58651355D01*
X203838333Y-58651355D02*
X203952618Y-58689450D01*
X203952618Y-58689450D02*
X203990714Y-58727545D01*
X204752618Y-59451355D02*
X204295475Y-59451355D01*
X204524047Y-59451355D02*
X204524047Y-58651355D01*
X204524047Y-58651355D02*
X204447856Y-58765640D01*
X204447856Y-58765640D02*
X204371666Y-58841831D01*
X204371666Y-58841831D02*
X204295475Y-58879926D01*
X205476428Y-58651355D02*
X205095476Y-58651355D01*
X205095476Y-58651355D02*
X205057380Y-59032307D01*
X205057380Y-59032307D02*
X205095476Y-58994212D01*
X205095476Y-58994212D02*
X205171666Y-58956117D01*
X205171666Y-58956117D02*
X205362142Y-58956117D01*
X205362142Y-58956117D02*
X205438333Y-58994212D01*
X205438333Y-58994212D02*
X205476428Y-59032307D01*
X205476428Y-59032307D02*
X205514523Y-59108498D01*
X205514523Y-59108498D02*
X205514523Y-59298974D01*
X205514523Y-59298974D02*
X205476428Y-59375164D01*
X205476428Y-59375164D02*
X205438333Y-59413260D01*
X205438333Y-59413260D02*
X205362142Y-59451355D01*
X205362142Y-59451355D02*
X205171666Y-59451355D01*
X205171666Y-59451355D02*
X205095476Y-59413260D01*
X205095476Y-59413260D02*
X205057380Y-59375164D01*
X191616667Y-107287664D02*
X191578571Y-107325760D01*
X191578571Y-107325760D02*
X191464286Y-107363855D01*
X191464286Y-107363855D02*
X191388095Y-107363855D01*
X191388095Y-107363855D02*
X191273809Y-107325760D01*
X191273809Y-107325760D02*
X191197619Y-107249569D01*
X191197619Y-107249569D02*
X191159524Y-107173379D01*
X191159524Y-107173379D02*
X191121428Y-107020998D01*
X191121428Y-107020998D02*
X191121428Y-106906712D01*
X191121428Y-106906712D02*
X191159524Y-106754331D01*
X191159524Y-106754331D02*
X191197619Y-106678140D01*
X191197619Y-106678140D02*
X191273809Y-106601950D01*
X191273809Y-106601950D02*
X191388095Y-106563855D01*
X191388095Y-106563855D02*
X191464286Y-106563855D01*
X191464286Y-106563855D02*
X191578571Y-106601950D01*
X191578571Y-106601950D02*
X191616667Y-106640045D01*
X192302381Y-106563855D02*
X192150000Y-106563855D01*
X192150000Y-106563855D02*
X192073809Y-106601950D01*
X192073809Y-106601950D02*
X192035714Y-106640045D01*
X192035714Y-106640045D02*
X191959524Y-106754331D01*
X191959524Y-106754331D02*
X191921428Y-106906712D01*
X191921428Y-106906712D02*
X191921428Y-107211474D01*
X191921428Y-107211474D02*
X191959524Y-107287664D01*
X191959524Y-107287664D02*
X191997619Y-107325760D01*
X191997619Y-107325760D02*
X192073809Y-107363855D01*
X192073809Y-107363855D02*
X192226190Y-107363855D01*
X192226190Y-107363855D02*
X192302381Y-107325760D01*
X192302381Y-107325760D02*
X192340476Y-107287664D01*
X192340476Y-107287664D02*
X192378571Y-107211474D01*
X192378571Y-107211474D02*
X192378571Y-107020998D01*
X192378571Y-107020998D02*
X192340476Y-106944807D01*
X192340476Y-106944807D02*
X192302381Y-106906712D01*
X192302381Y-106906712D02*
X192226190Y-106868617D01*
X192226190Y-106868617D02*
X192073809Y-106868617D01*
X192073809Y-106868617D02*
X191997619Y-106906712D01*
X191997619Y-106906712D02*
X191959524Y-106944807D01*
X191959524Y-106944807D02*
X191921428Y-107020998D01*
X175433333Y-62863855D02*
X175166666Y-62482902D01*
X174976190Y-62863855D02*
X174976190Y-62063855D01*
X174976190Y-62063855D02*
X175280952Y-62063855D01*
X175280952Y-62063855D02*
X175357142Y-62101950D01*
X175357142Y-62101950D02*
X175395237Y-62140045D01*
X175395237Y-62140045D02*
X175433333Y-62216236D01*
X175433333Y-62216236D02*
X175433333Y-62330521D01*
X175433333Y-62330521D02*
X175395237Y-62406712D01*
X175395237Y-62406712D02*
X175357142Y-62444807D01*
X175357142Y-62444807D02*
X175280952Y-62482902D01*
X175280952Y-62482902D02*
X174976190Y-62482902D01*
X175776190Y-62444807D02*
X176042856Y-62444807D01*
X176157142Y-62863855D02*
X175776190Y-62863855D01*
X175776190Y-62863855D02*
X175776190Y-62063855D01*
X175776190Y-62063855D02*
X176157142Y-62063855D01*
X176766666Y-62444807D02*
X176500000Y-62444807D01*
X176500000Y-62863855D02*
X176500000Y-62063855D01*
X176500000Y-62063855D02*
X176880952Y-62063855D01*
X177299999Y-62063855D02*
X177299999Y-62254331D01*
X177109523Y-62178140D02*
X177299999Y-62254331D01*
X177299999Y-62254331D02*
X177490476Y-62178140D01*
X177185714Y-62406712D02*
X177299999Y-62254331D01*
X177299999Y-62254331D02*
X177414285Y-62406712D01*
X177909523Y-62063855D02*
X177909523Y-62254331D01*
X177719047Y-62178140D02*
X177909523Y-62254331D01*
X177909523Y-62254331D02*
X178100000Y-62178140D01*
X177795238Y-62406712D02*
X177909523Y-62254331D01*
X177909523Y-62254331D02*
X178023809Y-62406712D01*
X209210714Y-88688855D02*
X208944047Y-88307902D01*
X208753571Y-88688855D02*
X208753571Y-87888855D01*
X208753571Y-87888855D02*
X209058333Y-87888855D01*
X209058333Y-87888855D02*
X209134523Y-87926950D01*
X209134523Y-87926950D02*
X209172618Y-87965045D01*
X209172618Y-87965045D02*
X209210714Y-88041236D01*
X209210714Y-88041236D02*
X209210714Y-88155521D01*
X209210714Y-88155521D02*
X209172618Y-88231712D01*
X209172618Y-88231712D02*
X209134523Y-88269807D01*
X209134523Y-88269807D02*
X209058333Y-88307902D01*
X209058333Y-88307902D02*
X208753571Y-88307902D01*
X209972618Y-88688855D02*
X209515475Y-88688855D01*
X209744047Y-88688855D02*
X209744047Y-87888855D01*
X209744047Y-87888855D02*
X209667856Y-88003140D01*
X209667856Y-88003140D02*
X209591666Y-88079331D01*
X209591666Y-88079331D02*
X209515475Y-88117426D01*
X210239285Y-87888855D02*
X210734523Y-87888855D01*
X210734523Y-87888855D02*
X210467857Y-88193617D01*
X210467857Y-88193617D02*
X210582142Y-88193617D01*
X210582142Y-88193617D02*
X210658333Y-88231712D01*
X210658333Y-88231712D02*
X210696428Y-88269807D01*
X210696428Y-88269807D02*
X210734523Y-88345998D01*
X210734523Y-88345998D02*
X210734523Y-88536474D01*
X210734523Y-88536474D02*
X210696428Y-88612664D01*
X210696428Y-88612664D02*
X210658333Y-88650760D01*
X210658333Y-88650760D02*
X210582142Y-88688855D01*
X210582142Y-88688855D02*
X210353571Y-88688855D01*
X210353571Y-88688855D02*
X210277380Y-88650760D01*
X210277380Y-88650760D02*
X210239285Y-88612664D01*
X187113855Y-66764285D02*
X186732902Y-67030952D01*
X187113855Y-67221428D02*
X186313855Y-67221428D01*
X186313855Y-67221428D02*
X186313855Y-66916666D01*
X186313855Y-66916666D02*
X186351950Y-66840476D01*
X186351950Y-66840476D02*
X186390045Y-66802381D01*
X186390045Y-66802381D02*
X186466236Y-66764285D01*
X186466236Y-66764285D02*
X186580521Y-66764285D01*
X186580521Y-66764285D02*
X186656712Y-66802381D01*
X186656712Y-66802381D02*
X186694807Y-66840476D01*
X186694807Y-66840476D02*
X186732902Y-66916666D01*
X186732902Y-66916666D02*
X186732902Y-67221428D01*
X186390045Y-66459524D02*
X186351950Y-66421428D01*
X186351950Y-66421428D02*
X186313855Y-66345238D01*
X186313855Y-66345238D02*
X186313855Y-66154762D01*
X186313855Y-66154762D02*
X186351950Y-66078571D01*
X186351950Y-66078571D02*
X186390045Y-66040476D01*
X186390045Y-66040476D02*
X186466236Y-66002381D01*
X186466236Y-66002381D02*
X186542426Y-66002381D01*
X186542426Y-66002381D02*
X186656712Y-66040476D01*
X186656712Y-66040476D02*
X187113855Y-66497619D01*
X187113855Y-66497619D02*
X187113855Y-66002381D01*
X186656712Y-65545238D02*
X186618617Y-65621428D01*
X186618617Y-65621428D02*
X186580521Y-65659523D01*
X186580521Y-65659523D02*
X186504331Y-65697619D01*
X186504331Y-65697619D02*
X186466236Y-65697619D01*
X186466236Y-65697619D02*
X186390045Y-65659523D01*
X186390045Y-65659523D02*
X186351950Y-65621428D01*
X186351950Y-65621428D02*
X186313855Y-65545238D01*
X186313855Y-65545238D02*
X186313855Y-65392857D01*
X186313855Y-65392857D02*
X186351950Y-65316666D01*
X186351950Y-65316666D02*
X186390045Y-65278571D01*
X186390045Y-65278571D02*
X186466236Y-65240476D01*
X186466236Y-65240476D02*
X186504331Y-65240476D01*
X186504331Y-65240476D02*
X186580521Y-65278571D01*
X186580521Y-65278571D02*
X186618617Y-65316666D01*
X186618617Y-65316666D02*
X186656712Y-65392857D01*
X186656712Y-65392857D02*
X186656712Y-65545238D01*
X186656712Y-65545238D02*
X186694807Y-65621428D01*
X186694807Y-65621428D02*
X186732902Y-65659523D01*
X186732902Y-65659523D02*
X186809093Y-65697619D01*
X186809093Y-65697619D02*
X186961474Y-65697619D01*
X186961474Y-65697619D02*
X187037664Y-65659523D01*
X187037664Y-65659523D02*
X187075760Y-65621428D01*
X187075760Y-65621428D02*
X187113855Y-65545238D01*
X187113855Y-65545238D02*
X187113855Y-65392857D01*
X187113855Y-65392857D02*
X187075760Y-65316666D01*
X187075760Y-65316666D02*
X187037664Y-65278571D01*
X187037664Y-65278571D02*
X186961474Y-65240476D01*
X186961474Y-65240476D02*
X186809093Y-65240476D01*
X186809093Y-65240476D02*
X186732902Y-65278571D01*
X186732902Y-65278571D02*
X186694807Y-65316666D01*
X186694807Y-65316666D02*
X186656712Y-65392857D01*
X218740476Y-81865855D02*
X219197619Y-81865855D01*
X218969047Y-82665855D02*
X218969047Y-81865855D01*
X219464286Y-82665855D02*
X219464286Y-81865855D01*
X219464286Y-81865855D02*
X219769048Y-81865855D01*
X219769048Y-81865855D02*
X219845238Y-81903950D01*
X219845238Y-81903950D02*
X219883333Y-81942045D01*
X219883333Y-81942045D02*
X219921429Y-82018236D01*
X219921429Y-82018236D02*
X219921429Y-82132521D01*
X219921429Y-82132521D02*
X219883333Y-82208712D01*
X219883333Y-82208712D02*
X219845238Y-82246807D01*
X219845238Y-82246807D02*
X219769048Y-82284902D01*
X219769048Y-82284902D02*
X219464286Y-82284902D01*
X220226190Y-81942045D02*
X220264286Y-81903950D01*
X220264286Y-81903950D02*
X220340476Y-81865855D01*
X220340476Y-81865855D02*
X220530952Y-81865855D01*
X220530952Y-81865855D02*
X220607143Y-81903950D01*
X220607143Y-81903950D02*
X220645238Y-81942045D01*
X220645238Y-81942045D02*
X220683333Y-82018236D01*
X220683333Y-82018236D02*
X220683333Y-82094426D01*
X220683333Y-82094426D02*
X220645238Y-82208712D01*
X220645238Y-82208712D02*
X220188095Y-82665855D01*
X220188095Y-82665855D02*
X220683333Y-82665855D01*
X193235714Y-71613855D02*
X192969047Y-71232902D01*
X192778571Y-71613855D02*
X192778571Y-70813855D01*
X192778571Y-70813855D02*
X193083333Y-70813855D01*
X193083333Y-70813855D02*
X193159523Y-70851950D01*
X193159523Y-70851950D02*
X193197618Y-70890045D01*
X193197618Y-70890045D02*
X193235714Y-70966236D01*
X193235714Y-70966236D02*
X193235714Y-71080521D01*
X193235714Y-71080521D02*
X193197618Y-71156712D01*
X193197618Y-71156712D02*
X193159523Y-71194807D01*
X193159523Y-71194807D02*
X193083333Y-71232902D01*
X193083333Y-71232902D02*
X192778571Y-71232902D01*
X193540475Y-70890045D02*
X193578571Y-70851950D01*
X193578571Y-70851950D02*
X193654761Y-70813855D01*
X193654761Y-70813855D02*
X193845237Y-70813855D01*
X193845237Y-70813855D02*
X193921428Y-70851950D01*
X193921428Y-70851950D02*
X193959523Y-70890045D01*
X193959523Y-70890045D02*
X193997618Y-70966236D01*
X193997618Y-70966236D02*
X193997618Y-71042426D01*
X193997618Y-71042426D02*
X193959523Y-71156712D01*
X193959523Y-71156712D02*
X193502380Y-71613855D01*
X193502380Y-71613855D02*
X193997618Y-71613855D01*
X194264285Y-70813855D02*
X194797619Y-70813855D01*
X194797619Y-70813855D02*
X194454761Y-71613855D01*
X180516667Y-80562664D02*
X180478571Y-80600760D01*
X180478571Y-80600760D02*
X180364286Y-80638855D01*
X180364286Y-80638855D02*
X180288095Y-80638855D01*
X180288095Y-80638855D02*
X180173809Y-80600760D01*
X180173809Y-80600760D02*
X180097619Y-80524569D01*
X180097619Y-80524569D02*
X180059524Y-80448379D01*
X180059524Y-80448379D02*
X180021428Y-80295998D01*
X180021428Y-80295998D02*
X180021428Y-80181712D01*
X180021428Y-80181712D02*
X180059524Y-80029331D01*
X180059524Y-80029331D02*
X180097619Y-79953140D01*
X180097619Y-79953140D02*
X180173809Y-79876950D01*
X180173809Y-79876950D02*
X180288095Y-79838855D01*
X180288095Y-79838855D02*
X180364286Y-79838855D01*
X180364286Y-79838855D02*
X180478571Y-79876950D01*
X180478571Y-79876950D02*
X180516667Y-79915045D01*
X181202381Y-80105521D02*
X181202381Y-80638855D01*
X181011905Y-79800760D02*
X180821428Y-80372188D01*
X180821428Y-80372188D02*
X181316667Y-80372188D01*
X177604761Y-90613855D02*
X177223809Y-90613855D01*
X177223809Y-90613855D02*
X177223809Y-89813855D01*
X177871428Y-90194807D02*
X178138094Y-90194807D01*
X178252380Y-90613855D02*
X177871428Y-90613855D01*
X177871428Y-90613855D02*
X177871428Y-89813855D01*
X177871428Y-89813855D02*
X178252380Y-89813855D01*
X178595238Y-90613855D02*
X178595238Y-89813855D01*
X178595238Y-89813855D02*
X178785714Y-89813855D01*
X178785714Y-89813855D02*
X178900000Y-89851950D01*
X178900000Y-89851950D02*
X178976190Y-89928140D01*
X178976190Y-89928140D02*
X179014285Y-90004331D01*
X179014285Y-90004331D02*
X179052381Y-90156712D01*
X179052381Y-90156712D02*
X179052381Y-90270998D01*
X179052381Y-90270998D02*
X179014285Y-90423379D01*
X179014285Y-90423379D02*
X178976190Y-90499569D01*
X178976190Y-90499569D02*
X178900000Y-90575760D01*
X178900000Y-90575760D02*
X178785714Y-90613855D01*
X178785714Y-90613855D02*
X178595238Y-90613855D01*
X179357142Y-89890045D02*
X179395238Y-89851950D01*
X179395238Y-89851950D02*
X179471428Y-89813855D01*
X179471428Y-89813855D02*
X179661904Y-89813855D01*
X179661904Y-89813855D02*
X179738095Y-89851950D01*
X179738095Y-89851950D02*
X179776190Y-89890045D01*
X179776190Y-89890045D02*
X179814285Y-89966236D01*
X179814285Y-89966236D02*
X179814285Y-90042426D01*
X179814285Y-90042426D02*
X179776190Y-90156712D01*
X179776190Y-90156712D02*
X179319047Y-90613855D01*
X179319047Y-90613855D02*
X179814285Y-90613855D01*
X177571355Y-96580832D02*
X177190402Y-96847499D01*
X177571355Y-97037975D02*
X176771355Y-97037975D01*
X176771355Y-97037975D02*
X176771355Y-96733213D01*
X176771355Y-96733213D02*
X176809450Y-96657023D01*
X176809450Y-96657023D02*
X176847545Y-96618928D01*
X176847545Y-96618928D02*
X176923736Y-96580832D01*
X176923736Y-96580832D02*
X177038021Y-96580832D01*
X177038021Y-96580832D02*
X177114212Y-96618928D01*
X177114212Y-96618928D02*
X177152307Y-96657023D01*
X177152307Y-96657023D02*
X177190402Y-96733213D01*
X177190402Y-96733213D02*
X177190402Y-97037975D01*
X177114212Y-96123690D02*
X177076117Y-96199880D01*
X177076117Y-96199880D02*
X177038021Y-96237975D01*
X177038021Y-96237975D02*
X176961831Y-96276071D01*
X176961831Y-96276071D02*
X176923736Y-96276071D01*
X176923736Y-96276071D02*
X176847545Y-96237975D01*
X176847545Y-96237975D02*
X176809450Y-96199880D01*
X176809450Y-96199880D02*
X176771355Y-96123690D01*
X176771355Y-96123690D02*
X176771355Y-95971309D01*
X176771355Y-95971309D02*
X176809450Y-95895118D01*
X176809450Y-95895118D02*
X176847545Y-95857023D01*
X176847545Y-95857023D02*
X176923736Y-95818928D01*
X176923736Y-95818928D02*
X176961831Y-95818928D01*
X176961831Y-95818928D02*
X177038021Y-95857023D01*
X177038021Y-95857023D02*
X177076117Y-95895118D01*
X177076117Y-95895118D02*
X177114212Y-95971309D01*
X177114212Y-95971309D02*
X177114212Y-96123690D01*
X177114212Y-96123690D02*
X177152307Y-96199880D01*
X177152307Y-96199880D02*
X177190402Y-96237975D01*
X177190402Y-96237975D02*
X177266593Y-96276071D01*
X177266593Y-96276071D02*
X177418974Y-96276071D01*
X177418974Y-96276071D02*
X177495164Y-96237975D01*
X177495164Y-96237975D02*
X177533260Y-96199880D01*
X177533260Y-96199880D02*
X177571355Y-96123690D01*
X177571355Y-96123690D02*
X177571355Y-95971309D01*
X177571355Y-95971309D02*
X177533260Y-95895118D01*
X177533260Y-95895118D02*
X177495164Y-95857023D01*
X177495164Y-95857023D02*
X177418974Y-95818928D01*
X177418974Y-95818928D02*
X177266593Y-95818928D01*
X177266593Y-95818928D02*
X177190402Y-95857023D01*
X177190402Y-95857023D02*
X177152307Y-95895118D01*
X177152307Y-95895118D02*
X177114212Y-95971309D01*
X206762664Y-83264285D02*
X206800760Y-83302381D01*
X206800760Y-83302381D02*
X206838855Y-83416666D01*
X206838855Y-83416666D02*
X206838855Y-83492857D01*
X206838855Y-83492857D02*
X206800760Y-83607143D01*
X206800760Y-83607143D02*
X206724569Y-83683333D01*
X206724569Y-83683333D02*
X206648379Y-83721428D01*
X206648379Y-83721428D02*
X206495998Y-83759524D01*
X206495998Y-83759524D02*
X206381712Y-83759524D01*
X206381712Y-83759524D02*
X206229331Y-83721428D01*
X206229331Y-83721428D02*
X206153140Y-83683333D01*
X206153140Y-83683333D02*
X206076950Y-83607143D01*
X206076950Y-83607143D02*
X206038855Y-83492857D01*
X206038855Y-83492857D02*
X206038855Y-83416666D01*
X206038855Y-83416666D02*
X206076950Y-83302381D01*
X206076950Y-83302381D02*
X206115045Y-83264285D01*
X206838855Y-82502381D02*
X206838855Y-82959524D01*
X206838855Y-82730952D02*
X206038855Y-82730952D01*
X206038855Y-82730952D02*
X206153140Y-82807143D01*
X206153140Y-82807143D02*
X206229331Y-82883333D01*
X206229331Y-82883333D02*
X206267426Y-82959524D01*
X206038855Y-82007142D02*
X206038855Y-81930952D01*
X206038855Y-81930952D02*
X206076950Y-81854761D01*
X206076950Y-81854761D02*
X206115045Y-81816666D01*
X206115045Y-81816666D02*
X206191236Y-81778571D01*
X206191236Y-81778571D02*
X206343617Y-81740476D01*
X206343617Y-81740476D02*
X206534093Y-81740476D01*
X206534093Y-81740476D02*
X206686474Y-81778571D01*
X206686474Y-81778571D02*
X206762664Y-81816666D01*
X206762664Y-81816666D02*
X206800760Y-81854761D01*
X206800760Y-81854761D02*
X206838855Y-81930952D01*
X206838855Y-81930952D02*
X206838855Y-82007142D01*
X206838855Y-82007142D02*
X206800760Y-82083333D01*
X206800760Y-82083333D02*
X206762664Y-82121428D01*
X206762664Y-82121428D02*
X206686474Y-82159523D01*
X206686474Y-82159523D02*
X206534093Y-82197619D01*
X206534093Y-82197619D02*
X206343617Y-82197619D01*
X206343617Y-82197619D02*
X206191236Y-82159523D01*
X206191236Y-82159523D02*
X206115045Y-82121428D01*
X206115045Y-82121428D02*
X206076950Y-82083333D01*
X206076950Y-82083333D02*
X206038855Y-82007142D01*
X223983333Y-80563855D02*
X223983333Y-81135283D01*
X223983333Y-81135283D02*
X223945238Y-81249569D01*
X223945238Y-81249569D02*
X223869047Y-81325760D01*
X223869047Y-81325760D02*
X223754762Y-81363855D01*
X223754762Y-81363855D02*
X223678571Y-81363855D01*
X224288095Y-80563855D02*
X224783333Y-80563855D01*
X224783333Y-80563855D02*
X224516667Y-80868617D01*
X224516667Y-80868617D02*
X224630952Y-80868617D01*
X224630952Y-80868617D02*
X224707143Y-80906712D01*
X224707143Y-80906712D02*
X224745238Y-80944807D01*
X224745238Y-80944807D02*
X224783333Y-81020998D01*
X224783333Y-81020998D02*
X224783333Y-81211474D01*
X224783333Y-81211474D02*
X224745238Y-81287664D01*
X224745238Y-81287664D02*
X224707143Y-81325760D01*
X224707143Y-81325760D02*
X224630952Y-81363855D01*
X224630952Y-81363855D02*
X224402381Y-81363855D01*
X224402381Y-81363855D02*
X224326190Y-81325760D01*
X224326190Y-81325760D02*
X224288095Y-81287664D01*
X209116667Y-93230164D02*
X209078571Y-93268260D01*
X209078571Y-93268260D02*
X208964286Y-93306355D01*
X208964286Y-93306355D02*
X208888095Y-93306355D01*
X208888095Y-93306355D02*
X208773809Y-93268260D01*
X208773809Y-93268260D02*
X208697619Y-93192069D01*
X208697619Y-93192069D02*
X208659524Y-93115879D01*
X208659524Y-93115879D02*
X208621428Y-92963498D01*
X208621428Y-92963498D02*
X208621428Y-92849212D01*
X208621428Y-92849212D02*
X208659524Y-92696831D01*
X208659524Y-92696831D02*
X208697619Y-92620640D01*
X208697619Y-92620640D02*
X208773809Y-92544450D01*
X208773809Y-92544450D02*
X208888095Y-92506355D01*
X208888095Y-92506355D02*
X208964286Y-92506355D01*
X208964286Y-92506355D02*
X209078571Y-92544450D01*
X209078571Y-92544450D02*
X209116667Y-92582545D01*
X209878571Y-93306355D02*
X209421428Y-93306355D01*
X209650000Y-93306355D02*
X209650000Y-92506355D01*
X209650000Y-92506355D02*
X209573809Y-92620640D01*
X209573809Y-92620640D02*
X209497619Y-92696831D01*
X209497619Y-92696831D02*
X209421428Y-92734926D01*
X250490476Y-75615855D02*
X250947619Y-75615855D01*
X250719047Y-76415855D02*
X250719047Y-75615855D01*
X251214286Y-76415855D02*
X251214286Y-75615855D01*
X251214286Y-75615855D02*
X251519048Y-75615855D01*
X251519048Y-75615855D02*
X251595238Y-75653950D01*
X251595238Y-75653950D02*
X251633333Y-75692045D01*
X251633333Y-75692045D02*
X251671429Y-75768236D01*
X251671429Y-75768236D02*
X251671429Y-75882521D01*
X251671429Y-75882521D02*
X251633333Y-75958712D01*
X251633333Y-75958712D02*
X251595238Y-75996807D01*
X251595238Y-75996807D02*
X251519048Y-76034902D01*
X251519048Y-76034902D02*
X251214286Y-76034902D01*
X252357143Y-75882521D02*
X252357143Y-76415855D01*
X252166667Y-75577760D02*
X251976190Y-76149188D01*
X251976190Y-76149188D02*
X252471429Y-76149188D01*
X183366667Y-90613855D02*
X183100000Y-90232902D01*
X182909524Y-90613855D02*
X182909524Y-89813855D01*
X182909524Y-89813855D02*
X183214286Y-89813855D01*
X183214286Y-89813855D02*
X183290476Y-89851950D01*
X183290476Y-89851950D02*
X183328571Y-89890045D01*
X183328571Y-89890045D02*
X183366667Y-89966236D01*
X183366667Y-89966236D02*
X183366667Y-90080521D01*
X183366667Y-90080521D02*
X183328571Y-90156712D01*
X183328571Y-90156712D02*
X183290476Y-90194807D01*
X183290476Y-90194807D02*
X183214286Y-90232902D01*
X183214286Y-90232902D02*
X182909524Y-90232902D01*
X184090476Y-89813855D02*
X183709524Y-89813855D01*
X183709524Y-89813855D02*
X183671428Y-90194807D01*
X183671428Y-90194807D02*
X183709524Y-90156712D01*
X183709524Y-90156712D02*
X183785714Y-90118617D01*
X183785714Y-90118617D02*
X183976190Y-90118617D01*
X183976190Y-90118617D02*
X184052381Y-90156712D01*
X184052381Y-90156712D02*
X184090476Y-90194807D01*
X184090476Y-90194807D02*
X184128571Y-90270998D01*
X184128571Y-90270998D02*
X184128571Y-90461474D01*
X184128571Y-90461474D02*
X184090476Y-90537664D01*
X184090476Y-90537664D02*
X184052381Y-90575760D01*
X184052381Y-90575760D02*
X183976190Y-90613855D01*
X183976190Y-90613855D02*
X183785714Y-90613855D01*
X183785714Y-90613855D02*
X183709524Y-90575760D01*
X183709524Y-90575760D02*
X183671428Y-90537664D01*
X217165786Y-68824685D02*
X217165786Y-69472304D01*
X217165786Y-69472304D02*
X217203881Y-69548494D01*
X217203881Y-69548494D02*
X217241976Y-69586590D01*
X217241976Y-69586590D02*
X217318167Y-69624685D01*
X217318167Y-69624685D02*
X217470548Y-69624685D01*
X217470548Y-69624685D02*
X217546738Y-69586590D01*
X217546738Y-69586590D02*
X217584833Y-69548494D01*
X217584833Y-69548494D02*
X217622929Y-69472304D01*
X217622929Y-69472304D02*
X217622929Y-68824685D01*
X218346738Y-68824685D02*
X218194357Y-68824685D01*
X218194357Y-68824685D02*
X218118166Y-68862780D01*
X218118166Y-68862780D02*
X218080071Y-68900875D01*
X218080071Y-68900875D02*
X218003881Y-69015161D01*
X218003881Y-69015161D02*
X217965785Y-69167542D01*
X217965785Y-69167542D02*
X217965785Y-69472304D01*
X217965785Y-69472304D02*
X218003881Y-69548494D01*
X218003881Y-69548494D02*
X218041976Y-69586590D01*
X218041976Y-69586590D02*
X218118166Y-69624685D01*
X218118166Y-69624685D02*
X218270547Y-69624685D01*
X218270547Y-69624685D02*
X218346738Y-69586590D01*
X218346738Y-69586590D02*
X218384833Y-69548494D01*
X218384833Y-69548494D02*
X218422928Y-69472304D01*
X218422928Y-69472304D02*
X218422928Y-69281828D01*
X218422928Y-69281828D02*
X218384833Y-69205637D01*
X218384833Y-69205637D02*
X218346738Y-69167542D01*
X218346738Y-69167542D02*
X218270547Y-69129447D01*
X218270547Y-69129447D02*
X218118166Y-69129447D01*
X218118166Y-69129447D02*
X218041976Y-69167542D01*
X218041976Y-69167542D02*
X218003881Y-69205637D01*
X218003881Y-69205637D02*
X217965785Y-69281828D01*
X197613855Y-83145238D02*
X197613855Y-83526190D01*
X197613855Y-83526190D02*
X196813855Y-83526190D01*
X197194807Y-82878571D02*
X197194807Y-82611905D01*
X197613855Y-82497619D02*
X197613855Y-82878571D01*
X197613855Y-82878571D02*
X196813855Y-82878571D01*
X196813855Y-82878571D02*
X196813855Y-82497619D01*
X197613855Y-82154761D02*
X196813855Y-82154761D01*
X196813855Y-82154761D02*
X196813855Y-81964285D01*
X196813855Y-81964285D02*
X196851950Y-81849999D01*
X196851950Y-81849999D02*
X196928140Y-81773809D01*
X196928140Y-81773809D02*
X197004331Y-81735714D01*
X197004331Y-81735714D02*
X197156712Y-81697618D01*
X197156712Y-81697618D02*
X197270998Y-81697618D01*
X197270998Y-81697618D02*
X197423379Y-81735714D01*
X197423379Y-81735714D02*
X197499569Y-81773809D01*
X197499569Y-81773809D02*
X197575760Y-81849999D01*
X197575760Y-81849999D02*
X197613855Y-81964285D01*
X197613855Y-81964285D02*
X197613855Y-82154761D01*
X196813855Y-80973809D02*
X196813855Y-81354761D01*
X196813855Y-81354761D02*
X197194807Y-81392857D01*
X197194807Y-81392857D02*
X197156712Y-81354761D01*
X197156712Y-81354761D02*
X197118617Y-81278571D01*
X197118617Y-81278571D02*
X197118617Y-81088095D01*
X197118617Y-81088095D02*
X197156712Y-81011904D01*
X197156712Y-81011904D02*
X197194807Y-80973809D01*
X197194807Y-80973809D02*
X197270998Y-80935714D01*
X197270998Y-80935714D02*
X197461474Y-80935714D01*
X197461474Y-80935714D02*
X197537664Y-80973809D01*
X197537664Y-80973809D02*
X197575760Y-81011904D01*
X197575760Y-81011904D02*
X197613855Y-81088095D01*
X197613855Y-81088095D02*
X197613855Y-81278571D01*
X197613855Y-81278571D02*
X197575760Y-81354761D01*
X197575760Y-81354761D02*
X197537664Y-81392857D01*
X211006355Y-60264285D02*
X210625402Y-60530952D01*
X211006355Y-60721428D02*
X210206355Y-60721428D01*
X210206355Y-60721428D02*
X210206355Y-60416666D01*
X210206355Y-60416666D02*
X210244450Y-60340476D01*
X210244450Y-60340476D02*
X210282545Y-60302381D01*
X210282545Y-60302381D02*
X210358736Y-60264285D01*
X210358736Y-60264285D02*
X210473021Y-60264285D01*
X210473021Y-60264285D02*
X210549212Y-60302381D01*
X210549212Y-60302381D02*
X210587307Y-60340476D01*
X210587307Y-60340476D02*
X210625402Y-60416666D01*
X210625402Y-60416666D02*
X210625402Y-60721428D01*
X210282545Y-59959524D02*
X210244450Y-59921428D01*
X210244450Y-59921428D02*
X210206355Y-59845238D01*
X210206355Y-59845238D02*
X210206355Y-59654762D01*
X210206355Y-59654762D02*
X210244450Y-59578571D01*
X210244450Y-59578571D02*
X210282545Y-59540476D01*
X210282545Y-59540476D02*
X210358736Y-59502381D01*
X210358736Y-59502381D02*
X210434926Y-59502381D01*
X210434926Y-59502381D02*
X210549212Y-59540476D01*
X210549212Y-59540476D02*
X211006355Y-59997619D01*
X211006355Y-59997619D02*
X211006355Y-59502381D01*
X210473021Y-58816666D02*
X211006355Y-58816666D01*
X210168260Y-59007142D02*
X210739688Y-59197619D01*
X210739688Y-59197619D02*
X210739688Y-58702380D01*
X174933333Y-81913855D02*
X174666666Y-81532902D01*
X174476190Y-81913855D02*
X174476190Y-81113855D01*
X174476190Y-81113855D02*
X174780952Y-81113855D01*
X174780952Y-81113855D02*
X174857142Y-81151950D01*
X174857142Y-81151950D02*
X174895237Y-81190045D01*
X174895237Y-81190045D02*
X174933333Y-81266236D01*
X174933333Y-81266236D02*
X174933333Y-81380521D01*
X174933333Y-81380521D02*
X174895237Y-81456712D01*
X174895237Y-81456712D02*
X174857142Y-81494807D01*
X174857142Y-81494807D02*
X174780952Y-81532902D01*
X174780952Y-81532902D02*
X174476190Y-81532902D01*
X175276190Y-81494807D02*
X175542856Y-81494807D01*
X175657142Y-81913855D02*
X175276190Y-81913855D01*
X175276190Y-81913855D02*
X175276190Y-81113855D01*
X175276190Y-81113855D02*
X175657142Y-81113855D01*
X176266666Y-81494807D02*
X176000000Y-81494807D01*
X176000000Y-81913855D02*
X176000000Y-81113855D01*
X176000000Y-81113855D02*
X176380952Y-81113855D01*
X176799999Y-81113855D02*
X176799999Y-81304331D01*
X176609523Y-81228140D02*
X176799999Y-81304331D01*
X176799999Y-81304331D02*
X176990476Y-81228140D01*
X176685714Y-81456712D02*
X176799999Y-81304331D01*
X176799999Y-81304331D02*
X176914285Y-81456712D01*
X177409523Y-81113855D02*
X177409523Y-81304331D01*
X177219047Y-81228140D02*
X177409523Y-81304331D01*
X177409523Y-81304331D02*
X177600000Y-81228140D01*
X177295238Y-81456712D02*
X177409523Y-81304331D01*
X177409523Y-81304331D02*
X177523809Y-81456712D01*
X203088855Y-80339285D02*
X202707902Y-80605952D01*
X203088855Y-80796428D02*
X202288855Y-80796428D01*
X202288855Y-80796428D02*
X202288855Y-80491666D01*
X202288855Y-80491666D02*
X202326950Y-80415476D01*
X202326950Y-80415476D02*
X202365045Y-80377381D01*
X202365045Y-80377381D02*
X202441236Y-80339285D01*
X202441236Y-80339285D02*
X202555521Y-80339285D01*
X202555521Y-80339285D02*
X202631712Y-80377381D01*
X202631712Y-80377381D02*
X202669807Y-80415476D01*
X202669807Y-80415476D02*
X202707902Y-80491666D01*
X202707902Y-80491666D02*
X202707902Y-80796428D01*
X203088855Y-79577381D02*
X203088855Y-80034524D01*
X203088855Y-79805952D02*
X202288855Y-79805952D01*
X202288855Y-79805952D02*
X202403140Y-79882143D01*
X202403140Y-79882143D02*
X202479331Y-79958333D01*
X202479331Y-79958333D02*
X202517426Y-80034524D01*
X203088855Y-78815476D02*
X203088855Y-79272619D01*
X203088855Y-79044047D02*
X202288855Y-79044047D01*
X202288855Y-79044047D02*
X202403140Y-79120238D01*
X202403140Y-79120238D02*
X202479331Y-79196428D01*
X202479331Y-79196428D02*
X202517426Y-79272619D01*
X216740476Y-66115855D02*
X217197619Y-66115855D01*
X216969047Y-66915855D02*
X216969047Y-66115855D01*
X217464286Y-66915855D02*
X217464286Y-66115855D01*
X217464286Y-66115855D02*
X217769048Y-66115855D01*
X217769048Y-66115855D02*
X217845238Y-66153950D01*
X217845238Y-66153950D02*
X217883333Y-66192045D01*
X217883333Y-66192045D02*
X217921429Y-66268236D01*
X217921429Y-66268236D02*
X217921429Y-66382521D01*
X217921429Y-66382521D02*
X217883333Y-66458712D01*
X217883333Y-66458712D02*
X217845238Y-66496807D01*
X217845238Y-66496807D02*
X217769048Y-66534902D01*
X217769048Y-66534902D02*
X217464286Y-66534902D01*
X218645238Y-66115855D02*
X218264286Y-66115855D01*
X218264286Y-66115855D02*
X218226190Y-66496807D01*
X218226190Y-66496807D02*
X218264286Y-66458712D01*
X218264286Y-66458712D02*
X218340476Y-66420617D01*
X218340476Y-66420617D02*
X218530952Y-66420617D01*
X218530952Y-66420617D02*
X218607143Y-66458712D01*
X218607143Y-66458712D02*
X218645238Y-66496807D01*
X218645238Y-66496807D02*
X218683333Y-66572998D01*
X218683333Y-66572998D02*
X218683333Y-66763474D01*
X218683333Y-66763474D02*
X218645238Y-66839664D01*
X218645238Y-66839664D02*
X218607143Y-66877760D01*
X218607143Y-66877760D02*
X218530952Y-66915855D01*
X218530952Y-66915855D02*
X218340476Y-66915855D01*
X218340476Y-66915855D02*
X218264286Y-66877760D01*
X218264286Y-66877760D02*
X218226190Y-66839664D01*
X185640476Y-103313855D02*
X185640476Y-103961474D01*
X185640476Y-103961474D02*
X185678571Y-104037664D01*
X185678571Y-104037664D02*
X185716666Y-104075760D01*
X185716666Y-104075760D02*
X185792857Y-104113855D01*
X185792857Y-104113855D02*
X185945238Y-104113855D01*
X185945238Y-104113855D02*
X186021428Y-104075760D01*
X186021428Y-104075760D02*
X186059523Y-104037664D01*
X186059523Y-104037664D02*
X186097619Y-103961474D01*
X186097619Y-103961474D02*
X186097619Y-103313855D01*
X186897618Y-104113855D02*
X186440475Y-104113855D01*
X186669047Y-104113855D02*
X186669047Y-103313855D01*
X186669047Y-103313855D02*
X186592856Y-103428140D01*
X186592856Y-103428140D02*
X186516666Y-103504331D01*
X186516666Y-103504331D02*
X186440475Y-103542426D01*
X197613855Y-86926785D02*
X197232902Y-87193452D01*
X197613855Y-87383928D02*
X196813855Y-87383928D01*
X196813855Y-87383928D02*
X196813855Y-87079166D01*
X196813855Y-87079166D02*
X196851950Y-87002976D01*
X196851950Y-87002976D02*
X196890045Y-86964881D01*
X196890045Y-86964881D02*
X196966236Y-86926785D01*
X196966236Y-86926785D02*
X197080521Y-86926785D01*
X197080521Y-86926785D02*
X197156712Y-86964881D01*
X197156712Y-86964881D02*
X197194807Y-87002976D01*
X197194807Y-87002976D02*
X197232902Y-87079166D01*
X197232902Y-87079166D02*
X197232902Y-87383928D01*
X197613855Y-86164881D02*
X197613855Y-86622024D01*
X197613855Y-86393452D02*
X196813855Y-86393452D01*
X196813855Y-86393452D02*
X196928140Y-86469643D01*
X196928140Y-86469643D02*
X197004331Y-86545833D01*
X197004331Y-86545833D02*
X197042426Y-86622024D01*
X197080521Y-85479166D02*
X197613855Y-85479166D01*
X196775760Y-85669642D02*
X197347188Y-85860119D01*
X197347188Y-85860119D02*
X197347188Y-85364880D01*
X218190045Y-98138690D02*
X218151950Y-98214880D01*
X218151950Y-98214880D02*
X218075760Y-98291071D01*
X218075760Y-98291071D02*
X217961474Y-98405357D01*
X217961474Y-98405357D02*
X217923379Y-98481547D01*
X217923379Y-98481547D02*
X217923379Y-98557738D01*
X218113855Y-98519642D02*
X218075760Y-98595833D01*
X218075760Y-98595833D02*
X217999569Y-98672023D01*
X217999569Y-98672023D02*
X217847188Y-98710119D01*
X217847188Y-98710119D02*
X217580521Y-98710119D01*
X217580521Y-98710119D02*
X217428140Y-98672023D01*
X217428140Y-98672023D02*
X217351950Y-98595833D01*
X217351950Y-98595833D02*
X217313855Y-98519642D01*
X217313855Y-98519642D02*
X217313855Y-98367261D01*
X217313855Y-98367261D02*
X217351950Y-98291071D01*
X217351950Y-98291071D02*
X217428140Y-98214880D01*
X217428140Y-98214880D02*
X217580521Y-98176785D01*
X217580521Y-98176785D02*
X217847188Y-98176785D01*
X217847188Y-98176785D02*
X217999569Y-98214880D01*
X217999569Y-98214880D02*
X218075760Y-98291071D01*
X218075760Y-98291071D02*
X218113855Y-98367261D01*
X218113855Y-98367261D02*
X218113855Y-98519642D01*
X217313855Y-97910119D02*
X217313855Y-97414881D01*
X217313855Y-97414881D02*
X217618617Y-97681547D01*
X217618617Y-97681547D02*
X217618617Y-97567262D01*
X217618617Y-97567262D02*
X217656712Y-97491071D01*
X217656712Y-97491071D02*
X217694807Y-97452976D01*
X217694807Y-97452976D02*
X217770998Y-97414881D01*
X217770998Y-97414881D02*
X217961474Y-97414881D01*
X217961474Y-97414881D02*
X218037664Y-97452976D01*
X218037664Y-97452976D02*
X218075760Y-97491071D01*
X218075760Y-97491071D02*
X218113855Y-97567262D01*
X218113855Y-97567262D02*
X218113855Y-97795833D01*
X218113855Y-97795833D02*
X218075760Y-97872024D01*
X218075760Y-97872024D02*
X218037664Y-97910119D01*
X187983855Y-56266666D02*
X188555283Y-56266666D01*
X188555283Y-56266666D02*
X188669569Y-56304761D01*
X188669569Y-56304761D02*
X188745760Y-56380952D01*
X188745760Y-56380952D02*
X188783855Y-56495237D01*
X188783855Y-56495237D02*
X188783855Y-56571428D01*
X187983855Y-55504761D02*
X187983855Y-55885713D01*
X187983855Y-55885713D02*
X188364807Y-55923809D01*
X188364807Y-55923809D02*
X188326712Y-55885713D01*
X188326712Y-55885713D02*
X188288617Y-55809523D01*
X188288617Y-55809523D02*
X188288617Y-55619047D01*
X188288617Y-55619047D02*
X188326712Y-55542856D01*
X188326712Y-55542856D02*
X188364807Y-55504761D01*
X188364807Y-55504761D02*
X188440998Y-55466666D01*
X188440998Y-55466666D02*
X188631474Y-55466666D01*
X188631474Y-55466666D02*
X188707664Y-55504761D01*
X188707664Y-55504761D02*
X188745760Y-55542856D01*
X188745760Y-55542856D02*
X188783855Y-55619047D01*
X188783855Y-55619047D02*
X188783855Y-55809523D01*
X188783855Y-55809523D02*
X188745760Y-55885713D01*
X188745760Y-55885713D02*
X188707664Y-55923809D01*
X203648214Y-64037664D02*
X203610118Y-64075760D01*
X203610118Y-64075760D02*
X203495833Y-64113855D01*
X203495833Y-64113855D02*
X203419642Y-64113855D01*
X203419642Y-64113855D02*
X203305356Y-64075760D01*
X203305356Y-64075760D02*
X203229166Y-63999569D01*
X203229166Y-63999569D02*
X203191071Y-63923379D01*
X203191071Y-63923379D02*
X203152975Y-63770998D01*
X203152975Y-63770998D02*
X203152975Y-63656712D01*
X203152975Y-63656712D02*
X203191071Y-63504331D01*
X203191071Y-63504331D02*
X203229166Y-63428140D01*
X203229166Y-63428140D02*
X203305356Y-63351950D01*
X203305356Y-63351950D02*
X203419642Y-63313855D01*
X203419642Y-63313855D02*
X203495833Y-63313855D01*
X203495833Y-63313855D02*
X203610118Y-63351950D01*
X203610118Y-63351950D02*
X203648214Y-63390045D01*
X203952975Y-63390045D02*
X203991071Y-63351950D01*
X203991071Y-63351950D02*
X204067261Y-63313855D01*
X204067261Y-63313855D02*
X204257737Y-63313855D01*
X204257737Y-63313855D02*
X204333928Y-63351950D01*
X204333928Y-63351950D02*
X204372023Y-63390045D01*
X204372023Y-63390045D02*
X204410118Y-63466236D01*
X204410118Y-63466236D02*
X204410118Y-63542426D01*
X204410118Y-63542426D02*
X204372023Y-63656712D01*
X204372023Y-63656712D02*
X203914880Y-64113855D01*
X203914880Y-64113855D02*
X204410118Y-64113855D01*
X204905357Y-63313855D02*
X204981547Y-63313855D01*
X204981547Y-63313855D02*
X205057738Y-63351950D01*
X205057738Y-63351950D02*
X205095833Y-63390045D01*
X205095833Y-63390045D02*
X205133928Y-63466236D01*
X205133928Y-63466236D02*
X205172023Y-63618617D01*
X205172023Y-63618617D02*
X205172023Y-63809093D01*
X205172023Y-63809093D02*
X205133928Y-63961474D01*
X205133928Y-63961474D02*
X205095833Y-64037664D01*
X205095833Y-64037664D02*
X205057738Y-64075760D01*
X205057738Y-64075760D02*
X204981547Y-64113855D01*
X204981547Y-64113855D02*
X204905357Y-64113855D01*
X204905357Y-64113855D02*
X204829166Y-64075760D01*
X204829166Y-64075760D02*
X204791071Y-64037664D01*
X204791071Y-64037664D02*
X204752976Y-63961474D01*
X204752976Y-63961474D02*
X204714880Y-63809093D01*
X204714880Y-63809093D02*
X204714880Y-63618617D01*
X204714880Y-63618617D02*
X204752976Y-63466236D01*
X204752976Y-63466236D02*
X204791071Y-63390045D01*
X204791071Y-63390045D02*
X204829166Y-63351950D01*
X204829166Y-63351950D02*
X204905357Y-63313855D01*
X209312664Y-82668832D02*
X209350760Y-82706928D01*
X209350760Y-82706928D02*
X209388855Y-82821213D01*
X209388855Y-82821213D02*
X209388855Y-82897404D01*
X209388855Y-82897404D02*
X209350760Y-83011690D01*
X209350760Y-83011690D02*
X209274569Y-83087880D01*
X209274569Y-83087880D02*
X209198379Y-83125975D01*
X209198379Y-83125975D02*
X209045998Y-83164071D01*
X209045998Y-83164071D02*
X208931712Y-83164071D01*
X208931712Y-83164071D02*
X208779331Y-83125975D01*
X208779331Y-83125975D02*
X208703140Y-83087880D01*
X208703140Y-83087880D02*
X208626950Y-83011690D01*
X208626950Y-83011690D02*
X208588855Y-82897404D01*
X208588855Y-82897404D02*
X208588855Y-82821213D01*
X208588855Y-82821213D02*
X208626950Y-82706928D01*
X208626950Y-82706928D02*
X208665045Y-82668832D01*
X209388855Y-82287880D02*
X209388855Y-82135499D01*
X209388855Y-82135499D02*
X209350760Y-82059309D01*
X209350760Y-82059309D02*
X209312664Y-82021213D01*
X209312664Y-82021213D02*
X209198379Y-81945023D01*
X209198379Y-81945023D02*
X209045998Y-81906928D01*
X209045998Y-81906928D02*
X208741236Y-81906928D01*
X208741236Y-81906928D02*
X208665045Y-81945023D01*
X208665045Y-81945023D02*
X208626950Y-81983118D01*
X208626950Y-81983118D02*
X208588855Y-82059309D01*
X208588855Y-82059309D02*
X208588855Y-82211690D01*
X208588855Y-82211690D02*
X208626950Y-82287880D01*
X208626950Y-82287880D02*
X208665045Y-82325975D01*
X208665045Y-82325975D02*
X208741236Y-82364071D01*
X208741236Y-82364071D02*
X208931712Y-82364071D01*
X208931712Y-82364071D02*
X209007902Y-82325975D01*
X209007902Y-82325975D02*
X209045998Y-82287880D01*
X209045998Y-82287880D02*
X209084093Y-82211690D01*
X209084093Y-82211690D02*
X209084093Y-82059309D01*
X209084093Y-82059309D02*
X209045998Y-81983118D01*
X209045998Y-81983118D02*
X209007902Y-81945023D01*
X209007902Y-81945023D02*
X208931712Y-81906928D01*
X174613855Y-96545832D02*
X174232902Y-96812499D01*
X174613855Y-97002975D02*
X173813855Y-97002975D01*
X173813855Y-97002975D02*
X173813855Y-96698213D01*
X173813855Y-96698213D02*
X173851950Y-96622023D01*
X173851950Y-96622023D02*
X173890045Y-96583928D01*
X173890045Y-96583928D02*
X173966236Y-96545832D01*
X173966236Y-96545832D02*
X174080521Y-96545832D01*
X174080521Y-96545832D02*
X174156712Y-96583928D01*
X174156712Y-96583928D02*
X174194807Y-96622023D01*
X174194807Y-96622023D02*
X174232902Y-96698213D01*
X174232902Y-96698213D02*
X174232902Y-97002975D01*
X174613855Y-96164880D02*
X174613855Y-96012499D01*
X174613855Y-96012499D02*
X174575760Y-95936309D01*
X174575760Y-95936309D02*
X174537664Y-95898213D01*
X174537664Y-95898213D02*
X174423379Y-95822023D01*
X174423379Y-95822023D02*
X174270998Y-95783928D01*
X174270998Y-95783928D02*
X173966236Y-95783928D01*
X173966236Y-95783928D02*
X173890045Y-95822023D01*
X173890045Y-95822023D02*
X173851950Y-95860118D01*
X173851950Y-95860118D02*
X173813855Y-95936309D01*
X173813855Y-95936309D02*
X173813855Y-96088690D01*
X173813855Y-96088690D02*
X173851950Y-96164880D01*
X173851950Y-96164880D02*
X173890045Y-96202975D01*
X173890045Y-96202975D02*
X173966236Y-96241071D01*
X173966236Y-96241071D02*
X174156712Y-96241071D01*
X174156712Y-96241071D02*
X174232902Y-96202975D01*
X174232902Y-96202975D02*
X174270998Y-96164880D01*
X174270998Y-96164880D02*
X174309093Y-96088690D01*
X174309093Y-96088690D02*
X174309093Y-95936309D01*
X174309093Y-95936309D02*
X174270998Y-95860118D01*
X174270998Y-95860118D02*
X174232902Y-95822023D01*
X174232902Y-95822023D02*
X174156712Y-95783928D01*
X185814167Y-94701355D02*
X185547500Y-94320402D01*
X185357024Y-94701355D02*
X185357024Y-93901355D01*
X185357024Y-93901355D02*
X185661786Y-93901355D01*
X185661786Y-93901355D02*
X185737976Y-93939450D01*
X185737976Y-93939450D02*
X185776071Y-93977545D01*
X185776071Y-93977545D02*
X185814167Y-94053736D01*
X185814167Y-94053736D02*
X185814167Y-94168021D01*
X185814167Y-94168021D02*
X185776071Y-94244212D01*
X185776071Y-94244212D02*
X185737976Y-94282307D01*
X185737976Y-94282307D02*
X185661786Y-94320402D01*
X185661786Y-94320402D02*
X185357024Y-94320402D01*
X186118928Y-93977545D02*
X186157024Y-93939450D01*
X186157024Y-93939450D02*
X186233214Y-93901355D01*
X186233214Y-93901355D02*
X186423690Y-93901355D01*
X186423690Y-93901355D02*
X186499881Y-93939450D01*
X186499881Y-93939450D02*
X186537976Y-93977545D01*
X186537976Y-93977545D02*
X186576071Y-94053736D01*
X186576071Y-94053736D02*
X186576071Y-94129926D01*
X186576071Y-94129926D02*
X186537976Y-94244212D01*
X186537976Y-94244212D02*
X186080833Y-94701355D01*
X186080833Y-94701355D02*
X186576071Y-94701355D01*
X193485714Y-61537664D02*
X193447618Y-61575760D01*
X193447618Y-61575760D02*
X193333333Y-61613855D01*
X193333333Y-61613855D02*
X193257142Y-61613855D01*
X193257142Y-61613855D02*
X193142856Y-61575760D01*
X193142856Y-61575760D02*
X193066666Y-61499569D01*
X193066666Y-61499569D02*
X193028571Y-61423379D01*
X193028571Y-61423379D02*
X192990475Y-61270998D01*
X192990475Y-61270998D02*
X192990475Y-61156712D01*
X192990475Y-61156712D02*
X193028571Y-61004331D01*
X193028571Y-61004331D02*
X193066666Y-60928140D01*
X193066666Y-60928140D02*
X193142856Y-60851950D01*
X193142856Y-60851950D02*
X193257142Y-60813855D01*
X193257142Y-60813855D02*
X193333333Y-60813855D01*
X193333333Y-60813855D02*
X193447618Y-60851950D01*
X193447618Y-60851950D02*
X193485714Y-60890045D01*
X194247618Y-61613855D02*
X193790475Y-61613855D01*
X194019047Y-61613855D02*
X194019047Y-60813855D01*
X194019047Y-60813855D02*
X193942856Y-60928140D01*
X193942856Y-60928140D02*
X193866666Y-61004331D01*
X193866666Y-61004331D02*
X193790475Y-61042426D01*
X194628571Y-61613855D02*
X194780952Y-61613855D01*
X194780952Y-61613855D02*
X194857142Y-61575760D01*
X194857142Y-61575760D02*
X194895238Y-61537664D01*
X194895238Y-61537664D02*
X194971428Y-61423379D01*
X194971428Y-61423379D02*
X195009523Y-61270998D01*
X195009523Y-61270998D02*
X195009523Y-60966236D01*
X195009523Y-60966236D02*
X194971428Y-60890045D01*
X194971428Y-60890045D02*
X194933333Y-60851950D01*
X194933333Y-60851950D02*
X194857142Y-60813855D01*
X194857142Y-60813855D02*
X194704761Y-60813855D01*
X194704761Y-60813855D02*
X194628571Y-60851950D01*
X194628571Y-60851950D02*
X194590476Y-60890045D01*
X194590476Y-60890045D02*
X194552380Y-60966236D01*
X194552380Y-60966236D02*
X194552380Y-61156712D01*
X194552380Y-61156712D02*
X194590476Y-61232902D01*
X194590476Y-61232902D02*
X194628571Y-61270998D01*
X194628571Y-61270998D02*
X194704761Y-61309093D01*
X194704761Y-61309093D02*
X194857142Y-61309093D01*
X194857142Y-61309093D02*
X194933333Y-61270998D01*
X194933333Y-61270998D02*
X194971428Y-61232902D01*
X194971428Y-61232902D02*
X195009523Y-61156712D01*
X217673214Y-79358855D02*
X217406547Y-78977902D01*
X217216071Y-79358855D02*
X217216071Y-78558855D01*
X217216071Y-78558855D02*
X217520833Y-78558855D01*
X217520833Y-78558855D02*
X217597023Y-78596950D01*
X217597023Y-78596950D02*
X217635118Y-78635045D01*
X217635118Y-78635045D02*
X217673214Y-78711236D01*
X217673214Y-78711236D02*
X217673214Y-78825521D01*
X217673214Y-78825521D02*
X217635118Y-78901712D01*
X217635118Y-78901712D02*
X217597023Y-78939807D01*
X217597023Y-78939807D02*
X217520833Y-78977902D01*
X217520833Y-78977902D02*
X217216071Y-78977902D01*
X217977975Y-78635045D02*
X218016071Y-78596950D01*
X218016071Y-78596950D02*
X218092261Y-78558855D01*
X218092261Y-78558855D02*
X218282737Y-78558855D01*
X218282737Y-78558855D02*
X218358928Y-78596950D01*
X218358928Y-78596950D02*
X218397023Y-78635045D01*
X218397023Y-78635045D02*
X218435118Y-78711236D01*
X218435118Y-78711236D02*
X218435118Y-78787426D01*
X218435118Y-78787426D02*
X218397023Y-78901712D01*
X218397023Y-78901712D02*
X217939880Y-79358855D01*
X217939880Y-79358855D02*
X218435118Y-79358855D01*
X218739880Y-78635045D02*
X218777976Y-78596950D01*
X218777976Y-78596950D02*
X218854166Y-78558855D01*
X218854166Y-78558855D02*
X219044642Y-78558855D01*
X219044642Y-78558855D02*
X219120833Y-78596950D01*
X219120833Y-78596950D02*
X219158928Y-78635045D01*
X219158928Y-78635045D02*
X219197023Y-78711236D01*
X219197023Y-78711236D02*
X219197023Y-78787426D01*
X219197023Y-78787426D02*
X219158928Y-78901712D01*
X219158928Y-78901712D02*
X218701785Y-79358855D01*
X218701785Y-79358855D02*
X219197023Y-79358855D01*
X193363855Y-83145238D02*
X193363855Y-83526190D01*
X193363855Y-83526190D02*
X192563855Y-83526190D01*
X192944807Y-82878571D02*
X192944807Y-82611905D01*
X193363855Y-82497619D02*
X193363855Y-82878571D01*
X193363855Y-82878571D02*
X192563855Y-82878571D01*
X192563855Y-82878571D02*
X192563855Y-82497619D01*
X193363855Y-82154761D02*
X192563855Y-82154761D01*
X192563855Y-82154761D02*
X192563855Y-81964285D01*
X192563855Y-81964285D02*
X192601950Y-81849999D01*
X192601950Y-81849999D02*
X192678140Y-81773809D01*
X192678140Y-81773809D02*
X192754331Y-81735714D01*
X192754331Y-81735714D02*
X192906712Y-81697618D01*
X192906712Y-81697618D02*
X193020998Y-81697618D01*
X193020998Y-81697618D02*
X193173379Y-81735714D01*
X193173379Y-81735714D02*
X193249569Y-81773809D01*
X193249569Y-81773809D02*
X193325760Y-81849999D01*
X193325760Y-81849999D02*
X193363855Y-81964285D01*
X193363855Y-81964285D02*
X193363855Y-82154761D01*
X192563855Y-81011904D02*
X192563855Y-81164285D01*
X192563855Y-81164285D02*
X192601950Y-81240476D01*
X192601950Y-81240476D02*
X192640045Y-81278571D01*
X192640045Y-81278571D02*
X192754331Y-81354761D01*
X192754331Y-81354761D02*
X192906712Y-81392857D01*
X192906712Y-81392857D02*
X193211474Y-81392857D01*
X193211474Y-81392857D02*
X193287664Y-81354761D01*
X193287664Y-81354761D02*
X193325760Y-81316666D01*
X193325760Y-81316666D02*
X193363855Y-81240476D01*
X193363855Y-81240476D02*
X193363855Y-81088095D01*
X193363855Y-81088095D02*
X193325760Y-81011904D01*
X193325760Y-81011904D02*
X193287664Y-80973809D01*
X193287664Y-80973809D02*
X193211474Y-80935714D01*
X193211474Y-80935714D02*
X193020998Y-80935714D01*
X193020998Y-80935714D02*
X192944807Y-80973809D01*
X192944807Y-80973809D02*
X192906712Y-81011904D01*
X192906712Y-81011904D02*
X192868617Y-81088095D01*
X192868617Y-81088095D02*
X192868617Y-81240476D01*
X192868617Y-81240476D02*
X192906712Y-81316666D01*
X192906712Y-81316666D02*
X192944807Y-81354761D01*
X192944807Y-81354761D02*
X193020998Y-81392857D01*
X226490476Y-71115855D02*
X226947619Y-71115855D01*
X226719047Y-71915855D02*
X226719047Y-71115855D01*
X227214286Y-71915855D02*
X227214286Y-71115855D01*
X227214286Y-71115855D02*
X227519048Y-71115855D01*
X227519048Y-71115855D02*
X227595238Y-71153950D01*
X227595238Y-71153950D02*
X227633333Y-71192045D01*
X227633333Y-71192045D02*
X227671429Y-71268236D01*
X227671429Y-71268236D02*
X227671429Y-71382521D01*
X227671429Y-71382521D02*
X227633333Y-71458712D01*
X227633333Y-71458712D02*
X227595238Y-71496807D01*
X227595238Y-71496807D02*
X227519048Y-71534902D01*
X227519048Y-71534902D02*
X227214286Y-71534902D01*
X227938095Y-71115855D02*
X228433333Y-71115855D01*
X228433333Y-71115855D02*
X228166667Y-71420617D01*
X228166667Y-71420617D02*
X228280952Y-71420617D01*
X228280952Y-71420617D02*
X228357143Y-71458712D01*
X228357143Y-71458712D02*
X228395238Y-71496807D01*
X228395238Y-71496807D02*
X228433333Y-71572998D01*
X228433333Y-71572998D02*
X228433333Y-71763474D01*
X228433333Y-71763474D02*
X228395238Y-71839664D01*
X228395238Y-71839664D02*
X228357143Y-71877760D01*
X228357143Y-71877760D02*
X228280952Y-71915855D01*
X228280952Y-71915855D02*
X228052381Y-71915855D01*
X228052381Y-71915855D02*
X227976190Y-71877760D01*
X227976190Y-71877760D02*
X227938095Y-71839664D01*
X195813855Y-66609523D02*
X196461474Y-66609523D01*
X196461474Y-66609523D02*
X196537664Y-66571428D01*
X196537664Y-66571428D02*
X196575760Y-66533333D01*
X196575760Y-66533333D02*
X196613855Y-66457142D01*
X196613855Y-66457142D02*
X196613855Y-66304761D01*
X196613855Y-66304761D02*
X196575760Y-66228571D01*
X196575760Y-66228571D02*
X196537664Y-66190476D01*
X196537664Y-66190476D02*
X196461474Y-66152380D01*
X196461474Y-66152380D02*
X195813855Y-66152380D01*
X195813855Y-65847619D02*
X195813855Y-65314285D01*
X195813855Y-65314285D02*
X196613855Y-65657143D01*
X205423809Y-76440045D02*
X205347619Y-76401950D01*
X205347619Y-76401950D02*
X205271428Y-76325760D01*
X205271428Y-76325760D02*
X205157142Y-76211474D01*
X205157142Y-76211474D02*
X205080952Y-76173379D01*
X205080952Y-76173379D02*
X205004761Y-76173379D01*
X205042857Y-76363855D02*
X204966666Y-76325760D01*
X204966666Y-76325760D02*
X204890476Y-76249569D01*
X204890476Y-76249569D02*
X204852380Y-76097188D01*
X204852380Y-76097188D02*
X204852380Y-75830521D01*
X204852380Y-75830521D02*
X204890476Y-75678140D01*
X204890476Y-75678140D02*
X204966666Y-75601950D01*
X204966666Y-75601950D02*
X205042857Y-75563855D01*
X205042857Y-75563855D02*
X205195238Y-75563855D01*
X205195238Y-75563855D02*
X205271428Y-75601950D01*
X205271428Y-75601950D02*
X205347619Y-75678140D01*
X205347619Y-75678140D02*
X205385714Y-75830521D01*
X205385714Y-75830521D02*
X205385714Y-76097188D01*
X205385714Y-76097188D02*
X205347619Y-76249569D01*
X205347619Y-76249569D02*
X205271428Y-76325760D01*
X205271428Y-76325760D02*
X205195238Y-76363855D01*
X205195238Y-76363855D02*
X205042857Y-76363855D01*
X206147618Y-76363855D02*
X205690475Y-76363855D01*
X205919047Y-76363855D02*
X205919047Y-75563855D01*
X205919047Y-75563855D02*
X205842856Y-75678140D01*
X205842856Y-75678140D02*
X205766666Y-75754331D01*
X205766666Y-75754331D02*
X205690475Y-75792426D01*
X221890475Y-107138260D02*
X222004761Y-107176355D01*
X222004761Y-107176355D02*
X222195237Y-107176355D01*
X222195237Y-107176355D02*
X222271428Y-107138260D01*
X222271428Y-107138260D02*
X222309523Y-107100164D01*
X222309523Y-107100164D02*
X222347618Y-107023974D01*
X222347618Y-107023974D02*
X222347618Y-106947783D01*
X222347618Y-106947783D02*
X222309523Y-106871593D01*
X222309523Y-106871593D02*
X222271428Y-106833498D01*
X222271428Y-106833498D02*
X222195237Y-106795402D01*
X222195237Y-106795402D02*
X222042856Y-106757307D01*
X222042856Y-106757307D02*
X221966666Y-106719212D01*
X221966666Y-106719212D02*
X221928571Y-106681117D01*
X221928571Y-106681117D02*
X221890475Y-106604926D01*
X221890475Y-106604926D02*
X221890475Y-106528736D01*
X221890475Y-106528736D02*
X221928571Y-106452545D01*
X221928571Y-106452545D02*
X221966666Y-106414450D01*
X221966666Y-106414450D02*
X222042856Y-106376355D01*
X222042856Y-106376355D02*
X222233333Y-106376355D01*
X222233333Y-106376355D02*
X222347618Y-106414450D01*
X223109523Y-107176355D02*
X222652380Y-107176355D01*
X222880952Y-107176355D02*
X222880952Y-106376355D01*
X222880952Y-106376355D02*
X222804761Y-106490640D01*
X222804761Y-106490640D02*
X222728571Y-106566831D01*
X222728571Y-106566831D02*
X222652380Y-106604926D01*
X229150164Y-62833332D02*
X229188260Y-62871428D01*
X229188260Y-62871428D02*
X229226355Y-62985713D01*
X229226355Y-62985713D02*
X229226355Y-63061904D01*
X229226355Y-63061904D02*
X229188260Y-63176190D01*
X229188260Y-63176190D02*
X229112069Y-63252380D01*
X229112069Y-63252380D02*
X229035879Y-63290475D01*
X229035879Y-63290475D02*
X228883498Y-63328571D01*
X228883498Y-63328571D02*
X228769212Y-63328571D01*
X228769212Y-63328571D02*
X228616831Y-63290475D01*
X228616831Y-63290475D02*
X228540640Y-63252380D01*
X228540640Y-63252380D02*
X228464450Y-63176190D01*
X228464450Y-63176190D02*
X228426355Y-63061904D01*
X228426355Y-63061904D02*
X228426355Y-62985713D01*
X228426355Y-62985713D02*
X228464450Y-62871428D01*
X228464450Y-62871428D02*
X228502545Y-62833332D01*
X228426355Y-62566666D02*
X228426355Y-62033332D01*
X228426355Y-62033332D02*
X229226355Y-62376190D01*
X205363855Y-93497023D02*
X206011474Y-93497023D01*
X206011474Y-93497023D02*
X206087664Y-93458928D01*
X206087664Y-93458928D02*
X206125760Y-93420833D01*
X206125760Y-93420833D02*
X206163855Y-93344642D01*
X206163855Y-93344642D02*
X206163855Y-93192261D01*
X206163855Y-93192261D02*
X206125760Y-93116071D01*
X206125760Y-93116071D02*
X206087664Y-93077976D01*
X206087664Y-93077976D02*
X206011474Y-93039880D01*
X206011474Y-93039880D02*
X205363855Y-93039880D01*
X205363855Y-92277976D02*
X205363855Y-92658928D01*
X205363855Y-92658928D02*
X205744807Y-92697024D01*
X205744807Y-92697024D02*
X205706712Y-92658928D01*
X205706712Y-92658928D02*
X205668617Y-92582738D01*
X205668617Y-92582738D02*
X205668617Y-92392262D01*
X205668617Y-92392262D02*
X205706712Y-92316071D01*
X205706712Y-92316071D02*
X205744807Y-92277976D01*
X205744807Y-92277976D02*
X205820998Y-92239881D01*
X205820998Y-92239881D02*
X206011474Y-92239881D01*
X206011474Y-92239881D02*
X206087664Y-92277976D01*
X206087664Y-92277976D02*
X206125760Y-92316071D01*
X206125760Y-92316071D02*
X206163855Y-92392262D01*
X206163855Y-92392262D02*
X206163855Y-92582738D01*
X206163855Y-92582738D02*
X206125760Y-92658928D01*
X206125760Y-92658928D02*
X206087664Y-92697024D01*
X205063855Y-57152268D02*
X205711474Y-57152268D01*
X205711474Y-57152268D02*
X205787664Y-57114173D01*
X205787664Y-57114173D02*
X205825760Y-57076078D01*
X205825760Y-57076078D02*
X205863855Y-56999887D01*
X205863855Y-56999887D02*
X205863855Y-56847506D01*
X205863855Y-56847506D02*
X205825760Y-56771316D01*
X205825760Y-56771316D02*
X205787664Y-56733221D01*
X205787664Y-56733221D02*
X205711474Y-56695125D01*
X205711474Y-56695125D02*
X205063855Y-56695125D01*
X205140045Y-56352269D02*
X205101950Y-56314173D01*
X205101950Y-56314173D02*
X205063855Y-56237983D01*
X205063855Y-56237983D02*
X205063855Y-56047507D01*
X205063855Y-56047507D02*
X205101950Y-55971316D01*
X205101950Y-55971316D02*
X205140045Y-55933221D01*
X205140045Y-55933221D02*
X205216236Y-55895126D01*
X205216236Y-55895126D02*
X205292426Y-55895126D01*
X205292426Y-55895126D02*
X205406712Y-55933221D01*
X205406712Y-55933221D02*
X205863855Y-56390364D01*
X205863855Y-56390364D02*
X205863855Y-55895126D01*
X175679761Y-72363855D02*
X175298809Y-72363855D01*
X175298809Y-72363855D02*
X175298809Y-71563855D01*
X175946428Y-71944807D02*
X176213094Y-71944807D01*
X176327380Y-72363855D02*
X175946428Y-72363855D01*
X175946428Y-72363855D02*
X175946428Y-71563855D01*
X175946428Y-71563855D02*
X176327380Y-71563855D01*
X176670238Y-72363855D02*
X176670238Y-71563855D01*
X176670238Y-71563855D02*
X176860714Y-71563855D01*
X176860714Y-71563855D02*
X176975000Y-71601950D01*
X176975000Y-71601950D02*
X177051190Y-71678140D01*
X177051190Y-71678140D02*
X177089285Y-71754331D01*
X177089285Y-71754331D02*
X177127381Y-71906712D01*
X177127381Y-71906712D02*
X177127381Y-72020998D01*
X177127381Y-72020998D02*
X177089285Y-72173379D01*
X177089285Y-72173379D02*
X177051190Y-72249569D01*
X177051190Y-72249569D02*
X176975000Y-72325760D01*
X176975000Y-72325760D02*
X176860714Y-72363855D01*
X176860714Y-72363855D02*
X176670238Y-72363855D01*
X177813095Y-71830521D02*
X177813095Y-72363855D01*
X177622619Y-71525760D02*
X177432142Y-72097188D01*
X177432142Y-72097188D02*
X177927381Y-72097188D01*
X210713855Y-102239285D02*
X210332902Y-102505952D01*
X210713855Y-102696428D02*
X209913855Y-102696428D01*
X209913855Y-102696428D02*
X209913855Y-102391666D01*
X209913855Y-102391666D02*
X209951950Y-102315476D01*
X209951950Y-102315476D02*
X209990045Y-102277381D01*
X209990045Y-102277381D02*
X210066236Y-102239285D01*
X210066236Y-102239285D02*
X210180521Y-102239285D01*
X210180521Y-102239285D02*
X210256712Y-102277381D01*
X210256712Y-102277381D02*
X210294807Y-102315476D01*
X210294807Y-102315476D02*
X210332902Y-102391666D01*
X210332902Y-102391666D02*
X210332902Y-102696428D01*
X209913855Y-101972619D02*
X209913855Y-101477381D01*
X209913855Y-101477381D02*
X210218617Y-101744047D01*
X210218617Y-101744047D02*
X210218617Y-101629762D01*
X210218617Y-101629762D02*
X210256712Y-101553571D01*
X210256712Y-101553571D02*
X210294807Y-101515476D01*
X210294807Y-101515476D02*
X210370998Y-101477381D01*
X210370998Y-101477381D02*
X210561474Y-101477381D01*
X210561474Y-101477381D02*
X210637664Y-101515476D01*
X210637664Y-101515476D02*
X210675760Y-101553571D01*
X210675760Y-101553571D02*
X210713855Y-101629762D01*
X210713855Y-101629762D02*
X210713855Y-101858333D01*
X210713855Y-101858333D02*
X210675760Y-101934524D01*
X210675760Y-101934524D02*
X210637664Y-101972619D01*
X209990045Y-101172619D02*
X209951950Y-101134523D01*
X209951950Y-101134523D02*
X209913855Y-101058333D01*
X209913855Y-101058333D02*
X209913855Y-100867857D01*
X209913855Y-100867857D02*
X209951950Y-100791666D01*
X209951950Y-100791666D02*
X209990045Y-100753571D01*
X209990045Y-100753571D02*
X210066236Y-100715476D01*
X210066236Y-100715476D02*
X210142426Y-100715476D01*
X210142426Y-100715476D02*
X210256712Y-100753571D01*
X210256712Y-100753571D02*
X210713855Y-101210714D01*
X210713855Y-101210714D02*
X210713855Y-100715476D01*
X179973214Y-72213855D02*
X179706547Y-71832902D01*
X179516071Y-72213855D02*
X179516071Y-71413855D01*
X179516071Y-71413855D02*
X179820833Y-71413855D01*
X179820833Y-71413855D02*
X179897023Y-71451950D01*
X179897023Y-71451950D02*
X179935118Y-71490045D01*
X179935118Y-71490045D02*
X179973214Y-71566236D01*
X179973214Y-71566236D02*
X179973214Y-71680521D01*
X179973214Y-71680521D02*
X179935118Y-71756712D01*
X179935118Y-71756712D02*
X179897023Y-71794807D01*
X179897023Y-71794807D02*
X179820833Y-71832902D01*
X179820833Y-71832902D02*
X179516071Y-71832902D01*
X180735118Y-72213855D02*
X180277975Y-72213855D01*
X180506547Y-72213855D02*
X180506547Y-71413855D01*
X180506547Y-71413855D02*
X180430356Y-71528140D01*
X180430356Y-71528140D02*
X180354166Y-71604331D01*
X180354166Y-71604331D02*
X180277975Y-71642426D01*
X181230357Y-71413855D02*
X181306547Y-71413855D01*
X181306547Y-71413855D02*
X181382738Y-71451950D01*
X181382738Y-71451950D02*
X181420833Y-71490045D01*
X181420833Y-71490045D02*
X181458928Y-71566236D01*
X181458928Y-71566236D02*
X181497023Y-71718617D01*
X181497023Y-71718617D02*
X181497023Y-71909093D01*
X181497023Y-71909093D02*
X181458928Y-72061474D01*
X181458928Y-72061474D02*
X181420833Y-72137664D01*
X181420833Y-72137664D02*
X181382738Y-72175760D01*
X181382738Y-72175760D02*
X181306547Y-72213855D01*
X181306547Y-72213855D02*
X181230357Y-72213855D01*
X181230357Y-72213855D02*
X181154166Y-72175760D01*
X181154166Y-72175760D02*
X181116071Y-72137664D01*
X181116071Y-72137664D02*
X181077976Y-72061474D01*
X181077976Y-72061474D02*
X181039880Y-71909093D01*
X181039880Y-71909093D02*
X181039880Y-71718617D01*
X181039880Y-71718617D02*
X181077976Y-71566236D01*
X181077976Y-71566236D02*
X181116071Y-71490045D01*
X181116071Y-71490045D02*
X181154166Y-71451950D01*
X181154166Y-71451950D02*
X181230357Y-71413855D01*
X245363855Y-79014285D02*
X244982902Y-79280952D01*
X245363855Y-79471428D02*
X244563855Y-79471428D01*
X244563855Y-79471428D02*
X244563855Y-79166666D01*
X244563855Y-79166666D02*
X244601950Y-79090476D01*
X244601950Y-79090476D02*
X244640045Y-79052381D01*
X244640045Y-79052381D02*
X244716236Y-79014285D01*
X244716236Y-79014285D02*
X244830521Y-79014285D01*
X244830521Y-79014285D02*
X244906712Y-79052381D01*
X244906712Y-79052381D02*
X244944807Y-79090476D01*
X244944807Y-79090476D02*
X244982902Y-79166666D01*
X244982902Y-79166666D02*
X244982902Y-79471428D01*
X245363855Y-78252381D02*
X245363855Y-78709524D01*
X245363855Y-78480952D02*
X244563855Y-78480952D01*
X244563855Y-78480952D02*
X244678140Y-78557143D01*
X244678140Y-78557143D02*
X244754331Y-78633333D01*
X244754331Y-78633333D02*
X244792426Y-78709524D01*
X245363855Y-77871428D02*
X245363855Y-77719047D01*
X245363855Y-77719047D02*
X245325760Y-77642857D01*
X245325760Y-77642857D02*
X245287664Y-77604761D01*
X245287664Y-77604761D02*
X245173379Y-77528571D01*
X245173379Y-77528571D02*
X245020998Y-77490476D01*
X245020998Y-77490476D02*
X244716236Y-77490476D01*
X244716236Y-77490476D02*
X244640045Y-77528571D01*
X244640045Y-77528571D02*
X244601950Y-77566666D01*
X244601950Y-77566666D02*
X244563855Y-77642857D01*
X244563855Y-77642857D02*
X244563855Y-77795238D01*
X244563855Y-77795238D02*
X244601950Y-77871428D01*
X244601950Y-77871428D02*
X244640045Y-77909523D01*
X244640045Y-77909523D02*
X244716236Y-77947619D01*
X244716236Y-77947619D02*
X244906712Y-77947619D01*
X244906712Y-77947619D02*
X244982902Y-77909523D01*
X244982902Y-77909523D02*
X245020998Y-77871428D01*
X245020998Y-77871428D02*
X245059093Y-77795238D01*
X245059093Y-77795238D02*
X245059093Y-77642857D01*
X245059093Y-77642857D02*
X245020998Y-77566666D01*
X245020998Y-77566666D02*
X244982902Y-77528571D01*
X244982902Y-77528571D02*
X244906712Y-77490476D01*
X183866667Y-94701355D02*
X183600000Y-94320402D01*
X183409524Y-94701355D02*
X183409524Y-93901355D01*
X183409524Y-93901355D02*
X183714286Y-93901355D01*
X183714286Y-93901355D02*
X183790476Y-93939450D01*
X183790476Y-93939450D02*
X183828571Y-93977545D01*
X183828571Y-93977545D02*
X183866667Y-94053736D01*
X183866667Y-94053736D02*
X183866667Y-94168021D01*
X183866667Y-94168021D02*
X183828571Y-94244212D01*
X183828571Y-94244212D02*
X183790476Y-94282307D01*
X183790476Y-94282307D02*
X183714286Y-94320402D01*
X183714286Y-94320402D02*
X183409524Y-94320402D01*
X184628571Y-94701355D02*
X184171428Y-94701355D01*
X184400000Y-94701355D02*
X184400000Y-93901355D01*
X184400000Y-93901355D02*
X184323809Y-94015640D01*
X184323809Y-94015640D02*
X184247619Y-94091831D01*
X184247619Y-94091831D02*
X184171428Y-94129926D01*
%TO.C,C22*%
X215711252Y-103327500D02*
X215188748Y-103327500D01*
X215711252Y-104797500D02*
X215188748Y-104797500D01*
%TO.C,J4*%
X191560000Y-54620000D02*
X191560000Y-57380000D01*
X199290000Y-54620000D02*
X191560000Y-54620000D01*
X199290000Y-54620000D02*
X199290000Y-57380000D01*
X199290000Y-57380000D02*
X191560000Y-57380000D01*
X200560000Y-54620000D02*
X201940000Y-54620000D01*
X201940000Y-54620000D02*
X201940000Y-56000000D01*
%TO.C,R26*%
X198422936Y-61765000D02*
X198877064Y-61765000D01*
X198422936Y-63235000D02*
X198877064Y-63235000D01*
%TO.C,LED1*%
X174540000Y-91437500D02*
X174540000Y-94122500D01*
X174540000Y-94122500D02*
X176460000Y-94122500D01*
X176460000Y-94122500D02*
X176460000Y-91437500D01*
%TO.C,C11*%
X210740000Y-85786252D02*
X210740000Y-85263748D01*
X212210000Y-85786252D02*
X212210000Y-85263748D01*
D12*
%TO.C,VR1*%
X183050000Y-74350000D02*
X184290000Y-74350000D01*
X183050000Y-77850000D02*
X183050000Y-74350000D01*
X189550000Y-74350000D02*
X188310000Y-74350000D01*
X189550000Y-77850000D02*
X189550000Y-74350000D01*
D13*
X184100000Y-80700000D02*
G75*
G02*
X183900000Y-80700000I-100000J0D01*
G01*
X183900000Y-80700000D02*
G75*
G02*
X184100000Y-80700000I100000J0D01*
G01*
D10*
%TO.C,C18*%
X198001248Y-68515000D02*
X198523752Y-68515000D01*
X198001248Y-69985000D02*
X198523752Y-69985000D01*
%TO.C,R7*%
X180515000Y-96185436D02*
X180515000Y-96639564D01*
X181985000Y-96185436D02*
X181985000Y-96639564D01*
%TO.C,R33*%
X215564564Y-100577500D02*
X215110436Y-100577500D01*
X215564564Y-102047500D02*
X215110436Y-102047500D01*
%TO.C,R4*%
X196265000Y-100857064D02*
X196265000Y-100402936D01*
X197735000Y-100857064D02*
X197735000Y-100402936D01*
%TO.C,C2*%
X186211252Y-83790000D02*
X185688748Y-83790000D01*
X186211252Y-85260000D02*
X185688748Y-85260000D01*
D12*
%TO.C,MK1*%
X185412500Y-66500000D02*
G75*
G02*
X179412500Y-66500000I-3000000J0D01*
G01*
X179412500Y-66500000D02*
G75*
G02*
X185412500Y-66500000I3000000J0D01*
G01*
D10*
%TO.C,C21*%
X220311252Y-103077500D02*
X219788748Y-103077500D01*
X220311252Y-104547500D02*
X219788748Y-104547500D01*
%TO.C,C13*%
X240461252Y-78015000D02*
X239938748Y-78015000D01*
X240461252Y-79485000D02*
X239938748Y-79485000D01*
%TO.C,R18*%
X194015000Y-86185436D02*
X194015000Y-86639564D01*
X195485000Y-86185436D02*
X195485000Y-86639564D01*
D12*
%TO.C,U3*%
X234250000Y-54000000D02*
X234250000Y-60330000D01*
X234250000Y-74000000D02*
X234250000Y-73870000D01*
X234250000Y-74000000D02*
X252250000Y-74000000D01*
X252250000Y-54000000D02*
X234250000Y-54000000D01*
X252250000Y-60330000D02*
X252250000Y-54000000D01*
X252250000Y-74000000D02*
X252250000Y-73870000D01*
D13*
X232850000Y-61100000D02*
G75*
G02*
X232650000Y-61100000I-100000J0D01*
G01*
X232650000Y-61100000D02*
G75*
G02*
X232850000Y-61100000I100000J0D01*
G01*
D10*
%TO.C,C17*%
X189336252Y-67765000D02*
X188813748Y-67765000D01*
X189336252Y-69235000D02*
X188813748Y-69235000D01*
%TO.C,R23*%
X205477064Y-70515000D02*
X205022936Y-70515000D01*
X205477064Y-71985000D02*
X205022936Y-71985000D01*
%TO.C,R30*%
X193685436Y-64265000D02*
X194139564Y-64265000D01*
X193685436Y-65735000D02*
X194139564Y-65735000D01*
%TO.C,LED3*%
X180290000Y-91437500D02*
X180290000Y-94122500D01*
X180290000Y-94122500D02*
X182210000Y-94122500D01*
X182210000Y-94122500D02*
X182210000Y-91437500D01*
%TO.C,R31*%
X201177500Y-66227064D02*
X201177500Y-65772936D01*
X202647500Y-66227064D02*
X202647500Y-65772936D01*
%TO.C,R29*%
X193685436Y-66515000D02*
X194139564Y-66515000D01*
X193685436Y-67985000D02*
X194139564Y-67985000D01*
D12*
%TO.C,C12*%
X235945000Y-77850000D02*
X234805000Y-77850000D01*
X235945000Y-79650000D02*
X234805000Y-79650000D01*
%TO.C,J1*%
X199130000Y-96870000D02*
X199130000Y-97570000D01*
X199130000Y-105040000D02*
X199130000Y-107120000D01*
X199130000Y-107120000D02*
X207870000Y-107120000D01*
X200280000Y-96870000D02*
X199130000Y-96870000D01*
X206720000Y-96870000D02*
X207870000Y-96870000D01*
X207870000Y-96870000D02*
X207870000Y-97570000D01*
X207870000Y-107120000D02*
X207870000Y-105040000D01*
D13*
X200800000Y-95270000D02*
G75*
G02*
X200600000Y-95270000I-100000J0D01*
G01*
X200600000Y-95270000D02*
G75*
G02*
X200800000Y-95270000I100000J0D01*
G01*
D12*
%TO.C,C3*%
X186470000Y-81375000D02*
X185330000Y-81375000D01*
X186470000Y-83175000D02*
X185330000Y-83175000D01*
D10*
%TO.C,U4*%
X201340000Y-83890000D02*
X201840000Y-83890000D01*
X201340000Y-84390000D02*
X201340000Y-83890000D01*
X201340000Y-86710000D02*
X201340000Y-86910000D01*
X201840000Y-87210000D02*
X201590000Y-87210000D01*
X204660000Y-83890000D02*
X204160000Y-83890000D01*
X204660000Y-84390000D02*
X204660000Y-83890000D01*
X204660000Y-86710000D02*
X204660000Y-87210000D01*
X204660000Y-87210000D02*
X204160000Y-87210000D01*
X201340000Y-87210000D02*
X201010000Y-87450000D01*
X201010000Y-86970000D01*
X201340000Y-87210000D01*
G36*
X201340000Y-87210000D02*
G01*
X201010000Y-87450000D01*
X201010000Y-86970000D01*
X201340000Y-87210000D01*
G37*
%TO.C,C5*%
X178415000Y-77263748D02*
X178415000Y-77786252D01*
X179885000Y-77263748D02*
X179885000Y-77786252D01*
%TO.C,TP1*%
X222950000Y-83750000D02*
G75*
G02*
X221550000Y-83750000I-700000J0D01*
G01*
X221550000Y-83750000D02*
G75*
G02*
X222950000Y-83750000I700000J0D01*
G01*
%TO.C,R34*%
X219860436Y-100577500D02*
X220314564Y-100577500D01*
X219860436Y-102047500D02*
X220314564Y-102047500D01*
%TO.C,R16*%
X222477064Y-76765000D02*
X222022936Y-76765000D01*
X222477064Y-78235000D02*
X222022936Y-78235000D01*
%TO.C,R6*%
X185015000Y-92185436D02*
X185015000Y-92639564D01*
X186485000Y-92185436D02*
X186485000Y-92639564D01*
%TO.C,C16*%
X188863748Y-63265000D02*
X189386252Y-63265000D01*
X188863748Y-64735000D02*
X189386252Y-64735000D01*
%TO.C,R12*%
X212085436Y-89840000D02*
X212539564Y-89840000D01*
X212085436Y-91310000D02*
X212539564Y-91310000D01*
D12*
%TO.C,F1*%
X196825000Y-90424798D02*
X195675000Y-90424798D01*
X196825000Y-92999798D02*
X195675000Y-92999798D01*
D10*
%TO.C,R25*%
X212157500Y-56477064D02*
X212157500Y-56022936D01*
X213627500Y-56477064D02*
X213627500Y-56022936D01*
%TO.C,R3*%
X196265000Y-104682064D02*
X196265000Y-104227936D01*
X197735000Y-104682064D02*
X197735000Y-104227936D01*
%TO.C,R15*%
X231377500Y-69989564D02*
X231377500Y-69535436D01*
X232847500Y-69989564D02*
X232847500Y-69535436D01*
%TO.C,C8*%
X230765000Y-62536252D02*
X230765000Y-62013748D01*
X232235000Y-62536252D02*
X232235000Y-62013748D01*
%TO.C,Q2*%
X213940000Y-97240000D02*
X214940000Y-97240000D01*
X213940000Y-98760000D02*
X213940000Y-97240000D01*
X213990000Y-98760000D02*
X213940000Y-98760000D01*
X215890000Y-98760000D02*
X215110000Y-98760000D01*
X216060000Y-97240000D02*
X217060000Y-97240000D01*
X217060000Y-97240000D02*
X217060000Y-98760000D01*
X217060000Y-98760000D02*
X217010000Y-98760000D01*
X215450000Y-99540000D02*
X215120000Y-99300000D01*
X215450000Y-99060000D01*
X215450000Y-99540000D01*
G36*
X215450000Y-99540000D02*
G01*
X215120000Y-99300000D01*
X215450000Y-99060000D01*
X215450000Y-99540000D01*
G37*
D12*
%TO.C,J2*%
X176775000Y-99750000D02*
X184725000Y-99750000D01*
X176775000Y-100430000D02*
X176775000Y-99750000D01*
X176775000Y-104750000D02*
X176775000Y-104070000D01*
X178930000Y-104750000D02*
X176775000Y-104750000D01*
X184725000Y-99750000D02*
X184725000Y-100430000D01*
X184725000Y-104750000D02*
X182570000Y-104750000D01*
X184725000Y-104750000D02*
X184725000Y-104070000D01*
D13*
X179850000Y-107910000D02*
G75*
G02*
X179650000Y-107910000I-100000J0D01*
G01*
X179650000Y-107910000D02*
G75*
G02*
X179850000Y-107910000I100000J0D01*
G01*
D10*
%TO.C,C14*%
X210615000Y-74556252D02*
X210615000Y-74033748D01*
X212085000Y-74556252D02*
X212085000Y-74033748D01*
%TO.C,R20*%
X229102500Y-69510436D02*
X229102500Y-69964564D01*
X230572500Y-69510436D02*
X230572500Y-69964564D01*
D12*
%TO.C,S2*%
X214595000Y-105942500D02*
X215955000Y-105942500D01*
X214595000Y-107842500D02*
X215955000Y-107842500D01*
D13*
X213175000Y-106292500D02*
G75*
G02*
X212975000Y-106292500I-100000J0D01*
G01*
X212975000Y-106292500D02*
G75*
G02*
X213175000Y-106292500I100000J0D01*
G01*
D10*
%TO.C,C15*%
X207431248Y-58352500D02*
X207953752Y-58352500D01*
X207431248Y-59822500D02*
X207953752Y-59822500D01*
%TO.C,C6*%
X189038748Y-105515000D02*
X189561252Y-105515000D01*
X189038748Y-106985000D02*
X189561252Y-106985000D01*
%TO.C,R13*%
X212539564Y-87590000D02*
X212085436Y-87590000D01*
X212539564Y-89060000D02*
X212085436Y-89060000D01*
%TO.C,R28*%
X188935436Y-65515000D02*
X189389564Y-65515000D01*
X188935436Y-66985000D02*
X189389564Y-66985000D01*
%TO.C,TP2*%
X220450000Y-83750000D02*
G75*
G02*
X219050000Y-83750000I-700000J0D01*
G01*
X219050000Y-83750000D02*
G75*
G02*
X220450000Y-83750000I700000J0D01*
G01*
%TO.C,R27*%
X193685436Y-68765000D02*
X194139564Y-68765000D01*
X193685436Y-70235000D02*
X194139564Y-70235000D01*
D12*
%TO.C,C4*%
X180500000Y-76955000D02*
X180500000Y-78095000D01*
X182300000Y-76955000D02*
X182300000Y-78095000D01*
D10*
%TO.C,LED2*%
X177540000Y-91437500D02*
X177540000Y-94122500D01*
X177540000Y-94122500D02*
X179460000Y-94122500D01*
X179460000Y-94122500D02*
X179460000Y-91437500D01*
%TO.C,R8*%
X177765000Y-96185436D02*
X177765000Y-96639564D01*
X179235000Y-96185436D02*
X179235000Y-96639564D01*
%TO.C,C10*%
X205740000Y-85263748D02*
X205740000Y-85786252D01*
X207210000Y-85263748D02*
X207210000Y-85786252D01*
D12*
%TO.C,J3*%
X226325000Y-84682500D02*
X226325000Y-102742500D01*
X226325000Y-106962500D02*
X226325000Y-106182500D01*
X232395000Y-81962500D02*
X233180000Y-81962500D01*
X234820000Y-81962500D02*
X235680000Y-81962500D01*
X237320000Y-81962500D02*
X238180000Y-81962500D01*
X239820000Y-81962500D02*
X240680000Y-81962500D01*
X242320000Y-81962500D02*
X243180000Y-81962500D01*
X244820000Y-81962500D02*
X245680000Y-81962500D01*
X247320000Y-81962500D02*
X248180000Y-81962500D01*
X252145000Y-81962500D02*
X252925000Y-81962500D01*
X252925000Y-81962500D02*
X252925000Y-102742500D01*
X252925000Y-106962500D02*
X226325000Y-106962500D01*
X252925000Y-106962500D02*
X252925000Y-106182500D01*
D13*
X246600000Y-79712500D02*
G75*
G02*
X246400000Y-79712500I-100000J0D01*
G01*
X246400000Y-79712500D02*
G75*
G02*
X246600000Y-79712500I100000J0D01*
G01*
D10*
%TO.C,C1*%
X207015000Y-93211252D02*
X207015000Y-92688748D01*
X208485000Y-93211252D02*
X208485000Y-92688748D01*
%TO.C,TP4*%
X252200000Y-77500000D02*
G75*
G02*
X250800000Y-77500000I-700000J0D01*
G01*
X250800000Y-77500000D02*
G75*
G02*
X252200000Y-77500000I700000J0D01*
G01*
%TO.C,R5*%
X182765000Y-92185436D02*
X182765000Y-92639564D01*
X184235000Y-92185436D02*
X184235000Y-92639564D01*
D13*
%TO.C,U6*%
X215025000Y-70350000D02*
X219975000Y-70350000D01*
X215025000Y-75650000D02*
X215025000Y-70350000D01*
X219975000Y-70350000D02*
X219975000Y-75650000D01*
X219975000Y-75650000D02*
X215025000Y-75650000D01*
D12*
X214000000Y-70400000D02*
G75*
G02*
X213800000Y-70400000I-100000J0D01*
G01*
X213800000Y-70400000D02*
G75*
G02*
X214000000Y-70400000I100000J0D01*
G01*
X214123606Y-70400000D02*
G75*
G02*
X213676394Y-70400000I-223606J0D01*
G01*
X213676394Y-70400000D02*
G75*
G02*
X214123606Y-70400000I223606J0D01*
G01*
X214100000Y-70400000D02*
G75*
G02*
X213900000Y-70400000I-100000J0D01*
G01*
X213900000Y-70400000D02*
G75*
G02*
X214100000Y-70400000I100000J0D01*
G01*
X215800000Y-71100000D02*
G75*
G02*
X215600000Y-71100000I-100000J0D01*
G01*
X215600000Y-71100000D02*
G75*
G02*
X215800000Y-71100000I100000J0D01*
G01*
X215841419Y-71100000D02*
G75*
G02*
X215558581Y-71100000I-141419J0D01*
G01*
X215558581Y-71100000D02*
G75*
G02*
X215841419Y-71100000I141419J0D01*
G01*
X215923606Y-71100000D02*
G75*
G02*
X215476394Y-71100000I-223606J0D01*
G01*
X215476394Y-71100000D02*
G75*
G02*
X215923606Y-71100000I223606J0D01*
G01*
X216016225Y-71100000D02*
G75*
G02*
X215383775Y-71100000I-316225J0D01*
G01*
X215383775Y-71100000D02*
G75*
G02*
X216016225Y-71100000I316225J0D01*
G01*
X215800000Y-71200000D02*
G75*
G02*
X215600000Y-71200000I-100000J0D01*
G01*
X215600000Y-71200000D02*
G75*
G02*
X215800000Y-71200000I100000J0D01*
G01*
D10*
%TO.C,LED5*%
X197790000Y-81250000D02*
X197790000Y-83935000D01*
X197790000Y-83935000D02*
X199710000Y-83935000D01*
X199710000Y-83935000D02*
X199710000Y-81250000D01*
%TO.C,R24*%
X209907500Y-56477064D02*
X209907500Y-56022936D01*
X211377500Y-56477064D02*
X211377500Y-56022936D01*
%TO.C,R11*%
X203490000Y-80760436D02*
X203490000Y-81214564D01*
X204960000Y-80760436D02*
X204960000Y-81214564D01*
%TO.C,TP5*%
X218450000Y-68000000D02*
G75*
G02*
X217050000Y-68000000I-700000J0D01*
G01*
X217050000Y-68000000D02*
G75*
G02*
X218450000Y-68000000I700000J0D01*
G01*
%TO.C,U1*%
X187515000Y-99640000D02*
X188240000Y-99640000D01*
X187515000Y-100365000D02*
X187515000Y-99640000D01*
X187515000Y-103860000D02*
X187515000Y-103135000D01*
X188240000Y-103860000D02*
X187515000Y-103860000D01*
X191010000Y-99640000D02*
X191735000Y-99640000D01*
X191735000Y-99640000D02*
X191735000Y-100365000D01*
X191735000Y-103135000D02*
X191735000Y-103860000D01*
X191735000Y-103860000D02*
X191010000Y-103860000D01*
X192565000Y-102990000D02*
X192235000Y-102750000D01*
X192565000Y-102510000D01*
X192565000Y-102990000D01*
G36*
X192565000Y-102990000D02*
G01*
X192235000Y-102750000D01*
X192565000Y-102510000D01*
X192565000Y-102990000D01*
G37*
%TO.C,R14*%
X198015000Y-86185436D02*
X198015000Y-86639564D01*
X199485000Y-86185436D02*
X199485000Y-86639564D01*
%TO.C,Q3*%
X218440000Y-97240000D02*
X219440000Y-97240000D01*
X218440000Y-98760000D02*
X218440000Y-97240000D01*
X218490000Y-98760000D02*
X218440000Y-98760000D01*
X220390000Y-98760000D02*
X219610000Y-98760000D01*
X220560000Y-97240000D02*
X221560000Y-97240000D01*
X221560000Y-97240000D02*
X221560000Y-98760000D01*
X221560000Y-98760000D02*
X221510000Y-98760000D01*
X219950000Y-99540000D02*
X219620000Y-99300000D01*
X219950000Y-99060000D01*
X219950000Y-99540000D01*
G36*
X219950000Y-99540000D02*
G01*
X219620000Y-99300000D01*
X219950000Y-99060000D01*
X219950000Y-99540000D01*
G37*
%TO.C,J5*%
X174500000Y-54620000D02*
X174500000Y-57380000D01*
X184770000Y-54620000D02*
X174500000Y-54620000D01*
X184770000Y-54620000D02*
X184770000Y-57380000D01*
X184770000Y-57380000D02*
X174500000Y-57380000D01*
X186040000Y-54620000D02*
X187420000Y-54620000D01*
X187420000Y-54620000D02*
X187420000Y-56000000D01*
%TO.C,C20*%
X203427500Y-66261252D02*
X203427500Y-65738748D01*
X204897500Y-66261252D02*
X204897500Y-65738748D01*
D12*
%TO.C,C9*%
X208075000Y-86120000D02*
X208075000Y-84980000D01*
X209875000Y-86120000D02*
X209875000Y-84980000D01*
D10*
%TO.C,R9*%
X174857500Y-96185436D02*
X174857500Y-96639564D01*
X176327500Y-96185436D02*
X176327500Y-96639564D01*
%TO.C,R2*%
X185265000Y-96639564D02*
X185265000Y-96185436D01*
X186735000Y-96639564D02*
X186735000Y-96185436D01*
%TO.C,C19*%
X194136252Y-62015000D02*
X193613748Y-62015000D01*
X194136252Y-63485000D02*
X193613748Y-63485000D01*
%TO.C,R22*%
X218414564Y-76610000D02*
X217960436Y-76610000D01*
X218414564Y-78080000D02*
X217960436Y-78080000D01*
%TO.C,LED6*%
X193790000Y-81250000D02*
X193790000Y-83935000D01*
X193790000Y-83935000D02*
X195710000Y-83935000D01*
X195710000Y-83935000D02*
X195710000Y-81250000D01*
%TO.C,TP3*%
X228200000Y-73000000D02*
G75*
G02*
X226800000Y-73000000I-700000J0D01*
G01*
X226800000Y-73000000D02*
G75*
G02*
X228200000Y-73000000I700000J0D01*
G01*
D14*
%TO.C,U7*%
X196943300Y-65280000D02*
X196943300Y-66640000D01*
X199381700Y-66640000D02*
X199381700Y-65280000D01*
X196923300Y-68003800D02*
G75*
G02*
X197177300Y-68003800I127000J0D01*
G01*
X197177300Y-68003800D02*
G75*
G02*
X196923300Y-68003800I-127000J0D01*
G01*
D12*
%TO.C,Q1*%
X204267500Y-72650000D02*
X207162500Y-72650000D01*
X207162500Y-72650000D02*
X207162500Y-72855000D01*
X207162500Y-74605000D02*
X207162500Y-74800000D01*
X207162500Y-74800000D02*
X204257500Y-74800000D01*
D13*
X202187500Y-73025000D02*
G75*
G02*
X201987500Y-73025000I-100000J0D01*
G01*
X201987500Y-73025000D02*
G75*
G02*
X202187500Y-73025000I100000J0D01*
G01*
D12*
%TO.C,S1*%
X219295000Y-105942500D02*
X220655000Y-105942500D01*
X219295000Y-107842500D02*
X220655000Y-107842500D01*
D13*
X217875000Y-106292500D02*
G75*
G02*
X217675000Y-106292500I-100000J0D01*
G01*
X217675000Y-106292500D02*
G75*
G02*
X217875000Y-106292500I100000J0D01*
G01*
D12*
%TO.C,C7*%
X227962500Y-62130000D02*
X227962500Y-63270000D01*
X229762500Y-62130000D02*
X229762500Y-63270000D01*
D10*
%TO.C,U5*%
X201940000Y-91840000D02*
X201990000Y-91840000D01*
X201940000Y-93660000D02*
X201940000Y-91840000D01*
X201990000Y-93660000D02*
X201940000Y-93660000D01*
X205010000Y-91840000D02*
X205060000Y-91840000D01*
X205060000Y-91840000D02*
X205060000Y-93660000D01*
X205060000Y-93660000D02*
X205010000Y-93660000D01*
X205340000Y-91540000D02*
X205010000Y-91300000D01*
X205340000Y-91060000D01*
X205340000Y-91540000D01*
G36*
X205340000Y-91540000D02*
G01*
X205010000Y-91300000D01*
X205340000Y-91060000D01*
X205340000Y-91540000D01*
G37*
D12*
%TO.C,U2*%
X206365000Y-57607500D02*
X206365000Y-55007500D01*
X209135000Y-57607500D02*
X209135000Y-55007500D01*
D13*
X206800000Y-54707500D02*
G75*
G02*
X206700000Y-54707500I-50000J0D01*
G01*
X206700000Y-54707500D02*
G75*
G02*
X206800000Y-54707500I50000J0D01*
G01*
D10*
%TO.C,LED4*%
X175562500Y-74460000D02*
X178247500Y-74460000D01*
X178247500Y-72540000D02*
X175562500Y-72540000D01*
X178247500Y-74460000D02*
X178247500Y-72540000D01*
%TO.C,R32*%
X211265000Y-101952064D02*
X211265000Y-101497936D01*
X212735000Y-101952064D02*
X212735000Y-101497936D01*
%TO.C,R10*%
X180260436Y-72765000D02*
X180714564Y-72765000D01*
X180260436Y-74235000D02*
X180714564Y-74235000D01*
%TO.C,R19*%
X245765000Y-78139564D02*
X245765000Y-77685436D01*
X247235000Y-78139564D02*
X247235000Y-77685436D01*
%TO.C,R1*%
X183117500Y-96639564D02*
X183117500Y-96185436D01*
X184587500Y-96639564D02*
X184587500Y-96185436D01*
%TD*%
%LPC*%
D15*
%TO.C,C22*%
X216400000Y-104062500D03*
X214500000Y-104062500D03*
%TD*%
D16*
%TO.C,J4*%
X200560000Y-56000000D03*
D17*
X198020000Y-56000000D03*
X195480000Y-56000000D03*
X192940000Y-56000000D03*
%TD*%
D18*
%TO.C,R26*%
X197737500Y-62500000D03*
X199562500Y-62500000D03*
%TD*%
D19*
%TO.C,LED1*%
X175500000Y-91500000D03*
X175500000Y-93375000D03*
%TD*%
D20*
%TO.C,C11*%
X211475000Y-86475000D03*
X211475000Y-84575000D03*
%TD*%
D21*
%TO.C,VR1*%
X184000000Y-79000000D03*
X186300000Y-79000000D03*
X188600000Y-79000000D03*
D22*
X186300000Y-73200000D03*
%TD*%
D23*
%TO.C,C18*%
X197312500Y-69250000D03*
X199212500Y-69250000D03*
%TD*%
D24*
%TO.C,R7*%
X181250000Y-95500000D03*
X181250000Y-97325000D03*
%TD*%
D25*
%TO.C,R33*%
X216250000Y-101312500D03*
X214425000Y-101312500D03*
%TD*%
D26*
%TO.C,R4*%
X197000000Y-101542500D03*
X197000000Y-99717500D03*
%TD*%
D15*
%TO.C,C2*%
X186900000Y-84525000D03*
X185000000Y-84525000D03*
%TD*%
D27*
%TO.C,MK1*%
X183412500Y-65550000D03*
X183412500Y-67450000D03*
%TD*%
D15*
%TO.C,C21*%
X221000000Y-103812500D03*
X219100000Y-103812500D03*
%TD*%
%TO.C,C13*%
X241150000Y-78750000D03*
X239250000Y-78750000D03*
%TD*%
D24*
%TO.C,R18*%
X194750000Y-85500000D03*
X194750000Y-87325000D03*
%TD*%
D28*
%TO.C,U3*%
X234500000Y-61100000D03*
X234500000Y-62600000D03*
X234500000Y-64100000D03*
X234500000Y-65600000D03*
X234500000Y-67100000D03*
X234500000Y-68600000D03*
X234500000Y-70100000D03*
X234500000Y-71600000D03*
X234500000Y-73100000D03*
X252000000Y-73100000D03*
X252000000Y-71600000D03*
X252000000Y-70100000D03*
X252000000Y-68600000D03*
X252000000Y-67100000D03*
X252000000Y-65600000D03*
X252000000Y-64100000D03*
X252000000Y-62600000D03*
X252000000Y-61100000D03*
D29*
X243110000Y-66200000D03*
X244210000Y-66200000D03*
X245310000Y-66200000D03*
X243110000Y-67300000D03*
X244210000Y-67300000D03*
X245310000Y-67300000D03*
X243110000Y-68400000D03*
X244210000Y-68400000D03*
X245310000Y-68400000D03*
%TD*%
D15*
%TO.C,C17*%
X190025000Y-68500000D03*
X188125000Y-68500000D03*
%TD*%
D25*
%TO.C,R23*%
X206162500Y-71250000D03*
X204337500Y-71250000D03*
%TD*%
D18*
%TO.C,R30*%
X193000000Y-65000000D03*
X194825000Y-65000000D03*
%TD*%
D19*
%TO.C,LED3*%
X181250000Y-91500000D03*
X181250000Y-93375000D03*
%TD*%
D30*
%TO.C,REF\u002A\u002A*%
X210500000Y-67500000D03*
%TD*%
D26*
%TO.C,R31*%
X201912500Y-66912500D03*
X201912500Y-65087500D03*
%TD*%
D18*
%TO.C,R29*%
X193000000Y-67250000D03*
X194825000Y-67250000D03*
%TD*%
D31*
%TO.C,C12*%
X236850000Y-78750000D03*
X233900000Y-78750000D03*
%TD*%
D32*
%TO.C,J1*%
X200750000Y-96540000D03*
X201250000Y-96540000D03*
X201750000Y-96540000D03*
X202250000Y-96540000D03*
X202750000Y-96540000D03*
X203250000Y-96540000D03*
X203750000Y-96540000D03*
X204250000Y-96540000D03*
X204750000Y-96540000D03*
X205250000Y-96540000D03*
X205750000Y-96540000D03*
X206250000Y-96540000D03*
D33*
X206300000Y-97790000D03*
X205900000Y-98500000D03*
X205100000Y-98500000D03*
X204700000Y-97790000D03*
X204300000Y-98500000D03*
X203900000Y-97790000D03*
X203100000Y-97790000D03*
X202700000Y-98500000D03*
X202300000Y-97790000D03*
X201900000Y-98500000D03*
X201100000Y-98500000D03*
X200700000Y-97790000D03*
X205500000Y-97790000D03*
X201500000Y-97790000D03*
D34*
X203500000Y-101120000D03*
X203500000Y-104220000D03*
D35*
X199230000Y-98940000D03*
X207770000Y-98940000D03*
X199230000Y-103670000D03*
X207770000Y-103670000D03*
%TD*%
D31*
%TO.C,C3*%
X187375000Y-82275000D03*
X184425000Y-82275000D03*
%TD*%
D36*
%TO.C,U4*%
X201750000Y-86800000D03*
D37*
X202250000Y-87100000D03*
X202750000Y-87100000D03*
X203250000Y-87100000D03*
X203750000Y-87100000D03*
D36*
X204250000Y-86800000D03*
D38*
X204550000Y-86300000D03*
X204550000Y-85800000D03*
X204550000Y-85300000D03*
X204550000Y-84800000D03*
D36*
X204250000Y-84300000D03*
D37*
X203750000Y-84000000D03*
X203250000Y-84000000D03*
X202750000Y-84000000D03*
X202250000Y-84000000D03*
D36*
X201750000Y-84300000D03*
D38*
X201450000Y-84800000D03*
X201450000Y-85300000D03*
X201450000Y-85800000D03*
X201450000Y-86300000D03*
D39*
X203000000Y-85550000D03*
%TD*%
D40*
%TO.C,C5*%
X179150000Y-76575000D03*
X179150000Y-78475000D03*
%TD*%
D41*
%TO.C,TP1*%
X222250000Y-83750000D03*
%TD*%
D18*
%TO.C,R34*%
X219175000Y-101312500D03*
X221000000Y-101312500D03*
%TD*%
D25*
%TO.C,R16*%
X223162500Y-77500000D03*
X221337500Y-77500000D03*
%TD*%
D24*
%TO.C,R6*%
X185750000Y-91500000D03*
X185750000Y-93325000D03*
%TD*%
D23*
%TO.C,C16*%
X188175000Y-64000000D03*
X190075000Y-64000000D03*
%TD*%
D18*
%TO.C,R12*%
X211400000Y-90575000D03*
X213225000Y-90575000D03*
%TD*%
D42*
%TO.C,F1*%
X197735000Y-91712298D03*
X194765000Y-91712298D03*
%TD*%
D26*
%TO.C,R25*%
X212892500Y-57162500D03*
X212892500Y-55337500D03*
%TD*%
%TO.C,R3*%
X197000000Y-105367500D03*
X197000000Y-103542500D03*
%TD*%
%TO.C,R15*%
X232112500Y-70675000D03*
X232112500Y-68850000D03*
%TD*%
D20*
%TO.C,C8*%
X231500000Y-63225000D03*
X231500000Y-61325000D03*
%TD*%
D43*
%TO.C,Q2*%
X214550000Y-98937500D03*
X216450000Y-98937500D03*
X215500000Y-97062500D03*
%TD*%
D44*
%TO.C,J2*%
X179750000Y-104500000D03*
X181750000Y-104500000D03*
D45*
X177350000Y-102250000D03*
X184150000Y-102250000D03*
%TD*%
D20*
%TO.C,C14*%
X211350000Y-75245000D03*
X211350000Y-73345000D03*
%TD*%
D24*
%TO.C,R20*%
X229837500Y-68825000D03*
X229837500Y-70650000D03*
%TD*%
D46*
%TO.C,S2*%
X214000000Y-106312500D03*
X216550000Y-106312500D03*
X214000000Y-107472500D03*
X216550000Y-107472500D03*
%TD*%
D23*
%TO.C,C15*%
X206742500Y-59087500D03*
X208642500Y-59087500D03*
%TD*%
%TO.C,C6*%
X188350000Y-106250000D03*
X190250000Y-106250000D03*
%TD*%
D30*
%TO.C,REF\u002A\u002A*%
X176000000Y-66250000D03*
%TD*%
D25*
%TO.C,R13*%
X213225000Y-88325000D03*
X211400000Y-88325000D03*
%TD*%
D18*
%TO.C,R28*%
X188250000Y-66250000D03*
X190075000Y-66250000D03*
%TD*%
D41*
%TO.C,TP2*%
X219750000Y-83750000D03*
%TD*%
D18*
%TO.C,R27*%
X193000000Y-69500000D03*
X194825000Y-69500000D03*
%TD*%
D47*
%TO.C,C4*%
X181400000Y-76050000D03*
X181400000Y-79000000D03*
%TD*%
D19*
%TO.C,LED2*%
X178500000Y-91500000D03*
X178500000Y-93375000D03*
%TD*%
D24*
%TO.C,R8*%
X178500000Y-95500000D03*
X178500000Y-97325000D03*
%TD*%
D40*
%TO.C,C10*%
X206475000Y-84575000D03*
X206475000Y-86475000D03*
%TD*%
D48*
%TO.C,J3*%
X228125000Y-83962500D03*
D49*
X249125000Y-83962500D03*
D50*
X246500000Y-81162500D03*
X244000000Y-81162500D03*
X241500000Y-81162500D03*
X239000000Y-81162500D03*
X236500000Y-81162500D03*
X234000000Y-81162500D03*
X231575000Y-81162500D03*
X229875000Y-81162500D03*
X249000000Y-81162500D03*
D51*
X228575000Y-81162500D03*
D52*
X225975000Y-82962500D03*
X251075000Y-82962500D03*
X253275000Y-104462500D03*
X225975000Y-104462500D03*
D51*
X227375000Y-81162500D03*
%TD*%
D20*
%TO.C,C1*%
X207750000Y-93900000D03*
X207750000Y-92000000D03*
%TD*%
D41*
%TO.C,TP4*%
X251500000Y-77500000D03*
%TD*%
D24*
%TO.C,R5*%
X183500000Y-91500000D03*
X183500000Y-93325000D03*
%TD*%
D53*
%TO.C,U6*%
X213900000Y-71095000D03*
X213900000Y-72365000D03*
X213900000Y-73635000D03*
X213900000Y-74905000D03*
X221100000Y-74905000D03*
X221100000Y-73635000D03*
X221100000Y-72365000D03*
X221100000Y-71095000D03*
%TD*%
D19*
%TO.C,LED5*%
X198750000Y-81312500D03*
X198750000Y-83187500D03*
%TD*%
D26*
%TO.C,R24*%
X210642500Y-57162500D03*
X210642500Y-55337500D03*
%TD*%
D30*
%TO.C,REF\u002A\u002A*%
X176000000Y-85000000D03*
%TD*%
D24*
%TO.C,R11*%
X204225000Y-80075000D03*
X204225000Y-81900000D03*
%TD*%
D41*
%TO.C,TP5*%
X217750000Y-68000000D03*
%TD*%
D54*
%TO.C,U1*%
X191562500Y-102750000D03*
X191562500Y-102250000D03*
X191562500Y-101750000D03*
X191562500Y-101250000D03*
X191562500Y-100750000D03*
D55*
X190625000Y-99812500D03*
X190125000Y-99812500D03*
X189625000Y-99812500D03*
X189125000Y-99812500D03*
X188625000Y-99812500D03*
D54*
X187687500Y-100750000D03*
X187687500Y-101250000D03*
X187687500Y-101750000D03*
X187687500Y-102250000D03*
X187687500Y-102750000D03*
D55*
X188625000Y-103687500D03*
X189125000Y-103687500D03*
X189625000Y-103687500D03*
X190125000Y-103687500D03*
X190625000Y-103687500D03*
D56*
X189625000Y-101750000D03*
%TD*%
D24*
%TO.C,R14*%
X198750000Y-85500000D03*
X198750000Y-87325000D03*
%TD*%
D43*
%TO.C,Q3*%
X219050000Y-98937500D03*
X220950000Y-98937500D03*
X220000000Y-97062500D03*
%TD*%
D16*
%TO.C,J5*%
X186040000Y-56000000D03*
D17*
X183500000Y-56000000D03*
X180960000Y-56000000D03*
X178420000Y-56000000D03*
X175880000Y-56000000D03*
%TD*%
D20*
%TO.C,C20*%
X204162500Y-66950000D03*
X204162500Y-65050000D03*
%TD*%
D57*
%TO.C,C9*%
X208975000Y-87025000D03*
X208975000Y-84075000D03*
%TD*%
D24*
%TO.C,R9*%
X175592500Y-95500000D03*
X175592500Y-97325000D03*
%TD*%
D26*
%TO.C,R2*%
X186000000Y-97325000D03*
X186000000Y-95500000D03*
%TD*%
D15*
%TO.C,C19*%
X194825000Y-62750000D03*
X192925000Y-62750000D03*
%TD*%
D25*
%TO.C,R22*%
X219100000Y-77345000D03*
X217275000Y-77345000D03*
%TD*%
D19*
%TO.C,LED6*%
X194750000Y-81312500D03*
X194750000Y-83187500D03*
%TD*%
D41*
%TO.C,TP3*%
X227500000Y-73000000D03*
%TD*%
D58*
%TO.C,U7*%
X197512500Y-66920000D03*
X198162500Y-66920000D03*
X198812500Y-66920000D03*
X198812500Y-65000000D03*
X197512500Y-65000000D03*
%TD*%
D59*
%TO.C,Q1*%
X203332500Y-73175000D03*
X203332500Y-74275000D03*
D60*
X206842500Y-73725000D03*
%TD*%
D46*
%TO.C,S1*%
X218700000Y-106312500D03*
X221250000Y-106312500D03*
X218700000Y-107472500D03*
X221250000Y-107472500D03*
%TD*%
D47*
%TO.C,C7*%
X228862500Y-61225000D03*
X228862500Y-64175000D03*
%TD*%
D61*
%TO.C,U5*%
X204450000Y-91612500D03*
X203500000Y-91612500D03*
X202550000Y-91612500D03*
X202550000Y-93887500D03*
X203500000Y-93887500D03*
X204450000Y-93887500D03*
%TD*%
D62*
%TO.C,U2*%
X206775000Y-55337500D03*
X207425000Y-55337500D03*
X208075000Y-55337500D03*
X208725000Y-55337500D03*
X208725000Y-57277500D03*
X208075000Y-57277500D03*
X207425000Y-57277500D03*
X206775000Y-57277500D03*
%TD*%
D63*
%TO.C,LED4*%
X175625000Y-73500000D03*
X177500000Y-73500000D03*
%TD*%
D26*
%TO.C,R32*%
X212000000Y-102637500D03*
X212000000Y-100812500D03*
%TD*%
D18*
%TO.C,R10*%
X179575000Y-73500000D03*
X181400000Y-73500000D03*
%TD*%
D26*
%TO.C,R19*%
X246500000Y-78825000D03*
X246500000Y-77000000D03*
%TD*%
%TO.C,R1*%
X183852500Y-97325000D03*
X183852500Y-95500000D03*
%TD*%
%LPD*%
M02*
