M48
; DRILL file {KiCad 9.0.6} date 2026-05-31T00:00:56+0530
; FORMAT={-:-/ absolute / inch / decimal}
; #@! TF.CreationDate,2026-05-31T00:00:56+05:30
; #@! TF.GenerationSoftware,Kicad,Pcbnew,9.0.6
; #@! TF.FileFunction,Plated,1,4,PTH
FMAT,2
INCH
; #@! TA.AperFunction,Plated,PTH,ViaDrill
T1C0.0118
; #@! TA.AperFunction,Plated,PTH,ComponentDrill
T2C0.0118
; #@! TA.AperFunction,Plated,PTH,ViaDrill
T3C0.0157
; #@! TA.AperFunction,Plated,PTH,ComponentDrill
T4C0.0177
; #@! TA.AperFunction,Plated,PTH,ComponentDrill
T5C0.0256
; #@! TA.AperFunction,Plated,PTH,ComponentDrill
T6C0.0276
; #@! TA.AperFunction,Plated,PTH,ComponentDrill
T7C0.0394
%
G90
G05
T1
X6.8898Y-2.9724
X6.9518Y-3.0148
X6.9685Y-3.6024
X6.9685Y-3.7992
X7.0276Y-3.1496
X7.0276Y-4.1535
X7.0276Y-4.1772
X7.0276Y-4.2008
X7.0669Y-3.1496
X7.0768Y-3.6024
X7.0866Y-3.878
X7.1457Y-3.1693
X7.1555Y-2.815
X7.1752Y-3.1693
X7.1752Y-3.2087
X7.1752Y-3.2579
X7.1752Y-3.3071
X7.1752Y-3.3465
X7.185Y-3.8976
X7.2146Y-3.3071
X7.2146Y-3.3465
X7.2343Y-2.8248
X7.2654Y-2.8248
X7.2736Y-3.6024
X7.2835Y-3.7598
X7.2835Y-3.7992
X7.2966Y-2.8248
X7.3278Y-2.8248
X7.3524Y-4.2028
X7.3589Y-2.8248
X7.372Y-3.9075
X7.3789Y-3.75
X7.3901Y-2.8248
X7.4213Y-2.8248
X7.4311Y-4.124
X7.4409Y-3.7992
X7.4606Y-3.8386
X7.4606Y-4.124
X7.4803Y-3.8189
X7.4902Y-4.124
X7.5Y-2.4409
X7.5394Y-3.7992
X7.5394Y-4.1831
X7.5492Y-2.6673
X7.5787Y-3.9173
X7.5886Y-3.9764
X7.5886Y-4.0354
X7.5984Y-3.5827
X7.5984Y-3.622
X7.5984Y-3.6614
X7.6772Y-2.4114
X7.6772Y-3.1398
X7.687Y-2.8051
X7.7461Y-2.8051
X7.8017Y-2.685
X7.815Y-2.8051
X7.8346Y-3.1398
X7.8543Y-3.5827
X7.8543Y-3.622
X7.8543Y-3.6614
X7.8683Y-3.3454
X7.8839Y-3.7598
X7.8937Y-3.3268
X7.9058Y-3.7431
X7.9134Y-2.8839
X7.9232Y-2.4508
X7.9331Y-3.2874
X7.9478Y-3.7057
X7.9528Y-3.2648
X7.9626Y-3.4744
X7.9921Y-3.2578
X8.0118Y-3.5335
X8.0118Y-3.7343
X8.0118Y-4.0453
X8.0315Y-3.0709
X8.0709Y-2.2244
X8.0807Y-2.2638
X8.0886Y-3.7075
X8.0906Y-2.1752
X8.0906Y-2.313
X8.0967Y-3.4584
X8.1201Y-3.2579
X8.1313Y-3.6969
X8.1791Y-2.7756
X8.2143Y-2.2835
X8.2382Y-3.2087
X8.2382Y-3.6319
X8.2874Y-3.5039
X8.2972Y-2.313
X8.2972Y-3.0413
X8.3169Y-2.8346
X8.3366Y-3.2579
X8.3563Y-3.9075
X8.3858Y-2.313
X8.3957Y-4.124
X8.3957Y-4.1634
X8.5236Y-3.842
X8.5827Y-3.9173
X8.5827Y-4.0945
X8.6417Y-3.8017
X8.7402Y-2.5591
X8.7598Y-3.9567
X8.7608Y-2.5322
X8.7686Y-2.5078
X8.7697Y-4.1634
X8.7805Y-2.4813
X8.7894Y-2.8346
X8.8189Y-3.248
X8.8632Y-2.7018
X8.9059Y-2.4048
X8.9173Y-2.3819
X8.9301Y-2.5266
X8.9961Y-2.5994
X9.0059Y-4.0846
X9.0157Y-3.2446
X9.0354Y-3.4055
X9.0551Y-3.4262
X9.1142Y-2.5787
X9.1732Y-3.0315
X9.2087Y-3.1457
X9.2913Y-2.7362
X9.2913Y-2.8543
X9.311Y-2.6181
X9.3118Y-2.8846
X9.312Y-2.7559
X9.3287Y-2.7766
X9.3504Y-2.4803
X9.3701Y-2.815
X9.4094Y-3.2677
X9.4941Y-3.1398
X9.5226Y-2.4459
X9.7441Y-2.4705
X9.7835Y-2.7362
X9.8219Y-2.8543
X9.8427Y-2.8053
X9.8622Y-2.6575
X9.877Y-3.1742
X9.8819Y-4.0748
X9.9311Y-3.0118
X9.9902Y-2.4409
T2
X9.5713Y-2.628
X9.5713Y-2.6713
X9.5929Y-2.6063
X9.5929Y-2.6496
X9.5929Y-2.6929
X9.6146Y-2.628
X9.6146Y-2.6713
X9.6362Y-2.6063
X9.6362Y-2.6496
X9.6362Y-2.6929
X9.6579Y-2.628
X9.6579Y-2.6713
T3
X8.941Y-2.4548
X9.6457Y-3.0118
T4
X7.9016Y-3.85
X7.9173Y-3.878
X7.9331Y-3.85
X7.9488Y-3.878
X7.9646Y-3.85
X7.9803Y-3.878
X7.9961Y-3.85
X8.0276Y-3.85
X8.0433Y-3.878
X8.0591Y-3.85
X8.0748Y-3.878
X8.0906Y-3.85
X8.1063Y-3.878
X8.122Y-3.85
T6
X7.221Y-2.5807
X7.221Y-2.6555
T7
X6.9244Y-2.2047
X7.0244Y-2.2047
X7.1244Y-2.2047
X7.2244Y-2.2047
X7.3244Y-2.2047
X7.5961Y-2.2047
X7.6961Y-2.2047
X7.7961Y-2.2047
X7.8961Y-2.2047
T5
G00X7.8437Y-3.8835
M15
G01X7.8437Y-3.9071
M16
G05
G00X7.8437Y-4.0697
M15
G01X7.8437Y-4.0933
M16
G05
G00X8.1799Y-3.8835
M15
G01X8.1799Y-3.9071
M16
G05
G00X8.1799Y-4.0697
M15
G01X8.1799Y-4.0933
M16
G05
M30
