%TF.GenerationSoftware,KiCad,Pcbnew,9.0.6*%
%TF.CreationDate,2026-05-31T00:00:56+05:30*%
%TF.ProjectId,KiCad 9 Esp32 Demo Project,4b694361-6420-4392-9045-737033322044,rev?*%
%TF.SameCoordinates,Original*%
%TF.FileFunction,Copper,L4,Bot*%
%TF.FilePolarity,Positive*%
%FSLAX46Y46*%
G04 Gerber Fmt 4.6, Leading zero omitted, Abs format (unit mm)*
G04 Created by KiCad (PCBNEW 9.0.6) date 2026-05-31 00:00:56*
%MOMM*%
%LPD*%
G01*
G04 APERTURE LIST*
%TA.AperFunction,ComponentPad*%
%ADD10R,1.700000X1.700000*%
%TD*%
%TA.AperFunction,ComponentPad*%
%ADD11C,1.700000*%
%TD*%
%TA.AperFunction,ComponentPad*%
%ADD12C,1.208000*%
%TD*%
%TA.AperFunction,ComponentPad*%
%ADD13C,0.400000*%
%TD*%
%TA.AperFunction,ComponentPad*%
%ADD14C,0.650000*%
%TD*%
%TA.AperFunction,ComponentPad*%
%ADD15O,1.050000X2.100000*%
%TD*%
%TA.AperFunction,ViaPad*%
%ADD16C,0.500000*%
%TD*%
%TA.AperFunction,ViaPad*%
%ADD17C,0.800000*%
%TD*%
%TA.AperFunction,ViaPad*%
%ADD18C,0.600000*%
%TD*%
%TA.AperFunction,Conductor*%
%ADD19C,0.250000*%
%TD*%
%TA.AperFunction,Conductor*%
%ADD20C,0.254000*%
%TD*%
%TA.AperFunction,Conductor*%
%ADD21C,0.200000*%
%TD*%
G04 APERTURE END LIST*
D10*
%TO.P,J4,1,Pin_1*%
%TO.N,+3.3V*%
X200560000Y-56000000D03*
D11*
%TO.P,J4,2,Pin_2*%
%TO.N,/ESP32-C3-02/SDA*%
X198020000Y-56000000D03*
%TO.P,J4,3,Pin_3*%
%TO.N,/ESP32-C3-02/SCL*%
X195480000Y-56000000D03*
%TO.P,J4,4,Pin_4*%
%TO.N,GND*%
X192940000Y-56000000D03*
%TD*%
D12*
%TO.P,MK1,GND*%
%TO.N,GND*%
X183412500Y-65550000D03*
%TO.P,MK1,OUT*%
%TO.N,Net-(C17-Pad2)*%
X183412500Y-67450000D03*
%TD*%
D13*
%TO.P,U3,28,GND*%
%TO.N,GND*%
X243660000Y-66200000D03*
%TO.P,U3,29,GND*%
X244760000Y-66200000D03*
%TO.P,U3,30,GND*%
X243110000Y-66750000D03*
%TO.P,U3,31,GND*%
X244210000Y-66750000D03*
%TO.P,U3,32,GND*%
X245310000Y-66750000D03*
%TO.P,U3,33,GND*%
X243660000Y-67300000D03*
%TO.P,U3,34,GND*%
X244760000Y-67300000D03*
%TO.P,U3,35,GND*%
X243110000Y-67850000D03*
%TO.P,U3,36,GND*%
X244210000Y-67850000D03*
%TO.P,U3,37,GND*%
X245310000Y-67850000D03*
%TO.P,U3,38,GND*%
X243660000Y-68400000D03*
%TO.P,U3,39,GND*%
X244760000Y-68400000D03*
%TD*%
D14*
%TO.P,J1,B1,GNDB1*%
%TO.N,GND*%
X206300000Y-97790000D03*
%TO.P,J1,B2,SSTXP2*%
%TO.N,unconnected-(J1-SSTXP2-PadB2)*%
X205900000Y-98500000D03*
%TO.P,J1,B3,SSTXN2*%
%TO.N,unconnected-(J1-SSTXN2-PadB3)*%
X205100000Y-98500000D03*
%TO.P,J1,B4,VBUSB1*%
%TO.N,/VBUS*%
X204700000Y-97790000D03*
%TO.P,J1,B5,CC2*%
%TO.N,Net-(J1-CC2)*%
X204300000Y-98500000D03*
%TO.P,J1,B6,DP2*%
%TO.N,/USB_DP*%
X203900000Y-97790000D03*
%TO.P,J1,B7,DN2*%
%TO.N,/USB_DN*%
X203100000Y-97790000D03*
%TO.P,J1,B8,SBU2*%
%TO.N,unconnected-(J1-SBU2-PadB8)*%
X202700000Y-98500000D03*
%TO.P,J1,B9,VBUSB2*%
%TO.N,/VBUS*%
X202300000Y-97790000D03*
%TO.P,J1,B10,SSRXN1*%
%TO.N,unconnected-(J1-SSRXN1-PadB10)*%
X201900000Y-98500000D03*
%TO.P,J1,B11,SSRXP1*%
%TO.N,unconnected-(J1-SSRXP1-PadB11)*%
X201100000Y-98500000D03*
%TO.P,J1,B12,GNDB2*%
%TO.N,GND*%
X200700000Y-97790000D03*
%TO.P,J1,G1,GND/SHIELD*%
X205500000Y-97790000D03*
%TO.P,J1,G2,GND/SHIELD*%
X201500000Y-97790000D03*
D15*
%TO.P,J1,S1,GND/SHIELD*%
X199230000Y-98940000D03*
%TO.P,J1,S2,GND/SHIELD*%
X207770000Y-98940000D03*
%TO.P,J1,S3,GND/SHIELD*%
X199230000Y-103670000D03*
%TO.P,J1,S4,GND/SHIELD*%
X207770000Y-103670000D03*
%TD*%
D10*
%TO.P,J5,1,Pin_1*%
%TO.N,+3.3V*%
X186040000Y-56000000D03*
D11*
%TO.P,J5,2,Pin_2*%
%TO.N,/ESP32-C3-02/GPIO8*%
X183500000Y-56000000D03*
%TO.P,J5,3,Pin_3*%
%TO.N,/ESP32-C3-02/GPIO18*%
X180960000Y-56000000D03*
%TO.P,J5,4,Pin_4*%
%TO.N,/ESP32-C3-02/GPIO19*%
X178420000Y-56000000D03*
%TO.P,J5,5,Pin_5*%
%TO.N,GND*%
X175880000Y-56000000D03*
%TD*%
D16*
%TO.N,/VBUS*%
X199500000Y-92000000D03*
X200806214Y-95075000D03*
X203500000Y-94852182D03*
X199500000Y-93000000D03*
X199500000Y-91000000D03*
X206536000Y-93900000D03*
%TO.N,GND*%
X182250000Y-80500000D03*
X198500000Y-71250000D03*
X241150000Y-79750000D03*
X191750000Y-67750000D03*
X210750000Y-77250000D03*
X224000000Y-82500000D03*
X229000000Y-82412500D03*
X185000000Y-95500000D03*
X203500000Y-89750000D03*
X201000000Y-73250000D03*
X233900000Y-79900000D03*
X209250000Y-81500000D03*
X178500000Y-106100003D03*
X184750000Y-91500000D03*
X233000000Y-77000000D03*
X183250000Y-85000000D03*
X250875000Y-80625000D03*
X182250000Y-84000000D03*
X205500000Y-55250000D03*
X226825000Y-64175000D03*
X178500000Y-105500000D03*
X181750000Y-71500000D03*
X187250000Y-99250000D03*
X218000000Y-104000000D03*
X208642500Y-58000000D03*
X182250000Y-85000000D03*
X228750000Y-103750000D03*
X211750000Y-82750000D03*
X178500000Y-80000000D03*
X182250000Y-81500000D03*
X209250000Y-92250000D03*
X210500000Y-89000000D03*
X183250000Y-84000000D03*
X222750000Y-105750000D03*
X191500000Y-106250000D03*
X200250000Y-95500000D03*
X190500000Y-62000000D03*
X251000000Y-103500000D03*
X178500000Y-106700006D03*
X195000000Y-61250000D03*
X213250000Y-104750000D03*
X181500000Y-80500000D03*
X182250000Y-82750000D03*
X236000000Y-72500000D03*
X198162500Y-68200000D03*
X179500000Y-80000000D03*
X203500000Y-102750000D03*
X206250000Y-82750000D03*
X213250000Y-105750000D03*
%TO.N,+3.3V*%
X205656587Y-87843413D03*
X201250000Y-62250000D03*
X184541667Y-71750000D03*
X199000000Y-79750000D03*
X195250000Y-71250000D03*
X212250000Y-99250000D03*
X196750000Y-71250000D03*
D17*
X227101748Y-62351748D03*
D16*
X202250000Y-88250000D03*
X188500000Y-71750000D03*
X195000000Y-79750000D03*
X210750000Y-58750000D03*
X205250000Y-57500000D03*
X211250000Y-72000000D03*
X186916667Y-71750000D03*
X185333333Y-71750000D03*
X207750000Y-70500000D03*
X205000000Y-56500000D03*
X183750000Y-71750000D03*
X204000000Y-78000000D03*
X176575000Y-76575000D03*
X187708333Y-71750000D03*
X223250000Y-72000000D03*
X239000000Y-83000000D03*
X213000000Y-58750000D03*
X205500000Y-58750000D03*
X203000000Y-82749000D03*
D18*
X245000000Y-76500000D03*
D16*
X175000000Y-75500000D03*
X186125000Y-71750000D03*
%TO.N,/+5V_USB*%
X192750000Y-102500000D03*
X190250000Y-104750000D03*
X179750000Y-91500000D03*
X189500000Y-104750000D03*
X188750000Y-104750000D03*
X186750000Y-106750000D03*
X193000000Y-93000000D03*
X193000000Y-91000000D03*
X177000000Y-91500000D03*
X192750000Y-101000000D03*
X193000000Y-92000000D03*
%TO.N,/ESP32-C3-02/MIC_OUT*%
X222000000Y-65000000D03*
X231500000Y-65500000D03*
%TO.N,/ESP32-C3-02/BOOT*%
X238000000Y-71500000D03*
X230000000Y-87026000D03*
%TO.N,/ESP32-C3-02/EN*%
X229500000Y-86500000D03*
X237500000Y-63000000D03*
%TO.N,/ESP32-C3-02/SCL*%
X226500000Y-60500000D03*
X247500000Y-62750000D03*
%TO.N,/ESP32-C3-02/SDA*%
X226209310Y-61081380D03*
X241875000Y-62125000D03*
%TO.N,/ESP32-C3-02/GPIO8*%
X223025000Y-63025000D03*
X236000000Y-69500000D03*
%TO.N,/ESP32-C3-02/GPIO18*%
X236525000Y-70000000D03*
X222723000Y-63698000D03*
%TO.N,/ESP32-C3-02/GPIO19*%
X236949000Y-70525000D03*
X248500000Y-69500000D03*
X222525000Y-64317110D03*
X250500000Y-67500000D03*
%TO.N,/ESP32-C3-02/RTS*%
X201500000Y-83500000D03*
X216500000Y-97587500D03*
%TO.N,Net-(Q3-B)*%
X218000000Y-99500000D03*
X222500000Y-100500000D03*
%TO.N,/ESP32-C3-02/DTR*%
X219500000Y-96562500D03*
X202000000Y-82925000D03*
%TO.N,Net-(U1-~{TE})*%
X189000000Y-96500000D03*
X185000000Y-96500000D03*
%TO.N,Net-(U1-THERM)*%
X187425000Y-95250000D03*
X192500000Y-99500000D03*
%TO.N,/CHARGING*%
X177000000Y-96500000D03*
X191500000Y-96500000D03*
%TO.N,/CHARGED*%
X180000000Y-98500000D03*
X189500000Y-97500000D03*
%TO.N,/CHARGING_POWER_GOOD*%
X190000000Y-97000000D03*
X182500000Y-99000000D03*
%TO.N,/ESP32-C3-02/CS_SD*%
X252250000Y-76500000D03*
X253750000Y-62000000D03*
%TO.N,/ESP32-C3-02/PHOTO_C*%
X236500000Y-66500000D03*
X228500000Y-66025000D03*
%TO.N,/ESP32-C3-02/CS*%
X225125000Y-68625000D03*
X236520307Y-73268276D03*
%TO.N,/USB_DP*%
X201875000Y-94125000D03*
%TO.N,/USB_DN*%
X205449998Y-94169999D03*
%TO.N,/ESP32-C3-02/RX_TX*%
X200500000Y-84500000D03*
X250003768Y-71253768D03*
%TO.N,/ESP32-C3-02/TX_RX*%
X249475000Y-72500000D03*
X199853554Y-84973440D03*
%TD*%
D19*
%TO.N,Net-(U1-THERM)*%
X192500000Y-98500000D02*
X192500000Y-99500000D01*
X189250000Y-95250000D02*
X192500000Y-98500000D01*
X187425000Y-95250000D02*
X189250000Y-95250000D01*
%TO.N,/CHARGING*%
X189250000Y-94250000D02*
X191500000Y-96500000D01*
X186098000Y-94250000D02*
X189250000Y-94250000D01*
X185424000Y-94924000D02*
X186098000Y-94250000D01*
X177000000Y-96500000D02*
X178576000Y-94924000D01*
X178576000Y-94924000D02*
X185424000Y-94924000D01*
D20*
%TO.N,/ESP32-C3-02/MIC_OUT*%
X225500000Y-64500000D02*
X226500000Y-65500000D01*
D19*
X222750000Y-62500000D02*
X223500000Y-62500000D01*
X222000000Y-65000000D02*
X222000000Y-63250000D01*
X226500000Y-65500000D02*
X231500000Y-65500000D01*
X223500000Y-62500000D02*
X225500000Y-64500000D01*
X222000000Y-63250000D02*
X222750000Y-62500000D01*
%TO.N,/ESP32-C3-02/BOOT*%
X230041100Y-87026000D02*
X230000000Y-87026000D01*
X238000000Y-71500000D02*
X238000000Y-79067100D01*
X238000000Y-79067100D02*
X230041100Y-87026000D01*
%TO.N,/ESP32-C3-02/EN*%
X237474000Y-79026000D02*
X237474000Y-63026000D01*
X229500000Y-86500000D02*
X230000000Y-86500000D01*
X230000000Y-86500000D02*
X237474000Y-79026000D01*
X237474000Y-63026000D02*
X237500000Y-63000000D01*
D21*
%TO.N,/ESP32-C3-02/SCL*%
X245750000Y-61000000D02*
X247500000Y-62750000D01*
X226500000Y-60500000D02*
X227000000Y-61000000D01*
X227000000Y-61000000D02*
X245750000Y-61000000D01*
%TO.N,/ESP32-C3-02/SDA*%
X226209310Y-61081380D02*
X226795031Y-61667101D01*
X226811384Y-61650748D02*
X227392112Y-61650748D01*
X241875000Y-62125000D02*
X241750000Y-62000000D01*
X237000000Y-61750000D02*
X237250000Y-62000000D01*
X227491364Y-61750000D02*
X237000000Y-61750000D01*
X227392112Y-61650748D02*
X227491364Y-61750000D01*
X226795031Y-61667101D02*
X226811384Y-61650748D01*
X238898967Y-62860000D02*
X238898967Y-62140000D01*
X237250000Y-62000000D02*
X238408967Y-62000000D01*
X238548967Y-62140000D02*
X238548967Y-62860000D01*
X238688967Y-63000000D02*
X238758967Y-63000000D01*
X239038967Y-62000000D02*
X241750000Y-62000000D01*
X238898967Y-62140000D02*
G75*
G02*
X239038967Y-61999967I140033J0D01*
G01*
X238548967Y-62860000D02*
G75*
G03*
X238688967Y-63000033I140033J0D01*
G01*
X238408967Y-62000000D02*
G75*
G02*
X238549000Y-62140000I33J-140000D01*
G01*
X238758967Y-63000000D02*
G75*
G03*
X238899000Y-62860000I33J140000D01*
G01*
D19*
%TO.N,/ESP32-C3-02/GPIO8*%
X229000000Y-69500000D02*
X236000000Y-69500000D01*
X223025000Y-63025000D02*
X223050000Y-63025000D01*
X228500000Y-68475000D02*
X228500000Y-69000000D01*
X223050000Y-63025000D02*
X228500000Y-68475000D01*
X228500000Y-69000000D02*
X229000000Y-69500000D01*
%TO.N,/ESP32-C3-02/GPIO18*%
X228000000Y-68975000D02*
X228000000Y-69551000D01*
X228475000Y-70026000D02*
X236499000Y-70026000D01*
X236499000Y-70026000D02*
X236525000Y-70000000D01*
X222723000Y-63698000D02*
X228000000Y-68975000D01*
X228000000Y-69551000D02*
X228475000Y-70026000D01*
%TO.N,/ESP32-C3-02/GPIO19*%
X248500000Y-69500000D02*
X250500000Y-67500000D01*
X227500000Y-70000000D02*
X228026000Y-70526000D01*
X227500000Y-69242462D02*
X227500000Y-70026000D01*
X222574648Y-64317110D02*
X227500000Y-69242462D01*
X228026000Y-70526000D02*
X236948000Y-70526000D01*
X222525000Y-64317110D02*
X222574648Y-64317110D01*
X236948000Y-70526000D02*
X236949000Y-70525000D01*
%TO.N,/ESP32-C3-02/RTS*%
X216500000Y-96500000D02*
X216500000Y-97587500D01*
X203500000Y-83500000D02*
X216500000Y-96500000D01*
X201500000Y-83500000D02*
X203500000Y-83500000D01*
D21*
%TO.N,Net-(Q3-B)*%
X218000000Y-99500000D02*
X218500000Y-100000000D01*
X222000000Y-100000000D02*
X222500000Y-100500000D01*
X218500000Y-100000000D02*
X222000000Y-100000000D01*
D19*
%TO.N,/ESP32-C3-02/DTR*%
X205500000Y-88500000D02*
X200924000Y-83924000D01*
X200924000Y-83924000D02*
X200924000Y-83261412D01*
X201260412Y-82925000D02*
X202000000Y-82925000D01*
X206500000Y-88500000D02*
X205500000Y-88500000D01*
X219500000Y-96562500D02*
X217899000Y-98163500D01*
X216163500Y-98163500D02*
X206500000Y-88500000D01*
X200924000Y-83261412D02*
X201260412Y-82925000D01*
X217899000Y-98163500D02*
X216163500Y-98163500D01*
%TO.N,Net-(U1-~{TE})*%
X189000000Y-96500000D02*
X185000000Y-96500000D01*
%TO.N,/CHARGED*%
X183500000Y-99500000D02*
X185500000Y-97500000D01*
X185500000Y-97500000D02*
X189500000Y-97500000D01*
X180000000Y-98500000D02*
X181000000Y-99500000D01*
X181000000Y-99500000D02*
X183500000Y-99500000D01*
%TO.N,/CHARGING_POWER_GOOD*%
X184500000Y-97000000D02*
X182500000Y-99000000D01*
X190000000Y-97000000D02*
X184500000Y-97000000D01*
D21*
%TO.N,/ESP32-C3-02/CS_SD*%
X253750000Y-76250000D02*
X253750000Y-62000000D01*
X252250000Y-76500000D02*
X253500000Y-76500000D01*
X253500000Y-76500000D02*
X253750000Y-76250000D01*
D19*
%TO.N,/ESP32-C3-02/PHOTO_C*%
X228975000Y-66500000D02*
X236500000Y-66500000D01*
X228500000Y-66025000D02*
X228975000Y-66500000D01*
D21*
%TO.N,/ESP32-C3-02/CS*%
X229750000Y-73250000D02*
X225125000Y-68625000D01*
X230000000Y-73250000D02*
X229750000Y-73250000D01*
D20*
X230000000Y-73250000D02*
X236502031Y-73250000D01*
X236502031Y-73250000D02*
X236520307Y-73268276D01*
%TO.N,/USB_DN*%
X205529999Y-94470001D02*
X203100000Y-96900000D01*
X205449998Y-94169999D02*
X205529999Y-94250000D01*
X203100000Y-96900000D02*
X203100000Y-97790000D01*
X205529999Y-94250000D02*
X205529999Y-94470001D01*
D19*
%TO.N,/ESP32-C3-02/RX_TX*%
X230000000Y-91000000D02*
X238500000Y-91000000D01*
X250000000Y-79500000D02*
X250000000Y-71257536D01*
X214000000Y-88500000D02*
X227500000Y-88500000D01*
X250003768Y-71253768D02*
X249918885Y-71338651D01*
X207674000Y-82174000D02*
X214000000Y-88500000D01*
X250000000Y-71257536D02*
X250003768Y-71253768D01*
X200500000Y-84500000D02*
X200473000Y-84473000D01*
X200473000Y-83027000D02*
X201326000Y-82174000D01*
X200473000Y-84473000D02*
X200473000Y-83027000D01*
X238500000Y-91000000D02*
X250000000Y-79500000D01*
X227500000Y-88500000D02*
X230000000Y-91000000D01*
X201326000Y-82174000D02*
X207674000Y-82174000D01*
%TO.N,/ESP32-C3-02/TX_RX*%
X200500000Y-81500000D02*
X199853554Y-82146446D01*
X208000000Y-81500000D02*
X200500000Y-81500000D01*
X228000000Y-88000000D02*
X214500000Y-88000000D01*
X249500000Y-72525000D02*
X249500000Y-79000000D01*
X249475000Y-72500000D02*
X249500000Y-72525000D01*
X214500000Y-88000000D02*
X208000000Y-81500000D01*
X199853554Y-82146446D02*
X199853554Y-84973440D01*
X230500000Y-90500000D02*
X228000000Y-88000000D01*
X249500000Y-79000000D02*
X238000000Y-90500000D01*
X238000000Y-90500000D02*
X230500000Y-90500000D01*
%TD*%
M02*
